<?xml version="1.0" encoding="utf-8"?>
<!-- Generator: Adobe Illustrator 20.1.0, SVG Export Plug-In . SVG Version: 6.00 Build 0)  -->
<svg version="1.1" id="Calque_1" xmlns="http://www.w3.org/2000/svg" xmlns:xlink="http://www.w3.org/1999/xlink" x="0px" y="0px"
	 viewBox="0 0 432 432" style="enable-background:new 0 0 432 432;" xml:space="preserve">
<style type="text/css">
	.st0{fill:#E30613;}
	.st1{fill:#F7A610;}
	.st2{fill:#2A8DB4;}
	.st3{fill:#E20D18;}
	.st4{fill:#CB9B3F;}
	.st5{fill:#E71D73;}
	.st6{fill:#A3195B;}
	.st7{fill:#E94545;}
	.st8{fill:#F18C8C;}
	.st9{fill:#DADADA;}
	.st10{fill:#52B796;}
	.st11{fill:#C6C6C6;}
	.st12{fill:#5C4D45;}
	.st13{fill:#E62D3A;}
	.st14{fill:#CB9A3E;}
	.st15{fill-rule:evenodd;clip-rule:evenodd;fill:#5C4D45;}
	.st16{fill:#E7D1A8;}
</style>
<g>
	<g>
		<g>
			<path class="st0" d="M112.1,206.5c2,1.9,4.3,3.3,6.8,4.1c2.5,0.8,5,1.2,7.5,1.1c2.4,0,4.7-0.7,6.8-2c2.2-1.3,4.1-2.8,5.7-4.5
				c-0.1,1.2-0.1,2.6-0.2,4.2c-0.1,1.6-0.3,3.3-0.5,5c-0.2,1.7-0.6,3.4-1,5.1c-0.4,1.7-1,3.2-1.8,4.5c-0.7,1.3-1.7,2.4-2.8,3.2
				c-1.1,0.8-2.4,1.2-3.9,1.2c-1.4,0-2.8-0.3-4.2-0.9c-1.4-0.6-2.7-1.4-3.8-2.5c-1.2-1.1-2.2-2.4-3.1-4c-0.9-1.6-1.5-3.4-1.7-5.4
				l-10.2,2.8c0.6,2.9,1.6,5.5,3.1,7.9c1.4,2.4,3.1,4.4,5.1,6c2,1.7,4.2,2.9,6.5,3.8c2.4,0.9,4.8,1.3,7.4,1.3c3.4,0,6.3-0.6,8.7-1.9
				c2.4-1.3,4.3-3,5.8-5.1c1.5-2.1,2.7-4.6,3.6-7.3c0.9-2.7,1.5-5.6,2-8.5c0.5-3,0.8-5.9,1-8.8c0.2-2.9,0.4-5.6,0.6-8
				c0.1-2.5,0.2-5.2,0.3-7.9c0.1-2.7,0.1-5.7,0.1-8.8c0-1.1,0-2.4,0-3.8c0-1.4,0-2.9-0.1-4.5c0-1.5-0.1-3.1-0.1-4.7
				c0-1.6-0.1-3.1-0.1-4.5l-9.9,1.1v5.4c-0.7-0.8-1.5-1.7-2.5-2.5c-0.9-0.8-2-1.5-3.2-2.1c-1.2-0.6-2.5-1.1-3.9-1.5
				c-1.4-0.4-3-0.6-4.7-0.6c-2.4,0-4.8,0.5-7.1,1.5c-2.4,0.9-4.5,2.4-6.5,4.4c-1.9,2-3.5,4.6-4.7,7.7c-1.2,3.2-1.8,7-1.8,11.5
				c0,4.1,0.6,7.7,1.9,10.6C108.4,202.2,110,204.6,112.1,206.5z M114.4,188c0.1-2.6,0.6-4.9,1.4-6.7c0.8-1.9,1.7-3.4,2.9-4.6
				c1.1-1.2,2.3-2.1,3.7-2.6s2.7-0.9,3.9-1c1.5-0.1,2.9,0.3,4.2,1.2c1.3,0.9,2.4,2,3.3,3.3c0.9,1.4,1.6,2.9,2.1,4.5
				c0.5,1.6,0.8,3.2,0.9,4.7c-0.1,1.5-0.3,3.2-0.8,4.9c-0.5,1.7-1.2,3.3-2.1,4.8c-0.9,1.5-2,2.8-3.3,3.8c-1.3,1-2.8,1.6-4.6,1.8h0.1
				c-1.6,0.1-3.1,0-4.6-0.6c-1.5-0.5-2.8-1.4-3.9-2.6c-1.1-1.2-2-2.7-2.6-4.5C114.4,192.5,114.2,190.4,114.4,188z"/>
			<path class="st0" d="M156.7,166.5l0.2,68.4l11.2-2c0-0.6,0-1.4-0.1-2.3c-0.1-0.9-0.1-2-0.1-3.1c0-1.1,0-2.3-0.1-3.4
				c0-1.2,0-2.3,0-3.4c0-2.8,0.1-5.9,0.2-9.2c0.1-3.3,0.4-6.6,0.8-9.9c0.4-3.3,0.9-6.5,1.6-9.6c0.7-3.1,1.6-5.8,2.8-8.2
				c1.1-2.4,2.5-4.4,4.2-5.8c1.7-1.5,3.6-2.3,5.8-2.4c1.4,0,2.7,0.4,3.9,1.3c1.2,0.9,2.3,2,3.3,3.4c1,1.4,1.8,2.9,2.5,4.5
				c0.7,1.6,1.2,3.1,1.6,4.5l9.3-4.2c-0.6-2.8-1.4-5.3-2.5-7.3c-1.1-2.1-2.3-3.8-3.7-5.3c-1.4-1.5-2.8-2.7-4.4-3.6
				c-1.5-0.9-3-1.6-4.5-2.1c-1.5-0.5-2.8-0.8-4.1-1c-1.3-0.1-2.3-0.2-3.2-0.1c-2.8,0.2-5.2,1-7.3,2.2c-2.1,1.2-3.9,2.8-5.4,4.7
				l0.6-7.4L156.7,166.5z"/>
			<path class="st0" d="M211.5,205.6c0.4,2.7,1.1,5.4,2,8.1c0.9,2.7,2,5.3,3.4,7.8c1.3,2.5,2.9,4.7,4.7,6.6c1.8,1.9,3.9,3.4,6.1,4.6
				c2.3,1.1,4.8,1.7,7.5,1.7c2.8,0,5.3-0.5,7.6-1.5c2.3-1,4.3-2.4,6.1-4.1c1.8-1.7,3.3-3.7,4.7-6c1.3-2.3,2.4-4.6,3.3-7.1
				c0.9-2.5,1.5-5,1.9-7.5c0.4-2.5,0.6-4.9,0.6-7.2c0-4-0.5-7.9-1.5-11.7c-1-3.8-2.6-7.2-4.6-10.1c-2.1-3-4.6-5.3-7.7-7.1
				c-3.1-1.8-6.7-2.7-10.8-2.7c-0.8,0-1.6,0-2.3,0.1c-0.7,0-1.5,0.1-2.2,0.2c-3.5,0.5-6.5,1.7-8.9,3.5c-2.5,1.8-4.5,3.9-6.1,6.5
				c-1.6,2.6-2.7,5.5-3.5,8.6c-0.7,3.2-1.1,6.5-1.1,9.8C210.8,200.4,211,202.9,211.5,205.6z M222.1,192.7c0.5-2.4,1.3-4.6,2.4-6.4
				c1-1.9,2.3-3.4,3.9-4.6c1.5-1.2,3.3-1.8,5.3-1.9c2.5-0.1,4.7,0.4,6.5,1.7c1.9,1.3,3.5,3,4.8,5.2c1.3,2.2,2.3,4.7,2.9,7.6
				s1,5.7,1,8.6c0,2.5-0.2,4.9-0.7,7.3c-0.5,2.4-1.3,4.6-2.3,6.5c-1,1.9-2.3,3.6-3.9,4.9c-1.6,1.3-3.4,2.1-5.5,2.5
				c-2.3,0.4-4.4-0.1-6.3-1.5c-1.9-1.4-3.5-3.3-4.8-5.7c-1.3-2.4-2.4-5.1-3.1-8.1c-0.7-3-1.1-5.9-1.1-8.7
				C221.3,197.5,221.6,195.1,222.1,192.7z"/>
			<path class="st0" d="M290.9,198.3c-0.1,5.8-0.3,10.6-0.7,14.4c-0.4,3.8-0.9,6.9-1.5,9.2c-0.6,2.3-1.1,4-1.7,5
				c-0.6,1-1.1,1.5-1.5,1.5c-1,0.1-2-0.6-2.9-2.1c-0.9-1.5-1.8-3.9-2.5-7.1c-0.7-3.2-1.3-7.4-1.7-12.5c-0.4-5.1-0.6-11.2-0.6-18.4
				c0-1.3,0-2.9,0-4.5c0-1.7,0.1-3.4,0.1-5.3c0-1.8,0.1-3.7,0.2-5.5c0.1-1.8,0.2-3.6,0.3-5.2l-12.2,2.5c0,2.9,0.1,6,0.2,9.5
				c0.1,3.4,0.3,7,0.5,10.6c0.2,3.6,0.5,7.3,0.9,11.1c0.4,3.7,0.9,7.3,1.5,10.8c0.6,3.4,1.3,6.7,2.2,9.7c0.9,3,1.9,5.7,3.2,8
				c1.2,2.3,2.6,4.2,4.2,5.6c1.6,1.4,3.4,2.2,5.5,2.5c2.2,0,4.4-0.8,6.5-2.5c2.2-1.7,4-4.4,5.4-8.3c0.4,1.4,1,2.8,1.8,4.1
				c0.7,1.3,1.6,2.4,2.6,3.3c1,0.9,2.2,1.7,3.5,2.2c1.3,0.5,2.9,0.7,4.6,0.6c1.9-0.2,3.8-1,5.7-2.3c1.9-1.3,3.6-3.5,5.1-6.5
				c1.5-3.1,2.7-7.2,3.6-12.4c0.9-5.2,1.4-11.9,1.4-20c0-3.8-0.1-8.1-0.4-12.8c-0.2-4.7-0.6-10-1-15.9l-10.9-1
				c0,0.4,0.1,1.1,0.1,1.8c0,0.8,0.1,1.6,0.1,2.4c0,0.8,0.1,1.7,0.1,2.5c0,0.8,0.1,1.6,0.1,2.2c0.2,3.9,0.5,8.1,0.8,12.8
				c0.3,4.6,0.4,9.3,0.4,14c0,3.3-0.1,6.4-0.3,9.3c-0.2,3-0.5,5.6-1,7.9c-0.5,2.3-1.1,4.2-1.9,5.7c-0.8,1.5-1.8,2.4-3.1,2.7
				c-1.2,0.3-2.1-0.3-2.9-1.7c-0.7-1.4-1.3-3.3-1.6-5.7c-0.3-2.3-0.6-4.9-0.7-7.6c-0.1-2.8-0.1-5.3-0.1-7.7v-7.5L290.9,198.3z"/>
		</g>
		<g>
			<path class="st1" d="M154.2,324.8c1.8-0.3,3.2-0.6,4.1-0.8c1.1-0.2,1.9-0.5,2.4-0.7l-3.8-75.8l-13.3-1.2
				c-0.1,2.5-0.2,5.9-0.4,10.3c-0.2,4.4-0.7,9.1-1.3,14.2c-0.6,5.1-1.4,10.2-2.3,15.4c-0.9,5.2-2.1,9.9-3.5,14
				c-1.4,4.2-3,7.5-4.8,10c-1.8,2.5-3.9,3.6-6.3,3.3c-1.6-0.5-3-1.9-4.1-4.5c-1.1-2.5-2-5.6-2.7-9.2c-0.7-3.7-1.2-7.6-1.4-12
				c-0.3-4.3-0.4-8.6-0.4-12.8c0-2.8,0.1-5.5,0.2-8.3c0.1-2.7,0.3-5.2,0.5-7.5c0.2-2.3,0.5-4.3,0.8-6c0.3-1.7,0.6-3.1,0.9-4
				l-11.9-3.4c-0.1,1.3-0.3,3.1-0.4,5.4c-0.2,2.3-0.4,4.9-0.6,7.8c-0.2,2.9-0.4,6-0.5,9.4c-0.1,3.3-0.2,6.7-0.2,10.1
				c0,3.6,0.1,7.2,0.3,10.9c0.2,3.7,0.6,7.2,1.1,10.6c0.5,3.4,1.3,6.6,2.2,9.6c0.9,3,2,5.6,3.4,7.8c1.4,2.2,3.1,4,5,5.3
				c1.9,1.3,4.2,2.1,6.8,2.2c3.2,0.2,6.1-0.3,8.6-1.5s4.7-2.9,6.6-5c1.9-2.1,3.5-4.6,4.9-7.5c1.4-2.9,2.5-6,3.4-9.2l-0.5,24.2
				C150.1,325.5,152.5,325.1,154.2,324.8z"/>
			<path class="st1" d="M217.4,275.8c0.1-0.6,0.1-1.2,0.1-1.8c0-0.7,0-1.2,0-1.8c0-4.6-0.6-8.5-1.7-11.8c-1.1-3.3-2.6-6-4.5-8.1
				c-1.9-2.1-4-3.8-6.3-4.9c-2.4-1.1-4.7-1.8-7.2-1.9c-1.9-0.2-3.8-0.1-5.6,0.3c-1.8,0.4-3.5,0.9-5,1.7c-1.6,0.8-3,1.7-4.4,2.7
				c-1.4,1-2.6,2.1-3.7,3.3v-7.4l-9.5,0.1v81.3L181,329c-0.1-5.5-0.2-11.3-0.4-17.4c-0.1-6.1-0.3-12.1-0.4-17.9
				c1.7,1.8,3.7,3.4,6,4.6c2.2,1.3,4.6,1.9,7.1,2c2.7,0.1,5.4-0.4,8.1-1.4c2.8-1,5.3-2.5,7.5-4.5c2.3-2,4.2-4.6,5.7-7.7
				C216.2,283.7,217.1,280,217.4,275.8z M206,279.2c-0.8,2-1.8,3.7-3.1,5.2c-1.2,1.5-2.7,2.7-4.3,3.5c-1.6,0.9-3.2,1.3-4.9,1.3
				c-1.8-0.3-3.5-1-5.1-2.2c-1.5-1.2-2.9-2.6-4-4.1c-1.1-1.5-2-3.1-2.6-4.7c-0.6-1.6-0.9-3-0.9-4.2c0.1-2.2,0.5-4.4,1.5-6.6
				c0.9-2.2,2.1-4.1,3.6-5.8c1.5-1.7,3.1-3,4.9-4c1.8-1,3.6-1.4,5.4-1.2c0.9,0.1,2,0.3,3.2,0.9c1.2,0.5,2.3,1.4,3.4,2.6
				c1.1,1.2,2,2.9,2.8,5c0.8,2.1,1.3,4.7,1.5,7.9C207.2,275.1,206.8,277.2,206,279.2z"/>
		</g>
		<g>
			<g>
				<path d="M232.7,252.7c0,0.2,0,1.2,0,1.4c0.5,1.5,2.5,2.2,3.9,2.2c2.4,0,3.5-2.6,3.5-4.8c0-0.2,0-0.8,0-0.8
					C238.8,245.5,232.7,247.7,232.7,252.7z"/>
				<path d="M238.7,263.5c0,0,0-0.4,0-0.5c0-0.2,0-0.7-0.5-0.7c-4.7-0.1-4.8-0.1-4.9-0.1c-0.9,0-1.8,22-1.8,22c0,0.3,0,2,0,2.4
					c0,0,0.1,0.1,0.1,0.1c1.5,0.4,3,0,4.5,0.1c0.6-0.1,0.7-0.3,0.7-0.9C238.2,271.3,238.6,264.9,238.7,263.5z"/>
				<path d="M256.2,271.4c0.2,0,0.5,0,0.5-0.1c0.5-1.8,0.8-2.6,0.8-4.4c0-0.5-0.2-1-0.9-1l-6.6-0.4c1.4-16.6,1.2-19.1,1.2-19.9
					c-6.1-0.2-6.2-0.1-6.4,0l-0.9,19.2l-2.4-0.1c-0.1,0-0.3,0.1-0.3,0.1v5.8c0,0,0.2,0.1,0.3,0.1c0.2,0,2.5,0.1,2.8,0.1
					c-2.1,15.3,4.1,16.6,10.5,16.6c0.7,0,2.3,0,2.3-0.7c0-1.4-0.2-3.2-0.2-4.4c-8,2.2-8.7-3.5-7.1-11.1L256.2,271.4z"/>
				<path d="M263.9,250.5c-2.1,0-3.5,1.3-3.5,3.3l0.5,8.8c0,0.1,0.3,1,0.6,1h1.2c0.7,0,1-1.5,1.1-1.9c1.7-6,1.8-7.4,1.8-8.7
					C265.6,252.1,265.2,250.5,263.9,250.5z"/>
				<path d="M265.6,268.7c0,3,4.6,5.7,7.3,6.1c3.1,0.5,5.4,1.1,5.4,4.7c0,2-1.9,3.6-3.8,3.6c-3.2,0-3.2-1.9-4.9-3.9
					c-0.2-0.1-0.3-0.1-0.5-0.1c-0.6,0-4,2.3-4,2.3c0,0.9,0.3,1.8,0.5,2.2c1.3,3.8,5,4.7,8.8,4.7c6.3,0,9.8-4.6,9.8-10.3
					c0-9.5-12.1-6.8-12.1-10.6c0-1.1,0.9-1.8,1.9-1.8c1.4,0,3.3,1.1,4.5,1.7l0.3,0.2h0.3c0.7,0,2.4-3.3,2.9-4.2c0,0,0-0.2,0-0.2
					c0-0.4-0.1-0.6-0.4-1l0,0c-1.6-1.9-4.2-2.1-6.5-2.1C270.2,259.8,265.6,263.4,265.6,268.7z"/>
			</g>
			<path d="M319.7,270.4c-0.2-5.1-1.8-10.4-8.2-10.4c-3.9,0-6.8,1.1-9.9,4.2c-0.3,0.4-1,1.1-1,1.6c0,0.1,3.5,2.9,3.5,2.9
				c1.8-1.3,3.4-3.5,6-3.5c3.1,0,4.1,6,3.5,6c-1.2,0-4.5,0.2-6.3,0.9c-4.8,1.7-7,5.6-7,10.2v0.3c0.1,2.9,2,5.6,5.6,5.6
				c2.3,0,4.7-0.1,6.5-1.3c0.9-0.5,1.1-1.1,1.8-1.6c1.1,0.5-0.3,2.4,1.4,2.4h0.2c3.1-0.3,3.8-1.2,4-1.7c0.2-5,0.2-10.1,0-15.1V270.4
				z M313.6,281.1c0,0.8-7.5,3.1-7.8,0.9c0-1-0.4-6.3,7-6.3c0.8,0,0.9,2.5,0.9,4.2V281.1z"/>
			<g>
				<path d="M249.3,308c-1.3,0-2.8,0.1-4.3,0.1c-1.5,0-3,0.1-4.4,0.1l-0.4-12.1l-4.4,0.2c0,1.9,0,3.8,0,5.9c0,2.1,0,4.1,0,6
					l-8.1,0.1l0.7,4.5c1.1,0,2.4,0,3.7,0c1.3,0,2.6,0,3.8,0l0.1,16.1l5.4-0.9c-0.1-2.4-0.2-4.9-0.3-7.5c-0.1-2.6-0.2-5.2-0.3-7.6
					l9.8,0L249.3,308z"/>
				<path d="M273.5,298.4c-0.6-0.7-1.3-1.3-2.1-1.7c-0.7-0.4-1.4-0.8-2.1-1c-0.7-0.2-1.3-0.4-1.9-0.5c-0.6-0.1-1.1-0.1-1.5-0.1
					c-1.3,0.1-2.5,0.5-3.4,1.1c-1,0.6-1.8,1.3-2.6,2.2l0.3-3.5l-6.1,0.6l0.1,32.3l5.3-1c0-0.3,0-0.6,0-1.1c0-0.4,0-0.9-0.1-1.5
					c0-0.5,0-1.1,0-1.6c0-0.6,0-1.1,0-1.6c0-1.3,0-2.8,0.1-4.3c0.1-1.5,0.2-3.1,0.4-4.7c0.2-1.6,0.4-3.1,0.8-4.5
					c0.3-1.5,0.8-2.7,1.3-3.9c0.5-1.1,1.2-2.1,2-2.8c0.8-0.7,1.7-1.1,2.8-1.1c0.7,0,1.3,0.2,1.9,0.6c0.6,0.4,1.1,1,1.6,1.6
					c0.5,0.6,0.8,1.4,1.2,2.1c0.3,0.8,0.6,1.5,0.8,2.1l4.4-2c-0.3-1.3-0.7-2.5-1.2-3.5C274.7,300,274.1,299.1,273.5,298.4z"/>
				<path d="M296.9,296c0,0.5,0,1,0.1,1.4c-0.8-0.8-1.6-1.4-2.5-1.8c-0.9-0.5-1.9-0.7-3-0.8c-1.5-0.1-2.8,0.1-3.9,0.6
					c-1.1,0.5-2.1,1.2-3,2.1c-0.9,0.9-1.6,2-2.3,3.2c-0.6,1.2-1.1,2.5-1.5,3.8c-0.4,1.3-0.7,2.6-0.9,3.9c-0.2,1.3-0.3,2.5-0.4,3.5
					c0,0.2,0,0.4,0,0.6c0,0.2,0,0.4,0,0.6c0,1.8,0.2,3.6,0.5,5.4c0.3,1.8,0.8,3.3,1.6,4.7c0.7,1.4,1.7,2.5,2.9,3.2
					c1.2,0.8,2.7,1.1,4.5,1c1-0.1,1.8-0.3,2.7-0.7c0.8-0.4,1.5-0.9,2.2-1.6c0.7-0.6,1.3-1.4,1.8-2.2c0.5-0.8,1-1.6,1.4-2.5v6.4
					l4.7-0.2l0.5-31.5l-5.3-0.5C296.8,295.1,296.9,295.5,296.9,296z M295,311.2c-0.1,1.2-0.4,2.5-0.8,3.9c-0.4,1.4-0.9,2.6-1.5,3.8
					c-0.6,1.2-1.2,2.1-1.9,2.9c-0.7,0.8-1.4,1.1-2.2,1.1c-0.6,0-1.2-0.2-1.8-0.5c-0.6-0.4-1.1-0.9-1.5-1.7c-0.4-0.8-0.8-1.8-1-3
					c-0.2-1.2-0.4-2.7-0.4-4.4c0-0.1,0-0.3,0-0.5c0-0.2,0-0.4,0-0.5c0.1-1.6,0.4-3.2,0.8-4.8c0.4-1.5,0.9-2.9,1.5-4.1
					c0.6-1.2,1.3-2.1,2.2-2.8c0.8-0.7,1.7-1.1,2.7-1.1c0.6,0.1,1.1,0.3,1.6,0.6c0.5,0.3,0.9,0.8,1.3,1.5c0.4,0.6,0.7,1.5,0.9,2.5
					c0.2,1,0.3,2.2,0.3,3.6C295.2,308.6,295.2,309.8,295,311.2z"/>
				<path d="M326.1,301.1c-0.5-1.3-1.1-2.5-2-3.3c-0.8-0.9-1.7-1.5-2.7-2c-1-0.5-2.1-0.7-3.1-0.8c-0.8-0.1-1.7,0-2.4,0.1
					c-0.8,0.2-1.5,0.4-2.2,0.7c-0.7,0.3-1.3,0.7-1.9,1.1c-0.6,0.4-1.1,0.9-1.6,1.4v-3.1l-4.1,0v33.4l5,0.6c0-2.3-0.1-4.7-0.2-7.2
					c-0.1-2.5-0.1-5-0.2-7.4c0.8,0.8,1.6,1.4,2.6,1.9c1,0.5,2,0.8,3.1,0.8c1.1,0,2.3-0.2,3.5-0.6c1.2-0.4,2.3-1,3.3-1.8
					c1-0.8,1.8-1.9,2.5-3.1c0.7-1.3,1.1-2.8,1.2-4.5c0-0.2,0-0.5,0-0.8c0-0.3,0-0.5,0-0.7C326.9,304.1,326.6,302.5,326.1,301.1z
					 M321.9,308.8c-0.4,0.8-0.8,1.5-1.3,2.1c-0.5,0.6-1.2,1.1-1.9,1.4c-0.7,0.4-1.4,0.5-2.1,0.5c-0.8-0.1-1.5-0.4-2.2-0.9
					c-0.7-0.5-1.2-1.1-1.7-1.7c-0.5-0.6-0.9-1.3-1.1-1.9c-0.3-0.7-0.4-1.2-0.4-1.7c0-0.9,0.2-1.8,0.6-2.7c0.4-0.9,0.9-1.7,1.5-2.4
					c0.6-0.7,1.3-1.2,2.1-1.6c0.8-0.4,1.5-0.6,2.3-0.5c0.4,0,0.9,0.1,1.4,0.4c0.5,0.2,1,0.6,1.5,1.1c0.5,0.5,0.9,1.2,1.2,2
					s0.6,1.9,0.6,3.3C322.4,307.1,322.2,308,321.9,308.8z"/>
			</g>
		</g>
		<g>
			<path class="st2" d="M139.7,77.3c0-0.1-0.4-0.5-0.5-0.6c-6.5-5.6-16.1-9.4-24.8-9.4l-6.6,0.2c-0.6,0.3-0.6,1.7-0.9,2.4l-1.7,82.3
				l0.2,0.3l14.4-0.2c25.6-1.7,29.1-26.2,29.1-47.1C148.8,97,146,82.4,139.7,77.3z M135.6,113.4c0,11.1-1.3,25.6-15.6,26.9h-0.4
				c-0.5,0-0.8-0.1-0.8-0.8c0.1-14.2,1.3-55.4,2.1-61.7h0.6c1,0,1.9,0.6,2.6,1.2c10.2,7.8,11.5,18.1,11.5,31.3V113.4z"/>
			<path class="st2" d="M194,98.4c-20.9-9.6-38.6,8.4-38.6,26.4c0,10.4,4.3,23.7,16.7,28.6c6.2,2.1,13.7,2.6,19.6,0.3
				c11.3-4.4,17.9-14.7,17.9-25.1C209.4,117.3,205.2,105.5,194,98.4z M195.5,127.4c0,0.8,0,1.7-0.2,2.5c-2.6-2.9-5.2-5.9-7.8-8.8
				c-3.3-3.7-7.5-7.5-9.7-12.1C185.2,106,195.5,113,195.5,127.4z M173.1,135.3c-1.5-3.5-2.8-7.1-2.8-10.8c0-2.2,0.2-4.1,0.6-5.8
				c1.9,2.6,4,5,6.2,7.5c4.2,4.8,8.5,9.5,12.7,14.3c-1.6,1.1-3.6,1.8-6.1,1.8C178.6,142.2,174.8,139.5,173.1,135.3z"/>
			<path class="st2" d="M252.3,97.2c-4.1,0-12.1,0.8-23,11.2c-0.5-1.6,0.5-11.9-1.7-11.9h-9.7c-0.9,0-1.8,0.7-1.8,1.5v56.8
				c0,0.3,0.1,1,0.1,1l0.6,0.8h3c3.4,0,6.2,0,9.5-0.3v-1.1c0-6.1-0.8-12.1-0.8-18.2c0-19.4,22.4-39.8,26-12.5l2.1,28.2
				c0,0.1,0.4,0.3,0.6,0.4l11.6-0.4c0.1,0,0.3-0.2,0.3-0.3l-2.1-38C266.3,105.9,261.6,97.2,252.3,97.2z"/>
			<path class="st2" d="M283.4,73.2c-4.7,0-7.9,3-7.9,7.5l1.2,19.9c0.1,0.2,0.8,2.2,1.3,2.2h2.8c1.6,0,2.2-3.4,2.5-4.2
				c3.9-13.6,4.1-16.7,4.1-19.6C287.4,76.8,286.3,73.2,283.4,73.2z"/>
			<path class="st2" d="M307.2,120l14.8,0.4c0.4,0,1.1,0.1,1.1-0.3c1.1-4.1,1.7-5.8,1.7-10c0-1.1-0.4-2.2-2.1-2.3l-14.9-1
				c3.2-37.4,2.8-43,2.7-44.8c-13.7-0.4-14.1-0.2-14.4,0.1l-1.9,43.3l-5.5-0.2c-0.2,0-0.6,0.2-0.6,0.2v13c0,0,0.4,0.3,0.6,0.3
				c0.4,0.1,5.7,0.3,6.3,0.3c-4.7,34.4,9.2,37.4,23.7,37.4c1.5,0,5.1,0,5.1-1.6c0-3.1-0.5-7.2-0.5-9.8
				C305.2,149.9,303.6,137.2,307.2,120z"/>
		</g>
	</g>
	<path class="st2" d="M120.9,369.8c8.4,0,13.6-9.5,13.6-16.9c0-9.3-6.6-13.9-15-13.9c-8.1,0-14.3,7.1-14.3,14.7
		C105.1,362.3,112.5,369.8,120.9,369.8z"/>
	<path class="st0" d="M184.6,344.6c-5.8,6.1-2.5,16.4,2.8,21.5c6.8,6.5,14.6,4.8,20.5-1.2c5.6-5.8,4.7-15.3-0.7-20.5
		C200.9,338.4,190.4,338.5,184.6,344.6z"/>
	<path d="M145.4,363.7c4.6,7.1,15.4,6.2,21.5,2.2c7.8-5.1,8.1-13.1,3.5-20.2c-4.4-6.8-13.8-8.1-20.1-4
		C143.1,346.4,140.8,356.6,145.4,363.7z"/>
	<path class="st1" d="M236.1,369.8c8.4,0,13.6-9.5,13.6-16.9c0-9.3-6.6-13.9-15-13.9c-8.1,0-14.3,7.1-14.3,14.7
		C220.3,362.3,227.7,369.8,236.1,369.8z"/>
	<path class="st3" d="M299.8,344.6c-5.8,6.1-2.5,16.4,2.8,21.5c6.8,6.5,14.6,4.8,20.5-1.2c5.6-5.8,4.7-15.3-0.7-20.5
		C316.1,338.4,305.6,338.5,299.8,344.6z"/>
	<path class="st2" d="M260.6,363.7c4.6,7.1,15.4,6.2,21.5,2.2c7.8-5.1,8.1-13.1,3.5-20.2c-4.4-6.8-13.8-8.1-20.1-4
		C258.3,346.4,256,356.6,260.6,363.7z"/>
</g>
</svg>
