<?xml version="1.0" encoding="utf-8"?>
<!-- Generator: Adobe Illustrator 21.1.0, SVG Export Plug-In . SVG Version: 6.00 Build 0)  -->
<svg version="1.1" id="Calque_1" xmlns="http://www.w3.org/2000/svg" xmlns:xlink="http://www.w3.org/1999/xlink" x="0px" y="0px"
	 viewBox="0 0 432 432" style="enable-background:new 0 0 432 432;" xml:space="preserve">
<style type="text/css">
	.st0{fill:#437797;}
	.st1{fill:#CE7278;}
	.st2{fill:#5E84A1;}
	.st3{fill:#264B6E;}
	.st4{fill:#AF4650;}
	.st5{fill:#B31917;}
	.st6{fill:#07672F;}
	.st7{fill:#020203;}
	.st8{fill:#A3282E;}
	.st9{fill:#EAA35C;}
	.st10{fill:#014837;}
	.st11{fill:#921D25;}
	.st12{fill:#603914;}
	.st13{fill:#A67D52;}
	.st14{fill:#FFFFFF;}
	.st15{fill:#E52629;}
	.st16{fill:#C61622;}
	.st17{fill:#C69C6C;}
	.st18{fill:#0D71B9;}
	.st19{fill:#EB5B28;}
</style>
<g>
	<path class="st5" d="M104,181.9c-1.3,0.7-2.5,1.5-3.8,2.3c-3.3,1.9-6.4,4-9.4,6.4c-1.7,1.4-3.4,2.9-4.8,4.7c-1,1.4-1.4,3-1.2,4.7
		c0.3,3,3.6,5.1,6.4,3.4c0.5-0.3,1-0.6,1.5-1c1.2-0.9,2.3-2,3.2-3.2c1.4-1.8,2.5-3.7,3.6-5.7c2.1-3.7,3.6-7.7,5.2-11.6
		c0-0.1,0-0.1,0-0.3C104.4,181.6,104.2,181.7,104,181.9z"/>
	<path class="st5" d="M123,164.7c0,0.1-0.1,0.3-0.1,0.4c1.1-0.6,2.1-1.3,2.9-2.2c1.8-2,3.7-4,5.4-6.1c2.5-3.1,4.4-6.6,6.2-10.2
		c0.9-1.7,1.7-3.5,2.2-5.3c0.1-0.2,0.1-0.5,0.1-0.7c-0.1,0-0.2,0-0.3,0c-1.8,0.2-3.7,0.4-5.5,0.6c-0.2,0-0.5,0.2-0.6,0.4
		c-0.8,1.1-1.6,2.2-2.2,3.3c-1.8,3.3-3.5,6.7-4.8,10.2C125.2,158.3,124.1,161.5,123,164.7z"/>
	<path class="st5" d="M140,136.8c-0.2-0.7-0.5-0.8-1.1-0.5c-1.3,0.5-2.3,1.5-3.2,2.7c1.5,0,3-0.2,4.6-0.4
		C140.1,137.9,140.1,137.3,140,136.8z"/>
	<path class="st5" d="M147.8,168.2c0.1-0.3,0.1-0.7,0-1c-0.1-0.4-0.3-0.5-0.7-0.3c-0.2,0.1-0.3,0.2-0.5,0.3
		c-1.3,0.9-2.1,2.3-2.7,3.8c0.4-0.1,0.8-0.1,1.1-0.2C146.3,170.3,147.4,169.5,147.8,168.2z"/>
	<path class="st5" d="M159.5,160.9c-0.1-0.5-0.1-1-0.5-1.2c-0.5-0.2-0.8,0.1-1.2,0.3c0,0-0.1,0.1-0.1,0.1c-1.2,1.2-2.1,2.5-2.3,4.2
		c-0.1,0.5,0,1,0.1,1.4c0.2,0.6,1,0.7,1.3,0.2c0.7-1.1,1.4-2.1,2-3.2C159.1,162.2,159.3,161.6,159.5,160.9z"/>
	<path class="st5" d="M189,259.1c-1.9,1.2-3.6,2.6-5,4.3c-2.2,2.7-3.5,5.8-3,9.3c0.2,1.6,0.8,3,1.8,4.2c0.6,0.7,1.1,0.8,1.9,0.3
		c0.8-0.5,1.4-1.1,2-1.8c1.1-1.3,2-2.8,2.7-4.4c2.4-5,4.5-10.1,6.4-15.4c0.1-0.2,0.1-0.3,0.2-0.6c-0.2,0.1-0.3,0.1-0.5,0.2
		C193.3,256.6,191.1,257.8,189,259.1z"/>
	<path class="st5" d="M176,167c0.1-0.2,0.1-0.5-0.2-0.8c-1.3,0.8-2,2.1-3,3.3C174.5,169.6,175.8,168,176,167z"/>
	<path class="st5" d="M235.4,248.5c-1.3,0.6-2.4,1.4-3.3,2.5c-0.3,0.4-0.5,0.9-0.7,1.3c-0.1,0.3-0.1,0.7,0,1.1
		c0.7,1.5,2.6,1.8,3.5,0.4c0.5-0.7,0.7-1.5,0.9-2.3c0.2-1,0.2-2-0.1-3.1C235.6,248.5,235.5,248.5,235.4,248.5z"/>
	<path class="st5" d="M129.5,141.9c0.1-0.1,0.1-0.2,0.2-0.4c-2.7-0.2-5.3-0.3-8-0.5c-0.1,0.4-0.3,0.8-0.4,1.2
		c-2.2,5.7-3.9,11.6-5.7,17.5c-1.6,5.2-3,10.6-4.9,15.8c-0.1,0.1-0.1,0.3-0.1,0.5c0.2-0.1,0.3-0.1,0.4-0.2c2.1-1.3,4.1-2.6,6.2-3.9
		c0.3-0.2,0.4-0.4,0.4-0.7c0.2-1.3,0.4-2.6,0.8-3.8c1-3.9,2.4-7.6,4-11.3C124.3,151.1,126.6,146.3,129.5,141.9z"/>
	<path class="st5" d="M208.7,176.5c-1,0.5-2,1.1-2.7,2c-0.5,0.6-0.9,1.2-0.7,2c0.2,1,0.9,1.3,1.7,0.7c1.4-1.1,2-2.5,1.9-4.3
		C208.9,176.7,208.8,176.6,208.7,176.5z"/>
	<path class="st5" d="M210.4,163.8c0.1-0.4,0.2-0.8,0.2-1.2c0-0.7-0.5-0.9-1-0.6c-0.6,0.4-1,0.9-1.1,1.6c-0.1,0.9,0,1.7,0.4,2.6
		C209.5,165.6,210.2,164.6,210.4,163.8z"/>
	<path class="st5" d="M377.2,159.9c0-2.1-0.1-4.2-0.3-6.3c-0.2-3-0.5-6-0.9-9c-0.3-2.8-0.7-5.7-1.2-8.5c-1.1-5.5-2.5-10.8-4.3-16.1
		c-1.6-4.7-3.5-9.3-5.7-13.7c-4.4-8.8-10.5-16.4-17.9-22.9c-4.4-3.8-9.3-6.9-14.4-9.6c-6.4-3.3-13.2-5.5-20.3-6.6
		c-4.5-0.7-9.1-0.9-13.7-0.7c-2,0.1-4,0.3-6,0.4c-4.9,0.3-9.7,0.9-14.5,1.9c-6.9,1.5-13.6,3.7-19.9,7.1c-5.3,2.9-10.3,6.3-15,10.1
		c-4,3.3-7.6,6.9-10.6,11.1c-0.6,0.9-1.3,1.8-2,2.7c-1.6,2-3.1,4.2-4.4,6.4c-0.4,0.7-0.8,1.4-1.3,2.1c-2.3,3.7-4.5,7.3-6.4,11.2
		c-0.6,1.3-1.3,2.5-2,3.9c-0.1-0.3-0.2-0.5-0.2-0.6c-0.5-2-1.4-3.8-2.3-5.6c-2.7-5.3-6.3-9.9-10.3-14.3c-2.2-2.4-4.6-4.7-6.9-7
		c-1.4-1.4-2.8-2.9-4.3-4.1c-3-2.4-6-4.6-9.1-6.9c-3.8-2.8-8-5-12.3-7.1c-5.7-2.7-11.4-5.2-17.6-6.8c-5.3-1.4-10.7-2.4-16.2-2.7
		c-4.5-0.3-9-0.2-13.4,0.4c-3.5,0.5-7,1.3-10.4,2.3c-4.4,1.2-8.8,2.7-12.8,4.8c-7.2,3.7-13.7,8.3-19.4,14c-2.9,2.9-5.8,6-8,9.5
		c-2.9,4.6-5.6,9.3-7.9,14.2c-0.9,1.9-1.7,3.8-2.7,5.7c-1.9,3.7-3.1,7.6-4.1,11.6c-0.5,2.2-0.9,4.4-1.4,6.6c-1,4-1.8,8.1-2,12.2
		c-0.2,3.3-0.3,6.7-0.4,10c-0.1,3.7-0.1,7.4,0.4,11.1c0.7,5.4,1.7,10.7,3.1,15.9c0.8,3.1,1.8,6.2,2.7,9.2c1.4,4.9,2.9,9.7,4.7,14.5
		c3.3,8.6,7.3,16.8,11.9,24.8c4.9,8.6,10.1,16.9,16.1,24.8c7.3,9.6,15.5,18.3,24.2,26.5c7.6,7.2,15.6,14.1,23.6,20.8
		c7.3,6.1,14.6,12.2,21.9,18.2c6.3,5.2,12.8,10.1,19.1,15.3c9.5,7.7,19.1,15.1,29.2,21.9c1.4,0.9,2.8,1.8,4.3,2.5
		c1.8,0.9,3.6,0.9,5.4,0c0.9-0.5,1.8-1,2.6-1.6c1-0.7,2-1.4,2.9-2.2c3-2.4,6-4.9,9.1-7.3c7.1-5.5,14-11.3,20.8-17.2
		c3.3-2.9,6.5-6,9.7-9.1c8.4-8.1,16.8-16.2,25.2-24.4c5.3-5.2,10.5-10.6,15.8-15.8c8-7.9,15.5-16.2,22.8-24.7
		c4.6-5.5,9.2-11,13.9-16.4c7.1-8.4,13-17.6,17.8-27.6c3.3-6.9,6.2-13.9,8.7-21.1c2-5.8,3.8-11.6,5-17.6c0.7-3.5,1.3-7,1.4-10.6
		C377.3,166.2,377.2,163.1,377.2,159.9z M309,162c1,0,1.9,0.8,1.8,1.8c0,1.1-0.8,1.9-1.9,1.9c-1.1,0-1.6-0.7-1.7-1.9
		C307.2,162.8,308.1,162,309,162z M199.1,162.3c0.8,0,1.5,0.8,1.6,1.5c0,0.8-0.7,1.4-1.5,1.4c-0.8,0-1.4-0.5-1.4-1.3
		C197.7,163,198.3,162.3,199.1,162.3z M194.3,174.1c0.3-1,0.6-2,1-2.9c0.4-1,1-2,1.6-2.9c0.2-0.3,0.5-0.6,0.8-0.8
		c0.6-0.4,1.3,0,1.3,0.8c0,0.2,0,0.4-0.1,0.6c-0.3,0.9-0.6,1.9-0.9,2.8c-0.5,1.4-0.9,2.8-0.9,4.3c0,0.3,0.1,0.6,0.1,0.9
		c0.7-0.1,1.2-0.4,1.7-0.8c1.2-0.9,2.4-1.8,3.6-2.7c1.3-1.1,2.5-2.4,3.8-3.5c0.3-0.3,0.4-0.6,0.2-1.1c-0.6-1.7-0.7-3.4-0.2-5.1
		c0.4-1.4,1.3-2.4,2.8-2.9c0.6-0.2,1.1-0.2,1.7,0.1c0.8,0.4,1.2,1,1.2,1.8c0,1-0.3,1.9-0.8,2.8c-0.5,0.8-1,1.6-1.5,2.4
		c0.7,1.8,1.5,3.5,2.2,5.3c0.1,0,0.3-0.1,0.5-0.1c1.9-0.8,3.8-1.6,5.7-2.5c1-0.5,1.9-1.3,2.8-1.9c0.4-0.3,0.8-0.6,0.8-1.2
		c0-0.2,0.3-0.4,0.4-0.4c0.2,0,0.4,0.1,0.6,0.2c0.3,0.3,0.3,0.6,0.1,0.9c-0.2,0.4-0.5,0.9-0.8,1.2c-1,1.1-2.2,2.1-3.6,2.7
		c-1.6,0.8-3.3,1.5-5,2.2c-0.4,0.2-0.7,0.3-1.2,0.5c0.1,0.4,0.1,0.7,0.2,1c0.4,3-0.4,5.5-2.7,7.5c-0.7,0.6-1.6,1-2.6,1.1
		c-1.5,0.1-2.8-0.5-3.6-1.7c-0.9-1.3-1-2.7-0.2-4.1c0.5-0.9,1.2-1.7,2-2.2c1-0.6,2.1-1.2,3.1-1.8c0-0.7-0.7-2.7-1.3-3.6
		c-0.2,0.2-0.4,0.4-0.6,0.6c-2.1,2.1-4.2,4.2-6.3,6.2c-0.4,0.4-0.9,0.8-1.4,1.1c-0.4,0.3-0.9,0.5-1.4,0.5c-1.6,0.2-2.7-0.7-3.1-2.2
		C194,176.1,194.1,175.1,194.3,174.1z M159.6,238.7c-0.1,0.2-0.2,0.4-0.4,0.5c-3.9,3.8-7.5,7.9-11.2,11.9c-0.5,0.5-1,0.9-1.5,1.3
		c-0.9,0.6-1.8,0.9-2.9,0.6c-1-0.3-1.7-1-2.1-2c-0.4-1-0.5-2-0.4-3.1c0.1-0.8,0.2-1.5,0.3-2.4c-0.2,0.2-0.4,0.3-0.6,0.4
		c-2,1.6-3.9,3.2-5.9,4.8c-0.4,0.3-0.8,0.6-1.2,0.9c-1.1,0.6-2.2,0.4-2.9-0.6c-0.4-0.5-0.6-1-0.8-1.6c-0.3-0.8-0.4-1.6-0.6-2.5
		c-0.3-1.1-0.7-1.3-1.7-0.7c-0.6,0.3-0.8,1-1,1.6c-0.2,1.1-0.4,2.2-0.6,3.3c-0.1,0.4-0.2,0.8-0.4,1.1c-0.5,0.8-1.3,0.9-1.9,0.2
		c-0.4-0.5-0.6-1.1-0.5-1.8c0.1-1.7,0.2-3.5,0.6-5.2c0.2-1,0.4-2.1,0.6-3.2c-0.3,0.2-0.4,0.3-0.6,0.5c-2.8,2.6-5.6,5.2-8.4,7.7
		c-0.4,0.4-0.8,0.7-1.3,1c-0.5,0.3-1,0.5-1.6,0.5c-1.1,0-2-0.7-2.3-1.7c-0.2-0.8-0.1-1.5,0.1-2.2c0.1-0.6,0.3-1.2,0.5-1.8
		c-0.1,0-0.2,0-0.2,0.1c-2.2,1.6-4.4,3.2-6.6,4.7c-0.6,0.5-1.3,0.9-2,1.3c-0.5,0.3-1.1,0.4-1.7,0.3c-0.9-0.1-1.5-0.6-1.9-1.3
		c-0.3-0.6-0.5-1.3-0.5-2c-0.2-2,0-3.9,0.3-5.8c0.6-3.9,1.4-7.8,2.6-11.6c1.2-3.6,2.3-7.3,4-10.8c1.4-3,3-5.9,5.2-8.5
		c1.1-1.3,2.2-2.4,3.6-3.4c0.7-0.5,1.5-0.9,2.4-1.1c1.2-0.2,2,0.1,2.7,1c0.6,0.9,0.7,1.9,0.6,3c-0.2,1.2-0.5,2.4-1,3.6
		c-1.9,4.7-4.3,9.1-7.4,13.2c-2.1,2.8-4.6,5.1-7.4,7.1c-0.6,0.4-0.9,0.9-1,1.6c-0.7,3.2-1.3,6.3-1.6,9.6c-0.1,0.9,0,1.8,0,2.7
		c0,0.2,0.1,0.4,0.2,0.7c0.8-0.1,1.4-0.4,2-0.7c1.3-0.9,2.7-1.8,4-2.6c1.4-0.9,2.8-1.9,4.3-2.8c0.5-0.3,0.9-0.7,1.1-1.3
		c0.4-0.8,0.8-1.7,1.2-2.5c0.1-0.3,0.3-0.5,0.6-0.7c0.2-0.2,0.5-0.3,0.8-0.1c0.3,0.2,0.5,0.4,0.4,0.7c-0.1,0.5-0.1,1-0.3,1.4
		c-0.4,1.3-0.9,2.6-1.4,4c-0.3,1-0.6,1.9-0.8,2.9c-0.1,0.4-0.1,0.8-0.1,1.2c0.4,0.2,0.8,0.1,1-0.1c0.7-0.5,1.5-1,2.2-1.5
		c2.9-2.5,5.7-5,8.6-7.5c0.2-0.2,0.4-0.4,0.4-0.7c1.6-6.3,4-12.3,6.6-18.3c1.4-3.3,3-6.5,4.8-9.6c0.9-1.5,1.8-3,3.1-4.3
		c0.6-0.6,1.1-1.1,1.9-1.4c1.3-0.6,2.3-0.2,3.1,1c0.6,1,0.8,2,0.8,3.2c-0.1,1.9-0.5,3.7-1.2,5.4c-1.5,3.4-3.1,6.8-4.9,10.1
		c-1.1,2.2-2.6,4.1-4.2,6c-1.2,1.3-2.4,2.6-3.6,3.9c-0.7,0.7-1.5,1.4-2.2,2c-0.2,0.2-0.4,0.4-0.5,0.7c-0.4,2-0.8,3.9-1.2,5.9
		c0,0.1,0,0.2,0,0.4c0.2-0.2,0.3-0.4,0.3-0.5c1-1.6,2.2-3,3.6-4.3c0.7-0.6,1.4-1.1,2.2-1.6c0.6-0.4,1.4-0.7,2.2-0.7
		c1.2-0.1,2,0.7,1.8,1.9c-0.1,0.5-0.3,0.9-0.6,1.3c-0.7,1-1.6,1.7-2.7,2.2c-1.2,0.6-2.3,1.2-3.6,1.8c1,1.2,1.2,2.6,1.7,4
		c0.1,0.4,0.4,0.7,0.6,1.2c0.4-0.2,0.7-0.4,1-0.6c1-0.7,2-1.4,3-2.1c1.5-1.1,3-2.1,4.5-3.1c0.4-0.3,0.7-0.6,0.8-1.1
		c0.4-1.2,1-2.3,1.7-3.3c0.6-0.9,1.4-1.7,2.3-2.4c0.5-0.4,1.1-0.7,1.7-0.8c1.3-0.2,2.5,0.6,2.5,2c0.1,1.5-0.6,2.7-1.8,3.6
		c-0.8,0.6-1.8,0.9-2.8,1c-0.3,0-0.5,0-0.8,0c-0.5,1.2-0.8,2.4-1,3.7c-0.1,0.9-0.2,1.8,0,2.7c0,0.1,0.1,0.3,0.1,0.4
		c0.2,0.5,0.4,0.7,1,0.5c0.3-0.1,0.7-0.3,0.9-0.5c0.9-0.7,1.7-1.4,2.5-2.2c2.9-3,5.9-6,9-8.7c0.3-0.3,0.7-0.6,1-0.9
		c0.2-0.1,0.4-0.2,0.6-0.3C159.5,238.1,159.7,238.4,159.6,238.7z M117.2,236.3c0,0.8-0.8,1.5-1.8,1.6c-0.8,0-1.3-0.5-1.3-1.3
		c0-0.8,0.8-1.7,1.6-1.7C116.4,234.8,117.2,235.6,117.2,236.3z M170.9,180.1c-1.3-0.1-2.2-0.8-2.8-1.9c-0.5-0.9-0.6-1.9-0.6-2.8
		c0-0.2,0-0.4,0-0.6c-0.2,0.1-0.4,0.2-0.5,0.4c-1.2,1-2.4,2-3.6,3c-1.4,1.1-2.9,2.2-4.4,3.2c-0.6,0.4-1.3,0.6-2,0.7
		c-1.8,0.3-3-0.7-3.1-2.5c-0.1-1.3,0.4-2.5,0.9-3.6c1.4-2.7,3.2-5.2,5.2-7.5c0.2-0.2,0.3-0.4,0.6-0.7c-0.3,0-0.4,0-0.6,0
		c-0.4,0.1-0.8,0.1-1.1,0.2c-0.6,0.1-1.3,0.1-1.7,0.3c-0.5,0.3-0.7,0.9-1.1,1.3c-2.5,3.1-5.2,5.9-8.1,8.5c-0.9,0.8-1.9,1.6-3.1,2.1
		c-0.7,0.3-1.5,0.5-2.3,0.5c-1.8-0.1-3.1-1.2-3.3-3c-0.1-0.4-0.1-0.9-0.1-1.4c-0.2,0.1-0.3,0.2-0.4,0.3c-4.3,4.4-8.4,8.9-11.6,14.2
		c-0.3,0.6-0.7,1.1-1.2,1.6c-0.5,0.6-1.2,0.9-2,0.7c-0.8-0.2-1.1-0.9-1.3-1.6c-0.2-1.2,0-2.4,0.3-3.6c0.7-2.9,1.9-5.7,3.1-8.4
		c1.5-3.3,3.2-6.6,4.7-9.9c0.4-0.9,0.8-1.7,1-2.8c-0.3,0.1-0.6,0.1-0.9,0.2c-0.6,0.3-1.1,0.6-1.7,1c-1.8,1.3-3.3,2.9-4.6,4.6
		c-1.5,2.1-3,4.2-4.4,6.4c-0.2,0.3-0.3,0.7-0.3,1.1c-0.1,1.1-0.2,2.1-0.3,3.2c0,0.2-0.1,0.5-0.2,0.7c-0.2,0.6-0.7,0.9-1.3,0.9
		c-0.6,0-1.1-0.4-1.2-1c-0.1-0.6-0.2-1.1-0.2-1.7c-0.1-2.2,0-4.4,0.3-6.6c0.1-0.6,0.1-1.3,0.2-2c-0.2,0.1-0.4,0.1-0.5,0.2
		c-2.2,1.4-4.3,2.8-6.4,4.2c-0.4,0.3-0.7,0.6-0.9,1.1c-1.7,4.1-3.4,8.1-5.2,12.2c-1.4,3.2-3.2,6.1-5.2,8.9c-1.3,1.8-2.8,3.4-4.6,4.6
		c-1.2,0.9-2.5,1.5-4,1.8c-3,0.6-7.5-1.6-7.8-6c-0.2-2.5,0.5-4.8,2.1-6.8c1.4-1.8,3.1-3.3,4.9-4.7c4.5-3.5,9.5-6.3,14.5-9
		c2.4-1.3,1.7-0.6,2.7-3.2c1.9-5.1,3.5-10.3,5.1-15.4c1.3-4.1,2.6-8.2,4-12.3c0.9-2.6,2-5.2,3-7.8c0.1-0.2,0.2-0.5,0.3-0.8
		c-0.6-0.1-1.1-0.2-1.6-0.2c-4.1-0.5-8.2-1.1-12.3-1.5c-5-0.4-9.7,0.5-14.2,2.9c-4.4,2.3-7.8,5.5-10.6,9.5c-0.6,0.9-1.2,1.8-1.7,2.7
		c-1.6,2.6-2.3,5.4-2.2,8.4c0,2.6,1,4.9,3,6.5c1.6,1.3,3.4,1.7,5.4,1.1c0.3-0.1,0.6-0.3,0.8-0.5c0.3-0.2,0.5-0.3,0.8-0.1
		c0.3,0.2,0.4,0.5,0.3,0.8c-0.2,0.8-0.8,1.3-1.4,1.6c-0.6,0.3-1.2,0.5-1.8,0.5c-3,0.2-5.5-0.9-7.3-3.3c-2.1-2.8-2.7-5.9-2.4-9.3
		c0.2-2.2,0.9-4.3,1.9-6.3c2.4-4.4,5.4-8.4,9.5-11.4c4.3-3.2,9.1-5.2,14.5-5.8c3.3-0.3,6.6-0.2,9.9,0.3c4,0.6,7.9,1.3,11.9,1.8
		c3,0.4,6.1,0.6,9.1,0.9c0.5,0,0.8-0.1,1.2-0.5c1.1-1.1,2.2-2.2,3.3-3.3c0.5-0.4,1.1-0.8,1.8-1c2.4-1,4.3,0.5,4.7,2.7
		c0.1,0.3,0.1,0.7,0.2,1.1c0.2,0,0.4,0,0.6-0.1c2.1-0.4,4.2-1.1,6.1-2.1c0.3-0.2,0.6-0.3,0.9-0.4c0.2,0,0.5,0.1,0.6,0.2
		c0.1,0.1,0,0.4-0.1,0.6c-0.2,0.3-0.5,0.5-0.7,0.7c-1.8,1.4-3.9,2.2-6.1,2.7c-0.5,0.1-0.9,0.2-1.4,0.4c-0.1,0.2-0.1,0.3-0.1,0.5
		c-0.4,1.8-1,3.5-1.9,5c-1.3,2.3-2.6,4.6-3.9,6.8c-2.4,3.9-5.4,7.3-8.6,10.6c-1.2,1.2-2.6,2.3-4.1,3.2c-0.4,0.3-0.7,0.6-0.8,1.1
		c-0.8,2.9-1.5,5.9-1.8,9c0,0.2,0,0.4,0,0.7c0.3-0.4,0.4-0.6,0.6-0.8c1.6-2.4,3.2-4.8,5.2-6.9c1-1,2-1.9,3.1-2.7
		c0.6-0.4,1.3-0.8,1.9-1c1.4-0.5,2.3,0.2,2.4,1.6c0,1.1-0.1,2.1-0.5,3.1c-0.8,2.3-1.7,4.6-2.6,6.9c-1.3,3.5-2.7,7-4.1,10.4
		c-0.1,0.2-0.1,0.5-0.1,0.8c0.2-0.2,0.4-0.4,0.5-0.7c2-2.5,3.9-5,6-7.4c1.8-2,3.7-3.9,5.6-5.9c0.8-0.8,1.5-1.6,2-2.7
		c0.7-1.6,1.7-3,2.9-4.3c0.8-0.8,1.7-1.4,2.8-1.9c0.6-0.2,1.1-0.4,1.7-0.1c0.9,0.4,1.4,1.5,1.1,2.6c-0.2,0.9-0.7,1.7-1.4,2.3
		c-1.2,1-2.5,1.5-4.1,1.5c-0.1,0.2-0.2,0.4-0.3,0.5c-0.6,1.3-0.8,2.8-0.9,4.2c0,0.2,0,0.5,0,0.7c0.1,0.7,0.4,0.9,1,0.9
		c0.9-0.1,1.7-0.4,2.4-0.9c1-0.8,2.1-1.6,3-2.5c2.1-1.9,4-3.8,5.8-6c0.2-0.3,0.4-0.6,0.6-0.8c0-0.1-0.1-0.2-0.1-0.2
		c-1.6-0.6-1.9-2.3-1.6-3.6c0.4-2.2,1.6-4,3.5-5.3c0.2-0.1,0.4-0.2,0.6-0.3c1.6-0.7,3.1,0.2,3.3,1.9c0.1,0.9,0,1.8-0.4,2.6
		c-0.4,0.9-0.9,1.7-1.4,2.5c-0.1,0.2-0.3,0.4-0.5,0.8c1.1-0.1,2-0.2,2.9-0.3c0.2,0,0.4-0.1,0.6-0.1c0.9,0,1.6,0.6,1.4,1.5
		c-0.1,0.6-0.3,1.3-0.6,1.8c-0.8,1.5-1.7,3-2.6,4.4c-0.8,1.3-1.6,2.6-2.3,3.9c-0.3,0.6-0.6,1.2-0.6,1.9c0.6-0.1,1.1-0.4,1.5-0.7
		c1.5-1,3-2.1,4.5-3.2c1.5-1.1,3-2.2,4.5-3.3c0.4-0.3,0.6-0.6,0.8-1c1-2.2,2.6-4.1,4.5-5.6c0.5-0.4,1.2-0.7,1.8-1
		c0.3-0.1,0.6-0.2,1-0.2c0.9,0,1.5,0.5,1.6,1.4c0,0.5,0,1.1-0.2,1.5c-0.8,1.8-2.2,2.9-4.2,3.1c-0.6,0.1-1,0.3-1.2,0.9
		c-0.3,1-0.8,2-1,3c-0.1,0.6-0.1,1.4,0,2c0.2,1,0.9,1.4,2,1.2c0.6-0.1,1.2-0.3,1.7-0.5c1.9-0.7,3.6-1.9,5.2-3.2
		c2-1.6,3.9-3.4,5.6-5.4c0.5-0.6,0.7-0.7,1-0.5c0.3,0.2,0.3,0.7-0.1,1.2c-1.7,2.2-3.4,4.3-5.6,6c-2.1,1.7-4.3,3.2-6.7,4.3
		C172.8,180,171.9,180.2,170.9,180.1z M250,240.3c-0.3,0.4-0.5,0.8-0.9,1.1c-1.4,1.3-3,2.4-4.7,3.3c-1.7,0.9-3.5,1.6-5.2,2.3
		c-0.2,0.1-0.4,0.2-0.6,0.3c0.1,0.7,0.3,1.4,0.3,2.1c0.2,2.2-0.3,4.1-1.6,5.9c-1.3,1.7-3.7,2.5-6,1.2c-1.5-0.8-3-3.1-1.5-5.5
		c0.3-0.5,0.7-0.9,1.1-1.3c1.1-1,2.3-1.9,3.7-2.5c0.2-0.1,0.4-0.2,0.7-0.3c-0.3-1.1-0.6-2.1-0.9-3.3c-0.2,0.2-0.3,0.3-0.5,0.4
		c-2,1.9-3.9,3.8-5.9,5.7c-0.9,0.8-1.9,1.6-2.9,2.4c-0.7,0.5-1.5,0.9-2.4,1.1c-1.5,0.2-2.6-0.5-2.9-2c-0.2-0.8,0-1.6,0.1-2.4
		c0.3-1.1,0.6-2.3,0.9-3.4c0.1-0.2,0.1-0.4,0.2-0.7c-0.1,0-0.2,0-0.3,0.1c-2.6,1.3-5.4,2.2-8,3.4c-0.5,0.2-0.8,0.5-0.9,1
		c-1.4,5.5-2.9,11-4.3,16.5c-0.9,3.4-1.5,6.8-2.1,10.2c-0.1,0.7-0.4,1.4-0.6,2.1c-0.1,0.2-0.2,0.5-0.4,0.6c-0.6,0.7-1.6,0.4-1.9-0.4
		c-0.4-1-0.3-2.1-0.2-3.2c0.8-8.3,2.8-16.4,5.2-24.4c0-0.1,0-0.2,0.1-0.3c-0.2,0-0.3,0-0.4,0.1c-2.2,0.9-4.4,1.8-6.6,2.7
		c-0.5,0.2-0.7,0.5-0.9,1c-1.4,3.8-2.8,7.6-4.4,11.4c-1.1,2.7-2.4,5.4-3.7,8.1c-0.7,1.6-1.7,3-2.8,4.3c-0.8,0.9-1.7,1.7-2.7,2.3
		c-2,1.1-3.9,0.8-5.4-0.9c-1.5-1.8-2.4-3.8-2.6-6.2c-0.3-4.4,1.4-8,4.3-11.2c1.5-1.7,3.4-3.1,5.3-4.2c2.8-1.7,5.5-3.3,8.5-4.7
		c0.6-0.3,0.9-0.6,1.1-1.2c2.6-7.3,5.2-14.6,7.2-22.1c1-3.5,1.9-7,2.8-10.6c0.5-2.1,0.8-4.3,0.7-6.5c-0.1-0.8-0.2-1.5-0.5-2.3
		c-0.5-1.7-1.8-2.5-3.4-2.8c-1.4-0.2-2.8,0-4.1,0.4c-2.7,0.7-5.1,2-7.4,3.6c-3.2,2.3-6.1,4.9-8.6,8c-2.6,3.1-4.4,6.6-5.1,10.6
		c-0.6,3.2-0.6,6.3,0.2,9.5c0.6,2.2,1.8,4.1,3.5,5.5c0.9,0.8,2,1.3,3.1,1.7c0.1,0,0.2,0,0.3,0.1c0.1,0.1,0.3,0.3,0.3,0.4
		c0,0.2-0.2,0.4-0.3,0.4c-0.3,0.1-0.6,0-0.8,0c-1-0.2-1.8-0.6-2.6-1.1c-2.8-1.9-4.4-4.6-5-7.9c-1.1-6.3,0-12.1,3.4-17.5
		c3.4-5.4,7.9-9.8,13.5-13c2.1-1.2,4.4-2.1,6.8-2.5c1.6-0.3,3.1-0.3,4.7,0.2c1.8,0.6,3.2,1.7,4,3.4c0.9,2,1.2,4.1,1,6.2
		c-0.1,2.8-0.8,5.5-1.5,8.3c-2.4,9-5.2,17.8-8.3,26.6c-0.1,0.2-0.1,0.4-0.3,0.8c2.2-0.9,4.1-1.7,6.2-2.4c1-0.4,1.5-0.9,1.9-1.9
		c1.3-3.8,2.6-7.6,4.1-11.4c2.2-5.7,4.1-11.6,6.7-17.2c1.1-2.3,2.1-4.6,3.2-6.8c0.4-0.9,1-1.8,1.5-2.6c0.2-0.3,0.4-0.5,0.7-0.8
		c0.2-0.2,0.5-0.2,0.7-0.1c0.3,0.2,0.3,0.4,0.2,0.7c-0.1,0.5-0.2,0.9-0.3,1.4c-0.9,2.5-1.8,5-2.8,7.4c-2.1,4.7-3.9,9.6-5.5,14.5
		c-1.5,4.5-3,9.1-4.4,13.6c-0.1,0.2-0.1,0.5-0.2,0.8c0.3-0.1,0.5-0.2,0.7-0.3c2.1-0.9,4.2-1.7,6.3-2.6c0.5-0.2,1-0.4,1.4-0.5
		c0.4-0.1,0.6-0.3,0.7-0.7c0.2-0.6,0.5-1.2,0.8-1.8c0.3-0.5,0.7-0.7,1.2-0.6c0.5,0.1,0.8,0.3,0.9,0.8c0,0.4,0,0.9-0.1,1.3
		c-0.3,1.2-0.6,2.4-1,3.6c-0.4,1.5-0.8,3-1.1,4.5c-0.1,0.4-0.1,0.9-0.1,1.4c0.5,0,0.9-0.2,1.2-0.4c0.9-0.6,1.7-1.1,2.5-1.8
		c2.3-2,4.6-4.1,6.9-6.1c0.2-0.2,0.4-0.4,0.6-0.5c-0.3-0.9-0.6-1.7-0.8-2.5c-0.5-1.7-0.5-3.4,0.1-5c0.2-0.6,0.6-1.3,1-1.8
		c1-1.2,2.4-1.5,3.8-0.9c1.3,0.6,2.1,1.8,2,3.3c-0.1,1-0.4,1.9-0.9,2.7c-0.7,1.1-1.4,2.2-2.1,3.4c0.5,1.5,1,3.1,1.5,4.7
		c0.1,0,0.1,0,0.2,0c2.9-1,5.8-2,8.3-3.8c0.9-0.6,1.7-1.3,2.5-2c0.1-0.1,0.1-0.2,0.2-0.2c0.2-0.1,0.4-0.2,0.5-0.1
		C250.2,239.9,250.2,240.1,250,240.3z M226.5,236.2c0,0.9-0.8,1.6-1.8,1.6c-0.9,0-1.7-0.8-1.7-1.7c0-0.9,0.9-1.7,1.9-1.7
		C225.7,234.4,226.5,235.3,226.5,236.2z M334.5,239.6c-0.3,0.4-0.6,0.9-0.9,1.2c-1.2,1.3-2.5,2.6-3.8,3.9c-2.2,2.2-4.4,4.2-7,5.9
		c-1.2,0.8-2.4,1.5-3.8,1.7c-0.8,0.1-1.5,0.3-2.3,0.1c-1-0.2-1.8-0.7-2.4-1.6c-0.8-1.2-1-2.5-0.9-4c0-0.4,0.1-0.7,0.2-1.3
		c-0.3,0.2-0.6,0.4-0.8,0.6c-1.5,1-3,1.8-4.8,2c-1.8,0.2-3.4-0.3-4.8-1.4c-0.1-0.1-0.1-0.1-0.3-0.2c-0.2,0.1-0.3,0.3-0.5,0.4
		c-1.3,1.3-2.7,2.6-4,3.8c-0.4,0.4-1,0.8-1.5,1c-0.9,0.5-1.7,0.3-2.3-0.5c-0.7-0.8-1.1-1.8-1.1-2.9c-0.1-1.8,0.1-3.6,0.4-5.5
		c0-0.3,0.1-0.6,0.1-1c-1.3,0.6-2.4,1.4-3.7,1.5c-1.3,0.1-2.6,0.1-4,0.2c-0.3,0.5-0.6,1.1-0.9,1.7c-0.8,1.5-1.8,3-3.1,4.2
		c-0.5,0.5-1.1,0.8-1.6,1.2c-0.6,0.4-1.3,0.5-2,0.4c-1.1-0.1-2.1-0.8-2.3-1.9c-0.1-0.4-0.1-0.8-0.2-1.2c-0.1,0.1-0.3,0.2-0.4,0.3
		c-1.2,1.3-2.5,2.3-3.9,3.3c-1,0.8-2.1,1.4-3.2,1.8c-2.3,0.9-4.4,0-5.3-2.2c-0.4-0.9-0.5-1.9-0.5-2.8c0-2.3,0.3-4.6,0.8-6.8
		c0.7-3.6,1.9-7,3.3-10.4c1.9-4.9,3.9-9.8,5.9-14.6c1-2.4,2.2-4.6,3.8-6.6c0.8-1,1.6-1.9,2.6-2.6c0.6-0.4,1.2-0.8,2-0.9
		c1.3-0.2,2.4,0.4,2.9,1.6c0.5,1.2,0.5,2.5,0.3,3.7c-0.4,2.2-1.2,4.3-2.1,6.3c-2.6,5.8-6.1,10.9-10.6,15.4c-1,1-2.1,1.8-3.1,2.6
		c-0.2,0.2-0.4,0.4-0.5,0.6c-1.1,3.1-1.9,6.3-2.2,9.6c-0.1,0.9-0.1,1.8-0.1,2.7c0,0.5,0.2,1.1,0.4,1.6c0.3,0.7,0.7,0.9,1.4,0.6
		c0.9-0.3,1.8-0.7,2.6-1.2c1.4-0.9,2.7-1.8,4-2.9c0.8-0.7,1.6-1.3,2.4-1.9c0.2-0.2,0.5-0.5,0.6-0.8c0.7-1.6,1.7-2.9,3.1-4.1
		c-0.1-0.3-0.2-0.5-0.4-0.8c-0.9-2.3-0.6-4.4,1-6.3c1.6-1.9,4.2-1.8,5.7,0.1c0.7,0.8,1.1,1.8,1.1,2.9c0.1,1.7-0.2,3.4-0.7,5
		c-0.1,0.2-0.2,0.5-0.3,0.8c0.2,0.1,0.3,0.1,0.5,0.2c1.7,0.2,3.3,0,4.9-0.7c0.2-0.1,0.5-0.2,0.7-0.3c0.9-0.3,1.6-0.8,1.8-1.8
		c0.1-0.4,0.4-0.7,0.6-1c0.3-0.4,0.8-0.6,1.2-0.4c0.4,0.2,0.5,0.6,0.4,1.1c-0.1,0.7-0.3,1.3-0.4,2c-0.6,2.3-0.7,4.6-0.7,7
		c0,0.5,0.2,1,0.3,1.7c0.3-0.2,0.5-0.3,0.7-0.4c1.6-1.3,3.1-2.7,4.7-4.1c0.3-0.2,0.3-0.5,0.2-0.9c-0.8-3.6-0.1-7,1.9-10.1
		c0.6-0.9,1.4-1.7,2.5-2.1c0.4-0.2,0.9-0.3,1.3-0.3c1,0,1.7,0.6,1.9,1.5c0.2,0.8,0.1,1.5-0.1,2.2c-0.5,2.1-1.5,4-2.6,5.7
		c-0.7,1.2-1.6,2.3-2.4,3.4c-0.1,0.2-0.3,0.4-0.5,0.6c0.6,0.8,1.4,1.2,2.4,1.4c1.1,0.2,2.2,0,3.2-0.4c1.6-0.6,3.1-1.6,4.4-2.7
		c0.2-0.2,0.3-0.4,0.5-0.7c0.9-2,2.3-3.6,4.2-4.8c0.7-0.4,1.5-0.7,2.3-0.7c1.4,0,2.2,1.2,1.6,2.5c-0.7,1.8-2.9,3.3-4.8,3.3
		c-0.2,0-0.4,0-0.6,0c-0.8,1.8-1.4,3.6-0.9,5.6c0.2,0.9,0.7,1.3,1.7,1.2c0.9-0.1,1.8-0.4,2.6-0.8c2.1-1.1,3.9-2.4,5.8-3.9
		c2.3-1.7,4.3-3.6,6.3-5.7c0.3-0.3,0.7-0.6,1-0.9c0.2-0.2,0.5-0.2,0.8,0C334.7,239.1,334.7,239.3,334.5,239.6z M354.7,169.8
		c-0.2,0.4-0.4,0.8-0.6,1.2c-1.1,1.7-2.5,3.2-4.2,4.3c-2.4,1.7-4.9,3.4-7.3,5.1c-0.7,0.5-1.5,0.9-2.2,1.3c-0.4,0.2-0.5,0.5-0.7,0.9
		c-1.4,4.6-2.8,9.1-4.3,13.6c-0.5,1.6-1.2,3.1-1.9,4.6c-0.6,1.2-1.3,2.3-2.3,3.3c-1.1,1.1-2.4,1.9-4.1,1.9c-1.1,0-2.1-0.3-3-1
		c-0.8-0.6-1.5-1.4-1.9-2.3c-0.7-1.5-1.2-3.1-1.2-4.8c0-0.9,0-1.8,0.1-2.7c0.4-2.7,2-4.8,4-6.6c1.8-1.6,3.9-2.7,6.1-3.8
		c1.6-0.8,3.3-1.6,4.9-2.4c0.4-0.2,0.6-0.5,0.7-0.9c0.3-1.1,0.6-2.1,0.8-3.2c0-0.1,0-0.3,0.1-0.5c-0.4,0.2-0.7,0.3-0.9,0.4
		c-1,0.5-2,0.5-3,0.4c-1.9-0.2-3.2-1.8-3.1-3.9c0-0.2,0-0.5,0.1-0.9c-0.3,0.3-0.5,0.4-0.7,0.6c-1.2,1.3-2.5,2.6-3.7,3.8
		c-0.4,0.4-0.8,0.7-1.3,0.7c-1,0-1.8-0.6-1.8-1.6c0-0.7,0.2-1.4,0.4-2c0.5-1.4,1-2.8,1.6-4.2c0.2-0.6,0.4-1.2,0.6-1.8
		c0.1-0.4,0.2-0.7,0-1.1c-0.4-0.1-0.8,0.1-1,0.4c-0.8,0.6-1.6,1.2-2.2,2c-1.4,1.6-2.7,3.4-4,5.1c-0.3,0.4-0.4,0.8-0.6,1.2
		c-0.1,0.2-0.2,0.5-0.3,0.7c-0.4,0.6-1.1,0.9-1.7,0.7c-0.7-0.2-1.1-0.8-0.9-1.5c0.1-0.7,0.3-1.5,0.5-2.1c0.6-1.5,1.4-3,2.1-4.5
		c0.2-0.5,0.5-0.9,0.6-1.7c-0.6,0.4-1.2,0.6-1.6,1c-1.4,1.1-2.7,2.3-4,3.5c-1.6,1.5-3.1,3.1-4.7,4.6c-0.6,0.6-1.2,1.1-1.9,1.7
		c-0.3,0.2-0.6,0.4-1,0.6c-1.3,0.4-2.4-0.3-2.6-1.7c0-0.2,0-0.4-0.1-0.8c-0.3,0.4-0.5,0.6-0.7,0.9c-3.3,4.1-6.5,8.3-9.8,12.4
		c-0.4,0.4-0.7,0.9-1.1,1.3c-0.5,0.5-1.1,0.7-1.8,0.5c-0.7-0.2-1-0.7-1.2-1.4c-0.2-0.7,0-1.5,0.1-2.2c0.6-2.4,1.3-4.8,2.3-7.1
		c1.3-3.2,2.7-6.4,4.1-9.6c0.5-1.2,1-2.5,1.5-3.7c0.2-0.4,0.4-0.8,0.1-1.3c-0.6-0.1-1,0.1-1.4,0.4c-0.8,0.6-1.6,1.3-2.3,2
		c-1.9,2-3.3,4.4-4.8,6.7c-0.3,0.5-0.6,1-0.9,1.5c-0.8,1.2-1.4,2.5-1.5,4c-0.1,0.6-0.3,1.2-0.6,1.7c-0.3,0.7-1,1-1.6,0.8
		c-0.7-0.1-1.1-0.6-1.2-1.4c-0.2-1.2,0.1-2.4,0.3-3.6c0.5-2.5,1-5.1,1.5-7.6c0.1-0.3,0.1-0.5,0.2-1c-0.3,0.2-0.5,0.4-0.6,0.5
		c-2.5,2.3-5.1,4.5-8,6.3c-1.6,1-3.2,2-5,2.3c-0.6,0.1-1.3,0.1-1.9,0.1c-1.7-0.2-2.9-1.3-3.2-3c-0.2-1.1-0.2-2.2-0.3-3.2
		c0-0.9,0.1-1.8,0.2-2.8c0-0.1,0-0.3,0-0.4c-1,0.2-2,0.5-3,0.7c-1,0.1-2,0.1-3.1,0.2c-0.1,0.3-0.3,0.6-0.5,0.9
		c-0.9,1.7-2,3.3-3.5,4.5c-0.7,0.6-1.5,1-2.4,1.2c-2.7,0.5-4.1-1.8-3.9-3.7c0-0.5,0.1-0.9,0.2-1.5c-0.3,0.2-0.5,0.3-0.7,0.5
		c-1.7,1.4-3.5,2.9-5.2,4.3c-0.5,0.4-1,0.8-1.6,1.1c-1,0.5-2-0.1-1.9-1.2c0-0.7,0.2-1.4,0.4-2.1c0.7-1.7,1.4-3.4,2.2-5
		c0.2-0.4,0.5-0.8,0.5-1.5c-0.4,0.2-0.7,0.2-0.9,0.4c-0.4,0.3-0.9,0.6-1.3,0.9c-2.3,2-4.4,4.2-6,6.9c-0.1,0.2-0.3,0.5-0.5,0.7
		c-0.5,0.5-1.1,0.7-1.7,0.4c-0.6-0.3-0.9-0.8-0.8-1.6c0.1-0.7,0.3-1.3,0.5-2c0.6-2,1.3-4,2-6.1c0.1-0.4,0.3-0.9,0.6-1.3
		c0.1-0.2,0.3-0.5,0.5-0.6c0.4-0.4,1-0.4,1.4-0.2c0.4,0.3,0.6,0.7,0.5,1.2c-0.2,0.9-0.4,1.8-0.6,2.7c-0.1,0.4-0.2,0.8-0.2,1.3
		c0.3-0.3,0.7-0.6,1-0.9c0.9-0.7,1.9-1.5,2.9-2.2c0.6-0.4,1.3-0.7,2.1-0.9c1.5-0.4,2.6,0.6,2.3,2.1c-0.2,0.8-0.5,1.7-0.8,2.5
		c-0.6,1.3-1.2,2.5-1.8,3.8c-0.1,0.3-0.3,0.6-0.3,1c0.2-0.1,0.3-0.2,0.5-0.4c2.4-1.9,4.9-3.8,7.3-5.6c0.5-0.4,0.9-0.8,1.2-1.3
		c0.5-1,1.2-1.9,2.1-2.6c0-0.1,0-0.3-0.1-0.4c-0.6-2.2,0-4,1.5-5.7c1-1.1,2.3-1.3,3.7-0.7c1.1,0.5,1.9,1.3,2.3,2.5
		c0.6,1.5,0.5,3,0.2,4.5c-0.2,0.9-0.4,1.8-0.7,2.8c2,0.2,3.9-0.4,5.8-0.9c0.5-3,1.2-5.9,2.1-8.8c1-2.8,2-5.6,3-8.5
		c-0.8,0.2-1.5,0.4-2.2,0.5c-2.7,0.6-5.5,1.2-8.2,1.6c-2.1,0.4-4.2,0.4-6.3-0.2c-0.8-0.2-1.7-0.6-2.4-1.1c-1.8-1.3-2.1-3.3-0.9-5.2
		c0.2-0.3,0.4-0.6,0.7-0.9c0.2-0.2,0.5-0.4,0.8-0.2c0.3,0.3,0.1,0.5,0,0.8c-0.2,0.3-0.4,0.7-0.6,1c-0.6,1.4-0.3,2.7,1.1,3.4
		c0.7,0.4,1.6,0.6,2.4,0.7c1.9,0.3,3.8,0,5.7-0.4c3.7-0.8,7.2-1.9,10.8-2.9c0.4-0.1,0.5-0.4,0.7-0.7c0.7-1.6,1.3-3.3,2.1-4.9
		c0.5-1.1,1.2-2.2,1.9-3.3c0.3-0.4,0.6-0.7,1-1.1c0.3-0.2,0.6-0.3,1-0.1c0.4,0.2,0.4,0.6,0.4,0.9c-0.1,0.6-0.3,1.1-0.5,1.6
		c-0.7,1.7-1.4,3.4-2.1,5.1c-0.1,0.3-0.2,0.7-0.4,1.1c0.3-0.1,0.5-0.1,0.7-0.1c2.5-0.7,5-1.4,7.6-1.9c2.6-0.4,5.3-0.6,8-0.5
		c0.2,0,0.4,0,0.7,0c0.1-0.2,0.3-0.5,0.4-0.8c1.2-2.6,2.6-5.1,4.2-7.5c0.7-1,1.5-1.9,2.3-2.8c0.5-0.6,1.2-1,2-1.1
		c1.2-0.2,2.1,0.1,2.8,1c0.5,0.7,0.8,1.5,0.9,2.3c0.2,1.9-0.2,3.7-0.8,5.5c-1,2.9-2.4,5.6-3.8,8.2c-0.3,0.5-0.6,1-0.8,1.5
		c-1.9,3.9-4.6,7.2-7.5,10.3c-0.7,0.8-1.5,1.5-2.3,2.2c-0.3,0.3-0.5,0.5-0.6,0.9c-0.8,3.6-1.7,7.2-2.5,10.8c0,0.1,0,0.3,0,0.5
		c0.2-0.3,0.4-0.6,0.5-0.8c1.5-2.4,2.9-4.7,4.8-6.8c0.6-0.7,1.3-1.4,2-1.9c0.5-0.4,1.1-0.7,1.8-1c1.8-0.7,3.2,0.7,2.9,2.3
		c-0.2,1.4-0.6,2.7-1,4c-0.7,2.3-1.6,4.5-2.4,6.7c-0.9,2.7-1.8,5.3-2.7,8c0,0.1-0.1,0.3,0,0.5c0.2-0.2,0.4-0.4,0.5-0.6
		c2.4-3,4.9-6.1,7.3-9.1c0.8-1,1.6-1.8,2.4-2.8c0.2-0.3,0.5-0.7,0.6-1.1c0.6-2,1.5-3.9,2.7-5.6c0.2-0.3,0.5-0.6,0.8-0.8
		c0.5-0.3,1-0.1,1,0.5c0,0.3,0,0.5-0.1,0.8c-0.3,1-0.6,1.9-0.9,2.9c-0.7,1.8-1.1,3.7-1.2,5.7c0.4-0.2,0.6-0.3,0.9-0.5
		c0.7-0.5,1.4-1.1,2-1.7c2.1-1.8,4.2-3.7,6.3-5.5c0.7-0.6,1.5-1.2,2.2-1.7c0.4-0.3,0.9-0.5,1.4-0.7c1-0.3,1.9,0.2,1.9,1.3
		c0,0.9-0.1,1.8-0.2,2.8c-0.1,0.4-0.2,0.9-0.1,1.4c0.2-0.2,0.4-0.4,0.6-0.7c1.1-1.3,2.1-2.6,3.4-3.6c0.5-0.4,1-0.8,1.6-1.1
		c1.2-0.6,2.3-0.2,2.9,1.1c0.3,0.6,0.4,1.2,0.2,1.8c-0.2,1.2-0.5,2.4-0.8,3.6c0,0.2-0.1,0.4-0.2,0.7c0.2-0.2,0.4-0.2,0.5-0.3
		c0.6-0.5,1.2-1,1.8-1.4c1.1-0.8,2.1-1.8,2.6-3.1c0.5-1.2,1.4-2.1,2.6-2.8c0.6-0.3,1.4-0.6,2.1-0.7c1.8-0.3,3.5,1.5,2.9,3.3
		c-0.1,0.3-0.2,0.7-0.3,1c-0.1,0.3-0.3,0.5-0.6,0.4c-0.3-0.1-0.4-0.4-0.3-0.7c0.1-0.3,0.1-0.7,0.1-1.1c0.1-0.9-0.6-1.4-1.4-1.2
		c-0.3,0.1-0.7,0.2-0.9,0.5c-0.4,0.4-0.9,0.8-1.2,1.2c-1,1.6-1.5,3.3-1.5,5.1c0,0.9,0.3,1.2,1.1,1.4c0.4,0.1,0.8,0.1,1.1,0
		c1.1-0.2,2.1-0.8,2.9-1.5c0.2-0.2,0.3-0.4,0.4-0.7c0.6-1.5,1.2-3,1.8-4.4c0.2-0.5,0.4-1.1,0.7-1.6c0.3-0.6,0.7-0.8,1.2-0.7
		c0.5,0.1,0.9,0.5,0.9,1.1c0,0.7-0.1,1.4-0.3,2.1c-0.4,1.3-0.9,2.7-1.5,4c-0.7,1.6-1.4,3.3-1.8,5c0,0.1,0,0.3-0.1,0.5
		c0.3-0.1,0.5-0.2,0.7-0.3c1.9-1.3,3.9-2.6,5.8-3.9c1.3-0.9,2.6-2,3.9-3c1.1-0.9,2.1-2,2.9-3.2c0.1-0.1,0.1-0.2,0.2-0.3
		c0.2-0.1,0.5-0.2,0.7-0.1C354.8,169.3,354.9,169.6,354.7,169.8z"/>
	<path class="st5" d="M135.5,240c0.2-0.3,0.4-0.6,0.3-1.1c-0.3,0-0.6,0-0.9,0c-1.1,0.2-2.1,0.8-2.9,1.6c-1,1-2,2.1-2.9,3.2
		c-0.1,0.1-0.2,0.2-0.2,0.4c0,0,0.1,0.1,0.1,0.1c1.5-0.8,3.1-1.6,4.6-2.4C134.3,241.4,135,240.8,135.5,240z"/>
	<path class="st5" d="M149.1,239.9c0.1-0.3,0.1-0.6,0.1-0.9c-0.1-0.7-0.6-0.9-1.2-0.5c-0.2,0.1-0.3,0.3-0.5,0.4
		c-1,1-1.6,2.2-2.2,3.7c0.4-0.1,0.7-0.1,1-0.1C147.7,242.2,148.7,241.4,149.1,239.9z"/>
	<path class="st5" d="M103.3,234.6c2.1-1.6,4-3.5,5.6-5.6c2.1-2.7,3.9-5.6,5.4-8.6c1.1-2.2,2.1-4.4,2.9-6.7c0.3-0.9,0.5-1.8,0.4-2.7
		c0-0.4-0.1-0.8-0.4-1.2c-0.2-0.3-0.5-0.4-0.9-0.2c-0.5,0.3-1.1,0.6-1.5,1c-1.4,1.2-2.5,2.7-3.6,4.2c-1.6,2.4-2.9,4.9-4,7.5
		c-1.4,3.1-2.3,6.3-3.4,9.5c-0.3,0.9-0.6,1.8-0.8,2.7c0,0,0.1,0,0.1,0.1C103.2,234.7,103.2,234.6,103.3,234.6z"/>
	<path class="st5" d="M130.9,234.5c1.5-1.7,2.9-3.5,4.3-5.3c2-2.6,3.5-5.4,4.9-8.4c1-2,1.8-4,2.7-6c0.6-1.5,0.9-3,0.9-4.7
		c0-0.7-0.2-1.4-0.6-2.1c-0.4-0.7-0.8-0.8-1.5-0.3c-0.4,0.3-0.8,0.6-1.1,1c-0.8,1.2-1.6,2.4-2.2,3.7c-1.5,3-2.9,6.1-4.1,9.3
		c-1.6,4.5-3.3,8.9-5,13.4c-0.1,0.4-0.3,0.8-0.4,1.2c0,0,0.1,0,0.1,0.1C129.7,235.8,130.3,235.2,130.9,234.5z"/>
	<path class="st5" d="M251.2,173.8c0,0.1,0,0.3,0,0.4c0,0.9,0.4,1.2,1.2,0.8c0.1,0,0.1-0.1,0.2-0.1c1.6-1.1,2.7-2.6,3.6-4.2
		c-1-0.7-1.9-1.3-3-2C252.4,170.3,251.6,172,251.2,173.8z"/>
	<path class="st5" d="M298.3,149.7c1.6-3.2,3.2-6.2,4.1-9.5c0.3-0.9,0.4-1.8,0.5-2.6c0-0.7-0.1-1.5-0.3-2.2c-0.4-1-1.1-1.1-1.8-0.3
		c-0.5,0.6-0.9,1.2-1.3,1.9c-1.2,2.3-2.3,4.6-3.5,6.9c-0.3,0.7-0.6,1.3-0.8,2C297.4,147.6,297.8,148,298.3,149.7z"/>
	<path class="st5" d="M256.4,161.2c-0.6-0.2-1.1-0.2-1.6,0.3c-0.9,1.1-1.5,2.3-1.3,3.7c0.3,2,1.6,3.1,3.3,4.2c0.6-1.2,1-2.3,1.2-3.5
		c0.2-1,0.2-2-0.1-3C257.7,162.1,257.2,161.5,256.4,161.2z"/>
	<path class="st5" d="M307.9,235.6c0.2-0.5,0.1-1.1,0.1-1.7c0-0.5-0.2-0.6-0.7-0.4c-0.2,0.1-0.4,0.2-0.5,0.3c-0.6,0.4-1.1,1-1.5,1.6
		c-0.9,1.5-1.4,3.1-1.7,4.9c-0.1,0.9-0.2,1.8-0.1,2.9c0.3-0.3,0.4-0.5,0.6-0.6c1.1-1.4,2.1-2.8,2.8-4.4
		C307.2,237.4,307.6,236.5,307.9,235.6z"/>
	<path class="st5" d="M238.1,235c0.1-0.5,0-1-0.4-1.4c-0.6-0.6-1.2-0.6-1.7,0.1c-0.2,0.3-0.3,0.6-0.4,0.9c-0.3,1.6-0.2,3.2,0.4,4.9
		c0.7-0.7,1.2-1.5,1.5-2.3C237.8,236.5,238,235.7,238.1,235z"/>
	<path class="st5" d="M286,234.9c-0.4-0.8-1-1.3-1.9-1.3c-0.9,0-1.5,0.6-1.9,1.4c-1,2-0.7,3.7,0.7,5.3c0.7,0.7,1.5,1.2,2.5,1.4
		c0.8-1.8,1.2-3.8,1-5.4C286.4,235.8,286.2,235.3,286,234.9z"/>
	<path class="st5" d="M290.6,148c-0.3,0-0.5-0.1-0.7,0c-1.9,0.1-3.9,0.2-5.8,0.5c-3.3,0.4-6.5,1.4-9.8,2.1c-0.5,0.1-0.7,0.4-0.9,0.8
		c-0.6,1.7-1.3,3.4-1.9,5.1c-1.9,5.3-3.4,10.6-3.6,16.3c0,1,0,2,0.1,3c0.1,0.9,0.4,1.2,1.3,1.2c0.8-0.1,1.7-0.2,2.5-0.4
		c1.8-0.5,3.4-1.5,5-2.5c2.3-1.5,4.3-3.3,6.4-5c0.8-0.6,1.3-1.3,1.4-2.3c0-0.4,0.2-0.8,0.3-1.2c1.3-4.9,2.7-9.9,4.6-14.6
		C289.8,150.1,290.2,149.1,290.6,148z"/>
	<path class="st5" d="M297.9,150.4c-0.9,0.1-0.9,0.1-1.6-0.5c-0.6-0.5-1.3-1-2.1-1.2c-1.1,2.1-4.7,11.9-4.7,13.6
		C292.9,158.6,295.9,154.9,297.9,150.4z"/>
	<path class="st5" d="M328.3,188.1c-1.5,1-2.8,2.1-3.9,3.6c-0.7,1-1.2,2-1.3,3.2c-0.3,2.4,0.2,4.6,1.4,6.7c0.3,0.5,0.7,0.9,1.2,1.2
		c0.7,0.5,1.4,0.5,2.1,0.1c0.7-0.4,1.3-0.9,1.9-1.6c1-1.3,1.8-2.7,2.3-4.2c1.1-3.2,2.2-6.5,3.3-9.7c0.4-1.1,0.7-2.2,1-3.4
		c-0.2,0-0.3,0-0.3,0C333.4,185.4,330.7,186.5,328.3,188.1z"/>
	<path class="st5" d="M270.7,233.2c3.6-3.7,6.5-7.8,8.9-12.4c1.4-2.6,2.5-5.4,3.3-8.2c0.3-1,0.5-2.1,0.2-3.2c-0.1-0.4-0.1-0.9-0.6-1
		c-0.4-0.1-0.8,0.2-1,0.5c-0.7,0.7-1.3,1.5-1.9,2.3c-1.5,2.1-2.7,4.4-3.7,6.8c-1.7,4.1-3.4,8.3-5.1,12.5c-0.5,1.3-1,2.6-1.5,3.8
		c0,0,0.1,0.1,0.1,0.1C269.9,234,270.3,233.6,270.7,233.2z"/>
	<path class="st5" d="M283.5,242.9c-0.4-0.2-0.8-0.4-1.3-0.6c-1.6,1.7-2.7,3.7-3.1,6c-0.1,0.3,0,0.6,0,0.9c0.7,0.1,1.2-0.2,1.7-0.6
		c1.8-1.3,3-3.1,3.9-5.2c0,0,0,0,0-0.1C284.4,243.2,284,243,283.5,242.9z"/>
	<path class="st5" d="M321.2,239.2c-1.4,0.6-2.1,1.6-3.1,2.8C319.6,241.8,321.2,240.4,321.2,239.2z"/>
</g>
</svg>
