<?xml version="1.0" encoding="utf-8"?>
<!-- Generator: Adobe Illustrator 22.0.0, SVG Export Plug-In . SVG Version: 6.00 Build 0)  -->
<svg version="1.1" id="Calque_1" xmlns="http://www.w3.org/2000/svg" xmlns:xlink="http://www.w3.org/1999/xlink" x="0px" y="0px"
	 viewBox="0 0 432 432" style="enable-background:new 0 0 432 432;" xml:space="preserve">
<style type="text/css">
	.st0{fill:#754C24;}
	.st1{fill:#E6E6E6;}
	.st2{fill:#4D4D4D;}
	.st3{fill:#808080;}
	.st4{fill:#006837;}
	.st5{fill:#C1272D;}
	.st6{fill:#CCCCCC;}
	.st7{fill:#EAC675;}
	.st8{fill:#FBB03B;}
	.st9{fill:#FFFFFF;}
	.st10{fill:#8C6239;}
	.st11{fill:#A67C52;}
	.st12{fill:#A81621;}
	.st13{fill:#D6A14D;}
	.st14{fill:#C69C6D;}
	.st15{fill:#84D1A6;}
	.st16{fill:#8FAADB;}
	.st17{fill:#E0A6C2;}
	.st18{fill:#603813;}
	.st19{fill:#ED1C24;}
	.st20{fill:#4D9370;}
	.st21{fill:#7CC6E0;}
	.st22{fill:#2F7DA8;}
	.st23{fill:#F15A24;}
	.st24{fill:#009245;}
	.st25{fill:#662D91;}
	.st26{fill:#679CBA;}
	.st27{fill:#C77F2C;}
	.st28{fill:#831925;}
	.st29{fill:#E6E5E5;}
	.st30{fill:#AE5860;}
	.st31{fill:#C6B198;}
	.st32{fill:none;stroke:#000000;stroke-width:2;stroke-miterlimit:10;}
	.st33{fill:#AA3642;}
	.st34{fill:#901C25;}
	.st35{fill:#F1F1F1;}
	.st36{fill:#E42528;}
	.st37{fill:#736358;}
	.st38{fill:#F29222;}
	.st39{fill:#754D24;}
	.st40{fill:#094D84;}
	.st41{fill:#1660A7;}
	.st42{fill:#C59B6C;}
	.st43{fill:#A1272D;}
	.st44{fill:#036838;}
</style>
<g>
	<path class="st12" d="M109.4,236.1c0,1.4,0,2.8,0,4.2c0,1.6,0.2,3.2,0.2,4.9c0.1,2.8-0.5,5.5-1,8.3c-0.6,3.4-1.6,6.8-2.8,10
		c-1.3,3.6-2.2,7.3-3,11c0,0.1,0,0.2,0,0.4c1.9,1.3,2.2,3.3,2.1,5.4c-0.1,1.9-0.3,3.7-0.5,5.6c-0.2,2.6-0.5,5.2-0.7,7.8
		c-0.1,1.5-0.1,3.1-0.2,4.6c-0.1,2.1,0.5,4,1.7,5.7c0.4,0.6,1,1.2,1.6,1.7c2.6,2.3,5.6,4,8.6,5.6c0.5,0.2,0.9,0.5,1.4,0.8
		c1.4,1,1.7,2.6,0.7,4c-0.7,1.1-1.7,1.7-2.9,1.9c-1.1,0.2-2.3,0.2-3.4,0.4c-2.4,0.4-4.7,0.2-7.1,0.5c-2.7,0.3-5.4,0-8-0.6
		c-0.2,0-0.4-0.1-0.5-0.2c-2.3-0.7-3.2-1.7-3.2-4.1c0-3.8,0.2-7.6,1.4-11.2c0.5-1.4,0.6-2.8,0.4-4.2c-0.5-3.6-1-7.3-2.6-10.6
		c-0.5-1.1-1.2-2.2-1.9-3.2c-0.5-0.8-1.1-1.6-1.7-2.4c-1.5-2.1-2-4.5-1.7-7c0.2-1.6,1.2-2.5,2.6-2.9c0.6-0.2,0.9-0.4,1-1
		c0.6-2.1,1.5-4.1,2.8-5.9c0.8-1.1,1.6-2.2,2.4-3.3c0.4-0.5,0.6-1.1,0.7-1.7c0.4-1.9,0.4-3.8,0-5.8c-0.7-3.9-0.8-7.9-0.8-11.9
		c0-1.4,0-2.8,0-4.1c0-0.3,0-0.6-0.2-1c-0.1,0.2-0.2,0.3-0.3,0.5c-0.9,1.9-1.7,3.9-2.6,5.8c-1.6,3.3-3.3,6.5-5.5,9.5
		c-0.6,0.9-1.2,1.8-1.9,2.7c-2.2,3.1-3.4,6.5-3.9,10.2c-0.3,2.3-0.7,4.6-1,7c-0.1,0.5-0.1,0.9,0.3,1.4c0.6,0.8,0.5,1.7,0.5,2.6
		c0,1.3-0.3,2.5-0.8,3.7c-1,2.5-1.9,5.1-2.9,7.6c-1.5,3.8-2.5,7.7-3.4,11.6c-0.4,1.7-0.8,3.3-1.2,5c-0.2,1.1,0.2,2,1,2.8
		c0.4,0.4,0.9,0.7,1.3,1c1.4,1.1,2.7,2.3,4.1,3.5c0.7,0.7,1.2,1.5,1.5,2.5c0.4,1.5-0.1,2.7-1.5,3.3c-1.2,0.6-2.5,0.7-3.8,0.8
		c-3,0.2-5.9,0.3-8.9,0.4c-1.3,0.1-2.5-0.1-3.7-0.5c-1.6-0.6-2.6-1.7-3-3.4c-0.4-1.6-0.3-3.1,0.4-4.6c0.4-0.9,0.8-1.8,1.3-2.6
		c1.5-2.5,2.2-5.2,2.4-8.1c0.3-3.1,0.1-6.2-0.3-9.4c-0.6-4.7-0.8-9.4-0.4-14.1c0.1-0.8,0.2-1.7,0.3-2.5c0.5-2.6,1.3-3,3.3-3.1
		c0.2-0.4,0.3-0.9,0.5-1.4c0.9-2.4,2-4.7,3.3-6.8c1.1-1.9,1.8-4,2.1-6.2c0.4-3.4,0.9-6.8,1.4-10.2c0.4-3,0.9-5.9,1.4-8.9
		c0.4-3,0.8-5.9,1.3-8.9c0.4-2.7,0.8-5.4,1.3-8.1c0.6-3.4,1.1-6.7,1.7-10.1c0.1-0.7,0.2-1.5,0.4-2.2c0.1-0.5,0-0.9-0.3-1.4
		c-1.2-1.7-2.5-3.3-3.5-5.1c-1.4-2.2-2.6-4.4-3.9-6.6c-0.2-0.4-0.4-0.8-0.7-1.3c-0.6,1.3-0.9,2.4-1,3.6c-0.1,1-0.1,1.9-0.2,2.9
		c-0.2,1.5-0.3,2.9-0.6,4.4c-0.7,3-0.6,6-0.5,9.1c0,0.8,0.1,1.6,0.2,2.4c0.2,1.5,1,2.7,1.9,3.9c0.7,0.9,1.4,1.8,2,2.8
		c0.4,0.7,0.6,1.4,0.8,2.2c0.5,2.4-0.6,4.4-2.9,5.2c-0.6,0.2-1.3,0.4-2,0.5c-1.3,0.2-2.4-0.3-3-1.5c-0.4-0.8-0.7-1.6-0.9-2.4
		c-0.6-2.5-1.5-4.8-2.6-7.1c-1.6-3.4-2.9-6.9-4.2-10.3c-0.6-1.6-0.7-3.3-0.7-5.1c0.1-2.3,0.6-4.4,1.6-6.4c1.1-2.3,1.5-4.8,1.7-7.3
		c0.3-3.9,0.5-7.9,0.8-11.8c0.1-1.4,0.2-2.7,0.5-4.1c0.4-2.7,1.6-5,3.1-7.1c0.1-0.2,0.3-0.4,0.5-0.6c0.9-0.7,1.5-1.7,2-2.7
		c1.8-3.2,4.5-5.5,8.1-6.6c1.7-0.6,3.4-1,5.1-1.4c1-0.2,2-0.2,3.1-0.3c0.5,0,0.9-0.2,1-0.7c0.2-0.6,0.5-1.3,0.6-2
		c0.1-1.3,0-2.6,0.1-3.9c0.2-2.7,0.4-5.4,1.2-7.9c1-3.2,3.1-5,6.4-5.5c1.4-0.2,2.7-0.1,4,0.1c1.1,0.1,2.2,0.2,3.3,0.2
		c0.8,0,1.5-0.3,2.3-0.5c0.2-0.1,0.4-0.2,0.6-0.3c0.7-0.3,1.3,0.2,1.1,0.9c-0.5,1.7-1.3,3.2-3,4c-0.4,0.2-0.8,0.4-1.2,0.6
		c-0.4,0.2-0.7,0.5-1.1,0.7c-0.5,0.4-0.7,0.9-0.6,1.6c0.2,0.9,0.3,1.9,0.6,2.8c0.2,0.6,0.5,1.1,0.8,1.6c0.1,0.2,0.3,0.5,0.5,0.7
		c0.4,0.7,0.3,1.2-0.4,1.6c-0.2,0.2-0.5,0.3-0.8,0.5c0.1,0.3,0.1,0.6,0.2,1c0.2,0.7,0.4,1.4,0.5,2.2c0.2,1.2-0.1,1.8-1.2,2.4
		c-0.2,0.1-0.4,0.2-0.6,0.5c0.7,0.1,1.5,0.2,2.2,0.2c8.3,0.6,16.7,0.8,25,0.7c2.2,0,4.4,0,6.6,0.1c7.6,0.1,15.2-0.3,22.8-1.6
		c12.4-2.2,24.5-5.1,36.4-9.1c5.8-1.9,11.4-4.2,17.1-6.4c5.4-2.1,10.6-4.5,16-6.7c7.3-3,14.7-5.9,22-8.8c5.5-2.1,11-4.3,16.6-6.2
		c7.4-2.5,15-4.3,22.7-5.6c4-0.7,8.1-1,12.2-1.2c4.1-0.2,8.3-0.1,12.4,0.2c4,0.4,7.9,1.1,11.8,1.9c6,1.2,11.9,2.8,17.6,5.1
		c3.8,1.5,7.4,3.5,10.9,5.6c5.9,3.5,11.4,7.6,16.2,12.6c2.9,3,5.2,6.4,7.2,10c0.4,0.7,0.3,1.2-0.2,1.5c-0.5,0.3-1,0.2-1.5-0.3
		c-0.1-0.1-0.2-0.2-0.2-0.3c-2-2.7-4.7-4.5-7.7-6c-8-4-18.9,0-21.3,10c-0.6,2.7-0.9,5.4-0.9,8.1c0,2.9,0.1,5.8,0.1,8.6
		c0.1,3.4,0,6.8-0.5,10.2c-0.6,4.2-2.2,8-4.7,11.4c-2.4,3.2-5.1,6-8.2,8.5c-4.7,3.9-9.9,7-15.4,9.7c-3.7,1.8-7.3,3.5-11,5.3
		c-3,1.5-5.8,3.1-8.4,5.2c-1.2,1-2.4,2.1-3.5,3.3c-2.9,3.2-4.2,7-4.3,11.3c-0.1,3,0.4,5.9,0.9,8.8c0.7,4.1,1.4,8.1,1.7,12.3
		c0.4,4.8-0.4,9.5-2.3,13.9c-1.4,3.3-3.1,6.5-5,9.6c-1.9,3.2-3.6,6.4-4.7,9.9c-1,3.2-1.6,6.4-1.8,9.7c-0.1,1.4,0.1,2.8,0.4,4.2
		c0.1,0.2,0.1,0.5,0.2,0.7c0.1,1.1-0.6,1.7-1.6,1.4c-0.1,0-0.2-0.1-0.4-0.1c-2.4-1.3-5.1-1.9-7.7-2.8c-4-1.3-7.9-2.6-12-3.3
		c-2.8-0.5-5.6-0.9-8.3-1.2c-7-0.9-14-1.6-20.9-2.7c-12.8-2-25.4-5.1-37.6-9.5c-9.8-3.5-19.1-8.1-28.1-13.3
		c-15.3-8.9-29.8-18.9-43.4-30.1c-1.9-1.6-3.8-3.1-5.7-4.7C110,236.5,109.7,236.3,109.4,236.1z M231.5,232.7c-0.2-0.4-0.3-0.7-0.5-1
		c-0.9-2.5-1.8-5.1-2.6-7.6c-0.9-2.7-2.2-5.3-3.8-7.6c-0.6-0.9-1.2-1.7-2.2-2.2c-1.6-0.9-3.1-0.5-4,1c-0.5,0.9-1,1.8-1.4,2.8
		c-1.1,2.7-1.8,5.5-2.4,8.4c-0.2,0.9-0.4,1.8-0.6,2.7c-0.2-0.2-0.2-0.5-0.3-0.7c-0.4-2.8-0.8-5.5-1.2-8.3c-0.2-1.4-0.5-2.8-1.1-4
		c-0.4-0.7-0.8-1.2-1.7-1.1c-0.8,0.1-1.2,0.6-1.5,1.4c0,0.1-0.1,0.2-0.1,0.4c-0.6,1.9-0.9,3.9-0.9,5.9c-0.2,4.9-0.1,9.8,0.4,14.6
		c0.1,0.6,0,1-0.3,1.5c-2.4,3.9-5,7.7-8.1,11.1c-0.9,1-2,1.7-3.2,2.1c-0.4,0.1-0.8,0.2-1.2,0.2c-1.2,0-2.2-0.3-2.9-1.5
		c-1.6-2.8-2.5-5.8-2.7-9c-0.1-1.2,0-2.4,0-3.5c0.8-0.2,1.6-0.3,2.3-0.6c4.3-1.9,7.5-5,8.9-9.5c0.5-1.6,0.7-3.2,0.4-4.8
		c-0.5-2.5-2.4-4.3-4.9-4.5c-2.2-0.2-4.4,0.2-6.3,1.5c-2,1.4-3.7,3.1-4.9,5.2c-0.5,1-1,2.1-1.4,3.2c-1.5,3.7-2.4,7.5-2.8,11.4
		c-0.3,2.6-0.4,5.2-0.4,7.9c0,1.4,0.1,2.9-0.1,4.3c-0.1,0.8-0.2,1.6-0.3,2.4c-0.3,2.9-0.8,5.8-1.7,8.5c-0.1,0.4-0.3,0.8-0.5,1.3
		c-0.2-0.4-0.4-0.7-0.5-1c-0.4-1-0.8-1.9-1.1-2.9c-1.9-5.5-3.1-11.2-4.3-16.9c-0.7-3.1-1.2-6.1-2.3-9.1c-0.5-1.5-1.1-3-1.8-4.4
		c-0.9-1.9-2.3-3.3-4.2-4.1c-1.7-0.7-3.4-0.6-4.9,0.5c-1,0.7-1.7,1.6-2.4,2.6c-0.9,1.5-1.6,3.1-1.9,4.9c-0.5,2.4-0.8,4.7-1.2,7.1
		c-0.1,0.9-0.2,1.8-0.3,2.8c-0.1-0.1-0.2-0.1-0.2-0.1c-0.1-0.2-0.3-0.5-0.4-0.8c-1.7-4.1-3.2-8.3-4.3-12.6c-0.1-0.5,0-0.8,0.3-1.2
		c1.6-2.1,2.9-4.4,3.9-6.9c1.8-4.7,2.5-9.4,1.4-14.3c-0.4-1.8-0.9-3.5-1.8-5.1c-1.1-1.7-2.6-2.6-4.6-2.5c-1.4,0.1-2.6,0.7-3.7,1.7
		c-1,0.9-1.8,2.1-2.4,3.3c-1,1.9-1.6,3.9-2.1,5.9c-1,4.8-1.3,9.6-0.8,14.6c0.5,5.7,2,11.1,4.1,16.4c2,5.1,4.6,9.9,7.3,14.7
		c1.4,2.5,3.3,4.6,5.6,6.3c1.3,1,2.7,1.4,4.3,0.7c0.8-0.4,1.3-0.9,1.4-1.8c0-0.4,0-0.8-0.1-1.1c-0.3-1.7-1-3.2-1.7-4.7
		c-1.1-2.3-2.3-4.5-3.5-6.8c-0.3-0.7-0.5-1.3-0.5-2.1c0.1-3.6,0.5-7.1,1.2-10.6c0.3-1.6,0.7-3.2,1.4-4.7c0.5-1.1,1.8-1.3,2.6-0.4
		c0.2,0.3,0.4,0.6,0.6,0.8c0.8,1.3,1.3,2.8,1.7,4.2c1.2,4.5,2.5,9,3.7,13.6c0.9,3,1.8,6.1,3,9c1,2.5,2.2,4.8,3.9,6.9
		c1.2,1.5,2.8,2.2,4.8,1.9c1.1-0.2,1.9-0.7,2.3-1.7c0.3-0.8,0.6-1.6,0.9-2.5c0.8-2.9,1.1-5.8,1.2-8.8c0-0.4,0.1-0.7,0.1-1.2
		c0.6,0.7,1.1,1.2,1.7,1.7c2.7,2.5,5.8,3.2,9.3,2.3c2.8-0.7,5-2.2,6.8-4.4c2.8-3.4,5.5-7,7.6-10.9c0.1-0.3,0.3-0.5,0.5-0.9
		c0.1,0.2,0.1,0.3,0.2,0.5c0.5,2.9,1,5.8,1.6,8.7c0.5,2.3,1.1,4.6,1.8,6.9c0.4,1.3,1.1,2.5,2,3.5c1.5,1.7,4.1,0.9,4.7-0.8
		c0.2-0.7,0.4-1.5,0.4-2.2c0-1.2-0.2-2.5-0.4-3.7c-1.1-6.6-2.2-13.1-3.3-19.7c-0.1-0.4-0.1-0.7,0-1.1c0.5-2.3,0.9-4.6,1.4-6.9
		c0.6-2.5,1.3-5,2.3-7.4c0.1-0.3,0.3-0.5,0.5-1c0.2,0.6,0.3,0.9,0.4,1.2c0.3,1,0.5,1.9,0.8,2.9c1,3.3,2,6.6,3.6,9.8
		c0.8,1.5,1.7,2.9,3,4c1.1,0.9,2.3,1.1,3.7,0.7c1.3-0.4,2.4-1.1,3.5-1.8c0.2-0.2,0.5-0.3,0.8-0.6c0.1,1.3,0.2,2.5,0.4,3.6
		c0.5,3.7,1.6,7.2,3.6,10.4c2.5,3.8,5.8,6.6,10.2,8c1.6,0.5,3.4,0.8,5.1,0.8c2.7,0.1,5.2-0.6,7.1-2.7c2-2.1,3.6-4.5,4.7-7.2
		c1.9-4.8,2.6-9.9,2.8-15c0.2-3.9-0.4-7.7-1.1-11.5c-1.1-5.1-2.9-10-5.8-14.3c-0.1-0.1-0.1-0.3-0.2-0.5c0.5-0.1,0.9-0.2,1.3-0.3
		c3.4-0.7,6.2-2.5,8.6-5c3.5-3.6,5.9-7.8,7.1-12.7c0.1-0.5,0.2-1.1,0.3-1.7c0-0.3,0-0.6-0.4-0.8c-0.4-0.1-0.6,0.1-0.8,0.4
		c-0.2,0.3-0.4,0.7-0.5,1.1c-0.4,1.8-1.3,3.5-2.1,5.1c-1.5,2.9-3.3,5.5-5.7,7.7c-2.5,2.3-5.4,3.7-8.9,4.1c-0.6,0.1-1-0.1-1.5-0.4
		c-0.8-0.6-1.6-1.1-2.5-1.5c-1.3-0.5-2.6-0.8-4-1.1c-1.6-0.3-3.1-0.3-4.6,0.4c-2.4,1.1-4.6,2.6-6.2,4.8c-0.7,1-1.5,2.1-2,3.2
		c-1.8,3.4-2.8,7-3.6,10.7c-0.6,2.7-0.9,5.4-1.1,8.2c0,0.3,0,0.7-0.2,0.9C233.9,231,233,232.1,231.5,232.7z M171.4,185.8
		c0.1,0.9,0.2,1.5,0.3,2.2c0.4,2.5,0.8,4.9,1.2,7.4c0.1,0.4,0,0.8-0.4,1.1c-0.8,0.8-1.6,1.5-2.3,2.3c-1.5,1.5-2.8,3.1-4,4.9
		c-2.1,3.3-2.8,6.8-2,10.7c0.5,2.2,1.6,3.8,3.7,4.6c0.4,0.2,0.7,0.3,1.1,0.5c1.6,0.7,3.4,1.1,5.1,0.9c2.6-0.3,4.3-1.9,5.4-4.3
		c0.8-1.7,1.1-3.5,1.1-5.4c0-2.4-0.2-4.9-0.6-7.3c-0.5-2.9-1.1-5.8-1.7-8.7c-0.1-0.5,0-0.9,0.4-1.2c0.9-0.9,1.8-1.9,2.6-2.8
		c0.1-0.1,0.3-0.3,0.4-0.3c0.8,0.8,1.6,1.6,2.4,2.3c3.5,2.7,8.1,1.8,10.4-1.2c0.7-0.9,1.2-1.8,1.7-2.8c1.1-2.2,1.4-4.7,1.5-7.1
		c0.1-2.4-0.5-4.7-1.4-6.9c-0.4-0.9-0.8-1.7-1.2-2.6c1.3,0,2.4-0.5,3.6-1.3c0.1,0.5,0.1,0.9,0.1,1.3c0.2,1.6,0.3,3.1,0.6,4.6
		c0.3,1.9,0.8,3.8,2,5.4c1.9,2.7,5.2,3.4,8,1.6c1.3-0.8,2.2-2,3-3.3c0.2-0.3,0.3-0.6,0.6-1c0.1,0.3,0.2,0.5,0.3,0.6
		c0.9,2.1,1.8,4.1,2.7,6.2c0.4,0.9,1,1.7,1.5,2.5c0.5,0.8,1.2,1.3,2.1,1.7c1.5,0.7,3,0.3,4-1.1c0.4-0.6,0.8-1.3,1-2
		c0.4-1.3,0.7-2.7,1-4c0.2-1.1,0.3-2.2,0.5-3.4c0.5,0.6,0.8,1,1.2,1.5c0.5,0.7,1.2,1.2,2,1.4c1.3,0.4,2.4-0.5,2.5-1.8
		c0-0.3,0-0.6-0.1-0.9c-0.4-1.1-0.7-2.3-1.2-3.4c-1.6-3.7-3.2-7.3-4.8-11c-0.1-0.3-0.2-0.7-0.2-1.1c0.3-2,0.6-4,0.8-5.9
		c0.1-0.5,0.1-0.9,0.2-1.4c0.4,0.3,0.5,0.7,0.7,1c1.1,1.9,2.2,3.7,3.3,5.6c0.7,1.1,1.5,2,2.7,2.5c2,1,3.6,0.5,4.8-1.3
		c0.5-0.7,0.9-1.5,1.2-2.3c0.2-0.4,0.3-0.8,0.2-1.2c0-0.7-0.5-1-1.2-0.7c-0.4,0.2-0.7,0.5-1.1,0.9c-0.5,0.4-0.8,1-1.5,1.3
		c-0.2-0.3-0.3-0.5-0.5-0.8c-0.9-1.6-1.8-3.3-2.8-4.9c-0.6-1-1.2-1.9-1.9-2.9c-0.5-0.7-1.1-1.2-1.9-1.5c-2-0.9-3.6,0-3.9,2.2
		c0,0.1,0,0.2,0,0.3c-0.1,0.9-0.1,1.8-0.2,2.7c-0.1,1.3-0.2,2.6-0.3,3.9c-0.4-0.5-0.7-1-1-1.5c-0.5-0.7-0.9-1.3-1.5-1.9
		c-0.8-0.7-1.9-0.3-2.1,0.7c-0.1,0.3-0.1,0.7-0.1,1c0.1,1.1,0.3,2.3,0.5,3.4c0.9,3.9,2.4,7.7,3.7,11.5c0.2,0.6,0.3,1.2,0.2,1.8
		c-0.2,1.3-0.3,2.5-0.5,3.8c-0.2,1.4-0.5,2.7-1.1,4.2c-0.3-0.5-0.4-0.8-0.6-1.2c-1.4-3.1-2.5-6.3-3.5-9.5c-1.3-4.1-2.5-8.1-3.3-12.3
		c-0.3-1.7-0.7-3.4-1.5-5c-0.3-0.6-0.6-1.1-1-1.6c-0.9-1-2.3-0.8-3.1,0.3c-0.5,0.8-0.8,1.7-0.7,2.7c0.2,1.7,0.3,3.4,0.6,5
		c0.7,4.1,1.6,8.2,2.3,12.2c0.1,0.3,0.1,0.6,0,0.8c-0.6,1.4-1.3,2.7-2.4,3.8c-0.6,0.6-1,0.6-1.4-0.1c-0.4-0.6-0.7-1.3-0.9-2
		c-1-2.9-1.4-5.9-1.9-8.9c-0.2-1.6-0.4-3.3-0.8-4.9c-0.2-0.9-0.5-1.9-0.9-2.7c-1-1.8-3.1-1.7-4,0c-0.4,0.8-0.6,1.7-0.7,2.6
		c0,1.4-0.1,2.7-0.1,4.1c0,0.4-0.1,0.6-0.4,0.9c-1.1,0.8-2.2,1.2-3.6,1.1c-0.5,0-0.9-0.2-1.2-0.5c-0.7-0.7-1.5-1.2-2.4-1.5
		c-1.8-0.6-3.5-0.6-5.1,0.4c-1,0.7-1.9,1.5-2.5,2.6c-0.8,1.4-1.6,2.8-1.9,4.4c-0.4,1.6-0.7,3.2-0.9,4.8c-0.3,2.5-0.4,5.1,0.4,7.5
		c0.1,0.3,0,0.6-0.2,0.8c-0.8,0.8-1.5,1.6-2.3,2.4c-0.1,0.1-0.3,0.2-0.6,0.4c-0.1-0.5-0.2-0.8-0.3-1.2c-0.5-2.8-1-5.7-1.5-8.5
		c-0.4-2.3-0.8-4.6-1.2-6.9c-0.3-1.8-0.5-3.7-0.9-5.6c-0.3-1.7-0.9-3.4-1.9-4.9c-0.6-0.9-1.4-1.5-2.6-1.3c-1.2,0.3-1.8,1.2-2.1,2.3
		c0,0.2-0.1,0.4-0.1,0.6c0.1,1.4,0.1,2.8,0.3,4.2c0.6,3.2,1.3,6.4,2,9.5c0.3,1.3,0.1,2.5-0.5,3.7c-0.6,1.2-1.2,2.4-2.2,3.3
		c-0.8,0.7-1.7,0.7-2.5-0.1c-0.4-0.4-0.7-0.8-0.9-1.3c-1-1.7-1.4-3.6-1.7-5.5c-0.4-2.7-0.6-5.5-1-8.2c-0.2-1.3-0.4-2.6-0.8-3.8
		c-0.4-1.4-1.9-1.6-2.9-0.5c-0.3,0.4-0.7,0.9-0.8,1.4c-0.3,1.2-0.7,2.4-0.8,3.6c-0.4,2.9-0.6,5.8-0.5,8.7c0.1,2.6,0.7,5.1,2.1,7.4
		c2.4,3.9,8,4.2,10.9,1.3c0.9-0.9,1.6-2,2.4-3C171,186.4,171.1,186.2,171.4,185.8z M328.8,161.5c-0.3-0.5-0.6-0.8-0.8-1.1
		c-0.6-1.3-1.3-2.5-1.8-3.9c-1.3-3.6-2.2-7.2-3-10.9c-0.8-3.7-1.6-7.5-2.5-11.2c-0.4-1.7-1-3.3-1.6-5c-0.5-1.3-1.4-2.4-2.6-3.2
		c-1.2-0.8-2.4-0.8-3.4,0.2c-0.5,0.4-1,1-1.4,1.5c-0.6,1-1.2,2.1-1.6,3.2c-0.9,2.2-1.4,4.6-1.9,7c-0.1,0.6-0.3,1.3-0.4,1.9
		c-0.3-0.9-0.4-1.8-0.5-2.6c-0.4-2.1-0.8-4.2-1.3-6.3c-0.2-0.6-0.5-1.3-0.9-1.8c-0.6-0.8-1.5-0.7-2,0.1c-0.2,0.3-0.4,0.7-0.5,1.1
		c-0.1,0.6-0.2,1.2-0.2,1.9c0,0.3-0.1,0.5-0.1,0.8c-0.7,0-1.1-0.5-1.3-1c-0.2-0.7-0.4-1.5-0.5-2.2c-0.1-0.9-0.2-1.7-0.3-2.6
		c-0.1-0.5-0.3-0.9-0.9-1.1c-0.5-0.2-1,0-1.4,0.4c-0.3,0.3-0.5,0.7-0.7,1.1c-0.8,1.6-1.2,3.4-1.2,5.2c0,1.7,0.1,3.4,0.1,5.2
		c0.1,1.4,0.2,2.7,0.3,4.1c0.3,2.9,0.3,5.8,0,8.7c-0.1,1-0.4,1.9-0.9,2.7c-0.4,0.6-0.8,0.6-1.2,0c-0.2-0.3-0.4-0.6-0.5-0.9
		c-0.6-1.7-1.2-3.3-1.7-5.1c-0.6-2.4-1.1-4.8-1.7-7.1c-0.3-1-0.6-2-1-2.9c-0.5-1.1-1.4-1.7-2.3-1.5c-0.9,0.2-1.5,0.9-1.6,2.2
		c-0.4,3.3-1.2,6.5-2.2,9.7c-0.3,0.9-0.7,1.8-1,2.7c-0.2,0.5-0.6,0.6-1,0.2c-0.5-0.4-0.7-0.9-0.8-1.4c-0.5-2.2-1.1-4.3-1.6-6.5
		c-0.5-2.1-1-4.1-1.5-6.2c-0.2-0.8-0.5-1.6-0.8-2.3c-0.4-0.8-0.9-1.6-1.7-2c-1.7-1-3.5-0.2-3.8,1.7c0,0.3,0,0.6-0.1,0.9
		c0,1.8-1.8,4-3.5,4.4c-0.2,0.1-0.4,0.1-0.7,0.1c-1.1,0-2.1-0.3-3.1-0.7c-0.9-0.4-1.9-0.7-2.9-0.6c-3.2,0.4-5.9,1.7-7.7,4.5
		c-0.8,1.3-1.4,2.6-1.8,4.1c-0.7,2.8-1.1,5.7-1,8.6c0.1,3.7,1.1,7.1,3,10.2c1.6,2.5,3.7,4.3,6.6,5.1c2.2,0.6,4.2,0.2,6.1-1.1
		c2-1.3,3.4-3.1,4.2-5.4c0.6-1.7,1-3.5,1.2-5.3c0.6-6.1-1-11.6-4.9-16.3c-0.1-0.2-0.3-0.3-0.3-0.5c0.9-0.4,1.9-0.7,2.7-1.1
		c0.8-0.5,1.6-1.2,2.4-1.8c0.1,0.2,0.1,0.3,0.1,0.3c0.2,3.2,1,6.3,1.8,9.4c0.4,1.5,0.9,2.9,1.6,4.2c0.7,1.2,1.6,2.2,2.9,2.9
		c1.5,0.7,3.1,0.5,4.3-0.6c0.3-0.3,0.6-0.6,0.9-1c0.8-1.1,1.4-2.3,1.9-3.7c0.2-0.7,0.4-1.4,0.7-2.3c0.2,1.1,0.4,2,0.6,2.9
		c0.5,2.2,1.3,4.2,2.8,5.9c0.9,1,1.9,1.8,3.2,2.1c1.4,0.4,2.7,0.2,3.8-0.7c1.2-0.9,1.9-2.1,2.4-3.5c1-3,1.3-6,1.3-9.2
		c0-3-0.5-6-0.8-9c-0.2-1.5-0.1-2.9,0-4.5c1,1.3,2.1,2.3,3.7,2.7c0,1.3-0.1,2.6,0,3.9c0.2,3.4,0.4,6.7,0.7,10.1
		c0.2,2.4,0.5,4.8,0.8,7.2c0.2,1.3,0.5,2.6,1.2,3.8c0.5,0.8,1.1,1.4,2.1,1.3c1-0.1,1.6-0.9,1.8-1.8c0-0.1,0.1-0.3,0.1-0.5
		c0.1-0.8,0.2-1.6,0.1-2.3c-0.2-2.1-0.4-4.2-0.6-6.2c-0.1-1.4-0.5-2.7-0.2-4.1c0.6-3.1,1.2-6.3,1.8-9.4c0.5-2.2,1-4.3,2-6.3
		c0.4-0.9,1-1,1.6-0.1c0.2,0.3,0.3,0.5,0.4,0.8c0.2,0.6,0.4,1.2,0.5,1.8c0.8,3.9,1.6,7.7,2.4,11.6c0.8,3.9,1.8,7.9,3.2,11.7
		c0.8,2.2,1.6,4.4,3,6.4c0.5,0.7,1.1,1.4,1.8,2c1.1,1,2.4,1.2,3.8,0.7c0.8-0.3,1.6-0.7,2.3-1.2c1.4-1,2.5-2.4,3.4-3.9
		c2.7-4.3,4.3-9,5.3-13.9c0.5-2.4,0.8-4.9,1.2-7.3c0.1-0.6,0.2-1.2,0.3-1.8c0.1-0.7-0.2-1.2-0.8-1.3c-0.5-0.1-1,0.2-1.2,0.8
		c-0.1,0.4-0.2,0.8-0.3,1.2c-0.2,1-0.3,2-0.7,2.9c-1,2.9-2,5.7-3,8.6c-0.9,2.7-2.2,5.2-3.5,7.7c-0.5,1-1.3,1.9-1.9,2.8
		C329.7,160.7,329.3,161,328.8,161.5z M95.8,186.1c1.3-1,2.4-2,3.6-2.9c1.1-0.8,2.3-1.6,3.5-2.2c0.7-0.4,1.5-0.7,2.3-0.9
		c2.4-0.4,4.2-0.1,5.3,2.6c0.9,2.1,0.8,4.3,0.9,6.6c-0.3,0.1-0.5,0.2-0.7,0.2c-2.5,0.5-4.6,1.7-6.6,3.2c-1.2,0.9-2.1,2-2.5,3.4
		c-0.5,1.7-0.2,3.3,1,4.6c1.1,1.3,2.6,1.5,4.2,1.1c2-0.5,3.6-1.6,4.8-3.2c1.4-1.8,2.5-3.9,3.4-6c0.1-0.3,0.3-0.6,0.4-0.9
		c1.4-0.2,2.8-0.3,4.2-0.5c0.2,1,0.3,1.9,0.5,2.8c0.7,2.3,2.2,3.7,4.7,4c2.8,0.3,5.1-0.5,7.2-2.3c0.9-0.8,1.7-1.7,2.4-2.6
		c1.5-1.9,2.8-3.9,4.2-5.9c0.4-0.6,0.7-1.2,1.1-1.8c0.2-0.3,0.3-0.6,0.4-0.9c0.2-0.7,0.2-1.1-0.2-1.3c-0.5-0.3-0.9,0-1.2,0.4
		c-0.4,0.3-0.7,0.7-1,1.2c-1.8,2.5-3.6,5-5.7,7.2c-0.2,0.2-0.5,0.5-0.8,0.7c-1.2,0.8-2.5,0.4-3-0.9c-0.7-1.8-1-3.7-1.1-5.6
		c0-1,0-2,0-3c0.1-0.1,0.2-0.1,0.2-0.1c0.1-0.1,0.3-0.1,0.4-0.2c3.2-1.3,5.4-3.7,6.4-7c0.9-3.2-1.6-5.6-4.1-5.4
		c-1.8,0.1-3.2,0.9-4.5,2.1c-1.1,1-1.9,2.2-2.5,3.6c-1.1,2.4-2.1,4.8-2.6,7.4c-0.3,1.7-0.6,3.4-0.9,5.1c-1,0.3-2.1,0.3-3.3,0.3
		c0.2-1.2,0.4-2.2,0.5-3.2c0.3-2,0.2-3.9-0.6-5.8c-0.8-2-2.1-3.1-4.2-3.4c-2.5-0.4-4.9,0.1-7.2,1.1c-0.3,0.1-0.7,0.3-1,0.4
		c0-0.1,0-0.2,0-0.2c0.1-0.2,0.2-0.4,0.4-0.5c2-2.5,3.1-5.3,3.6-8.4c0.2-1.3,0.2-2.7-0.3-4c-0.7-1.9-2.4-2.9-4.5-2.6
		c-0.6,0.1-1.3,0.4-1.8,0.7c-1.2,0.7-2.1,1.6-3,2.7c-1.5,1.9-2.5,4-3.4,6.3c-0.2,0.5-0.4,1.1-0.6,1.6c-0.2-0.3-0.2-0.7-0.3-1
		c-0.1-1.9-0.2-3.8-0.4-5.7c-0.2-1.4-0.4-2.8-0.8-4.1c-0.1-0.5-0.4-1-0.8-1.3c-0.7-0.7-1.6-0.5-2.1,0.3c-0.2,0.3-0.4,0.7-0.4,1.1
		c-0.2,1.4-0.5,2.8-0.5,4.2c-0.1,2.5,0,4.9,0,7.4c0,1.4,0.2,2.8,0.3,4.2c0.2,2.5,0.4,4.9,0.7,7.4c0.4,3.2,1.1,6.4,2,9.5
		c0.7,2.3,1.3,4.7,2.6,6.8c0.4,0.7,1,1.5,1.6,2c0.5,0.5,1.2,0.8,1.9,0.9c1.2,0.3,2.2-0.4,2.3-1.7c0.1-0.7,0-1.4-0.1-2
		c-0.4-2.3-1.2-4.6-2-6.8C97.2,191.8,96.5,189,95.8,186.1z M241.3,275.1c0,0.1,0,0.1,0,0.2c-1.1,0.9-2.2,1.8-3.2,2.7
		c-3,2.6-5.9,5.3-9.1,7.7c-0.5,0.4-1,0.8-1.5,1.3c-0.4,0.4-0.7,0.8-0.4,1.4c0.2,0.6,0.7,0.7,1.3,0.7c0.8-0.1,1.7-0.2,2.5-0.2
		c5.8-0.3,11.7-0.5,17.5-0.8c3.9-0.2,7.7-0.3,11.6-1c1.4-0.2,2.8-0.6,4.1-0.9c0.7-0.2,1-0.7,0.9-1.2c-0.1-0.6-0.5-0.9-1.1-1
		c-1.2-0.2-2.3-0.5-3.5-0.7c-4.3-0.7-8.5-1.3-12.8-1.9c-1.3-0.2-2.5-0.4-3.8-0.6c0.3-0.4,0.6-0.5,0.9-0.7
		c7.1-4.1,14.3-8.1,21.4-12.2c0.2-0.1,0.5-0.3,0.7-0.4c0.4-0.3,0.6-0.7,0.4-1.2c-0.1-0.5-0.5-0.7-1-0.7c-0.4,0-0.8,0-1.2,0.1
		c-1.5,0.2-3,0.3-4.5,0.5c-4.5,0.6-8.9,1.1-13.4,1.8c-3,0.4-6,1.1-9,1.5c-6.2,0.8-12.3,1.5-18.5,2.3c-6.4,0.8-12.8,1.7-19.1,2.9
		c-0.4,0.1-0.8,0.2-1.1,0.4c-0.4,0.2-0.5,0.6-0.3,1c0.1,0.3,0.4,0.5,0.7,0.6c0.2,0.1,0.6,0.1,0.8,0.1c5-0.2,10.1-0.4,15.1-0.7
		c4.1-0.2,8.2-0.5,12.3-0.6c4.1-0.1,8.1-0.2,12.2-0.2C240.7,275.1,241,275.1,241.3,275.1z M296.5,188.8c0.1,0.3,0.1,0.4,0.1,0.6
		c0.3,4.8,0.9,9.6,1.7,14.4c0.3,1.7,0.7,3.3,1,5c0.2,1,0.9,1.3,1.7,0.6c0.5-0.4,0.9-0.8,1.3-1.2c1.2-1.4,2.4-2.8,3.6-4.2
		c3.9-4.7,7.8-9.5,11.7-14.2c3.8-4.6,7.9-9,11.5-13.9c0.3-0.4,0.6-0.6,0.8-1c0.4-0.6,0-1.3-0.7-1.2c-0.3,0-0.6,0.2-0.8,0.4
		c-0.9,0.7-1.7,1.4-2.5,2.1c-4.2,3.6-8.4,7.3-12.6,10.9c-2.8,2.5-5.6,5-8.3,7.4c-0.5,0.4-1,0.8-1.6,1.4c0-0.5,0-0.8,0-1.1
		c0-1.6,0.1-3.2,0.1-4.8c0-4.3,0-8.7,0-13c0-1-0.2-2.1-0.5-3.1c-0.4-1.1-1.6-1.3-2.4-0.5c-0.2,0.2-0.5,0.5-0.6,0.8
		c-1.1,1.6-2.2,3.2-3.2,4.9c-4.1,6.7-8.1,13.4-12.2,20.2c-1.6,2.6-3.2,5.1-4.8,7.6c-0.1,0.2-0.3,0.4-0.4,0.7c-0.2,0.4-0.2,0.7,0.2,1
		c0.4,0.3,0.7,0.1,1-0.2c0.1-0.1,0.2-0.3,0.4-0.4c0.4-0.5,0.7-0.9,1.1-1.4c2-2.4,4.1-4.7,6.1-7.1c2.6-3.1,5.1-6.3,7.6-9.5
		C296,189.4,296.2,189.2,296.5,188.8z M116.7,223.7c-0.4-0.1-0.5-0.2-0.7-0.2c-2.1-0.8-4.1-1.7-6.2-2.5c-5.7-2.2-11.4-4.4-17.2-6.5
		c-0.1-0.1-0.3-0.1-0.4-0.1c-0.3-0.1-0.7,0-0.8,0.3c-0.1,0.3-0.1,0.6,0.1,0.9c0.1,0.2,0.4,0.4,0.6,0.6c2.2,1.5,4.4,3.1,6.6,4.6
		c5.4,3.4,10.9,6.8,16.4,10.1c2.9,1.8,5.9,3.4,8.8,5.2c1.5,0.9,3,1.8,4.6,2.8c0.2,0.1,0.4,0.3,0.7,0.3c0.5,0.2,1.1,0.1,1.4-0.3
		c0.3-0.4,0.3-0.9,0-1.3c-0.3-0.5-0.6-1-0.9-1.4c-3-4.1-6-8.3-8.9-12.4c-1.5-2.1-2.9-4.2-4.4-6.3c-0.1-0.2-0.2-0.4-0.4-0.7
		c0.2-0.1,0.4-0.2,0.6-0.2c5.1-1.3,10.2-2.6,15.3-3.9c0.4-0.1,0.8-0.3,1.1-0.5c0.5-0.4,0.3-0.9-0.3-1.1c-0.1-0.1-0.3-0.1-0.5-0.1
		c-2.3-0.2-4.6-0.5-6.9-0.7c-5.2-0.4-10.4-0.8-15.6-1.1c-0.6,0-1.2,0-1.8,0.1c-0.8,0.2-1,0.6-0.7,1.3c0.1,0.2,0.2,0.3,0.3,0.5
		c1.3,2.4,2.8,4.6,4.5,6.8C113.6,219.5,115.1,221.6,116.7,223.7z"/>
	<path class="st12" d="M257.1,146.7c0.2,3.5,1.2,8.1,2.7,11.7c0.7,1.6,1.4,3.1,2.5,4.5c0.4,0.5,0.9,1.1,1.4,1.5
		c1.2,1,2.5,0.7,3.1-0.8c0.5-1.3,0.9-2.6,1.1-3.9c0.8-4.8,0-9.4-2.7-13.6c-1.2-1.8-2.8-3.1-4.9-3.7c-0.4-0.1-0.9-0.2-1.4-0.2
		c-0.8,0-1.2,0.3-1.3,1C257.4,144.4,257.3,145.5,257.1,146.7z"/>
	<path class="st12" d="M246.6,221.7c-0.1-3.7,0-7,0.7-10.3c0.3-1.6,0.9-3.1,1.9-4.5c1-1.4,2.6-1.9,4.1-1.1c0.8,0.4,1.6,0.9,2.2,1.5
		c3.3,2.7,5.2,6.3,6.8,10.2c1,2.4,1.4,4.9,1.8,7.4c1,6.1,0.6,12.1-1.1,18c-0.7,2.3-1.7,4.5-3.4,6.4c-1.7,1.8-3.2,2.4-5.9,0.4
		c-1.4-1-2.3-2.4-3-3.9c-1.4-3.3-2.3-6.7-2.8-10.2c-0.4-2.4-0.7-4.8-0.9-7.2C246.8,226.1,246.7,223.7,246.6,221.7z"/>
	<path class="st12" d="M147.2,227.8c-0.2-0.8-0.3-1.4-0.4-2c-1.1-4.9-1.6-9.9-1.2-14.9c0.2-2.4,0.6-4.8,1.5-7.1
		c0.4-1.1,1.2-1.3,2.1-0.4c0.5,0.5,0.9,1.2,1.2,1.8c0.9,2.1,1.4,4.3,1.6,6.6c0.3,5.7-1.3,10.8-4.3,15.5
		C147.6,227.4,147.5,227.5,147.2,227.8z"/>
	<path class="st12" d="M189.1,236.3c0.1-0.7,0.1-1.4,0.2-2c0.3-3.2,1.1-6.2,2.5-9.1c0.6-1.1,1.3-2.1,2.2-3c1-0.9,2.7-0.8,3.6,0.4
		c0.5,0.7,0.7,1.4,0.8,2.2c0.1,2.1-0.4,4.1-1.5,5.9c-1.4,2.2-3.3,4-5.7,5.1C190.5,236,190,236.3,189.1,236.3z"/>
	<path class="st12" d="M195.2,181.1c0,1.9-0.3,3.8-1,5.7c-0.3,0.6-0.6,1.3-0.9,1.8c-0.6,1-1.8,1-2.5,0.1c-0.7-1-1.4-2-1.8-3
		c-1.1-2.7-1.3-5.7-1-8.6c0.1-1,0.3-2,0.5-3c0.1-0.6,0.4-1.2,0.7-1.7c0.7-1.1,1.9-1.2,2.8-0.3c0.5,0.5,1,1.1,1.3,1.7
		C194.4,175.9,195.3,178.1,195.2,181.1z"/>
	<path class="st12" d="M173.6,199.1c0.3,2.2,0.6,4.3,0.9,6.5c0.2,1.6,0.3,3.2,0.4,4.8c0.1,1.4-0.1,2.7-0.6,4.1
		c-0.7,1.7-2.3,2.4-4,1.9c-1.8-0.5-2.8-1.6-3.1-3.5c-0.3-2.2-0.2-4.3,0.7-6.3c1.3-2.9,3.3-5.2,5.4-7.5
		C173.4,199.1,173.5,199.1,173.6,199.1z"/>
	<path class="st12" d="M257.1,146.7c0.2-1.1,0.3-2.3,0.5-3.4c0.2-0.8,0.6-1,1.3-1c0.5,0,0.9,0,1.4,0.2c2.1,0.6,3.7,1.9,4.9,3.7
		c2.6,4.2,3.5,8.7,2.7,13.6c-0.2,1.3-0.6,2.6-1.1,3.9c-0.5,1.4-1.9,1.7-3.1,0.8c-0.5-0.4-1-1-1.4-1.5c-1.1-1.4-1.8-2.9-2.5-4.5
		C258.3,154.8,257.3,150.2,257.1,146.7z"/>
	<path class="st12" d="M95,182.5c-0.3-1.3-0.6-2.4-0.4-3.6c0.7-3.4,1.8-6.6,3.5-9.7c0.3-0.6,0.7-1.2,1.2-1.7c0.8-1,1.7-0.8,2.3,0.3
		c0.2,0.4,0.3,0.9,0.4,1.4c0.3,2.2,0,4.4-0.9,6.4c-0.1,0.1-0.1,0.3-0.2,0.4C99.3,178.5,97.3,180.4,95,182.5z"/>
	<path class="st12" d="M111,192.1c-0.3,1.9-0.6,3.5-1.5,5c-0.8,1.5-2.3,2.1-4,2.3c-0.4,0.1-0.8-0.2-1-0.6c-0.3-0.7-0.5-1.4-0.1-2.1
		c0.2-0.4,0.4-0.8,0.7-1.1C106.8,194,108.7,192.9,111,192.1z"/>
	<path class="st12" d="M127.5,180.9c0.4-2.5,0.8-4.8,2.2-6.8c0.3-0.4,0.7-0.7,1.1-1c0.4-0.3,0.8-0.2,1.1,0.2
		c0.4,0.5,0.6,1.1,0.5,1.8c-0.3,1.4-1.1,2.7-2,3.7C129.5,179.7,128.6,180.4,127.5,180.9z"/>
</g>
</svg>
