<?xml version="1.0" encoding="utf-8"?>
<!-- Generator: Adobe Illustrator 21.0.1, SVG Export Plug-In . SVG Version: 6.00 Build 0)  -->
<svg version="1.1" id="Calque_1" xmlns="http://www.w3.org/2000/svg" xmlns:xlink="http://www.w3.org/1999/xlink" x="0px" y="0px"
	 viewBox="0 0 432 432" style="enable-background:new 0 0 432 432;" xml:space="preserve">
<style type="text/css">
	.st0{fill:#FFFFFF;}
	.st1{fill:#ED1C24;}
	.st2{fill:#C29347;}
	.st3{fill:#F47B47;}
	.st4{fill:#C73253;}
	.st5{fill:#F7941D;}
	.st6{fill:#ECECEB;}
	.st7{fill:#594A42;}
	.st8{fill:#EB2026;}
	.st9{fill:#0074A0;}
	.st10{fill:#C42127;}
	.st11{fill:#6C7F8F;}
	.st12{fill-rule:evenodd;clip-rule:evenodd;fill:#6C7F8F;}
	.st13{fill:#431D1B;}
	.st14{fill:#957B7A;}
	.st15{fill-rule:evenodd;clip-rule:evenodd;}
	.st16{fill:#76174D;}
	.st17{fill:#BC1F5D;}
	.st18{fill:#A33B63;}
	.st19{fill:#012F49;}
	.st20{fill:#D2A267;}
	.st21{fill-rule:evenodd;clip-rule:evenodd;fill:#D2A267;}
	.st22{fill:#9B8579;}
	.st23{fill:#E660A3;}
	.st24{fill:#678F96;}
	.st25{fill-rule:evenodd;clip-rule:evenodd;fill:#431D1B;}
	.st26{fill:#F04A53;}
	.st27{fill:#72645F;}
	.st28{fill:#F15A29;}
	.st29{fill:#C2B59B;}
	.st30{fill:#F26D75;}
	.st31{fill:#720E1B;}
	.st32{fill:#EF6770;}
	.st33{fill-rule:evenodd;clip-rule:evenodd;fill:#ED1C24;}
	.st34{fill-rule:evenodd;clip-rule:evenodd;fill:#76174D;}
	.st35{fill:#C2233E;}
	.st36{fill:#EE3E5D;}
	.st37{fill:#A3D6B3;}
	.st38{fill:#CFBDB4;}
	.st39{fill:#E4E5E3;}
	.st40{fill:#F1DDC4;}
	.st41{fill:#EF687E;}
	.st42{fill:#E36576;}
	.st43{fill:#D4C9C7;}
	.st44{fill:#F1B5BD;}
	.st45{fill:#9C7654;}
	.st46{fill-rule:evenodd;clip-rule:evenodd;fill:#9C7654;}
	.st47{fill:#6C4826;}
</style>
<g>
	<g>
		<path class="st10" d="M124.5,174.4c2.9-4.2,5.8-8.4,8.6-12.6c3.9-5.8,7.6-11.3,11.1-16.5c0.3-0.5,0.1-1.2-0.4-2
			c-0.6-0.8-1.4-1.6-2.4-2.5c-1.1-0.9-2.2-1.7-3.6-2.5c-1.3-0.8-2.6-1.5-3.9-2.1c-1.3-0.6-2.3-0.9-3.3-1.1c-0.9-0.2-1.5-0.1-1.8,0.2
			L113,158l-15.9-22.7c-0.3-0.3-0.9-0.4-1.8-0.2c-0.9,0.2-2,0.6-3.3,1.1c-1.3,0.6-2.5,1.3-3.9,2.1c-1.3,0.8-2.5,1.7-3.6,2.5
			c-1.1,0.9-1.9,1.7-2.4,2.5c-0.6,0.8-0.7,1.5-0.4,2c3.5,5.2,7.2,10.7,11.1,16.5c2.8,4.1,5.7,8.4,8.6,12.6l-20.3,29
			c-0.2,0.3,0,0.8,0.5,1.5c0.6,0.8,1.3,1.6,2.3,2.6c1,1,2,2,3.2,3.1c1.2,1.1,2.4,2,3.5,2.7c1.2,0.8,2.2,1.3,3.1,1.6
			c0.9,0.3,1.5,0.2,1.8-0.2c4.2-5.5,8.5-11.3,12.8-17.3c1.6-2.2,3.1-4.4,4.7-6.5c1.5,2.2,3.1,4.3,4.7,6.5c4.3,6,8.5,11.7,12.8,17.3
			c0.3,0.5,0.9,0.5,1.8,0.2c0.9-0.3,1.9-0.8,3.1-1.6c1.2-0.8,2.3-1.7,3.5-2.7c1.2-1.1,2.3-2.1,3.2-3.1c1-1,1.7-1.9,2.3-2.6
			c0.6-0.8,0.7-1.3,0.5-1.5L124.5,174.4z"/>
		<path d="M206.4,144.2c-2.9-3.3-6.4-5.7-10.4-7.3c-4.1-1.5-8.5-2.3-13.2-2.3c-4.7,0-9.5,0.6-14.2,1.8c-4.7,1.2-8.9,3.4-12.5,6.6
			c-3.7,3.2-6.6,7.6-8.8,13.1c-2.2,5.5-3.2,12.6-3,21.1c0.2,7.9,1.5,14.4,3.9,19.3c2.4,4.9,5.4,8.8,9,11.6c3.6,2.8,7.6,4.6,11.9,5.6
			c4.3,1,8.5,1.4,12.4,1.2c2.6-0.1,5.2-0.3,7.9-0.7c2.7-0.4,5.3-1.2,7.9-2.3c2.5-1.1,4.9-2.6,7.2-4.4c2.2-1.8,4.2-4.2,5.9-7.1
			c1.7-2.9,3-6.3,4-10.3c1-4,1.4-8.7,1.4-14.2c0-7.4-0.8-13.7-2.5-19C211.6,151.8,209.3,147.5,206.4,144.2z M194.7,187.3
			c-1.1,2.7-2.4,4.8-3.9,6.4c-1.6,1.6-3.2,2.7-5.1,3.4c-1.8,0.7-3.6,1-5.2,1c-2.1,0-4.1-0.5-6-1.4c-1.9-1-3.6-2.3-5.1-4.1
			c-1.5-1.7-2.8-3.8-3.7-6.2c-1-2.4-1.5-5-1.6-7.8c-0.2-3.7,0.1-7.2,0.8-10.4c0.8-3.3,1.9-6.1,3.4-8.5c1.5-2.4,3.4-4.2,5.6-5.5
			c2.2-1.3,4.7-1.9,7.5-1.9c2.2,0.1,4.2,0.6,6,1.5c1.8,0.9,3.4,2.4,4.8,4.4c1.3,2,2.4,4.5,3.1,7.6c0.7,3.1,1.1,6.9,1.1,11.4
			C196.2,181.2,195.7,184.6,194.7,187.3z"/>
		<path class="st10" d="M259.6,174.4c2.9-4.2,5.8-8.4,8.6-12.6c3.9-5.8,7.6-11.3,11.1-16.5c0.3-0.5,0.1-1.2-0.4-2
			c-0.6-0.8-1.4-1.6-2.4-2.5c-1.1-0.9-2.2-1.7-3.6-2.5c-1.3-0.8-2.6-1.5-3.9-2.1c-1.3-0.6-2.3-0.9-3.3-1.1c-0.9-0.2-1.5-0.1-1.8,0.2
			L248.1,158l-15.9-22.7c-0.3-0.3-0.9-0.4-1.8-0.2c-0.9,0.2-2,0.6-3.3,1.1c-1.3,0.6-2.5,1.3-3.9,2.1c-1.3,0.8-2.5,1.7-3.6,2.5
			c-1.1,0.9-1.9,1.7-2.4,2.5c-0.6,0.8-0.7,1.5-0.4,2c3.5,5.2,7.2,10.7,11.1,16.5c2.8,4.1,5.7,8.4,8.6,12.6l-20.3,29
			c-0.2,0.3,0,0.8,0.5,1.5c0.6,0.8,1.3,1.6,2.3,2.6c1,1,2,2,3.2,3.1c1.2,1.1,2.4,2,3.5,2.7c1.2,0.8,2.2,1.3,3.1,1.6
			c0.9,0.3,1.5,0.2,1.8-0.2c4.2-5.5,8.5-11.3,12.8-17.3c1.6-2.2,3.1-4.4,4.7-6.5c1.5,2.2,3.1,4.3,4.7,6.5c4.3,6,8.5,11.7,12.8,17.3
			c0.3,0.5,0.9,0.5,1.8,0.2c0.9-0.3,1.9-0.8,3.1-1.6c1.2-0.8,2.3-1.7,3.5-2.7c1.2-1.1,2.3-2.1,3.2-3.1c1-1,1.7-1.9,2.3-2.6
			c0.6-0.8,0.7-1.3,0.5-1.5L259.6,174.4z"/>
		<path d="M348.4,157.1c-1.7-5.2-4-9.5-6.9-12.8c-2.9-3.3-6.4-5.7-10.4-7.3c-4.1-1.5-8.5-2.3-13.2-2.3c-4.7,0-9.5,0.6-14.2,1.8
			c-4.7,1.2-8.9,3.4-12.5,6.6c-3.7,3.2-6.6,7.6-8.8,13.1c-2.2,5.5-3.2,12.6-3,21.1c0.2,7.9,1.5,14.4,3.9,19.3
			c2.4,4.9,5.4,8.8,9,11.6c3.6,2.8,7.6,4.6,11.9,5.6c4.3,1,8.5,1.4,12.4,1.2c2.6-0.1,5.2-0.3,7.9-0.7c2.7-0.4,5.3-1.2,7.9-2.3
			c2.5-1.1,4.9-2.6,7.2-4.4c2.2-1.8,4.2-4.2,5.9-7.1c1.7-2.9,3-6.3,4-10.3c1-4,1.4-8.7,1.4-14.2
			C350.9,168.6,350.1,162.3,348.4,157.1z M329.8,187.3c-1.1,2.7-2.4,4.8-3.9,6.4c-1.6,1.6-3.3,2.7-5.1,3.4c-1.8,0.7-3.6,1-5.2,1
			c-2.1,0-4.1-0.5-6-1.4c-1.9-1-3.6-2.3-5.1-4.1c-1.5-1.7-2.8-3.8-3.7-6.2c-1-2.4-1.5-5-1.6-7.8c-0.2-3.7,0.1-7.2,0.8-10.4
			c0.8-3.3,1.9-6.1,3.4-8.5c1.5-2.4,3.4-4.2,5.6-5.5c2.2-1.3,4.7-1.9,7.5-1.9c2.2,0.1,4.2,0.6,6,1.5c1.8,0.9,3.4,2.4,4.8,4.4
			c1.4,2,2.4,4.5,3.1,7.6c0.7,3.1,1.1,6.9,1.1,11.4C331.3,181.2,330.8,184.6,329.8,187.3z"/>
	</g>
	<g>
		<path d="M233.7,223.8c-0.6-0.2-1.4-0.3-2.2-0.3c-0.8,0-1.5,0-2.2,0.1c-0.7,0.1-1,0.4-1.1,0.8c-0.1,8.4-0.6,15.5-1.5,21.3
			c-0.8,5.8-1.9,10.5-3.1,14.2c-1.2,3.7-2.6,6.6-4,8.5c-1.4,2-2.9,3.4-4.3,4.3c-1.4,0.9-2.7,1.3-3.8,1.4c-1.2,0.1-2.1,0.1-2.7,0
			c-2.3-0.3-4.2-1.5-5.6-3.7c-1.4-2.2-2.6-5-3.4-8.3c-0.8-3.3-1.4-6.9-1.7-10.7c-0.3-3.9-0.5-7.6-0.5-11.2c0-3.3,0.1-6.4,0.4-9.2
			c0.2-2.8,0.4-4.8,0.6-6.2c-0.1-0.3-0.4-0.6-1.1-0.7c-0.6-0.2-1.3-0.2-2.1-0.2c-0.8,0-1.5,0.1-2.2,0.2c-0.7,0.1-1,0.3-1.1,0.6v-0.3
			c-0.2,2.9-0.4,5.6-0.4,8.2c-0.1,2.6-0.1,5-0.1,7.3c0,6,0.3,11.1,0.8,15.3c0.6,4.3,1.3,7.8,2.2,10.7c0.9,2.9,2,5.2,3.2,7
			c1.2,1.8,2.4,3.1,3.6,4.1c1.2,1,2.4,1.6,3.5,2c1.1,0.4,2.1,0.6,3,0.7c4.3,0.6,7.9,0,11-1.8c3-1.8,5.5-4.2,7.4-7.4
			c-0.1,0.7-0.3,1.3-0.4,1.9c-0.1,0.5-0.2,1.1-0.4,1.8c-0.8,3.6-1.7,6.6-2.8,8.8c-1.1,2.2-2.3,4-3.6,5.2c-1.3,1.2-2.7,2.1-4.2,2.5
			c-1.4,0.4-2.9,0.7-4.3,0.8c-1.8,0-3.6-0.2-5.4-0.7c-1.8-0.5-3-1.3-3.8-2.4c-0.5-0.3-1.1-0.4-1.8-0.1c-0.7,0.2-1.4,0.6-1.9,1
			c-0.6,0.4-1.1,0.9-1.4,1.4c-0.4,0.5-0.4,0.9-0.2,1.1H196c0.8,1.2,1.9,2.2,3.2,2.9c1.3,0.7,2.6,1.2,4,1.6c1.4,0.4,2.7,0.6,4.1,0.8
			c1.3,0.1,2.5,0.2,3.5,0.2c3-0.1,5.7-0.7,8.1-1.8c2.4-1.2,4.4-2.7,6.2-4.7c1.7-2,3.1-4.3,4.2-6.9c1.1-2.7,1.9-5.6,2.5-8.8
			c0.4-2.8,0.8-5.8,1.1-9.1c0.3-3.2,0.6-6.6,0.7-10c0.2-3.4,0.3-6.8,0.4-10.3c0.1-3.4,0.2-6.7,0.3-9.9c0.1-2.1,0.1-4.1,0.2-6
			c0.1-1.9,0.1-3.7,0.2-5.4C234.7,224.3,234.4,224,233.7,223.8z"/>
		<path d="M250.9,226.4c-0.3-1.3-0.5-2.3-0.7-3c-0.2-0.3-0.7-0.4-1.3-0.5c-0.7-0.1-1.4-0.1-2.1,0c-0.7,0.1-1.4,0.4-2,0.8
			c-0.6,0.4-0.8,0.9-0.7,1.6l-0.1-0.1c0.3,0.4,0.5,1.2,0.8,2.2c0.2,1,0.4,1.7,0.4,2.1c0,0.3-0.1,0.6-0.2,1c-0.1,0.4-0.3,0.8-0.7,1.2
			h0.1c-0.3,0.4-0.2,0.8,0.2,1.3c0.4,0.5,1,0.9,1.7,1.3c0.7,0.4,1.4,0.6,2.1,0.7c0.7,0.1,1.2-0.1,1.5-0.5v-0.1
			c0.4-0.7,0.8-1.5,1.1-2.3c0.3-0.9,0.4-1.8,0.4-2.7C251.3,228.7,251.2,227.7,250.9,226.4z"/>
		<path d="M296.4,224.3c0-0.3-0.3-0.6-0.8-0.8c-0.6-0.2-1.2-0.3-1.9-0.3c-0.7,0-1.4,0-2.1,0.1c-0.7,0.1-1.1,0.3-1.3,0.6
			c-3.4-1.9-6.9-2.7-10.6-2.4c-3.8,0.3-7.1,1.1-10,2.6c-2.8,1.5-5.3,3.4-7.4,5.7c-2.1,2.3-3.9,4.9-5.3,7.8c-1.4,2.9-2.5,5.9-3.4,8.9
			c-0.8,3-1.4,6.1-1.8,9.1c-0.4,3-0.5,5.8-0.5,8.4c0,1.9,0.1,4,0.3,6.3c0.2,2.4,0.6,4.8,1.2,7.2c0.6,2.5,1.3,4.9,2.3,7.2
			c1,2.4,2.2,4.5,3.7,6.3c1.5,1.8,3.3,3.3,5.4,4.4c2.1,1.1,4.6,1.7,7.4,1.7c4.3,0,8-1.1,11.1-3.4c3.1-2.2,5.8-5.2,8.1-8.8l-0.1,9.5
			c0,0.5,0.3,0.8,1,1c0.7,0.2,1.4,0.2,2.3,0.1c0.8-0.1,1.6-0.3,2.3-0.5c0.7-0.2,1-0.4,1-0.6c-0.1-11.7-0.2-23.4-0.3-35.1
			C296.7,247.8,296.6,236.1,296.4,224.3z M290.3,260.2c-0.1,2.5-0.2,4.8-0.4,7c-0.2,2.2-0.5,4.2-0.8,6c-0.3,1.8-0.7,3.3-1.1,4.5
			c-0.9,1.7-1.9,3.4-3,5.1c-1.1,1.7-2.2,3.2-3.6,4.5c-1.3,1.3-2.8,2.4-4.5,3.2c-1.7,0.8-3.6,1.2-5.7,1.2c-1.8,0-3.4-0.5-4.7-1.4
			c-1.3-1-2.5-2.2-3.5-3.7c-1-1.5-1.9-3.3-2.5-5.2c-0.7-2-1.2-3.9-1.6-6c-0.4-2-0.7-4-0.9-5.9c-0.2-1.9-0.3-3.6-0.3-5.1
			c0-2.2,0.2-4.6,0.5-7.2c0.3-2.7,0.8-5.4,1.6-8.2c0.7-2.8,1.7-5.5,2.8-8.1c1.2-2.6,2.6-4.9,4.3-6.9c1.7-2,3.7-3.6,6.1-4.8
			c2.3-1.2,5-1.8,7.9-1.8c2,0.1,3.7,0.5,5.1,1.2c1.4,0.8,2.8,1.8,4,3.1c0.1,3.2,0.3,6.6,0.4,10.1c0.1,3.6,0.2,7.2,0.2,11.1
			C290.4,255.2,290.4,257.7,290.3,260.2z"/>
		<path d="M323.4,291.5c-2.5,0-4.9,0-7.3-0.1c-2.4-0.1-4.9-0.1-7.3-0.1c-0.1-11.5-0.2-22.7-0.3-33.6c-0.1-10.9-0.2-22.1-0.3-33.6
			c0-0.2-0.3-0.4-1-0.5c-0.6-0.1-1.4-0.2-2.2-0.2c-0.8,0-1.5,0-2.2,0.1c-0.6,0.1-0.9,0.3-0.9,0.5l0.4,70.4c0,0.7,0.1,1.2,0.3,1.6
			c0.2,0.4,0.5,0.6,0.8,0.8c0.4,0.1,0.7,0.2,1.2,0.2c0.4,0,0.8,0,1.3,0h0.3c1.1,0,2.3,0,3.8,0c1.5,0,3,0,4.5,0c1.5,0,3.1,0,4.6,0
			c1.5,0,2.8,0,3.8,0c0.1-0.1,0.3-0.5,0.4-1.1c0.1-0.6,0.2-1.2,0.3-1.9c0-0.7,0-1.3,0-1.9C323.8,291.8,323.6,291.5,323.4,291.5z"/>
		<path d="M351,292.4c0-0.6-0.2-0.9-0.4-0.9c-2.5,0-4.9,0-7.3-0.1c-2.4-0.1-4.9-0.1-7.3-0.1c-0.1-11.5-0.2-22.7-0.3-33.6
			c-0.1-10.9-0.2-22.1-0.3-33.6c0-0.2-0.3-0.4-0.9-0.5c-0.6-0.1-1.4-0.2-2.2-0.2c-0.8,0-1.5,0-2.2,0.1c-0.6,0.1-0.9,0.3-0.9,0.5
			l0.4,70.4c0,0.7,0.1,1.2,0.3,1.6c0.2,0.4,0.5,0.6,0.8,0.8c0.3,0.1,0.7,0.2,1.2,0.2c0.4,0,0.8,0,1.3,0h0.3c1.1,0,2.3,0,3.8,0
			c1.5,0,3,0,4.5,0c1.5,0,3.1,0,4.6,0c1.5,0,2.8,0,3.8,0c0.1-0.1,0.3-0.5,0.4-1.1c0.1-0.6,0.2-1.2,0.3-1.9
			C351,293.6,351,292.9,351,292.4z"/>
	</g>
	<g>
		<path class="st10" d="M178.3,260c-0.3,0.7-1,1.2-1.7,0.8c0.4,3-2.4-0.4-3.3-0.3c-0.8,0.1-2.8,0.3-3.8,0.5c0.6,1.3,1.1,2.6,1.5,3.9
			c-2.2-0.9-4.6-7.7-7.2-2.8c-4.9-0.6-1.8,1-0.2,3.6c-3.6,0.7-3.3-6.2-8.8-2.9c-2.1,1.3,0,3,1.3,3.9c1.4,1,2.1,4.1-0.2,2.1
			c-3.1-2.6-2.3-5.8-7.2-5.9c-2.2-0.1-0.2,6.7-0.7,7.9c-3.8-1.9,1.1-7.5-4.6-8.7c-3.8-0.8,0.3,4.4-2.2,6.2c-0.5-2.3,0.3-5.2-0.8-7.4
			c-1.5-3-2.5,3.3-2.5,3.3c-0.7-1.5-0.7-3-1.7-4.6c-1.1-1.9-3.4,1.1-4.1-1.5c-2.7,0.7-2.4,2.1-4.2,3.3c-0.7-2.6-3.7,0.4-3.9,2.3
			c-0.1,1.3,0.1,4.2-1.1,5.2c-0.3-1.1,0.8-5.2-0.7-5.6c-2.2-0.4-2.1,3.8-2.7,4.9c-0.5-1.7,1.1-5.1-2.4-4.2c-1.7,0.5-2.6,1-4.5,0.5
			c-4.1-0.8-4,5-5.7,7.2c-0.1-2,3.2-7.4,0.6-8.8c-2.9-1.2-1.7,4.8-5.3,4.4c1.5-1.1,3-3.4,1.7-5.1c-1.6-2.1-3,0.7-4.1,1.6
			c-0.1-0.8-0.1-1.7-0.2-2.5c-0.9,0.3-3.4,3.9-3.9,3.4c-1.5-1.3,1.7-3.7-0.9-4c-3.5-0.5-3.5,0.9-5.4,2.6c-0.2-0.7-0.5-1.5-0.8-2.3
			c-1,0.5-1.7,0.4-2.1,1.6c-0.7-1.9-4.4-2.5-5.6-1.5c1.8,3,2,4.8,5.7,4c0.2,1.5,3.1,4.1,4.2,5.1c2.9,2.6,3.9-0.2,5.8-1.8
			c0.7,3.1-2.6,4,1.7,6.2c1.9,1,2-0.5,3,1.6c0.4,0.7,0.9,0.9,1.6,0.2c0.8,3.9,2.8-1.9,4.2-2.8c0.5,2.9-2.7,5.2,0.7,7.2
			c3,1.8,3.3,1.3,6.1-0.4c-0.6,0.6-0.6,1.3-0.1,1.9c0.6-0.6,1.2-1.1,1.9-1.5c-1,2.8-1.1,3.9,2.2,4.8c4.3,1.1,2.6-3.1,4.7-4.5
			c0.8,2-1.4,3.4-1.1,5.3c2-1.6,3.4,3,6.1,0.5c1.7-1.6,1.1-4.7,2.7-6c0,0.2-0.3,3.6,0.5,3.1c0.9-0.4,3.2-2.7,2.8-3.6
			c1,0.9,2.3,5.3,4.2,5c0-2-0.3-4-0.5-6c0.6,2.7,0.9,8.4,4.8,6.4c-0.7-1.3-1.8-2.8-1.2-4.4c2.1,1.4,0.8,5.4,4.3,4
			c-0.7-0.8-0.6-1.4,0.2-1.9c1.3,2.6,4.1,0.3,5.6-0.5c-0.8-1.4-1.5-2.8-2.1-4.2c2.1-0.5,1.5,3.8,4.3,3c2.9-0.8,1.9-2.9,3.1-3.5
			c0.7,0.6,3.6,1.7,3-0.8c-0.4-1.4-3-1.6-2.3-3.7c0.9,1.6,3.5,3.8,5.5,2.8c2.3-1.3,2.9-2.9,4.6-4.4c1.1,2.3,2.7-0.1,1.5-1.7
			c0.8-0.4,2.4,1.3,2.8,0.2c0.2-0.6-0.4-1.9,0-2.3c1.3,1.1,9.4-4.3,10.4-6.4C183.7,258.9,181.5,259.8,178.3,260z"/>
		<path class="st10" d="M179.8,252.2c-1.3-0.7-4.7-1.6-4.8-3c0.1-1.7-2.4-0.7-2.3-1.2c-0.2-2.9-0.6-0.5-2.8-1.3
			c1.2-1.1,0.7-2.7-0.7-3.5c-0.4,0.8-0.7,1.5-1.1,2.3c-1.4-0.9-1-2.6-2.7-3.7c-3.2-1.9-2.6-1.2-5.3,0.2c1.2-2.5-0.4-4.9-2.8-2.8
			c-1.4-0.6-0.5-4-4.3-3.5c-1.5,0.2,0.5,4.3-3.3,3.6c0.7-1.6,1.4-3.1,2.1-4.7c-2-0.9-4.8-0.8-5.9,1.4c-0.9-0.6-0.7-1-0.3-1.9
			c-2.9-1.1-2,1-2.9,2.8c-0.9-0.9-0.6-2.2-0.1-3.2c-4.7-2.1-4,5.7-5.4,8c0-1.7,0.1-3.6,0.1-5.3c-1.6-0.3-3.6,3.7-4,4.7
			c-0.1-0.8-2.1-3.8-3.2-3.3c-0.6,0.2-0.3,3.4-0.3,3.9c-1.3-1.4-0.4-3.6-1.5-5.2c-1.2-1.7-4.4-2.2-6.2-3.1c-0.3,1.8,1.2,4.4,1.3,6.3
			c-1.7-1.7-0.4-4.4-2.8-5.6c-1.3-0.6-3-0.7-4.3-0.5c-1.5,0.2,0.4,2.7,0.3,3.7c-0.7-0.6-1.2-1.3-1.7-2c0.1,0.9,0.2,1.8,0.1,2.7
			c-1-3-4.3-1.8-5.6,0c-2.1,2.9-0.5,3.8-1.3,6.7c-2-0.7-1.3-2.9-2.5-3.6c-1.8-1-2.4,1.3-3.6,2.1c-1.2,0.9-2.7,0.7-3.9,1.8
			c-2.7,2.2,0.3,2.7-0.1,5.2c-1.8-1.6-3-4.3-5.6-2c-1.6,1.4-3.7,3.7-4.6,5.6c-3.3-1.6-4.1,1.7-5.4,4c1.1,1,4.8,0.3,5.6-1.5
			c0.4,1.2,1.1,1.1,2.2,1.5c0.3-0.7,0.4-1.5,0.7-2.3c2,1.7,2,3.1,5.5,2.5c2.6-0.4-0.7-2.7,0.8-3.9c0.5-0.5,3.1,3.1,4.1,3.4
			c0.1-0.8,0.1-1.7,0.2-2.5c1.2,1,2,3.1,4.1,2.4c2.4-0.7-0.3-4-1.5-4.4c3.1-1.1,2.7,3.7,3.7,5.1c2.6,3.8,1.8-5,1.8-5.3
			c2.1,2.1,2,5.8,5.3,2.9c1.4-1.2,2.5,0.5,3.9-1.3c1.5-1.8,0.3-3,0.9-4.9c0.1,0.2,2.1,7.1,3.3,4.5c0.9-2-1.1-4.5,0-6.6
			c1.2,1.5,1.5,3.4,2.3,5.1c0.5,1.4,3.4,3.4,4,1.2c1.9,1.1,1.5,2.6,4.3,3.3c1.2-3.1-0.7-7,0.6-9.9c1.5,1.3,0.8,4.7,0.6,6.2
			c-0.1,0.8-0.1,1.7-0.1,2.6c1.7,0.1,2.4,0.7,3.1-1.1c0.6-1.4,0.2-1.6,1.6-0.9c2.6,1.2,3-2.1,3.4-3.7c1.9,0.9-1.1,4.8,2.5,3.6
			c1.5-0.5,3.4-3.9,3.4-4.1c3.5,1.7-1.5,5.2,1,6.4c3.7,1.8,5.7-3.2,7.6-4.7c-0.2,1.9-2.3,3.4-0.1,4.9c2.3,1.2,3.9-0.6,5.7,0
			c2,0.5,2.9,2.4,5.2,1c2-1.2,2.6-3.5,4.3-4.8c0.1,2.4-1.5,3.5,1.1,5c1.5,0.5,3,0.9,4.6,0.5c1-0.2,6,0.4,5.8-1.5
			C183.6,254.3,181.7,253.3,179.8,252.2z"/>
	</g>
</g>
</svg>
