<?xml version="1.0" encoding="utf-8"?>
<!-- Generator: Adobe Illustrator 21.0.1, SVG Export Plug-In . SVG Version: 6.00 Build 0)  -->
<svg version="1.1" id="Calque_1" xmlns="http://www.w3.org/2000/svg" xmlns:xlink="http://www.w3.org/1999/xlink" x="0px" y="0px"
	 viewBox="0 0 432 432" style="enable-background:new 0 0 432 432;" xml:space="preserve">
<style type="text/css">
	.st0{fill:#414042;}
	.st1{fill:#DA1C5C;}
	.st2{fill:#D1D3D4;}
	.st3{fill:#E8A0C7;}
	.st4{fill:#171717;}
	.st5{fill:#8DC63F;}
	.st6{fill:#1B75BC;}
	.st7{fill:#9E1F63;}
	.st8{fill:#F15A29;}
	.st9{fill:#00A79D;}
	.st10{fill:#EF4136;}
	.st11{fill:#ADCE4D;}
	.st12{fill:#EC8C28;}
	.st13{fill:#EDB525;}
	.st14{fill:#39B54A;}
	.st15{fill:#ED1C24;}
	.st16{fill:#F7941D;}
	.st17{fill:#FFF200;}
	.st18{fill:#27AAE1;}
	.st19{fill:#2B3990;}
	.st20{fill:#662D91;}
	.st21{fill:#35203B;}
	.st22{fill:#262262;}
	.st23{fill:none;stroke:#39B54A;stroke-width:2.232;stroke-linecap:round;stroke-linejoin:round;stroke-miterlimit:10;}
	.st24{fill-rule:evenodd;clip-rule:evenodd;fill:#92278F;}
	.st25{fill:#92278F;}
	.st26{fill:#FFFFFF;stroke:#39B54A;stroke-width:2.232;stroke-miterlimit:10;}
	.st27{fill:#2BB673;}
	.st28{fill:#009444;}
	.st29{fill-rule:evenodd;clip-rule:evenodd;fill:#9E1F63;}
	.st30{fill-rule:evenodd;clip-rule:evenodd;fill:#DA1C5C;}
	.st31{fill-rule:evenodd;clip-rule:evenodd;fill:#00A79D;}
	.st32{fill-rule:evenodd;clip-rule:evenodd;fill:#D7DF23;}
</style>
<g>
	<ellipse transform="matrix(0.9947 -0.1028 0.1028 0.9947 -15.5553 21.584)" class="st0" cx="201.6" cy="161.7" rx="2.3" ry="2.8"/>
	
		<ellipse transform="matrix(0.4083 -0.9128 0.9128 0.4083 -11.2074 306.3399)" class="st0" cx="230.7" cy="161.8" rx="2.8" ry="2.3"/>
	
		<ellipse transform="matrix(0.8101 -0.5864 0.5864 0.8101 -54.8559 183.5215)" class="st0" cx="255.8" cy="176.4" rx="2.8" ry="2.3"/>
	
		<ellipse transform="matrix(0.9947 -0.1028 0.1028 0.9947 -19.3015 28.8603)" class="st0" cx="270.3" cy="201.6" rx="2.8" ry="2.3"/>
	
		<ellipse transform="matrix(0.4084 -0.9128 0.9128 0.4084 -50.7411 383.1308)" class="st0" cx="270.2" cy="230.7" rx="2.3" ry="2.8"/>
	<ellipse transform="matrix(0.81 -0.5864 0.5864 0.81 -101.4659 198.4714)" class="st0" cx="255.6" cy="255.8" rx="2.3" ry="2.8"/>
	
		<ellipse transform="matrix(0.9947 -0.1028 0.1028 0.9947 -26.5621 25.1101)" class="st0" cx="230.4" cy="270.3" rx="2.3" ry="2.8"/>
	
		<ellipse transform="matrix(0.4083 -0.9128 0.9128 0.4083 -127.5355 343.6071)" class="st0" cx="201.3" cy="270.2" rx="2.8" ry="2.3"/>
	
		<ellipse transform="matrix(0.8101 -0.5864 0.5864 0.8101 -116.3935 151.8454)" class="st0" cx="176.2" cy="255.6" rx="2.8" ry="2.3"/>
	<ellipse transform="matrix(0.9947 -0.1028 0.1028 0.9947 -22.829 17.85)" class="st0" cx="161.7" cy="230.4" rx="2.8" ry="2.3"/>
	
		<ellipse transform="matrix(0.4084 -0.9128 0.9128 0.4084 -88.0064 266.8042)" class="st0" cx="161.8" cy="201.3" rx="2.3" ry="2.8"/>
	<ellipse transform="matrix(0.81 -0.5864 0.5864 0.81 -69.7887 136.9278)" class="st0" cx="176.4" cy="176.2" rx="2.3" ry="2.8"/>
	<path class="st0" d="M367.2,216c0-0.6-0.5-14.7-11.3-24c-0.5-0.4-1.1-0.8-1.7-1.2c2.5-5.2,3.1-10.1,1.7-14.5
		c-1.7-5.1-5.6-8.2-7.6-9.4c0.3-0.6,0.5-1.2,0.8-1.8c4.4-12.7-1.9-24.1-2.1-24.6l-1.2,0.7l1.2-0.7c-0.3-0.5-7.7-12.5-21.8-15.1
		c-0.7-0.1-1.4-0.2-2.1-0.2c-0.4-5.8-2.3-10.3-5.8-13.4c-4-3.6-9-4.3-11.3-4.4c-0.1-0.6-0.1-1.3-0.2-1.9
		c-2.5-13.2-13.7-20-14.2-20.3l-0.7,1.2l0.7-1.2c-0.5-0.3-13-7-26.4-2.2c-0.7,0.2-1.3,0.5-1.9,0.8c-3.2-4.8-7.2-7.8-11.7-8.7
		c-5.3-1.1-9.9,0.8-12,1.9c-0.4-0.5-0.7-1.1-1.2-1.5c-8.8-10.2-21.8-10.5-22.4-10.5l0,1.4l0-1.4c-0.6,0-14.7,0.5-24,11.3
		c-0.4,0.5-0.8,1.1-1.2,1.7c-5.2-2.5-10.1-3.1-14.5-1.7c-5.2,1.7-8.2,5.6-9.4,7.6c-0.6-0.3-1.2-0.5-1.8-0.8
		c-12.7-4.4-24.1,1.9-24.6,2.1l0.7,1.2l-0.7-1.2c-0.5,0.3-12.5,7.7-15.1,21.8c-0.1,0.7-0.2,1.4-0.2,2.1c-5.8,0.4-10.3,2.3-13.4,5.8
		c-3.6,4-4.3,9-4.4,11.3c-0.6,0.1-1.3,0.1-1.9,0.2c-13.2,2.5-20,13.7-20.3,14.2l1.2,0.7l-1.2-0.7c-0.3,0.5-6.9,13-2.2,26.4
		c0.2,0.7,0.5,1.3,0.8,1.9c-4.8,3.2-7.8,7.2-8.7,11.7c-1.1,5.3,0.8,9.9,1.9,12c-0.5,0.4-1.1,0.7-1.5,1.2
		c-10.2,8.8-10.5,21.8-10.5,22.4l1.4,0l-1.4,0c0,0.6,0.5,14.7,11.3,24c0.5,0.4,1.1,0.9,1.6,1.3c-2.5,5.2-3.1,10.1-1.7,14.5
		c1.7,5.1,5.6,8.2,7.6,9.4c-0.3,0.6-0.5,1.2-0.8,1.8c-4.4,12.7,1.9,24.1,2.1,24.6l1.2-0.7l-1.2,0.7c0.3,0.5,7.7,12.5,21.8,15.1
		c0.7,0.1,1.4,0.2,2.1,0.3c0.4,5.8,2.3,10.3,5.8,13.4c4,3.6,9,4.3,11.3,4.4c0.1,0.6,0.1,1.3,0.2,1.9c2.5,13.2,13.7,20,14.2,20.3
		l0.7-1.2l-0.7,1.2c0.4,0.2,7.3,3.9,16.3,3.9c3.2,0,6.7-0.5,10.2-1.7c0.6-0.2,1.3-0.5,1.9-0.8c3.2,4.8,7.2,7.8,11.7,8.7
		c1.1,0.2,2.3,0.3,3.3,0.3c3.9,0,7-1.4,8.6-2.2c0.4,0.5,0.7,1.1,1.2,1.6c8.8,10.2,21.8,10.5,22.4,10.5l0-1.4l0,1.4
		c0.6,0,14.7-0.5,24-11.3c0.5-0.5,0.8-1.1,1.2-1.7c3.3,1.6,6.5,2.5,9.6,2.5c1.7,0,3.3-0.3,4.9-0.8c5.1-1.7,8.2-5.6,9.4-7.6
		c0.6,0.3,1.2,0.5,1.8,0.8c3.3,1.1,6.5,1.6,9.5,1.6c8.5,0,14.8-3.5,15.2-3.7l-0.7-1.2l0.7,1.2c0.5-0.3,12.5-7.7,15.1-21.8
		c0.1-0.7,0.2-1.4,0.2-2c5.8-0.4,10.3-2.3,13.4-5.8c3.6-4,4.3-8.9,4.4-11.3c0.6-0.1,1.3-0.2,1.9-0.3c13.2-2.5,20-13.7,20.3-14.2
		l-1.2-0.7l1.2,0.7c0.3-0.5,6.9-13,2.2-26.4c-0.2-0.7-0.5-1.3-0.8-1.9c4.8-3.2,7.8-7.2,8.7-11.7c1.1-5.3-0.8-9.9-1.8-11.9
		c0.5-0.4,1-0.8,1.5-1.2C366.9,229.6,367.2,216.6,367.2,216l-1.4,0L367.2,216z M346.4,266.1c1.8,5,1.8,9.8,1.2,13.9
		c-8.8,0.3-26.8-7-35.7-10.9c6.7-0.8,17.3-3,20-9.5c1.3-3.2,0.5-7-2.4-11.3C338.1,252.9,343.9,258.8,346.4,266.1z M268.7,304.8
		l-2.2-1.2l0.1,2.5c0.1,5.4-0.8,20.1-6.8,22.7c-3.8,1.6-9-2.2-12.8-5.9c-0.1-0.4-0.3-1-0.5-1.9c-1.9-8.4,1.6-18.3,5.1-25.4
		c-1.5,7.4-2.1,16.4,2.7,19.4c1.4,0.9,2.6,1.2,3.6,1.2c1.4,0,2.4-0.6,3-1.1c3.4-3,3.2-11.1-0.1-21.4c6.3,7,12.4,11.1,16.7,11.1
		c0.6,0,1.3-0.1,1.8-0.3c1.3-0.4,3.4-1.7,3.2-5.8c-0.2-5.8-8.6-9.8-15.9-12.2c8.5,0.4,20.1,2.1,27.2,8.2c0.2,0.2,0.3,0.3,0.5,0.5
		c1.8,7.3,1.3,12-1.5,14.2C287.3,313.6,273.6,307.5,268.7,304.8z M217.2,319.3l-1.3-2.2l-1.2,2.2c-2.6,4.8-10.7,17-17.2,16.2
		c-4.1-0.5-6.7-6.4-8.1-11.5c0.1-0.4,0.3-1,0.5-1.9c2.6-8.2,10.5-15.1,17.1-19.5c-5,5.7-10,13.1-7.3,18.1c1.5,2.8,3.4,3.5,4.8,3.5
		c0.3,0,0.6,0,0.9-0.1c4.5-0.9,8.4-8.1,10.6-18.6c2.2,10.6,6.1,17.7,10.6,18.6c0.3,0.1,0.6,0.1,0.9,0.1c1.4,0,3.3-0.6,4.8-3.5
		c2.8-5.1-2.5-12.8-7.7-18.5c7.2,4.6,16.4,11.8,19.4,20.7c0.1,0.2,0.1,0.4,0.2,0.7c-2.1,7.2-4.9,11.1-8.4,11.5
		C229,336.2,220.1,324,217.2,319.3z M163.2,304.9c-4.6,2.8-17.8,9.3-23,5.5c-3.3-2.5-2.6-8.9-1.3-14c0.3-0.3,0.8-0.7,1.4-1.4
		c6.4-5.8,16.6-7.7,24.5-8.3c-7.2,2.4-15.2,6.4-15.4,12c-0.1,4,2,5.3,3.2,5.8c0.6,0.2,1.2,0.3,1.8,0.3c4.3,0,10.4-4.1,16.7-11.1
		c-3.4,10.3-3.6,18.4-0.1,21.4c0.6,0.5,1.6,1.1,3,1.1c1,0,2.2-0.3,3.6-1.2c5-3.1,4.2-12.4,2.6-19.9c3.9,7.5,8.3,18.4,6.5,27.6
		c-0.1,0.2-0.1,0.4-0.1,0.7c-5.4,5.2-9.8,7.1-13,5.8c-6.4-2.6-8.1-17.6-8.1-23.1l0-2.5L163.2,304.9z M85.6,267.9
		c2.5-7.2,8.4-13.3,17.4-18c-3,4.3-3.8,8-2.4,11.1c2.6,6,12.4,7.8,19,8.3c-9,3.9-26.4,10.9-35.1,10.7
		C84,276.4,84.2,272.2,85.6,267.9z M112.7,217.2l2.2-1.3l-2.2-1.2c-4.8-2.6-17-10.7-16.2-17.2c0.5-4.1,6.4-6.7,11.5-8.1
		c0.4,0.1,1,0.3,1.9,0.5c8.2,2.6,15.1,10.6,19.5,17.1c-5.7-5-13.1-10-18.1-7.3c-3.5,1.9-3.6,4.4-3.4,5.7c0.9,4.5,8.1,8.4,18.6,10.6
		c-10.6,2.2-17.7,6.1-18.6,10.6c-0.3,1.3-0.2,3.8,3.4,5.7c1,0.5,2,0.8,3.2,0.8c4.8,0,10.7-4.3,15.4-8.4
		c-4.6,7.2-11.8,16.4-20.7,19.4c-0.2,0.1-0.4,0.1-0.7,0.2c-7.2-2.1-11.1-4.9-11.5-8.4C95.9,229,108,220.1,112.7,217.2z M85.6,165.9
		c-1.8-5-1.8-9.8-1.2-13.9c8.8-0.3,26.9,7,35.7,10.9c-6.7,0.8-17.3,3-20,9.5c-1.3,3.2-0.5,7,2.4,11.3
		C93.9,179.1,88.2,173.2,85.6,165.9z M163.3,127.2l2.2,1.2l-0.1-2.5c-0.1-5.4,0.8-20.1,6.8-22.7c3.8-1.7,9,2.2,12.8,5.9
		c0.1,0.4,0.3,1,0.5,1.9c1.9,8.4-1.6,18.3-5.1,25.4c1.5-7.4,2.1-16.4-2.7-19.4c-3.4-2.1-5.6-1-6.6-0.1c-3.4,3-3.2,11.2,0.2,21.4
		c-7.2-8.1-14.2-12.3-18.5-10.9c-1.3,0.4-3.4,1.7-3.2,5.8c0.2,5.8,8.6,9.8,15.9,12.2c-8.5-0.4-20.1-2.1-27.2-8.2
		c-0.2-0.2-0.3-0.3-0.5-0.5c-1.8-7.3-1.3-12,1.5-14.2C144.7,118.4,158.4,124.5,163.3,127.2z M214.8,112.7l1.3,2.2l1.2-2.2
		c2.6-4.8,10.7-17,17.2-16.2c4.1,0.5,6.7,6.4,8.1,11.5c-0.1,0.4-0.3,1-0.5,1.8c-2.6,8.2-10.5,15.1-17.1,19.5c5-5.7,10-13.1,7.3-18.1
		c-1.9-3.5-4.4-3.6-5.7-3.4c-4.5,0.9-8.4,8.1-10.6,18.6c-2.2-10.6-6.1-17.7-10.6-18.6c-1.3-0.3-3.8-0.2-5.7,3.4
		c-2.8,5.1,2.5,12.8,7.7,18.5c-7.2-4.6-16.4-11.8-19.4-20.7c-0.1-0.2-0.1-0.4-0.2-0.7c2.1-7.2,4.9-11.1,8.4-11.5
		C203,95.9,211.9,108,214.8,112.7z M268.8,127.1c4.6-2.8,17.8-9.3,23-5.5c3.3,2.5,2.6,8.9,1.3,14c-0.3,0.3-0.8,0.7-1.4,1.4
		c-6.4,5.8-16.6,7.7-24.5,8.3c7.2-2.4,15.2-6.4,15.4-12c0.1-4-2-5.3-3.2-5.8c-4.3-1.4-11.3,2.8-18.5,10.8
		c3.4-10.3,3.6-18.4,0.2-21.4c-1-0.9-3.2-2-6.6,0.1c-5,3.1-4.2,12.4-2.6,19.9c-3.9-7.5-8.3-18.4-6.5-27.6c0.1-0.2,0.1-0.4,0.1-0.7
		c5.4-5.2,9.8-7.1,13-5.8c6.4,2.6,8.1,17.6,8.1,23.1l0,2.5L268.8,127.1z M346.4,164.1c-2.5,7.2-8.4,13.3-17.4,18
		c3-4.3,3.8-8,2.4-11.1c-2.6-6-12.3-7.8-19-8.3c9-3.9,26.4-10.9,35.1-10.7C348,155.6,347.8,159.8,346.4,164.1z M202.3,112.5
		c0.7-1.3,1.5-1.9,2.3-1.9c0.1,0,0.2,0,0.3,0c2.8,0.6,7.3,7.7,9.3,21.9C207.5,126.1,199.9,116.8,202.3,112.5z M217.9,132.4
		c1.9-14.1,6.4-21.3,9.3-21.9c0.1,0,0.2,0,0.3,0c0.8,0,1.6,0.6,2.3,1.9C232.1,116.8,224.5,126.1,217.9,132.4z M293.1,216
		c-12.9,7.1-27.3,7.1-31.8,6.8c0.3-2.2,0.6-4.5,0.6-6.8c0-2.3-0.2-4.6-0.6-6.8C265.8,208.9,280.2,208.9,293.1,216z M251.8,244.5
		c2.8-3.5,5.1-7.5,6.8-11.8c4,2.1,16.5,9.2,24.1,21.8C268,254.3,255.6,247,251.8,244.5z M232.7,258.6c4.3-1.7,8.3-4,11.8-6.8
		c2.5,3.8,9.7,16.2,10,30.9C241.9,275.1,234.8,262.7,232.7,258.6z M216,293.1c-7.1-12.9-7.1-27.3-6.8-31.8c2.2,0.3,4.5,0.6,6.8,0.6
		c2.3,0,4.6-0.2,6.8-0.6C223.1,265.8,223.1,280.1,216,293.1z M177.5,282.7c0.3-14.7,7.5-27.1,10-30.9c3.5,2.8,7.5,5.1,11.8,6.8
		C197.2,262.7,190.1,275.1,177.5,282.7z M173,266.4c-6.4,2.8-13.7,8.1-20.1,13.4c5.1-6.6,10.1-14.1,12.7-20.6
		c0.3,0.8,0.7,1.5,1.2,2.3c0.2,0.3,0.4,0.6,0.7,0.9c0.2,0.3,0.5,0.6,0.7,0.9c0.1,0.1,0.2,0.2,0.3,0.2c0.1,0.1,0.1,0.2,0.2,0.3
		c0.5,0.4,1,0.8,1.5,1.2c0.1,0.1,0.2,0.1,0.3,0.2c0.2,0.1,0.3,0.2,0.5,0.3c0.6,0.3,1.1,0.6,1.7,0.8C172.9,266.4,173,266.4,173,266.4
		z M149.3,254.5c7.6-12.6,20.1-19.7,24.1-21.8c1.7,4.3,4,8.3,6.8,11.8C176.4,247,164,254.3,149.3,254.5z M138.9,216
		c12.9-7.1,27.3-7.1,31.8-6.8c-0.3,2.2-0.6,4.5-0.6,6.8c0,2.3,0.2,4.6,0.6,6.8C166.2,223.1,151.8,223.1,138.9,216z M150.8,204
		c-5.6-4.1-13.9-7.8-21.7-10.7c8.2,1.1,17.3,1.7,24.2,0.8c-0.5,0.7-1,1.4-1.4,2.2c-0.2,0.3-0.3,0.7-0.4,1.1
		c-0.1,0.4-0.3,0.7-0.4,1.1c0,0.1,0,0.2-0.1,0.4c0,0.1-0.1,0.2-0.1,0.4c-0.1,0.6-0.2,1.2-0.2,1.8c0,0.1,0,0.2,0,0.2
		c0,0.1,0,0.2,0,0.3c0,0.3,0,0.5,0,0.7c0,0.5,0,1,0.1,1.5C150.8,203.8,150.8,203.9,150.8,204z M180.2,187.5
		c-2.8,3.5-5.1,7.5-6.8,11.8c-4-2.1-16.5-9.2-24.1-21.8C164,177.7,176.4,185,180.2,187.5z M199.3,173.4c-4.3,1.7-8.3,4-11.8,6.8
		c-2.5-3.8-9.7-16.2-10-30.9C190.1,156.9,197.2,169.3,199.3,173.4z M216,138.9c7.1,12.9,7.1,27.3,6.8,31.8c-2.2-0.3-4.5-0.6-6.8-0.6
		s-4.6,0.2-6.8,0.6C208.9,166.2,208.9,151.8,216,138.9z M228,150.8c4.1-5.6,7.8-13.9,10.7-21.7c-1.1,8.2-1.7,17.3-0.8,24.2
		c-0.7-0.5-1.4-1-2.2-1.4c-0.3-0.2-0.7-0.3-1-0.4c-0.4-0.1-0.7-0.3-1.1-0.4c-0.1,0-0.2,0-0.4-0.1c-0.1,0-0.2-0.1-0.4-0.1
		c-0.4-0.1-0.8-0.1-1.2-0.1c-0.4,0-0.7-0.1-1.1-0.1C229.7,150.6,228.8,150.7,228,150.8z M254.5,149.3c-0.3,14.7-7.5,27.1-10,30.9
		c-3.5-2.8-7.5-5.1-11.8-6.8C234.8,169.3,241.9,156.9,254.5,149.3z M259,165.6c6.4-2.8,13.7-8.1,20.1-13.4
		c-5.1,6.6-10.1,14.1-12.7,20.6c-0.3-0.8-0.7-1.5-1.2-2.3c-0.2-0.3-0.5-0.6-0.7-0.9c-0.2-0.3-0.4-0.6-0.7-0.9
		c-0.1-0.1-0.2-0.1-0.3-0.2c-0.1-0.1-0.2-0.2-0.3-0.3c-0.6-0.6-1.3-1-1.9-1.4c-0.2-0.1-0.4-0.2-0.7-0.4c-0.4-0.2-0.9-0.5-1.3-0.6
		C259.2,165.7,259.1,165.6,259,165.6z M282.7,177.5c-7.6,12.6-20.1,19.7-24.1,21.8c-1.7-4.3-4-8.3-6.8-11.8
		C255.6,185,268,177.7,282.7,177.5z M276.9,224.6c0.6,1.3,1.1,2.5,1.3,3.7c0,0,0,0.1,0,0.1c0.1,0.7,0.2,1.4,0.2,2.1c0,0,0,0.1,0,0.1
		c0,0.6-0.1,1.3-0.3,1.9c-0.2,0.6-0.4,1.2-0.6,1.8c0,0,0,0,0,0.1c-0.3,0.6-0.7,1.2-1.2,1.8c0,0-0.1,0.1-0.1,0.1
		c-0.8,1-1.9,1.9-3.1,2.7c-5.8-4.9-11.2-7.9-13.6-9.1c0.5-1.4,0.8-2.8,1.2-4.3c0.8,0.1,2,0.1,3.6,0.1
		C267.5,225.8,271.9,225.5,276.9,224.6z M263.8,257.8C263.8,257.8,263.8,257.9,263.8,257.8c-0.5,1.4-1.2,2.6-2.2,3.6
		c-0.4,0.5-0.9,0.9-1.4,1.2c0,0,0,0,0,0c-0.6,0.4-1.3,0.7-2,1c0,0,0,0-0.1,0c-1.2,0.5-2.6,0.7-4.1,0.8c-2.5-7.2-5.8-12.5-7.2-14.7
		c1.1-1,2.1-2,3.1-3.1c2.1,1.4,7.4,4.7,14.6,7.2C264.4,255.4,264.2,256.7,263.8,257.8z M238.7,252.4l-5.9-10.2
		c3.8-2.4,7-5.6,9.4-9.4l10.2,5.9C248.9,244.2,244.2,248.9,238.7,252.4z M236.4,276.1C236.4,276.1,236.4,276.1,236.4,276.1
		c-1.1,1-2.4,1.6-3.7,2c-0.6,0.2-1.2,0.3-1.9,0.4c0,0,0,0,0,0c-0.7,0-1.4,0-2.2-0.1c0,0-0.1,0-0.1,0c-1.2-0.2-2.6-0.7-3.9-1.3
		c1.4-7.5,1.2-13.7,1.1-16.3c1.5-0.3,2.9-0.7,4.3-1.2c1.1,2.3,4.1,7.7,9,13.5C238.2,274.3,237.4,275.3,236.4,276.1z M217.4,258.9
		v-11.8c4.6-0.2,9-1.4,12.9-3.4l5.9,10.2C230.6,256.9,224.2,258.7,217.4,258.9z M207.4,276.9c-1.3,0.6-2.5,1.1-3.7,1.3c0,0,0,0,0,0
		c-1.5,0.3-2.8,0.2-4.2-0.1c-0.6-0.2-1.2-0.4-1.8-0.6c0,0,0,0,0,0c-0.6-0.3-1.3-0.7-1.8-1.2c0,0-0.1,0-0.1-0.1
		c-1-0.8-1.9-1.9-2.7-3.1c4.9-5.8,7.9-11.2,9.1-13.6c1.4,0.5,2.8,0.8,4.3,1.2C206.1,263.4,206,269.5,207.4,276.9z M195.8,253.9
		l5.9-10.2c3.9,2,8.2,3.2,12.9,3.4v11.8C207.8,258.7,201.4,256.9,195.8,253.9z M178.1,264.5c-1.4-0.1-2.7-0.3-3.9-0.7
		c0,0-0.1,0-0.1,0c-0.7-0.3-1.3-0.6-1.9-0.9c0,0,0,0,0,0c-0.5-0.3-1-0.8-1.5-1.2c-0.5-0.4-0.9-0.9-1.3-1.5c0,0,0,0,0-0.1
		c-0.4-0.6-0.7-1.2-1-1.9c0,0,0-0.1,0-0.1c-0.5-1.2-0.7-2.5-0.8-4c7.2-2.6,12.5-5.8,14.7-7.2c1,1.1,2,2.1,3.1,3.1
		C183.8,252,180.6,257.3,178.1,264.5z M179.6,238.7l10.2-5.9c2.4,3.8,5.6,7,9.4,9.4l-5.9,10.2C187.8,248.9,183.1,244.2,179.6,238.7z
		 M158.9,239c-1.2-0.8-2.2-1.6-3-2.5c0,0-0.1-0.1-0.1-0.1c-0.5-0.6-0.9-1.2-1.2-1.8c0,0,0,0,0-0.1c-0.3-0.6-0.5-1.2-0.7-1.8
		c-0.2-0.6-0.3-1.2-0.4-1.9c0,0,0-0.1,0-0.1c0-0.7,0-1.4,0.1-2.1c0-0.1,0-0.1,0-0.2c0.2-1.2,0.7-2.6,1.3-3.9c5,0.9,9.5,1.2,12.7,1.2
		c1.5,0,2.7-0.1,3.6-0.1c0.3,1.5,0.7,2.9,1.2,4.3C170,231.2,164.7,234.1,158.9,239z M155.1,207.4c-0.6-1.3-1.1-2.5-1.3-3.7
		c0,0,0-0.1,0-0.1c-0.1-0.7-0.2-1.4-0.2-2.2c0,0,0-0.1,0-0.1c0-0.6,0.1-1.3,0.3-1.9c0.2-0.6,0.4-1.2,0.6-1.8c0,0,0,0,0-0.1
		c0.3-0.6,0.7-1.2,1.2-1.8c0,0,0.1-0.1,0.1-0.1c0.8-1,1.9-1.9,3.1-2.7c5.8,4.9,11.2,7.9,13.6,9.1c-0.5,1.4-0.8,2.8-1.2,4.3
		C168.6,206.1,162.5,206,155.1,207.4z M168.2,174.2C168.2,174.2,168.2,174.1,168.2,174.2c0.5-1.4,1.2-2.6,2.2-3.6
		c0.4-0.5,0.9-0.9,1.5-1.3c0,0,0,0,0.1,0c0.6-0.4,1.2-0.7,1.9-1c0,0,0.1,0,0.1,0c1.2-0.5,2.6-0.7,4-0.8c2.5,7.2,5.8,12.5,7.2,14.7
		c-1.1,1-2.1,2-3.1,3.1c-2.1-1.4-7.4-4.7-14.6-7.2C167.6,176.6,167.8,175.3,168.2,174.2z M193.3,179.6l5.9,10.2
		c-3.8,2.4-7,5.6-9.4,9.4l-10.2-5.9C183.1,187.8,187.8,183.1,193.3,179.6z M195.6,155.9C195.6,155.9,195.6,155.9,195.6,155.9
		c1.1-1,2.4-1.6,3.7-2c0.6-0.2,1.2-0.3,1.8-0.3c0.1,0,0.1,0,0.2,0c0.7,0,1.4,0,2.1,0.1c0.1,0,0.1,0,0.2,0c1.2,0.2,2.5,0.7,3.9,1.3
		c-1.4,7.5-1.2,13.7-1.1,16.3c-1.5,0.3-2.9,0.7-4.3,1.2c-1.1-2.3-4.1-7.7-9-13.5C193.8,157.7,194.6,156.7,195.6,155.9z M214.6,173.1
		v11.8c-4.6,0.2-9,1.4-12.9,3.4l-5.9-10.2C201.4,175.1,207.8,173.3,214.6,173.1z M224.6,155.1c1.3-0.6,2.5-1.1,3.7-1.3c0,0,0,0,0,0
		c1.5-0.3,2.8-0.2,4.2,0.1c0.6,0.2,1.2,0.3,1.8,0.6c0,0,0,0,0.1,0c0.6,0.3,1.2,0.7,1.8,1.2c0,0,0.1,0.1,0.1,0.1
		c1,0.8,1.9,1.9,2.7,3.1c-4.9,5.8-7.9,11.2-9.1,13.6c-1.4-0.5-2.8-0.8-4.3-1.2C225.9,168.6,226,162.5,224.6,155.1z M236.2,178.1
		l-5.9,10.2c-3.9-2-8.3-3.2-12.9-3.4v-11.8C224.2,173.3,230.6,175.1,236.2,178.1z M253.9,167.5c1.4,0.1,2.7,0.3,3.9,0.7
		c0,0,0.1,0,0.1,0.1c0.7,0.2,1.3,0.6,1.9,0.9c0,0,0.1,0,0.1,0.1c0.5,0.3,1,0.7,1.5,1.2c0.5,0.4,0.9,0.9,1.3,1.5c0,0,0,0,0,0
		c0.4,0.6,0.7,1.2,1,1.9c0,0,0,0.1,0,0.1c0.5,1.2,0.7,2.5,0.8,4c-7.2,2.6-12.5,5.8-14.7,7.2c-1-1.1-2-2.1-3.1-3.1
		C248.2,180,251.4,174.7,253.9,167.5z M252.4,193.3l-10.2,5.9c-2.4-3.8-5.6-7-9.4-9.4l5.9-10.2C244.2,183.1,248.9,187.8,252.4,193.3
		z M258.9,214.6h-11.8c-0.2-4.6-1.4-9-3.4-12.9l10.2-5.9C256.9,201.4,258.7,207.8,258.9,214.6z M216,244.3
		c-15.6,0-28.3-12.7-28.3-28.3s12.7-28.3,28.3-28.3s28.3,12.7,28.3,28.3S231.6,244.3,216,244.3z M178.1,195.8l10.2,5.9
		c-2,3.9-3.2,8.3-3.4,12.9h-11.8C173.3,207.8,175.1,201.4,178.1,195.8z M173.1,217.4h11.8c0.2,4.6,1.4,9,3.4,12.9l-10.2,5.9
		C175.1,230.6,173.3,224.2,173.1,217.4z M253.9,236.2l-10.2-5.9c2-3.9,3.2-8.2,3.4-12.9h11.8C258.7,224.2,256.9,230.6,253.9,236.2z
		 M259.6,202c2.3-1.1,7.7-4.1,13.5-9c1.2,0.8,2.2,1.6,3,2.5c0,0,0.1,0.1,0.1,0.1c0.5,0.6,0.9,1.2,1.2,1.8c0,0,0,0,0,0.1
		c0.3,0.6,0.5,1.2,0.7,1.8c0.2,0.6,0.3,1.2,0.4,1.9c0,0,0,0.1,0,0.1c0,0.7,0,1.4-0.1,2.1c0,0.1,0,0.1,0,0.2
		c-0.2,1.2-0.7,2.5-1.3,3.9c-7.5-1.4-13.7-1.2-16.3-1.1C260.5,204.8,260.1,203.4,259.6,202z M201.1,150.7c-0.1,0-0.2,0-0.3,0
		c-0.3,0-0.6,0.1-0.9,0.2c-0.4,0.1-0.8,0.1-1.2,0.2c-0.1,0-0.2,0.1-0.4,0.1c-0.1,0-0.3,0-0.4,0.1c-0.6,0.2-1.2,0.4-1.7,0.7
		c-0.1,0-0.2,0.1-0.2,0.1c-0.1,0-0.2,0.1-0.3,0.2c-0.2,0.1-0.4,0.3-0.6,0.4c-0.4,0.3-0.8,0.5-1.2,0.8c-0.1,0.1-0.2,0.1-0.3,0.2
		c0.8-6.9-0.2-15.9-1.5-24.1c3.2,7.7,7.1,15.8,11.4,21.3C202.9,150.6,202,150.6,201.1,150.7z M170.4,166.9c-0.3,0.2-0.6,0.5-0.9,0.7
		c-0.3,0.2-0.6,0.4-0.9,0.7c-0.1,0.1-0.2,0.2-0.2,0.3c-0.1,0.1-0.2,0.2-0.3,0.2c-0.4,0.5-0.8,1-1.1,1.4c-0.1,0.1-0.1,0.1-0.2,0.2
		c-0.1,0.1-0.1,0.2-0.1,0.3c-0.1,0.2-0.2,0.4-0.3,0.6c-0.2,0.5-0.5,0.9-0.6,1.3c0,0.1-0.1,0.2-0.1,0.3c-2.8-6.4-8.1-13.7-13.4-20.1
		c6.6,5.1,14.1,10.1,20.6,12.7C172,165.9,171.2,166.4,170.4,166.9z M150.7,230.9c0,0.4,0.1,0.8,0.2,1.1c0.1,0.4,0.1,0.8,0.2,1.2
		c0,0.1,0.1,0.2,0.1,0.3c0,0.1,0,0.3,0.1,0.4c0.2,0.6,0.4,1.2,0.7,1.7c0,0.1,0.1,0.1,0.1,0.2c0,0.1,0.1,0.2,0.2,0.3
		c0.1,0.2,0.3,0.4,0.4,0.6c0.3,0.4,0.6,0.9,0.9,1.2c0.1,0.1,0.1,0.2,0.2,0.3c-6.9-0.7-16,0.2-24.2,1.5c7.7-3.2,15.8-7.1,21.3-11.4
		C150.6,229.1,150.6,230,150.7,230.9z M194,278.7c0.7,0.5,1.4,1,2.2,1.4c0.3,0.2,0.7,0.3,1,0.4c0.4,0.1,0.7,0.3,1.1,0.4
		c0.1,0,0.2,0,0.4,0.1c0.1,0,0.2,0.1,0.4,0.1c0.6,0.1,1.2,0.2,1.8,0.2c0.1,0,0.2,0,0.4,0c0.1,0,0.2,0,0.3,0c0,0,0.1,0,0.1,0
		c0,0,0,0,0.1,0c0.7,0,1.4-0.1,2-0.2c0.1,0,0.1,0,0.2,0c-4.1,5.6-7.8,13.9-10.7,21.7C194.3,294.6,195,285.6,194,278.7z M228.9,281.3
		c0.4,0,0.9,0.1,1.3,0.1c0.1,0,0.2,0,0.3,0c0.2,0,0.3,0,0.5,0c0.2,0,0.4,0,0.5-0.1c0.5,0,0.9-0.1,1.3-0.2c0.1,0,0.3,0,0.4-0.1
		c0.1,0,0.2-0.1,0.3-0.1c0.2,0,0.3-0.1,0.5-0.1c0.6-0.2,1.1-0.4,1.7-0.7c0.1,0,0.2-0.1,0.3-0.1c0.1,0,0.2-0.1,0.2-0.2
		c0.2-0.1,0.4-0.3,0.6-0.4c0.4-0.3,0.8-0.5,1.2-0.8c0.1-0.1,0.2-0.1,0.3-0.2c-0.8,6.9,0.2,15.9,1.5,24.1
		c-3.2-7.7-7.1-15.8-11.4-21.3C228.5,281.3,228.7,281.3,228.9,281.3z M261.6,265.1c0.3-0.2,0.6-0.5,0.9-0.7c0.3-0.2,0.6-0.4,0.9-0.7
		c0.1-0.1,0.1-0.2,0.2-0.3c0.1-0.1,0.2-0.2,0.3-0.3c0.4-0.5,0.8-1,1.1-1.5c0-0.1,0.1-0.1,0.1-0.2c0.1-0.1,0.1-0.2,0.1-0.3
		c0.1-0.2,0.2-0.4,0.3-0.6c0.2-0.5,0.5-0.9,0.6-1.3c0-0.1,0.1-0.2,0.1-0.3c2.8,6.4,8.1,13.7,13.4,20.1c-6.6-5.1-14.1-10.1-20.6-12.7
		C260,266.1,260.8,265.6,261.6,265.1z M280,235.8c0.2-0.3,0.3-0.7,0.4-1c0.1-0.4,0.3-0.7,0.5-1.1c0-0.1,0-0.3,0.1-0.4
		c0-0.1,0.1-0.2,0.1-0.3c0.1-0.6,0.2-1.2,0.2-1.7c0-0.1,0-0.2,0-0.4c0-0.1,0-0.2,0-0.3c0-0.3,0-0.5,0-0.7c0-0.5,0-1-0.1-1.5
		c0-0.1,0-0.2,0-0.3c5.6,4.1,13.9,7.8,21.7,10.7c-8.2-1.1-17.3-1.7-24.2-0.8C279.2,237.3,279.6,236.6,280,235.8z M281.3,201.1
		c0-0.4-0.1-0.8-0.2-1.1c-0.1-0.4-0.1-0.8-0.2-1.1c0-0.1-0.1-0.2-0.1-0.3c0-0.1,0-0.3-0.1-0.4c-0.2-0.6-0.4-1.2-0.7-1.7
		c0-0.1-0.1-0.2-0.1-0.2c0-0.1-0.1-0.2-0.2-0.3c-0.1-0.2-0.2-0.4-0.4-0.6c-0.3-0.4-0.6-0.9-0.9-1.2c-0.1-0.1-0.1-0.2-0.2-0.3
		c6.9,0.8,15.9-0.2,24.1-1.5c-7.7,3.2-15.8,7.1-21.3,11.4C281.4,202.9,281.4,202,281.3,201.1z M275.9,190.5c3.5-3.4,7-7.5,9.8-12.4
		c3.4,2.2,13,8,23.3,10.1C298.4,190.3,284.3,192.3,275.9,190.5z M289.5,175.8c13.1-5.3,21.4-5,23.3-2.8c0.6,0.7,0.5,1.8-0.4,3.2
		c-2.6,4.1-14.3,2.3-23.1-0.2C289.5,175.8,289.5,175.8,289.5,175.8z M287.6,172.4c-0.1,0-0.1,0-0.2,0c2.2-8.9,6.5-20,11.3-20.1
		c0.1,0,0.2,0,0.2,0c1.5,0,2.4,0.4,2.7,1.3C302.6,156.4,298.8,163.8,287.6,172.4z M268,176.9c2.3-8.6,11.3-20.7,18.4-29.3
		c-3.5,10.7-3.1,22.8-2.8,27C278,174.6,272.7,175.5,268,176.9z M255.1,163.9c1.4-4.7,2.3-10,2.3-15.6c4.1,0.2,15.2,0.5,25.2-2.9
		C274.5,152.6,263.3,161.3,255.1,163.9z M259.6,144.5c0-0.1,0-0.1,0-0.2c7.9-10.1,14.7-14.2,17.9-14.2c0.3,0,0.6,0,0.9,0.1
		c0.9,0.3,1.3,1.3,1.3,2.9C279.5,138.1,268.5,142.4,259.6,144.5z M256.2,142.5c0,0-0.1,0-0.1,0.1c-2.6-8.8-4.4-20.5-0.2-23.1
		c0.8-0.5,1.5-0.8,2.1-0.8c0.4,0,0.8,0.1,1.1,0.4C261.2,121,261.5,129.4,256.2,142.5z M241.5,156.1c-2.3-8.6-0.5-23.7,1.3-34.6
		c2.3,11,8.7,21.3,11.1,24.8C249,149.1,244.9,152.6,241.5,156.1z M223.9,151.4c-1.2-4.7-3-9.8-5.8-14.7c3.6-1.8,13.4-7.2,20.4-15.2
		C234.9,131.8,229.6,145,223.9,151.4z M214,136.7c-2.8,4.9-4.7,10-5.8,14.7c-6.3-6.2-12.3-20.2-16.1-30.7
		C199.5,129.1,210.2,134.8,214,136.7z M190.5,156.1c-3.4-3.5-7.5-7-12.4-9.8c2.2-3.4,8-13,10.1-23.3
		C190.3,133.6,192.3,147.7,190.5,156.1z M175.9,142.5c0,0-0.1-0.1-0.1-0.1c-5.3-13.1-5-21.4-2.8-23.3c0.3-0.3,0.7-0.4,1.1-0.4
		c0.6,0,1.3,0.3,2.1,0.8C180.3,122,178.5,133.7,175.9,142.5z M172.4,144.4c0,0.1,0,0.1,0,0.2c-8.9-2.2-20-6.5-20.1-11.3
		c-0.1-1.6,0.4-2.6,1.3-2.9c0.3-0.1,0.5-0.1,0.9-0.1C157.7,130.1,164.6,134.3,172.4,144.4z M174.6,148.3c0,5.6,0.9,10.9,2.3,15.6
		c-8.6-2.3-20.7-11.3-29.3-18.5C158.3,149,170.4,148.6,174.6,148.3z M163.9,176.9c-4.7-1.4-10-2.3-15.6-2.3
		c0.2-4.1,0.5-15.2-2.9-25.2C152.6,157.5,161.3,168.7,163.9,176.9z M144.4,172.4c-11.1-8.7-15-16.1-14.1-18.8
		c0.3-0.9,1.2-1.3,2.7-1.3c0.1,0,0.2,0,0.2,0c4.9,0.1,9.1,11.2,11.3,20.1C144.5,172.4,144.4,172.4,144.4,172.4z M142.5,175.8
		c0,0,0,0.1,0.1,0.1c-8.8,2.6-20.5,4.4-23.1,0.2c-0.9-1.4-1-2.5-0.4-3.2c0.8-0.9,2.7-1.5,5.6-1.5
		C128.8,171.5,134.8,172.6,142.5,175.8z M156.1,190.5c-8.6,2.3-23.7,0.5-34.6-1.4c11-2.3,21.3-8.7,24.8-11.1
		C149.1,183,152.6,187.1,156.1,190.5z M151.4,208.1c-4.7,1.2-9.8,3-14.7,5.8c-1.8-3.6-7.2-13.4-15.2-20.4
		C131.8,197.1,145,202.4,151.4,208.1z M132.3,214c0,0-0.1,0.1-0.1,0.1c-14-2-21-6.4-21.6-9.2c-0.2-0.9,0.5-1.8,1.9-2.6
		c0.5-0.3,1.2-0.4,1.9-0.4C119.1,201.8,126.8,208.2,132.3,214z M132.2,217.9c0,0,0.1,0.1,0.1,0.1c-6.3,6.6-15.6,14.1-19.9,11.7
		c-1.4-0.8-2.1-1.6-1.9-2.6C111.1,224.3,118.2,219.9,132.2,217.9z M136.7,218c4.9,2.8,10,4.7,14.7,5.8c-6.2,6.3-20.2,12.3-30.7,16.2
		C129.1,232.5,134.8,221.8,136.7,218z M156.1,241.5c-3.5,3.4-7,7.5-9.8,12.4c-3.4-2.2-13-8-23.3-10.1
		C133.6,241.7,147.7,239.7,156.1,241.5z M142.5,256.2c-13.1,5.3-21.4,5-23.4,2.8c-0.6-0.7-0.5-1.8,0.4-3.2c1.1-1.8,3.9-2.5,7.4-2.5
		c4.7,0,10.7,1.2,15.7,2.7C142.5,256.2,142.5,256.2,142.5,256.2z M144.4,259.6c0.1,0,0.1,0,0.2,0c-2.2,8.9-6.5,20-11.3,20.1
		c-1.6,0.1-2.6-0.4-2.9-1.3C129.4,275.6,133.2,268.2,144.4,259.6z M148.4,257.4c5.6,0,10.9-1,15.6-2.3c-2.3,8.6-11.3,20.7-18.5,29.3
		C149,273.7,148.6,261.7,148.4,257.4C148.4,257.4,148.4,257.4,148.4,257.4z M176.9,268.1c-1.4,4.7-2.3,10-2.3,15.6
		c-4.1-0.2-15.2-0.5-25.2,2.9C157.5,279.4,168.7,270.7,176.9,268.1z M172.4,287.5c0,0.1,0,0.1,0,0.2c-8.7,11.1-16.1,15-18.8,14.1
		c-0.9-0.3-1.3-1.3-1.3-2.9C152.5,293.9,163.5,289.6,172.4,287.5z M175.8,289.5c0,0,0.1,0,0.1-0.1c2.6,8.8,4.4,20.5,0.2,23.1
		c-1.4,0.9-2.5,1-3.2,0.4C170.8,311,170.5,302.6,175.8,289.5z M190.5,275.9c2.3,8.6,0.5,23.7-1.4,34.6c-2.3-11-8.7-21.3-11.1-24.8
		C183,282.9,187.1,279.4,190.5,275.9z M208.1,280.6c1.2,4.7,3,9.8,5.8,14.7c-3.6,1.8-13.4,7.2-20.4,15.2
		C197.1,300.2,202.4,287,208.1,280.6z M214,299.7c0,0,0.1,0.1,0.1,0.1c-2,14-6.4,21.1-9.2,21.6c-0.9,0.2-1.8-0.5-2.6-1.9
		C200,315.2,207.4,306,214,299.7z M218,299.7c6.6,6.3,14.1,15.6,11.7,19.9c-0.8,1.4-1.6,2.1-2.6,1.9c-2.8-0.6-7.3-7.6-9.2-21.6
		C217.9,299.8,218,299.7,218,299.7z M218,295.3c2.8-4.9,4.7-10,5.8-14.7c6.3,6.2,12.3,20.2,16.1,30.7
		C232.5,302.9,221.8,297.2,218,295.3z M241.5,275.9c3.4,3.5,7.5,7,12.4,9.8c-2.2,3.4-8,13-10.1,23.3
		C241.7,298.4,239.7,284.3,241.5,275.9z M256.1,289.5c0,0,0.1,0.1,0.1,0.1c5.3,13.1,5,21.4,2.8,23.4c-0.7,0.6-1.8,0.5-3.2-0.4
		C251.7,310,253.5,298.3,256.1,289.5z M259.6,287.6c0-0.1,0-0.1,0-0.2c8.9,2.2,20,6.5,20.1,11.3c0.1,1.6-0.4,2.6-1.3,2.9
		C275.6,302.6,268.2,298.8,259.6,287.6z M257.4,283.7c0-5.6-0.9-10.9-2.3-15.6c8.6,2.3,20.7,11.3,29.3,18.5
		C273.7,283,261.6,283.4,257.4,283.7z M268.1,255.1c4.7,1.4,9.9,2.3,15.6,2.3c0,0,0,0,0.1,0c-0.2,4.1-0.4,15.2,2.9,25.2
		C279.4,274.4,270.6,263.3,268.1,255.1z M287.6,259.6c11.1,8.7,15,16.1,14.1,18.8c-0.3,0.9-1.3,1.3-2.9,1.3
		c-4.9-0.1-9.1-11.2-11.3-20.1C287.5,259.6,287.6,259.6,287.6,259.6z M289.5,256.2c0,0,0-0.1-0.1-0.1c8.8-2.6,20.5-4.4,23.1-0.2
		c0.9,1.4,1,2.5,0.4,3.2C311,261.2,302.6,261.5,289.5,256.2z M275.9,241.5c8.5-2.3,23.7-0.5,34.6,1.4c-11,2.3-21.3,8.7-24.8,11.1
		C282.9,249,279.4,244.9,275.9,241.5z M280.6,223.8c4.7-1.2,9.8-3,14.7-5.8c1.8,3.6,7.2,13.4,15.2,20.4
		C300.2,234.9,286.9,229.6,280.6,223.8z M299.7,218c0,0,0.1-0.1,0.1-0.1c14,2,21.1,6.4,21.6,9.2c0.2,0.9-0.5,1.8-1.9,2.6
		C315.3,232,306,224.6,299.7,218z M299.8,214.1c0,0-0.1-0.1-0.1-0.1c5.5-5.8,13.3-12.2,18-12.2c0.7,0,1.3,0.1,1.9,0.4
		c1.4,0.8,2.1,1.6,1.9,2.6C320.9,207.7,313.8,212.1,299.8,214.1z M295.3,214c-4.9-2.8-10-4.7-14.7-5.8c6.2-6.3,20.2-12.3,30.7-16.1
		C302.9,199.5,297.2,210.2,295.3,214z M306.1,165.4c5.5-0.1,20.1,0.8,22.7,6.8c1.6,3.8-2.2,9-5.9,12.8c-0.4,0.1-1,0.3-1.9,0.5
		c-8.4,1.9-18.3-1.6-25.4-5.1c3,0.6,6.3,1.1,9.4,1.1c4.4,0,8.2-1,10-3.8c2.1-3.4,0.9-5.6,0.1-6.6c-3-3.4-11.2-3.2-21.4,0.2
		c8.1-7.2,12.3-14.2,10.9-18.5c-0.4-1.3-1.7-3.3-5.7-3.2c-5.8,0.2-9.8,8.6-12.2,15.9c0.4-8.5,2.1-20.1,8.2-27.2
		c0.2-0.2,0.3-0.3,0.5-0.5c7.3-1.8,12-1.3,14.2,1.5c4.2,5.5-1.8,19.2-4.5,24.1l-1.2,2.2L306.1,165.4z M137,140.3
		c5.8,6.4,7.7,16.6,8.3,24.5c-2.4-7.2-6.4-15.2-12-15.4c-4.1-0.1-5.3,2-5.8,3.2c-1.4,4.3,2.8,11.3,10.9,18.5
		c-10.3-3.4-18.4-3.6-21.4-0.2c-0.9,1-2,3.2,0.1,6.6c1.8,2.9,5.6,3.8,10,3.8c3.2,0,6.7-0.5,9.9-1.2c-7.5,3.9-18.4,8.2-27.6,6.5
		c-0.2-0.1-0.4-0.1-0.7-0.1c-5.2-5.4-7.1-9.8-5.8-13c2.6-6.4,17.6-8.1,23.1-8.1l2.5,0l-1.3-2.1c-2.8-4.6-9.3-17.8-5.5-23
		c2.5-3.3,8.9-2.6,14-1.3C135.9,139.2,136.4,139.7,137,140.3z M125.9,266.6c-5.4,0.1-20.1-0.8-22.7-6.8c-1.6-3.8,2.2-9,5.9-12.8
		c0.4-0.1,1-0.3,1.8-0.5c8.4-1.9,18.3,1.6,25.4,5.1c-7.4-1.5-16.3-2.1-19.3,2.7c-2.1,3.4-0.9,5.6-0.1,6.6c1.5,1.7,4.2,2.5,7.7,2.5
		c3.7,0,8.4-0.9,13.7-2.6c-8.1,7.2-12.3,14.2-10.9,18.5c0.4,1.2,1.7,3.2,5.4,3.2c0.1,0,0.2,0,0.3,0c5.8-0.2,9.8-8.6,12.2-15.9
		c-0.4,8.5-2.1,20.1-8.2,27.2c-0.2,0.2-0.3,0.3-0.5,0.5c-7.3,1.8-12,1.3-14.2-1.5c-4.2-5.5,1.8-19.2,4.5-24.1l1.2-2.2L125.9,266.6z
		 M295,291.7c-5.8-6.4-7.7-16.6-8.3-24.5c2.4,7.2,6.4,15.2,12,15.4c0.1,0,0.2,0,0.3,0c3.8,0,5-2,5.4-3.2c1.4-4.3-2.8-11.3-10.8-18.5
		c5.3,1.7,10,2.6,13.7,2.6c3.6,0,6.3-0.8,7.7-2.5c0.9-1,2-3.2-0.1-6.6c-3.1-5-12.4-4.2-19.9-2.6c7.5-3.9,18.4-8.3,27.6-6.5
		c0.2,0.1,0.4,0.1,0.7,0.1c5.2,5.4,7.1,9.8,5.8,13c-2.6,6.4-17.6,8.1-23.1,8.1l-2.5,0l1.3,2.1c2.8,4.6,9.3,17.8,5.5,23
		c-2.5,3.3-8.9,2.6-14,1.3C296.1,292.8,295.6,292.3,295,291.7z M322.3,242.1c-8.2-2.6-15.1-10.5-19.5-17.1c4.6,4,10.3,8.1,15,8.1
		c1.1,0,2.2-0.2,3.2-0.8c3.5-1.9,3.6-4.4,3.4-5.7c-0.9-4.5-8.1-8.4-18.6-10.6c10.6-2.2,17.7-6.1,18.6-10.6c0.3-1.3,0.2-3.8-3.4-5.7
		c-5.1-2.8-12.8,2.5-18.5,7.7c4.6-7.2,11.8-16.4,20.7-19.4c0.2-0.1,0.4-0.1,0.7-0.2c7.2,2.1,11.1,4.9,11.5,8.4
		c0.9,6.9-11.2,15.8-15.9,18.6l-2.2,1.3l2.2,1.2c4.8,2.6,17,10.7,16.2,17.2c-0.5,4.1-6.4,6.7-11.5,8.1
		C323.7,242.5,323.1,242.3,322.3,242.1z M364.3,216c0,0.2-0.1,3.5-1.4,7.6c-6.7-3.8-20.1-6.3-30.1-7.7c10-1.4,23.4-3.8,30.1-7.7
		C364.2,212.6,364.3,215.8,364.3,216z M361.9,205.6c-7.5,4.6-26.8,7.3-36.4,8.4c5.4-4.1,13.5-11.3,12.5-18.2
		c-0.5-3.5-3.1-6.4-7.8-8.6c9.9-0.3,17.8,2,23.7,7C358,197.6,360.4,201.8,361.9,205.6z M353.2,177.2c1.1,3.6,0.7,7.6-1.4,12
		c-5.6-3.4-12.6-5-20.7-4.8c7.4-4.1,12.8-9,16-14.8C348.8,170.6,351.9,173.1,353.2,177.2z M344.4,141.8c0,0.1,1.6,3,2.6,7.4
		c-7.8,0.1-20.5,4.6-29.9,8.4c8-6.2,18.3-15,22.2-21.7C342.6,138.9,344.3,141.6,344.4,141.8z M337.1,134
		c-4.2,7.8-19.5,19.7-27.3,25.5c2.7-6.2,6-16.5,1.8-22c-2.1-2.8-5.9-4-11-3.6c8.4-5.2,16.4-7.2,24-5.8
		C329.7,129,333.9,131.4,337.1,134z M320.1,124.8c-6.5-0.1-13.3,2-20.3,6.2c4.4-7.2,6.5-14.2,6.4-20.8c2,0.1,6,0.8,9.2,3.6
		C318.2,116.3,319.7,120,320.1,124.8z M296.9,130.2c0.4-5.2-0.7-8.8-3.4-10.8c-5.2-3.9-14.6-0.6-20.6,2.3
		c5.9-7.9,17.5-22.7,25.1-26.8c2.2,2.9,4.1,6.5,5,11C304.4,113.4,302.3,121.6,296.9,130.2z M296.1,92.6
		c-6.7,3.9-15.5,14.3-21.7,22.2c3.8-9.4,8.4-22.2,8.4-29.9c4.4,1,7.3,2.5,7.4,2.6C290.4,87.7,293.1,89.4,296.1,92.6z M266.1,85.6
		c5-1.8,9.8-1.8,13.9-1.2c0.3,8.8-7,26.9-10.9,35.7c-0.8-6.7-3-17.3-9.5-20c-3.2-1.3-7.1-0.5-11.3,2.4
		C252.9,93.9,258.8,88.2,266.1,85.6z M250.9,77.8c3.7,0.8,6.9,3.2,9.7,7.2c-5.7,3.2-10.6,8.4-14.6,15.5c0.2-8.5-1.4-15.6-4.9-21.3
		C243,78.3,246.7,76.9,250.9,77.8z M236.2,77.2c5,5.8,7.3,13.9,6.9,24.1c-2.2-4.7-5-7.3-8.4-7.7c-6.5-0.7-12.9,6.8-16.7,12.3
		c1.1-9.8,3.8-28.3,8.3-35.8C229.7,71.5,233.3,73.7,236.2,77.2z M216,67.7c0.2,0,3.5,0.1,7.6,1.4c-3.8,6.7-6.3,20.1-7.7,30.1
		c-1.4-10-3.8-23.4-7.7-30.1C212.6,67.8,215.8,67.7,216,67.7z M194.2,78c3.4-4,7.6-6.4,11.4-7.9c4.6,7.5,7.3,26.8,8.4,36.4
		c-4.1-5.4-11.3-13.5-18.2-12.5c-3.5,0.5-6.4,3.1-8.6,7.8C186.9,91.8,189.2,83.9,194.2,78z M177.1,78.8c3.6-1.2,7.6-0.7,12,1.4
		c-3.4,5.6-5,12.6-4.8,20.7c-4.1-7.4-9-12.8-14.8-16C170.6,83.2,173.1,80.1,177.1,78.8z M164.1,85.7c7.2,2.5,13.3,8.4,18,17.4
		c-4.3-3-8-3.8-11.1-2.4c-6,2.6-7.8,12.4-8.3,19c-3.9-9-10.9-26.4-10.7-35.1C155.6,84,159.8,84.2,164.1,85.7z M141.9,87.5
		c0.2-0.1,3.1-1.6,7.3-2.6c0.1,7.8,4.6,20.6,8.4,29.9c-6.2-8-15-18.3-21.7-22.3C139,89.4,141.7,87.6,141.9,87.5z M128.1,107.4
		c1-5.2,3.4-9.4,5.9-12.6c7.8,4.2,19.7,19.5,25.5,27.3c-6.2-2.7-16.5-6-22-1.7c-2.8,2.1-4,5.9-3.6,11
		C128.7,123,126.7,115,128.1,107.4z M113.8,116.6c2.5-2.8,6.3-4.3,11-4.7c-0.1,6.5,2,13.3,6.2,20.3c-7.2-4.4-14.2-6.6-20.8-6.4
		C110.3,123.7,110.9,119.8,113.8,116.6z M105.9,129.1c7.5-1.4,15.7,0.6,24.3,6c-5.2-0.4-8.8,0.7-10.8,3.4
		c-3.9,5.2-0.5,14.6,2.3,20.6c-7.9-5.9-22.7-17.5-26.8-25.1C97.8,131.9,101.4,129.9,105.9,129.1z M87.6,141.8c0.1-0.2,1.9-3,5.1-5.9
		c3.9,6.7,14.2,15.5,22.2,21.7c-9.4-3.8-22.2-8.4-29.9-8.4C86,144.8,87.5,141.9,87.6,141.8z M77.8,181c0.8-3.7,3.2-6.9,7.2-9.7
		c3.2,5.7,8.4,10.6,15.5,14.6c-8.5-0.2-15.6,1.4-21.3,4.9C78.3,189,76.9,185.2,77.8,181z M77.2,195.8c5.8-5,13.9-7.3,24.1-6.9
		c-4.7,2.2-7.3,5-7.7,8.4c-0.7,6.5,6.8,12.9,12.3,16.7c-9.8-1.1-28.3-3.8-35.8-8.3C71.5,202.3,73.7,198.7,77.2,195.8z M99.2,216
		c-10,1.4-23.4,3.8-30.1,7.7c-1.3-4.3-1.4-7.5-1.4-7.7c0-0.2,0.1-3.5,1.4-7.6C75.9,212.2,89.2,214.6,99.2,216z M70.1,226.4
		c7.5-4.6,26.8-7.3,36.4-8.4c-5.4,4.1-13.5,11.3-12.5,18.2c0.5,3.5,3.1,6.4,7.8,8.6c-9.9,0.3-17.8-2-23.7-7
		C74,234.4,71.6,230.2,70.1,226.4z M78.8,254.8c-1.1-3.6-0.7-7.6,1.4-11.9c5.4,3.2,12,4.9,19.8,4.9c0.3,0,0.6,0,0.9,0
		c-7.4,4.1-12.7,9-15.9,14.8C83.2,261.4,80.1,258.9,78.8,254.8z M87.6,290.2c-0.1-0.1-1.6-3-2.6-7.4c7.8-0.1,20.6-4.6,29.9-8.4
		c-8,6.2-18.4,15-22.3,21.7C89.4,293.1,87.7,290.4,87.6,290.2z M94.9,298c4.2-7.8,19.5-19.7,27.3-25.5c-2.7,6.2-6,16.5-1.7,22
		c1.9,2.4,5,3.7,9.2,3.7c0.6,0,1.3-0.1,1.9-0.2c-8.4,5.2-16.5,7.2-24.1,5.8C102.3,303,98.1,300.6,94.9,298z M111.9,307.2
		c0.1,0,0.2,0,0.4,0c6.4,0,13.1-2.1,19.9-6.2c-4.4,7.2-6.5,14.2-6.4,20.8c-2-0.1-6-0.7-9.2-3.6C113.9,315.7,112.3,312,111.9,307.2z
		 M135.1,301.8c-0.4,5.2,0.7,8.8,3.4,10.8c5.2,3.9,14.6,0.5,20.6-2.3c-5.9,7.9-17.5,22.7-25.1,26.8c-2.1-2.8-4.1-6.5-5-11
		C127.6,318.6,129.7,310.4,135.1,301.8z M135.9,339.4c6.7-3.9,15.5-14.3,21.7-22.3c-3.8,9.4-8.4,22.2-8.4,29.9
		c-4.3-1-7.2-2.5-7.4-2.6C141.7,344.4,138.9,342.6,135.9,339.4z M165.9,346.4c-5,1.8-9.8,1.8-13.9,1.2c-0.3-8.8,7-26.9,10.9-35.7
		c0.8,6.7,3,17.3,9.5,20c1,0.4,2.1,0.6,3.2,0.6c2.5,0,5.2-1,8.1-3C179.1,338.1,173.2,343.9,165.9,346.4z M181.1,354.2
		c-3.7-0.8-6.9-3.2-9.7-7.2c5.7-3.2,10.6-8.4,14.6-15.5c-0.2,8.5,1.4,15.6,4.9,21.3C189,353.7,185.3,355.1,181.1,354.2z
		 M195.8,354.8c-5-5.8-7.3-13.9-6.9-24.1c2.2,4.7,5,7.3,8.4,7.7c0.3,0,0.6,0.1,0.9,0.1c6.2,0,12.2-7.1,15.8-12.4
		c-1.1,9.8-3.8,28.3-8.3,35.8C202.3,360.5,198.7,358.3,195.8,354.8z M216,364.3c-0.2,0-3.4-0.1-7.6-1.4c3.8-6.7,6.3-20.1,7.7-30.1
		c1.4,10,3.8,23.4,7.7,30.1C219.4,364.2,216.2,364.3,216,364.3z M237.9,354c-3.4,4-7.6,6.4-11.4,7.9c-4.6-7.5-7.3-26.8-8.4-36.4
		c4,5.4,11.3,13.5,18.2,12.5c3.5-0.5,6.4-3.1,8.6-7.8C245.1,340.2,242.8,348.1,237.9,354z M254.8,353.2c-3.6,1.1-7.6,0.7-12-1.4
		c3.4-5.6,5-12.6,4.8-20.7c4.1,7.4,9,12.8,14.8,16C261.4,348.8,258.9,351.9,254.8,353.2z M267.9,346.4c-7.2-2.5-13.3-8.4-18-17.4
		c2.9,2,5.6,3.1,8,3.1c1.1,0,2.1-0.2,3.1-0.6c6-2.6,7.8-12.4,8.3-19c3.9,9,10.9,26.4,10.7,35.1C276.4,348,272.2,347.9,267.9,346.4z
		 M290.1,344.5c-0.2,0.1-3.1,1.6-7.3,2.6c-0.1-7.8-4.6-20.6-8.4-29.9c6.2,8,15,18.3,21.7,22.3C293,342.6,290.3,344.4,290.1,344.5z
		 M303.9,324.6c-1,5.2-3.4,9.4-5.9,12.6c-7.8-4.2-19.8-19.5-25.5-27.3c6.2,2.7,16.5,6,22,1.7c2.8-2.1,4-5.9,3.6-11
		C303.3,309,305.3,317,303.9,324.6z M318.2,315.4c-2.5,2.8-6.3,4.3-11,4.7c0.1-6.5-2-13.3-6.1-20.3c7,4.3,13.8,6.4,20.3,6.4
		c0.2,0,0.4,0,0.5,0C321.7,308.3,321.1,312.2,318.2,315.4z M326.1,302.9c-7.6,1.4-15.8-0.6-24.4-6.1c0.7,0.1,1.5,0.2,2.1,0.2
		c4.1,0,7.1-1.2,8.8-3.5c3.9-5.2,0.5-14.6-2.3-20.6c7.9,5.9,22.7,17.5,26.8,25.1C334.3,300.1,330.6,302.1,326.1,302.9z M344.5,290.1
		L344.5,290.1c0,0.1-1.8,2.9-5.1,5.9c-3.9-6.7-14.3-15.5-22.3-21.7c9.4,3.8,22.2,8.4,30,8.4C346.1,287.1,344.6,289.9,344.5,290.1z
		 M354.2,250.9c-0.8,3.7-3.2,6.9-7.2,9.7c-3.2-5.7-8.4-10.6-15.5-14.5c0.4,0,0.9,0,1.3,0c7.9,0,14.5-1.7,19.9-4.9
		C353.7,243,355.1,246.8,354.2,250.9z M354.8,236.2c-5.8,5-13.9,7.3-24.1,6.9c4.7-2.2,7.3-5,7.7-8.4c0.7-6.5-6.8-12.9-12.3-16.7
		c9.8,1.1,28.3,3.8,35.8,8.3C360.5,229.7,358.3,233.3,354.8,236.2z"/>
</g>
</svg>
