  0
SECTION
  2
HEADER
  9
$ACADVER
  1
AC1024
  9
$ACADMAINTVER
 70
     6
  9
$DWGCODEPAGE
  3
ANSI_1252
  9
$INSBASE
 10
0.0
 20
0.0
 30
0.0
  9
$EXTMIN
 10
1.000000000000000E+20
 20
1.000000000000000E+20
 30
1.000000000000000E+20
  9
$EXTMAX
 10
-1.000000000000000E+20
 20
-1.000000000000000E+20
 30
-1.000000000000000E+20
  9
$LIMMIN
 10
0.0
 20
0.0
  9
$LIMMAX
 10
12.0
 20
9.0
  9
$ORTHOMODE
 70
     0
  9
$REGENMODE
 70
     1
  9
$FILLMODE
 70
     1
  9
$QTEXTMODE
 70
     0
  9
$MIRRTEXT
 70
     1
  9
$LTSCALE
 40
1.0
  9
$ATTMODE
 70
     1
  9
$TEXTSIZE
 40
0.2
  9
$TRACEWID
 40
0.05
  9
$TEXTSTYLE
  7
Standard
  9
$CLAYER
  8
0
  9
$CELTYPE
  6
ByLayer
  9
$CECOLOR
 62
   256
  9
$CELTSCALE
 40
1.0
  9
$DISPSILH
 70
     0
  9
$DIMSCALE
 40
1.0
  9
$DIMASZ
 40
0.18
  9
$DIMEXO
 40
0.0625
  9
$DIMDLI
 40
0.38
  9
$DIMRND
 40
0.0
  9
$DIMDLE
 40
0.0
  9
$DIMEXE
 40
0.18
  9
$DIMTP
 40
0.0
  9
$DIMTM
 40
0.0
  9
$DIMTXT
 40
0.18
  9
$DIMCEN
 40
0.09
  9
$DIMTSZ
 40
0.0
  9
$DIMTOL
 70
     0
  9
$DIMLIM
 70
     0
  9
$DIMTIH
 70
     1
  9
$DIMTOH
 70
     1
  9
$DIMSE1
 70
     0
  9
$DIMSE2
 70
     0
  9
$DIMTAD
 70
     0
  9
$DIMZIN
 70
     0
  9
$DIMBLK
  1

  9
$DIMASO
 70
     1
  9
$DIMSHO
 70
     1
  9
$DIMPOST
  1

  9
$DIMAPOST
  1

  9
$DIMALT
 70
     0
  9
$DIMALTD
 70
     2
  9
$DIMALTF
 40
25.4
  9
$DIMLFAC
 40
1.0
  9
$DIMTOFL
 70
     0
  9
$DIMTVP
 40
0.0
  9
$DIMTIX
 70
     0
  9
$DIMSOXD
 70
     0
  9
$DIMSAH
 70
     0
  9
$DIMBLK1
  1

  9
$DIMBLK2
  1

  9
$DIMSTYLE
  2
Standard
  9
$DIMCLRD
 70
     0
  9
$DIMCLRE
 70
     0
  9
$DIMCLRT
 70
     0
  9
$DIMTFAC
 40
1.0
  9
$DIMGAP
 40
0.09
  9
$DIMJUST
 70
     0
  9
$DIMSD1
 70
     0
  9
$DIMSD2
 70
     0
  9
$DIMTOLJ
 70
     1
  9
$DIMTZIN
 70
     0
  9
$DIMALTZ
 70
     0
  9
$DIMALTTZ
 70
     0
  9
$DIMUPT
 70
     0
  9
$DIMDEC
 70
     4
  9
$DIMTDEC
 70
     4
  9
$DIMALTU
 70
     2
  9
$DIMALTTD
 70
     2
  9
$DIMTXSTY
  7
Standard
  9
$DIMAUNIT
 70
     0
  9
$DIMADEC
 70
     0
  9
$DIMALTRND
 40
0.0
  9
$DIMAZIN
 70
     0
  9
$DIMDSEP
 70
    46
  9
$DIMATFIT
 70
     3
  9
$DIMFRAC
 70
     0
  9
$DIMLDRBLK
  1

  9
$DIMLUNIT
 70
     2
  9
$DIMLWD
 70
    -2
  9
$DIMLWE
 70
    -2
  9
$DIMTMOVE
 70
     0
  9
$DIMFXL
 40
1.0
  9
$DIMFXLON
 70
     0
  9
$DIMJOGANG
 40
0.7853981633974483
  9
$DIMTFILL
 70
     0
  9
$DIMTFILLCLR
 70
     0
  9
$DIMARCSYM
 70
     0
  9
$DIMLTYPE
  6

  9
$DIMLTEX1
  6

  9
$DIMLTEX2
  6

  9
$DIMTXTDIRECTION
 70
     0
  9
$LUNITS
 70
     2
  9
$LUPREC
 70
     4
  9
$SKETCHINC
 40
0.1
  9
$FILLETRAD
 40
0.5
  9
$AUNITS
 70
     0
  9
$AUPREC
 70
     0
  9
$MENU
  1
.
  9
$ELEVATION
 40
0.0
  9
$PELEVATION
 40
0.0
  9
$THICKNESS
 40
0.0
  9
$LIMCHECK
 70
     0
  9
$CHAMFERA
 40
0.5
  9
$CHAMFERB
 40
0.5
  9
$CHAMFERC
 40
1.0
  9
$CHAMFERD
 40
0.0
  9
$SKPOLY
 70
     0
  9
$TDCREATE
 40
2457787.727594329
  9
$TDUCREATE
 40
2457787.935927662
  9
$TDUPDATE
 40
2457787.727594364
  9
$TDUUPDATE
 40
2457787.935927697
  9
$TDINDWG
 40
0.0000000116
  9
$TDUSRTIMER
 40
0.0000000116
  9
$USRTIMER
 70
     1
  9
$ANGBASE
 50
0.0
  9
$ANGDIR
 70
     0
  9
$PDMODE
 70
     0
  9
$PDSIZE
 40
0.0
  9
$PLINEWID
 40
0.0
  9
$SPLFRAME
 70
     0
  9
$SPLINETYPE
 70
     6
  9
$SPLINESEGS
 70
     8
  9
$HANDSEED
  5
6C
  9
$SURFTAB1
 70
     6
  9
$SURFTAB2
 70
     6
  9
$SURFTYPE
 70
     6
  9
$SURFU
 70
     6
  9
$SURFV
 70
     6
  9
$UCSBASE
  2

  9
$UCSNAME
  2

  9
$UCSORG
 10
0.0
 20
0.0
 30
0.0
  9
$UCSXDIR
 10
1.0
 20
0.0
 30
0.0
  9
$UCSYDIR
 10
0.0
 20
1.0
 30
0.0
  9
$UCSORTHOREF
  2

  9
$UCSORTHOVIEW
 70
     0
  9
$UCSORGTOP
 10
0.0
 20
0.0
 30
0.0
  9
$UCSORGBOTTOM
 10
0.0
 20
0.0
 30
0.0
  9
$UCSORGLEFT
 10
0.0
 20
0.0
 30
0.0
  9
$UCSORGRIGHT
 10
0.0
 20
0.0
 30
0.0
  9
$UCSORGFRONT
 10
0.0
 20
0.0
 30
0.0
  9
$UCSORGBACK
 10
0.0
 20
0.0
 30
0.0
  9
$PUCSBASE
  2

  9
$PUCSNAME
  2

  9
$PUCSORG
 10
0.0
 20
0.0
 30
0.0
  9
$PUCSXDIR
 10
1.0
 20
0.0
 30
0.0
  9
$PUCSYDIR
 10
0.0
 20
1.0
 30
0.0
  9
$PUCSORTHOREF
  2

  9
$PUCSORTHOVIEW
 70
     0
  9
$PUCSORGTOP
 10
0.0
 20
0.0
 30
0.0
  9
$PUCSORGBOTTOM
 10
0.0
 20
0.0
 30
0.0
  9
$PUCSORGLEFT
 10
0.0
 20
0.0
 30
0.0
  9
$PUCSORGRIGHT
 10
0.0
 20
0.0
 30
0.0
  9
$PUCSORGFRONT
 10
0.0
 20
0.0
 30
0.0
  9
$PUCSORGBACK
 10
0.0
 20
0.0
 30
0.0
  9
$USERI1
 70
     0
  9
$USERI2
 70
     0
  9
$USERI3
 70
     0
  9
$USERI4
 70
     0
  9
$USERI5
 70
     0
  9
$USERR1
 40
0.0
  9
$USERR2
 40
0.0
  9
$USERR3
 40
0.0
  9
$USERR4
 40
0.0
  9
$USERR5
 40
0.0
  9
$WORLDVIEW
 70
     1
  9
$SHADEDGE
 70
     3
  9
$SHADEDIF
 70
    70
  9
$TILEMODE
 70
     1
  9
$MAXACTVP
 70
    64
  9
$PINSBASE
 10
0.0
 20
0.0
 30
0.0
  9
$PLIMCHECK
 70
     0
  9
$PEXTMIN
 10
1.000000000000000E+20
 20
1.000000000000000E+20
 30
1.000000000000000E+20
  9
$PEXTMAX
 10
-1.000000000000000E+20
 20
-1.000000000000000E+20
 30
-1.000000000000000E+20
  9
$PLIMMIN
 10
0.0
 20
0.0
  9
$PLIMMAX
 10
12.0
 20
9.0
  9
$UNITMODE
 70
     0
  9
$VISRETAIN
 70
     1
  9
$PLINEGEN
 70
     0
  9
$PSLTSCALE
 70
     1
  9
$TREEDEPTH
 70
  3020
  9
$CMLSTYLE
  2
Standard
  9
$CMLJUST
 70
     0
  9
$CMLSCALE
 40
1.0
  9
$PROXYGRAPHICS
 70
     1
  9
$MEASUREMENT
 70
     0
  9
$CELWEIGHT
370
    -1
  9
$ENDCAPS
280
     0
  9
$JOINSTYLE
280
     0
  9
$LWDISPLAY
290
     1
  9
$INSUNITS
 70
     1
  9
$HYPERLINKBASE
  1

  9
$STYLESHEET
  1

  9
$XEDIT
290
     1
  9
$CEPSNTYPE
380
     0
  9
$PSTYLEMODE
290
     1
  9
$FINGERPRINTGUID
  2
{2DC26C39-5615-429E-A7C8-B1A68DC20BB2}
  9
$VERSIONGUID
  2
{FAEB1C32-E019-11D5-929B-00C0DF256EC4}
  9
$EXTNAMES
290
     1
  9
$PSVPSCALE
 40
0.0
  9
$OLESTARTUP
290
     0
  9
$SORTENTS
280
   127
  9
$INDEXCTL
280
     0
  9
$HIDETEXT
280
     1
  9
$XCLIPFRAME
280
     2
  9
$HALOGAP
280
     0
  9
$OBSCOLOR
 70
   257
  9
$OBSLTYPE
280
     0
  9
$INTERSECTIONDISPLAY
280
     0
  9
$INTERSECTIONCOLOR
 70
   257
  9
$DIMASSOC
280
     2
  9
$PROJECTNAME
  1

  9
$CAMERADISPLAY
290
     0
  9
$LENSLENGTH
 40
50.0
  9
$CAMERAHEIGHT
 40
0.0
  9
$STEPSPERSEC
 40
2.0
  9
$STEPSIZE
 40
6.0
  9
$3DDWFPREC
 40
2.0
  9
$PSOLWIDTH
 40
0.25
  9
$PSOLHEIGHT
 40
4.0
  9
$LOFTANG1
 40
1.570796326794897
  9
$LOFTANG2
 40
1.570796326794897
  9
$LOFTMAG1
 40
0.0
  9
$LOFTMAG2
 40
0.0
  9
$LOFTPARAM
 70
     7
  9
$LOFTNORMALS
280
     1
  9
$LATITUDE
 40
37.795
  9
$LONGITUDE
 40
-122.394
  9
$NORTHDIRECTION
 40
0.0
  9
$TIMEZONE
 70
 -8000
  9
$LIGHTGLYPHDISPLAY
280
     1
  9
$TILEMODELIGHTSYNCH
280
     1
  9
$CMATERIAL
347
3C
  9
$SOLIDHIST
280
     1
  9
$SHOWHIST
280
     1
  9
$DWFFRAME
280
     2
  9
$DGNFRAME
280
     2
  9
$REALWORLDSCALE
290
     1
  9
$INTERFERECOLOR
 62
   256
  9
$CSHADOW
280
     0
  9
$SHADOWPLANELOCATION
 40
0.0
  0
ENDSEC
  0
SECTION
  2
CLASSES
  0
CLASS
  1
ACDBDICTIONARYWDFLT
  2
AcDbDictionaryWithDefault
  3
ObjectDBX Classes
 90
        0
 91
        4
280
     0
281
     0
  0
CLASS
  1
VISUALSTYLE
  2
AcDbVisualStyle
  3
ObjectDBX Classes
 90
     4095
 91
        4
280
     0
281
     0
  0
CLASS
  1
MATERIAL
  2
AcDbMaterial
  3
ObjectDBX Classes
 90
     1153
 91
        4
280
     0
281
     0
  0
CLASS
  1
SUN
  2
AcDbSun
  3
SCENEOE
 90
     1024
 91
        4
280
     0
281
     0
  0
ENDSEC
  0
SECTION
  2
TABLES
  0
TABLE
  2
VPORT
  5
8
330
0
100
AcDbSymbolTable
 70
     1
  0
VPORT
  5
29
330
8
100
AcDbSymbolTableRecord
100
AcDbViewportTableRecord
  2
*Active
 70
     0
 10
0.0
 20
0.0
 11
1.0
 21
1.0
 12
0.0
 22
0.0
 13
0.0
 23
0.0
 14
0.5
 24
0.5
 15
0.5
 25
0.5
 16
0.0
 26
0.0
 36
1.0
 17
3.0
 27
3.0
 37
0.0
 40
6.0
 41
1.0
 42
50.0
 43
0.0
 44
0.0
 50
0.0
 51
0.0
 71
     0
 72
   100
 73
     1
 74
     3
 75
     0
 76
     0
 77
     0
 78
     0
281
     0
 65
     1
110
0.0
120
0.0
130
0.0
111
1.0
121
0.0
131
0.0
112
0.0
122
1.0
132
0.0
 79
     0
146
0.0
 60
     3
 61
     5
292
     1
282
     1
141
0.0
142
0.0
 63
   250
361
3F
  0
ENDTAB
  0
TABLE
  2
LTYPE
  5
5
330
0
100
AcDbSymbolTable
 70
     1
  0
LTYPE
  5
14
330
5
100
AcDbSymbolTableRecord
100
AcDbLinetypeTableRecord
  2
ByBlock
 70
     0
  3

 72
    65
 73
     0
 40
0.0
  0
LTYPE
  5
15
330
5
100
AcDbSymbolTableRecord
100
AcDbLinetypeTableRecord
  2
ByLayer
 70
     0
  3

 72
    65
 73
     0
 40
0.0
  0
LTYPE
  5
16
330
5
100
AcDbSymbolTableRecord
100
AcDbLinetypeTableRecord
  2
Continuous
 70
     0
  3
Solid line
 72
    65
 73
     0
 40
0.0
  0
ENDTAB
  0
TABLE
  2
LAYER
  5
2
330
0
100
AcDbSymbolTable
 70
     2
  0
LAYER
  5
10
330
2
100
AcDbSymbolTableRecord
100
AcDbLayerTableRecord
  2
0
 70
     0
 62
     7
  6
Continuous
370
    -3
390
F
347
3E
  0
LAYER
  5
40
330
2
100
AcDbSymbolTableRecord
100
AcDbLayerTableRecord
  2
Calque 1
 70
     0
 62
     7
  6
Continuous
370
    -3
390
F
347
3E
  0
ENDTAB
  0
TABLE
  2
STYLE
  5
3
330
0
100
AcDbSymbolTable
 70
     1
  0
STYLE
  5
11
330
3
100
AcDbSymbolTableRecord
100
AcDbTextStyleTableRecord
  2
Standard
 70
     0
 40
0.0
 41
1.0
 50
0.0
 71
     0
 42
0.2
  3
txt
  4

  0
ENDTAB
  0
TABLE
  2
VIEW
  5
6
330
0
100
AcDbSymbolTable
 70
     0
  0
ENDTAB
  0
TABLE
  2
UCS
  5
7
330
0
100
AcDbSymbolTable
 70
     0
  0
ENDTAB
  0
TABLE
  2
APPID
  5
9
330
0
100
AcDbSymbolTable
 70
     1
  0
APPID
  5
12
330
9
100
AcDbSymbolTableRecord
100
AcDbRegAppTableRecord
  2
ACAD
 70
     0
  0
ENDTAB
  0
TABLE
  2
DIMSTYLE
  5
A
330
0
100
AcDbSymbolTable
 70
     1
100
AcDbDimStyleTable
  0
DIMSTYLE
105
27
330
A
100
AcDbSymbolTableRecord
100
AcDbDimStyleTableRecord
  2
Standard
 70
     0
178
     0
340
11
  0
ENDTAB
  0
TABLE
  2
BLOCK_RECORD
  5
1
330
0
100
AcDbSymbolTable
 70
     5
  0
BLOCK_RECORD
  5
1F
330
1
100
AcDbSymbolTableRecord
100
AcDbBlockTableRecord
  2
*Model_Space
340
22
 70
     0
280
     1
281
     0
  0
BLOCK_RECORD
  5
1B
330
1
100
AcDbSymbolTableRecord
100
AcDbBlockTableRecord
  2
*Paper_Space
340
1E
 70
     0
280
     1
281
     0
  0
BLOCK_RECORD
  5
23
330
1
100
AcDbSymbolTableRecord
100
AcDbBlockTableRecord
  2
*Paper_Space0
340
26
 70
     0
280
     1
281
     0
  0
BLOCK_RECORD
  5
41
330
1
100
AcDbSymbolTableRecord
100
AcDbBlockTableRecord
  2
block 2
340
0
102
{BLKREFS
331
42
102
}
 70
     0
280
     1
281
     0
  0
BLOCK_RECORD
  5
45
330
1
100
AcDbSymbolTableRecord
100
AcDbBlockTableRecord
  2
block 3
340
0
102
{BLKREFS
331
46
102
}
 70
     0
280
     1
281
     0
  0
BLOCK_RECORD
  5
53
330
1
100
AcDbSymbolTableRecord
100
AcDbBlockTableRecord
  2
block 4
340
0
102
{BLKREFS
331
54
102
}
 70
     0
280
     1
281
     0
  0
BLOCK_RECORD
  5
62
330
1
100
AcDbSymbolTableRecord
100
AcDbBlockTableRecord
  2
block 5
340
0
102
{BLKREFS
331
63
102
}
 70
     0
280
     1
281
     0
  0
ENDTAB
  0
ENDSEC
  0
SECTION
  2
BLOCKS
  0
BLOCK
  5
20
330
1F
100
AcDbEntity
  8
0
100
AcDbBlockBegin
  2
*Model_Space
 70
     0
 10
0.0
 20
0.0
 30
0.0
  3
*Model_Space
  1

  0
ENDBLK
  5
21
330
1F
100
AcDbEntity
  8
0
100
AcDbBlockEnd
  0
BLOCK
  5
1C
330
1B
100
AcDbEntity
 67
     1
  8
0
100
AcDbBlockBegin
  2
*Paper_Space
 70
     0
 10
0.0
 20
0.0
 30
0.0
  3
*Paper_Space
  1

  0
ENDBLK
  5
1D
330
1B
100
AcDbEntity
 67
     1
  8
0
100
AcDbBlockEnd
  0
BLOCK
  5
24
330
23
100
AcDbEntity
  8
0
100
AcDbBlockBegin
  2
*Paper_Space0
 70
     0
 10
0.0
 20
0.0
 30
0.0
  3
*Paper_Space0
  1

  0
ENDBLK
  5
25
330
23
100
AcDbEntity
  8
0
100
AcDbBlockEnd
  0
BLOCK
  5
43
330
41
100
AcDbEntity
  8
0
100
AcDbBlockBegin
  2
block 2
 70
     0
 10
0.0
 20
0.0
 30
0.0
  3
block 2
  1

  0
INSERT
  5
46
330
41
100
AcDbEntity
  8
Calque 1
100
AcDbBlockReference
  2
block 3
 10
0.0
 20
0.0
 30
0.0
  0
INSERT
  5
54
330
41
100
AcDbEntity
  8
Calque 1
100
AcDbBlockReference
  2
block 4
 10
0.0
 20
0.0
 30
0.0
  0
INSERT
  5
63
330
41
100
AcDbEntity
  8
Calque 1
100
AcDbBlockReference
  2
block 5
 10
0.0
 20
0.0
 30
0.0
  0
ENDBLK
  5
44
330
41
100
AcDbEntity
  8
0
100
AcDbBlockEnd
  0
BLOCK
  5
47
330
45
100
AcDbEntity
  8
0
100
AcDbBlockBegin
  2
block 3
 70
     0
 10
0.0
 20
0.0
 30
0.0
  3
block 3
  1

  0
SPLINE
  5
49
330
45
100
AcDbEntity
  8
Calque 1
370
     0
100
AcDbSpline
210
0.0
220
0.0
230
1.0
 70
    11
 71
     3
 72
   113
 73
   109
 74
     0
 42
0.0000000001
 43
0.0000000001
 12
1.0
 22
0.0
 32
0.0
 13
1.0
 23
0.0
 33
0.0
 40
0.0
 40
0.0
 40
0.0
 40
0.0
 40
1.0
 40
1.0
 40
1.0
 40
2.0
 40
2.0
 40
2.0
 40
3.0
 40
3.0
 40
3.0
 40
4.0
 40
4.0
 40
4.0
 40
5.0
 40
5.0
 40
5.0
 40
6.0
 40
6.0
 40
6.0
 40
7.0
 40
7.0
 40
7.0
 40
8.0
 40
8.0
 40
8.0
 40
9.0
 40
9.0
 40
9.0
 40
10.0
 40
10.0
 40
10.0
 40
11.0
 40
11.0
 40
11.0
 40
12.0
 40
12.0
 40
12.0
 40
13.0
 40
13.0
 40
13.0
 40
14.0
 40
14.0
 40
14.0
 40
15.0
 40
15.0
 40
15.0
 40
16.0
 40
16.0
 40
16.0
 40
17.0
 40
17.0
 40
17.0
 40
18.0
 40
18.0
 40
18.0
 40
19.0
 40
19.0
 40
19.0
 40
20.0
 40
20.0
 40
20.0
 40
21.0
 40
21.0
 40
21.0
 40
22.0
 40
22.0
 40
22.0
 40
23.0
 40
23.0
 40
23.0
 40
24.0
 40
24.0
 40
24.0
 40
25.0
 40
25.0
 40
25.0
 40
26.0
 40
26.0
 40
26.0
 40
27.0
 40
27.0
 40
27.0
 40
28.0
 40
28.0
 40
28.0
 40
29.0
 40
29.0
 40
29.0
 40
30.0
 40
30.0
 40
30.0
 40
31.0
 40
31.0
 40
31.0
 40
32.0
 40
32.0
 40
32.0
 40
33.0
 40
33.0
 40
33.0
 40
34.0
 40
34.0
 40
34.0
 40
35.0
 40
35.0
 40
35.0
 40
36.0
 40
36.0
 40
36.0
 40
36.0
 10
1.729166666666667
 20
3.577777862548828
 30
0.0
 10
1.769444465637207
 20
3.636111153496636
 30
0.0
 10
1.809722264607747
 20
3.694444444444444
 30
0.0
 10
1.848611195882161
 20
3.752777947319878
 30
0.0
 10
1.902777777777778
 20
3.833333545260959
 30
0.0
 10
1.954166836208767
 20
3.909722434149848
 30
0.0
 10
2.002777947319879
 20
3.981944613986545
 30
0.0
 10
2.00694465637207
 20
3.988889058430989
 30
0.0
 10
2.004166920979817
 20
3.998611238267686
 30
0.0
 10
1.997222476535373
 20
4.009722391764322
 30
0.0
 10
1.98888905843099
 20
4.020833545260959
 30
0.0
 10
1.977778116861979
 20
4.031944698757595
 30
0.0
 10
1.96388922797309
 20
4.044444613986545
 30
0.0
 10
1.948611365424262
 20
4.056944529215494
 30
0.0
 10
1.93333371480306
 20
4.068055682712131
 30
0.0
 10
1.91388914320204
 20
4.079166836208767
 30
0.0
 10
1.895833545260959
 20
4.090277989705403
 30
0.0
 10
1.877777947319878
 20
4.100000169542101
 30
0.0
 10
1.859722561306423
 20
4.108333587646484
 30
0.0
 10
1.841666963365343
 20
4.116667005750868
 30
0.0
 10
1.827778074476454
 20
4.120833502875434
 30
0.0
 10
1.813889185587565
 20
4.123611450195312
 30
0.0
 10
1.801389270358615
 20
4.126389185587565
 30
0.0
 10
1.793055852254232
 20
4.125000423855251
 30
0.0
 10
1.78888914320204
 20
4.12083371480306
 30
0.0
 10
1.78888914320204
 20
4.12083371480306
 30
0.0
 10
1.569444444444444
 20
3.805555555555555
 30
0.0
 10
1.569444444444444
 20
3.805555555555555
 30
0.0
 10
1.569444444444444
 20
3.805555555555555
 30
0.0
 10
1.348611089918349
 20
4.120833290947808
 30
0.0
 10
1.348611089918349
 20
4.120833290947808
 30
0.0
 10
1.344444380866157
 20
4.125
 30
0.0
 10
1.336111068725586
 20
4.126388761732313
 30
0.0
 10
1.323611047532823
 20
4.12361102634006
 30
0.0
 10
1.311111026340061
 20
4.120833290947808
 30
0.0
 10
1.295833269755045
 20
4.115277608235677
 30
0.0
 10
1.277777671813965
 20
4.108333163791232
 30
0.0
 10
1.259722073872884
 20
4.099999745686849
 30
0.0
 10
1.243055449591743
 20
4.090277565850152
 30
0.0
 10
1.223610983954535
 20
4.079166412353516
 30
0.0
 10
1.205555386013455
 20
4.068055258856879
 30
0.0
 10
1.188888761732313
 20
4.05555534362793
 30
0.0
 10
1.173611005147298
 20
4.044444190131293
 30
0.0
 10
1.158333248562283
 20
4.031944274902344
 30
0.0
 10
1.147222095065647
 20
4.020833121405707
 30
0.0
 10
1.140277650621202
 20
4.009721967909071
 30
0.0
 10
1.131944338480631
 20
3.998610814412435
 30
0.0
 10
1.130555470784505
 20
3.988888634575738
 30
0.0
 10
1.134722073872884
 20
3.981944190131293
 30
0.0
 10
1.183333184983995
 20
3.909722010294596
 30
0.0
 10
1.234722031487359
 20
3.833333121405707
 30
0.0
 10
1.288888719346788
 20
3.752777523464626
 30
0.0
 10
1.327777650621202
 20
3.695832994249132
 30
0.0
 10
1.36805534362793
 20
3.63611094156901
 30
0.0
 10
1.40833314259847
 20
3.577777438693576
 30
0.0
 10
1.40833314259847
 20
3.577777438693576
 30
0.0
 10
1.126388761732313
 20
3.174999660915798
 30
0.0
 10
1.126388761732313
 20
3.174999660915798
 30
0.0
 10
1.123611026340061
 20
3.170832951863606
 30
0.0
 10
1.126388761732313
 20
3.163888507419162
 30
0.0
 10
1.133333206176758
 20
3.154166327582465
 30
0.0
 10
1.141666518317328
 20
3.143055174085829
 30
0.0
 10
1.151388804117838
 20
3.131944020589192
 30
0.0
 10
1.165277693006727
 20
3.118055131700304
 30
0.0
 10
1.179166581895616
 20
3.104166242811415
 30
0.0
 10
1.193055470784505
 20
3.090277353922526
 30
0.0
 10
1.209722095065647
 20
3.074999491373698
 30
0.0
 10
1.226388719346788
 20
3.05972162882487
 30
0.0
 10
1.243055449591743
 20
3.04722171359592
 30
0.0
 10
1.258333206176758
 20
3.037499533759223
 30
0.0
 10
1.274999830457899
 20
3.026388380262587
 30
0.0
 10
1.288888719346788
 20
3.019443935818142
 30
0.0
 10
1.301388740539551
 20
3.01527722676595
 30
0.0
 10
1.313888761732313
 20
3.011110517713758
 30
0.0
 10
1.322222073872884
 20
3.012499491373698
 30
0.0
 10
1.326388782925076
 20
3.018054962158203
 30
0.0
 10
1.384722073872884
 20
3.094443851047092
 30
0.0
 10
1.444444338480631
 20
3.174999448988173
 30
0.0
 10
1.504166603088379
 20
3.258332782321506
 30
0.0
 10
1.526388804117838
 20
3.288888295491536
 30
0.0
 10
1.547222137451172
 20
3.319443808661567
 30
0.0
 10
1.569444338480631
 20
3.348610560099284
 30
0.0
 10
1.590277671813965
 20
3.318055046929253
 30
0.0
 10
1.612499872843424
 20
3.288888295491536
 30
0.0
 10
1.634722073872884
 20
3.258332782321506
 30
0.0
 10
1.694444338480631
 20
3.174999448988173
 30
0.0
 10
1.75277762942844
 20
3.095832824707031
 30
0.0
 10
1.812499788072374
 20
3.018054962158203
 30
0.0
 10
1.816666497124566
 20
3.011110517713758
 30
0.0
 10
1.824999703301324
 20
3.011110517713758
 30
0.0
 10
1.837499830457899
 20
3.01527722676595
 30
0.0
 10
1.849999745686849
 20
3.019443935818142
 30
0.0
 10
1.863888634575738
 20
3.026388380262587
 30
0.0
 10
1.880555470784505
 20
3.037499533759223
 30
0.0
 10
1.897222095065647
 20
3.048610687255859
 30
0.0
 10
1.912499957614475
 20
3.061110602484809
 30
0.0
 10
1.929166581895616
 20
3.074999491373698
 30
0.0
 10
1.945833206176758
 20
3.090277353922526
 30
0.0
 10
1.961111068725586
 20
3.104166242811415
 30
0.0
 10
1.973610983954535
 20
3.118055131700304
 30
0.0
 10
1.987499872843424
 20
3.131944020589192
 30
0.0
 10
1.997222052680121
 20
3.144443935818142
 30
0.0
 10
2.005555470784505
 20
3.154166327582465
 30
0.0
 10
2.013888888888889
 20
3.165277481079102
 30
0.0
 10
2.015277650621202
 20
3.172221925523546
 30
0.0
 10
2.01249991522895
 20
3.174999660915798
 30
0.0
 10
2.01249991522895
 20
3.174999660915798
 30
0.0
 10
1.729166666666667
 20
3.577777862548828
 30
0.0
 10
1.729166666666667
 20
3.577777862548828
 30
0.0
  0
HATCH
  5
4A
330
45
100
AcDbEntity
  8
Calque 1
 62
   242
420
 12853543
100
AcDbHatch
 10
0.0
 20
0.0
 30
0.0
210
0.0
220
0.0
230
1.0
  2
SOLID
 70
     1
 71
     0
 91
        1
 92
        1
 93
        1
 72
     4
 94
        3
 73
     0
 74
     1
 95
      113
 96
      109
 40
0.0
 40
0.0
 40
0.0
 40
0.0
 40
1.0
 40
1.0
 40
1.0
 40
2.0
 40
2.0
 40
2.0
 40
3.0
 40
3.0
 40
3.0
 40
4.0
 40
4.0
 40
4.0
 40
5.0
 40
5.0
 40
5.0
 40
6.0
 40
6.0
 40
6.0
 40
7.0
 40
7.0
 40
7.0
 40
8.0
 40
8.0
 40
8.0
 40
9.0
 40
9.0
 40
9.0
 40
10.0
 40
10.0
 40
10.0
 40
11.0
 40
11.0
 40
11.0
 40
12.0
 40
12.0
 40
12.0
 40
13.0
 40
13.0
 40
13.0
 40
14.0
 40
14.0
 40
14.0
 40
15.0
 40
15.0
 40
15.0
 40
16.0
 40
16.0
 40
16.0
 40
17.0
 40
17.0
 40
17.0
 40
18.0
 40
18.0
 40
18.0
 40
19.0
 40
19.0
 40
19.0
 40
20.0
 40
20.0
 40
20.0
 40
21.0
 40
21.0
 40
21.0
 40
22.0
 40
22.0
 40
22.0
 40
23.0
 40
23.0
 40
23.0
 40
24.0
 40
24.0
 40
24.0
 40
25.0
 40
25.0
 40
25.0
 40
26.0
 40
26.0
 40
26.0
 40
27.0
 40
27.0
 40
27.0
 40
28.0
 40
28.0
 40
28.0
 40
29.0
 40
29.0
 40
29.0
 40
30.0
 40
30.0
 40
30.0
 40
31.0
 40
31.0
 40
31.0
 40
32.0
 40
32.0
 40
32.0
 40
33.0
 40
33.0
 40
33.0
 40
34.0
 40
34.0
 40
34.0
 40
35.0
 40
35.0
 40
35.0
 40
36.0
 40
36.0
 40
36.0
 40
36.0
 10
1.729166666666667
 20
3.577777862548828
 10
1.769444465637207
 20
3.636111153496636
 10
1.809722264607747
 20
3.694444444444444
 10
1.848611195882161
 20
3.752777947319878
 10
1.902777777777778
 20
3.833333545260959
 10
1.954166836208767
 20
3.909722434149848
 10
2.002777947319879
 20
3.981944613986545
 10
2.00694465637207
 20
3.988889058430989
 10
2.004166920979817
 20
3.998611238267686
 10
1.997222476535373
 20
4.009722391764322
 10
1.98888905843099
 20
4.020833545260959
 10
1.977778116861979
 20
4.031944698757595
 10
1.96388922797309
 20
4.044444613986545
 10
1.948611365424262
 20
4.056944529215494
 10
1.93333371480306
 20
4.068055682712131
 10
1.91388914320204
 20
4.079166836208767
 10
1.895833545260959
 20
4.090277989705403
 10
1.877777947319878
 20
4.100000169542101
 10
1.859722561306423
 20
4.108333587646484
 10
1.841666963365343
 20
4.116667005750868
 10
1.827778074476454
 20
4.120833502875434
 10
1.813889185587565
 20
4.123611450195312
 10
1.801389270358615
 20
4.126389185587565
 10
1.793055852254232
 20
4.125000423855251
 10
1.78888914320204
 20
4.12083371480306
 10
1.78888914320204
 20
4.12083371480306
 10
1.569444444444444
 20
3.805555555555555
 10
1.569444444444444
 20
3.805555555555555
 10
1.569444444444444
 20
3.805555555555555
 10
1.348611089918349
 20
4.120833290947808
 10
1.348611089918349
 20
4.120833290947808
 10
1.344444380866157
 20
4.125
 10
1.336111068725586
 20
4.126388761732313
 10
1.323611047532823
 20
4.12361102634006
 10
1.311111026340061
 20
4.120833290947808
 10
1.295833269755045
 20
4.115277608235677
 10
1.277777671813965
 20
4.108333163791232
 10
1.259722073872884
 20
4.099999745686849
 10
1.243055449591743
 20
4.090277565850152
 10
1.223610983954535
 20
4.079166412353516
 10
1.205555386013455
 20
4.068055258856879
 10
1.188888761732313
 20
4.05555534362793
 10
1.173611005147298
 20
4.044444190131293
 10
1.158333248562283
 20
4.031944274902344
 10
1.147222095065647
 20
4.020833121405707
 10
1.140277650621202
 20
4.009721967909071
 10
1.131944338480631
 20
3.998610814412435
 10
1.130555470784505
 20
3.988888634575738
 10
1.134722073872884
 20
3.981944190131293
 10
1.183333184983995
 20
3.909722010294596
 10
1.234722031487359
 20
3.833333121405707
 10
1.288888719346788
 20
3.752777523464626
 10
1.327777650621202
 20
3.695832994249132
 10
1.36805534362793
 20
3.63611094156901
 10
1.40833314259847
 20
3.577777438693576
 10
1.40833314259847
 20
3.577777438693576
 10
1.126388761732313
 20
3.174999660915798
 10
1.126388761732313
 20
3.174999660915798
 10
1.123611026340061
 20
3.170832951863606
 10
1.126388761732313
 20
3.163888507419162
 10
1.133333206176758
 20
3.154166327582465
 10
1.141666518317328
 20
3.143055174085829
 10
1.151388804117838
 20
3.131944020589192
 10
1.165277693006727
 20
3.118055131700304
 10
1.179166581895616
 20
3.104166242811415
 10
1.193055470784505
 20
3.090277353922526
 10
1.209722095065647
 20
3.074999491373698
 10
1.226388719346788
 20
3.05972162882487
 10
1.243055449591743
 20
3.04722171359592
 10
1.258333206176758
 20
3.037499533759223
 10
1.274999830457899
 20
3.026388380262587
 10
1.288888719346788
 20
3.019443935818142
 10
1.301388740539551
 20
3.01527722676595
 10
1.313888761732313
 20
3.011110517713758
 10
1.322222073872884
 20
3.012499491373698
 10
1.326388782925076
 20
3.018054962158203
 10
1.384722073872884
 20
3.094443851047092
 10
1.444444338480631
 20
3.174999448988173
 10
1.504166603088379
 20
3.258332782321506
 10
1.526388804117838
 20
3.288888295491536
 10
1.547222137451172
 20
3.319443808661567
 10
1.569444338480631
 20
3.348610560099284
 10
1.590277671813965
 20
3.318055046929253
 10
1.612499872843424
 20
3.288888295491536
 10
1.634722073872884
 20
3.258332782321506
 10
1.694444338480631
 20
3.174999448988173
 10
1.75277762942844
 20
3.095832824707031
 10
1.812499788072374
 20
3.018054962158203
 10
1.816666497124566
 20
3.011110517713758
 10
1.824999703301324
 20
3.011110517713758
 10
1.837499830457899
 20
3.01527722676595
 10
1.849999745686849
 20
3.019443935818142
 10
1.863888634575738
 20
3.026388380262587
 10
1.880555470784505
 20
3.037499533759223
 10
1.897222095065647
 20
3.048610687255859
 10
1.912499957614475
 20
3.061110602484809
 10
1.929166581895616
 20
3.074999491373698
 10
1.945833206176758
 20
3.090277353922526
 10
1.961111068725586
 20
3.104166242811415
 10
1.973610983954535
 20
3.118055131700304
 10
1.987499872843424
 20
3.131944020589192
 10
1.997222052680121
 20
3.144443935818142
 10
2.005555470784505
 20
3.154166327582465
 10
2.013888888888889
 20
3.165277481079102
 10
2.015277650621202
 20
3.172221925523546
 10
2.01249991522895
 20
3.174999660915798
 10
2.01249991522895
 20
3.174999660915798
 10
1.729166666666667
 20
3.577777862548828
 10
1.729166666666667
 20
3.577777862548828
 97
        0
 97
        0
 75
     2
 76
     1
 98
        0
  0
SPLINE
  5
4B
330
45
100
AcDbEntity
  8
Calque 1
370
     0
100
AcDbSpline
210
0.0
220
0.0
230
1.0
 70
    11
 71
     3
 72
    59
 73
    55
 74
     0
 42
0.0000000001
 43
0.0000000001
 12
1.0
 22
0.0
 32
0.0
 13
1.0
 23
0.0
 33
0.0
 40
0.0
 40
0.0
 40
0.0
 40
0.0
 40
1.0
 40
1.0
 40
1.0
 40
2.0
 40
2.0
 40
2.0
 40
3.0
 40
3.0
 40
3.0
 40
4.0
 40
4.0
 40
4.0
 40
5.0
 40
5.0
 40
5.0
 40
6.0
 40
6.0
 40
6.0
 40
7.0
 40
7.0
 40
7.0
 40
8.0
 40
8.0
 40
8.0
 40
9.0
 40
9.0
 40
9.0
 40
10.0
 40
10.0
 40
10.0
 40
11.0
 40
11.0
 40
11.0
 40
12.0
 40
12.0
 40
12.0
 40
13.0
 40
13.0
 40
13.0
 40
14.0
 40
14.0
 40
14.0
 40
15.0
 40
15.0
 40
15.0
 40
16.0
 40
16.0
 40
16.0
 40
17.0
 40
17.0
 40
17.0
 40
18.0
 40
18.0
 40
18.0
 40
18.0
 10
2.866666581895616
 20
3.997222264607747
 30
0.0
 10
2.826388888888889
 20
4.043055640326606
 30
0.0
 10
2.777777777777778
 20
4.076388888888888
 30
0.0
 10
2.722222222222222
 20
4.098611195882161
 30
0.0
 10
2.665277693006727
 20
4.119444529215494
 30
0.0
 10
2.604166666666667
 20
4.130555682712131
 30
0.0
 10
2.538888931274414
 20
4.130555682712131
 30
0.0
 10
2.473611195882161
 20
4.130555682712131
 30
0.0
 10
2.406944486829969
 20
4.122222264607747
 30
0.0
 10
2.341666751437717
 20
4.105555640326606
 30
0.0
 10
2.276389016045464
 20
4.088889016045465
 30
0.0
 10
2.218055725097656
 20
4.058333502875434
 30
0.0
 10
2.168055640326606
 20
4.013888888888888
 30
0.0
 10
2.116666793823242
 20
3.969444486829969
 30
0.0
 10
2.076388888888889
 20
3.908333248562283
 30
0.0
 10
2.045833375718858
 20
3.831944359673394
 30
0.0
 10
2.015277862548828
 20
3.755555470784505
 30
0.0
 10
2.001388973659939
 20
3.656944274902344
 30
0.0
 10
2.004166709052192
 20
3.538888719346788
 30
0.0
 10
2.006944444444444
 20
3.429166581895616
 30
0.0
 10
2.025000042385525
 20
3.338888804117838
 30
0.0
 10
2.058333290947808
 20
3.270833121405707
 30
0.0
 10
2.091666539510091
 20
3.202777650621202
 30
0.0
 10
2.133333206176758
 20
3.14861085679796
 30
0.0
 10
2.183333290947808
 20
3.109721925523546
 30
0.0
 10
2.233333375718858
 20
3.070832994249132
 30
0.0
 10
2.288888931274414
 20
3.045832951863606
 30
0.0
 10
2.348610983954535
 20
3.031944062974718
 30
0.0
 10
2.408333248562283
 20
3.018055174085829
 30
0.0
 10
2.466666539510091
 20
3.012499703301323
 30
0.0
 10
2.520833121405707
 20
3.015277438693576
 30
0.0
 10
2.556944317287869
 20
3.016666412353516
 30
0.0
 10
2.593055301242404
 20
3.019444147745768
 30
0.0
 10
2.630555258856879
 20
3.024999618530273
 30
0.0
 10
2.668055216471354
 20
3.030555089314778
 30
0.0
 10
2.704166412353516
 20
3.041666242811415
 30
0.0
 10
2.740277396308051
 20
3.056944105360243
 30
0.0
 10
2.774999618530273
 20
3.072221967909071
 30
0.0
 10
2.808332867092556
 20
3.093055301242404
 30
0.0
 10
2.840277353922526
 20
3.118055131700304
 30
0.0
 10
2.870832867092556
 20
3.143055174085829
 30
0.0
 10
2.898610644870334
 20
3.176388422648112
 30
0.0
 10
2.92222171359592
 20
3.216666327582465
 30
0.0
 10
2.945832782321506
 20
3.256944020589192
 30
0.0
 10
2.963888380262587
 20
3.30416636996799
 30
0.0
 10
2.977777269151475
 20
3.359721925523546
 30
0.0
 10
2.991666158040364
 20
3.415277481079102
 30
0.0
 10
2.99722162882487
 20
3.480555216471354
 30
0.0
 10
2.99722162882487
 20
3.556944105360243
 30
0.0
 10
2.99722162882487
 20
3.65972179836697
 30
0.0
 10
2.986110475328233
 20
3.747221840752495
 30
0.0
 10
2.962499406602647
 20
3.820832994249132
 30
0.0
 10
2.938888973659939
 20
3.891666624281141
 30
0.0
 10
2.906944486829969
 20
3.951388888888889
 30
0.0
 10
2.866666581895616
 20
3.997222264607747
 30
0.0
  0
SPLINE
  5
4C
330
45
100
AcDbEntity
  8
Calque 1
370
     0
100
AcDbSpline
210
0.0
220
0.0
230
1.0
 70
    11
 71
     3
 72
    53
 73
    49
 74
     0
 42
0.0000000001
 43
0.0000000001
 12
1.0
 22
0.0
 32
0.0
 13
1.0
 23
0.0
 33
0.0
 40
0.0
 40
0.0
 40
0.0
 40
0.0
 40
1.0
 40
1.0
 40
1.0
 40
2.0
 40
2.0
 40
2.0
 40
3.0
 40
3.0
 40
3.0
 40
4.0
 40
4.0
 40
4.0
 40
5.0
 40
5.0
 40
5.0
 40
6.0
 40
6.0
 40
6.0
 40
7.0
 40
7.0
 40
7.0
 40
8.0
 40
8.0
 40
8.0
 40
9.0
 40
9.0
 40
9.0
 40
10.0
 40
10.0
 40
10.0
 40
11.0
 40
11.0
 40
11.0
 40
12.0
 40
12.0
 40
12.0
 40
13.0
 40
13.0
 40
13.0
 40
14.0
 40
14.0
 40
14.0
 40
15.0
 40
15.0
 40
15.0
 40
16.0
 40
16.0
 40
16.0
 40
16.0
 10
2.704166624281141
 20
3.398611068725586
 30
0.0
 10
2.688888761732313
 20
3.361111111111111
 30
0.0
 10
2.670833375718858
 20
3.331944359673394
 30
0.0
 10
2.650000042385525
 20
3.309722264607747
 30
0.0
 10
2.627777735392252
 20
3.287499957614475
 30
0.0
 10
2.605555640326606
 20
3.272222306993272
 30
0.0
 10
2.579166624281141
 20
3.262500127156575
 30
0.0
 10
2.554166581895616
 20
3.252777947319878
 30
0.0
 10
2.529166539510091
 20
3.248611238267686
 30
0.0
 10
2.506944444444444
 20
3.248611238267686
 30
0.0
 10
2.477777693006727
 20
3.248611238267686
 30
0.0
 10
2.44999991522895
 20
3.255555682712131
 30
0.0
 10
2.423611111111111
 20
3.268055597941081
 30
0.0
 10
2.397222306993272
 20
3.281944486829969
 30
0.0
 10
2.373611026340061
 20
3.30000008477105
 30
0.0
 10
2.352777693006727
 20
3.325000127156575
 30
0.0
 10
2.331944359673394
 20
3.348611195882161
 30
0.0
 10
2.313888761732313
 20
3.377777947319878
 30
0.0
 10
2.301388846503364
 20
3.411111195882161
 30
0.0
 10
2.287499957614475
 20
3.444444444444444
 30
0.0
 10
2.28055551317003
 20
3.480555640326606
 30
0.0
 10
2.279166539510091
 20
3.51944457160102
 30
0.0
 10
2.276388804117838
 20
3.570833418104383
 30
0.0
 10
2.28055551317003
 20
3.619444529215495
 30
0.0
 10
2.290277693006727
 20
3.663888931274414
 30
0.0
 10
2.301388846503364
 20
3.709722306993272
 30
0.0
 10
2.316666497124566
 20
3.748611238267686
 30
0.0
 10
2.337499830457899
 20
3.781944486829969
 30
0.0
 10
2.358333163791233
 20
3.815277735392252
 30
0.0
 10
2.384721967909071
 20
3.840277777777778
 30
0.0
 10
2.415277693006727
 20
3.858333375718858
 30
0.0
 10
2.445833206176758
 20
3.876388973659939
 30
0.0
 10
2.48055542839898
 20
3.884722179836697
 30
0.0
 10
2.519444359673394
 20
3.884722179836697
 30
0.0
 10
2.549999872843424
 20
3.883333206176758
 30
0.0
 10
2.577777650621202
 20
3.876388761732313
 30
0.0
 10
2.602777693006727
 20
3.863888846503364
 30
0.0
 10
2.627777735392252
 20
3.851388931274414
 30
0.0
 10
2.649999830457899
 20
3.830555597941081
 30
0.0
 10
2.669444402058919
 20
3.802777820163303
 30
0.0
 10
2.6875
 20
3.775000042385525
 30
0.0
 10
2.702777650621202
 20
3.740277820163303
 30
0.0
 10
2.712500042385525
 20
3.697222179836697
 30
0.0
 10
2.722222222222222
 20
3.654166539510091
 30
0.0
 10
2.727777904934353
 20
3.601388931274414
 30
0.0
 10
2.727777904934353
 20
3.538888931274414
 30
0.0
 10
2.724999957614475
 20
3.483333375718858
 30
0.0
 10
2.71805551317003
 20
3.436111026340061
 30
0.0
 10
2.704166624281141
 20
3.398611068725586
 30
0.0
  0
HATCH
  5
4D
330
45
100
AcDbEntity
  8
Calque 1
 62
     7
420
 16777215
100
AcDbHatch
 10
0.0
 20
0.0
 30
0.0
210
0.0
220
0.0
230
1.0
  2
SOLID
 70
     1
 71
     0
 91
        2
 92
        1
 93
        1
 72
     4
 94
        3
 73
     0
 74
     1
 95
       59
 96
       55
 40
0.0
 40
0.0
 40
0.0
 40
0.0
 40
1.0
 40
1.0
 40
1.0
 40
2.0
 40
2.0
 40
2.0
 40
3.0
 40
3.0
 40
3.0
 40
4.0
 40
4.0
 40
4.0
 40
5.0
 40
5.0
 40
5.0
 40
6.0
 40
6.0
 40
6.0
 40
7.0
 40
7.0
 40
7.0
 40
8.0
 40
8.0
 40
8.0
 40
9.0
 40
9.0
 40
9.0
 40
10.0
 40
10.0
 40
10.0
 40
11.0
 40
11.0
 40
11.0
 40
12.0
 40
12.0
 40
12.0
 40
13.0
 40
13.0
 40
13.0
 40
14.0
 40
14.0
 40
14.0
 40
15.0
 40
15.0
 40
15.0
 40
16.0
 40
16.0
 40
16.0
 40
17.0
 40
17.0
 40
17.0
 40
18.0
 40
18.0
 40
18.0
 40
18.0
 10
2.866666581895616
 20
3.997222264607747
 10
2.826388888888889
 20
4.043055640326606
 10
2.777777777777778
 20
4.076388888888888
 10
2.722222222222222
 20
4.098611195882161
 10
2.665277693006727
 20
4.119444529215494
 10
2.604166666666667
 20
4.130555682712131
 10
2.538888931274414
 20
4.130555682712131
 10
2.473611195882161
 20
4.130555682712131
 10
2.406944486829969
 20
4.122222264607747
 10
2.341666751437717
 20
4.105555640326606
 10
2.276389016045464
 20
4.088889016045465
 10
2.218055725097656
 20
4.058333502875434
 10
2.168055640326606
 20
4.013888888888888
 10
2.116666793823242
 20
3.969444486829969
 10
2.076388888888889
 20
3.908333248562283
 10
2.045833375718858
 20
3.831944359673394
 10
2.015277862548828
 20
3.755555470784505
 10
2.001388973659939
 20
3.656944274902344
 10
2.004166709052192
 20
3.538888719346788
 10
2.006944444444444
 20
3.429166581895616
 10
2.025000042385525
 20
3.338888804117838
 10
2.058333290947808
 20
3.270833121405707
 10
2.091666539510091
 20
3.202777650621202
 10
2.133333206176758
 20
3.14861085679796
 10
2.183333290947808
 20
3.109721925523546
 10
2.233333375718858
 20
3.070832994249132
 10
2.288888931274414
 20
3.045832951863606
 10
2.348610983954535
 20
3.031944062974718
 10
2.408333248562283
 20
3.018055174085829
 10
2.466666539510091
 20
3.012499703301323
 10
2.520833121405707
 20
3.015277438693576
 10
2.556944317287869
 20
3.016666412353516
 10
2.593055301242404
 20
3.019444147745768
 10
2.630555258856879
 20
3.024999618530273
 10
2.668055216471354
 20
3.030555089314778
 10
2.704166412353516
 20
3.041666242811415
 10
2.740277396308051
 20
3.056944105360243
 10
2.774999618530273
 20
3.072221967909071
 10
2.808332867092556
 20
3.093055301242404
 10
2.840277353922526
 20
3.118055131700304
 10
2.870832867092556
 20
3.143055174085829
 10
2.898610644870334
 20
3.176388422648112
 10
2.92222171359592
 20
3.216666327582465
 10
2.945832782321506
 20
3.256944020589192
 10
2.963888380262587
 20
3.30416636996799
 10
2.977777269151475
 20
3.359721925523546
 10
2.991666158040364
 20
3.415277481079102
 10
2.99722162882487
 20
3.480555216471354
 10
2.99722162882487
 20
3.556944105360243
 10
2.99722162882487
 20
3.65972179836697
 10
2.986110475328233
 20
3.747221840752495
 10
2.962499406602647
 20
3.820832994249132
 10
2.938888973659939
 20
3.891666624281141
 10
2.906944486829969
 20
3.951388888888889
 10
2.866666581895616
 20
3.997222264607747
 97
        0
 97
        0
 92
        1
 93
        1
 72
     4
 94
        3
 73
     0
 74
     1
 95
       53
 96
       49
 40
0.0
 40
0.0
 40
0.0
 40
0.0
 40
1.0
 40
1.0
 40
1.0
 40
2.0
 40
2.0
 40
2.0
 40
3.0
 40
3.0
 40
3.0
 40
4.0
 40
4.0
 40
4.0
 40
5.0
 40
5.0
 40
5.0
 40
6.0
 40
6.0
 40
6.0
 40
7.0
 40
7.0
 40
7.0
 40
8.0
 40
8.0
 40
8.0
 40
9.0
 40
9.0
 40
9.0
 40
10.0
 40
10.0
 40
10.0
 40
11.0
 40
11.0
 40
11.0
 40
12.0
 40
12.0
 40
12.0
 40
13.0
 40
13.0
 40
13.0
 40
14.0
 40
14.0
 40
14.0
 40
15.0
 40
15.0
 40
15.0
 40
16.0
 40
16.0
 40
16.0
 40
16.0
 10
2.704166624281141
 20
3.398611068725586
 10
2.688888761732313
 20
3.361111111111111
 10
2.670833375718858
 20
3.331944359673394
 10
2.650000042385525
 20
3.309722264607747
 10
2.627777735392252
 20
3.287499957614475
 10
2.605555640326606
 20
3.272222306993272
 10
2.579166624281141
 20
3.262500127156575
 10
2.554166581895616
 20
3.252777947319878
 10
2.529166539510091
 20
3.248611238267686
 10
2.506944444444444
 20
3.248611238267686
 10
2.477777693006727
 20
3.248611238267686
 10
2.44999991522895
 20
3.255555682712131
 10
2.423611111111111
 20
3.268055597941081
 10
2.397222306993272
 20
3.281944486829969
 10
2.373611026340061
 20
3.30000008477105
 10
2.352777693006727
 20
3.325000127156575
 10
2.331944359673394
 20
3.348611195882161
 10
2.313888761732313
 20
3.377777947319878
 10
2.301388846503364
 20
3.411111195882161
 10
2.287499957614475
 20
3.444444444444444
 10
2.28055551317003
 20
3.480555640326606
 10
2.279166539510091
 20
3.51944457160102
 10
2.276388804117838
 20
3.570833418104383
 10
2.28055551317003
 20
3.619444529215495
 10
2.290277693006727
 20
3.663888931274414
 10
2.301388846503364
 20
3.709722306993272
 10
2.316666497124566
 20
3.748611238267686
 10
2.337499830457899
 20
3.781944486829969
 10
2.358333163791233
 20
3.815277735392252
 10
2.384721967909071
 20
3.840277777777778
 10
2.415277693006727
 20
3.858333375718858
 10
2.445833206176758
 20
3.876388973659939
 10
2.48055542839898
 20
3.884722179836697
 10
2.519444359673394
 20
3.884722179836697
 10
2.549999872843424
 20
3.883333206176758
 10
2.577777650621202
 20
3.876388761732313
 10
2.602777693006727
 20
3.863888846503364
 10
2.627777735392252
 20
3.851388931274414
 10
2.649999830457899
 20
3.830555597941081
 10
2.669444402058919
 20
3.802777820163303
 10
2.6875
 20
3.775000042385525
 10
2.702777650621202
 20
3.740277820163303
 10
2.712500042385525
 20
3.697222179836697
 10
2.722222222222222
 20
3.654166539510091
 10
2.727777904934353
 20
3.601388931274414
 10
2.727777904934353
 20
3.538888931274414
 10
2.724999957614475
 20
3.483333375718858
 10
2.71805551317003
 20
3.436111026340061
 10
2.704166624281141
 20
3.398611068725586
 97
        0
 97
        0
 75
     2
 76
     1
 98
        0
  0
SPLINE
  5
4E
330
45
100
AcDbEntity
  8
Calque 1
370
     0
100
AcDbSpline
210
0.0
220
0.0
230
1.0
 70
    11
 71
     3
 72
   113
 73
   109
 74
     0
 42
0.0000000001
 43
0.0000000001
 12
1.0
 22
0.0
 32
0.0
 13
1.0
 23
0.0
 33
0.0
 40
0.0
 40
0.0
 40
0.0
 40
0.0
 40
1.0
 40
1.0
 40
1.0
 40
2.0
 40
2.0
 40
2.0
 40
3.0
 40
3.0
 40
3.0
 40
4.0
 40
4.0
 40
4.0
 40
5.0
 40
5.0
 40
5.0
 40
6.0
 40
6.0
 40
6.0
 40
7.0
 40
7.0
 40
7.0
 40
8.0
 40
8.0
 40
8.0
 40
9.0
 40
9.0
 40
9.0
 40
10.0
 40
10.0
 40
10.0
 40
11.0
 40
11.0
 40
11.0
 40
12.0
 40
12.0
 40
12.0
 40
13.0
 40
13.0
 40
13.0
 40
14.0
 40
14.0
 40
14.0
 40
15.0
 40
15.0
 40
15.0
 40
16.0
 40
16.0
 40
16.0
 40
17.0
 40
17.0
 40
17.0
 40
18.0
 40
18.0
 40
18.0
 40
19.0
 40
19.0
 40
19.0
 40
20.0
 40
20.0
 40
20.0
 40
21.0
 40
21.0
 40
21.0
 40
22.0
 40
22.0
 40
22.0
 40
23.0
 40
23.0
 40
23.0
 40
24.0
 40
24.0
 40
24.0
 40
25.0
 40
25.0
 40
25.0
 40
26.0
 40
26.0
 40
26.0
 40
27.0
 40
27.0
 40
27.0
 40
28.0
 40
28.0
 40
28.0
 40
29.0
 40
29.0
 40
29.0
 40
30.0
 40
30.0
 40
30.0
 40
31.0
 40
31.0
 40
31.0
 40
32.0
 40
32.0
 40
32.0
 40
33.0
 40
33.0
 40
33.0
 40
34.0
 40
34.0
 40
34.0
 40
35.0
 40
35.0
 40
35.0
 40
36.0
 40
36.0
 40
36.0
 40
36.0
 10
3.605555640326606
 20
3.577777862548828
 30
0.0
 10
3.645833333333333
 20
3.636111153496636
 30
0.0
 10
3.686111026340061
 20
3.694444444444444
 30
0.0
 10
3.7250001695421
 20
3.752777947319878
 30
0.0
 10
3.779166751437717
 20
3.833333545260959
 30
0.0
 10
3.830555809868706
 20
3.909722434149848
 30
0.0
 10
3.879166920979817
 20
3.981944613986545
 30
0.0
 10
3.883333418104383
 20
3.988889058430989
 30
0.0
 10
3.880555894639757
 20
3.998611238267686
 30
0.0
 10
3.873611450195312
 20
4.009722391764322
 30
0.0
 10
3.865278032090929
 20
4.020833545260959
 30
0.0
 10
3.854167090521918
 20
4.031944698757595
 30
0.0
 10
3.840278201633029
 20
4.044444613986545
 30
0.0
 10
3.825000339084201
 20
4.056944529215494
 30
0.0
 10
3.809722476535373
 20
4.068055682712131
 30
0.0
 10
3.790278116861979
 20
4.079166836208767
 30
0.0
 10
3.772222730848524
 20
4.090277989705403
 30
0.0
 10
3.754166920979817
 20
4.100000169542101
 30
0.0
 10
3.736111534966363
 20
4.108333587646484
 30
0.0
 10
3.718056148952908
 20
4.116667005750868
 30
0.0
 10
3.704167260064019
 20
4.120833502875434
 30
0.0
 10
3.69027837117513
 20
4.123611450195312
 30
0.0
 10
3.67777845594618
 20
4.126389185587565
 30
0.0
 10
3.669445037841797
 20
4.125000423855251
 30
0.0
 10
3.665278540717231
 20
4.12083371480306
 30
0.0
 10
3.665278540717231
 20
4.12083371480306
 30
0.0
 10
3.445833418104383
 20
3.805555555555555
 30
0.0
 10
3.445833418104383
 20
3.805555555555555
 30
0.0
 10
3.445833418104383
 20
3.805555555555555
 30
0.0
 10
3.2250001695421
 20
4.120833290947808
 30
0.0
 10
3.2250001695421
 20
4.120833290947808
 30
0.0
 10
3.220833460489909
 20
4.125
 30
0.0
 10
3.212500254313151
 20
4.126388761732313
 30
0.0
 10
3.200000127156575
 20
4.12361102634006
 30
0.0
 10
3.187500211927626
 20
4.120833290947808
 30
0.0
 10
3.172222349378798
 20
4.115277608235677
 30
0.0
 10
3.154166751437717
 20
4.108333163791232
 30
0.0
 10
3.136111153496636
 20
4.099999745686849
 30
0.0
 10
3.119444529215495
 20
4.090277565850152
 30
0.0
 10
3.1000001695421
 20
4.079166412353516
 30
0.0
 10
3.08194457160102
 20
4.068055258856879
 30
0.0
 10
3.065277947319878
 20
4.05555534362793
 30
0.0
 10
3.05000008477105
 20
4.044444190131293
 30
0.0
 10
3.034722222222222
 20
4.031944274902344
 30
0.0
 10
3.023611280653212
 20
4.020833121405707
 30
0.0
 10
3.016666836208767
 20
4.009721967909071
 30
0.0
 10
3.008333418104383
 20
3.998610814412435
 30
0.0
 10
3.00694465637207
 20
3.988888634575738
 30
0.0
 10
3.011111365424262
 20
3.981944190131293
 30
0.0
 10
3.059722476535373
 20
3.909722010294596
 30
0.0
 10
3.111111323038737
 20
3.833333121405707
 30
0.0
 10
3.165278116861979
 20
3.752777523464626
 30
0.0
 10
3.204167048136393
 20
3.695832994249132
 30
0.0
 10
3.24444474114312
 20
3.63611094156901
 30
0.0
 10
3.284722646077474
 20
3.577777438693576
 30
0.0
 10
3.284722646077474
 20
3.577777438693576
 30
0.0
 10
3.002778159247504
 20
3.174999660915798
 30
0.0
 10
3.002778159247504
 20
3.174999660915798
 30
0.0
 10
3.000000423855252
 20
3.170832951863606
 30
0.0
 10
3.002778159247504
 20
3.163888507419162
 30
0.0
 10
3.009722603691948
 20
3.154166327582465
 30
0.0
 10
3.018056021796332
 20
3.143055174085829
 30
0.0
 10
3.027778201633029
 20
3.131944020589192
 30
0.0
 10
3.041667090521918
 20
3.118055131700304
 30
0.0
 10
3.055555979410807
 20
3.104166242811415
 30
0.0
 10
3.069444868299696
 20
3.090277353922526
 30
0.0
 10
3.086111492580838
 20
3.074999491373698
 30
0.0
 10
3.102778116861979
 20
3.05972162882487
 30
0.0
 10
3.11944474114312
 20
3.04722171359592
 30
0.0
 10
3.134722603691948
 20
3.037499533759223
 30
0.0
 10
3.15138922797309
 20
3.026388380262587
 30
0.0
 10
3.165278116861979
 20
3.019443935818142
 30
0.0
 10
3.177778244018555
 20
3.01527722676595
 30
0.0
 10
3.190278159247504
 20
3.011110517713758
 30
0.0
 10
3.198611577351888
 20
3.012499491373698
 30
0.0
 10
3.202778286404079
 20
3.018054962158203
 30
0.0
 10
3.261111577351888
 20
3.094443851047092
 30
0.0
 10
3.320833841959635
 20
3.174999448988173
 30
0.0
 10
3.380556106567383
 20
3.258332782321506
 30
0.0
 10
3.402778413560655
 20
3.288888295491536
 30
0.0
 10
3.423611746893989
 20
3.319443808661567
 30
0.0
 10
3.445833841959635
 20
3.348610560099284
 30
0.0
 10
3.466667175292969
 20
3.318055046929253
 30
0.0
 10
3.488889482286241
 20
3.288888295491536
 30
0.0
 10
3.511111577351888
 20
3.258332782321506
 30
0.0
 10
3.570833841959635
 20
3.174999448988173
 30
0.0
 10
3.629167344835069
 20
3.095832824707031
 30
0.0
 10
3.688889397515191
 20
3.018054962158203
 30
0.0
 10
3.693055894639757
 20
3.011110517713758
 30
0.0
 10
3.701389312744141
 20
3.011110517713758
 30
0.0
 10
3.71388922797309
 20
3.01527722676595
 30
0.0
 10
3.72638914320204
 20
3.019443935818142
 30
0.0
 10
3.740278032090929
 20
3.026388380262587
 30
0.0
 10
3.756944868299696
 20
3.037499533759223
 30
0.0
 10
3.773611704508463
 20
3.048610687255859
 30
0.0
 10
3.78888914320204
 20
3.061110602484809
 30
0.0
 10
3.805555979410807
 20
3.074999491373698
 30
0.0
 10
3.822222815619575
 20
3.090277353922526
 30
0.0
 10
3.837500254313151
 20
3.104166242811415
 30
0.0
 10
3.850000593397352
 20
3.118055131700304
 30
0.0
 10
3.863889482286241
 20
3.131944020589192
 30
0.0
 10
3.873611874050564
 20
3.144443935818142
 30
0.0
 10
3.881944868299696
 20
3.154166327582465
 30
0.0
 10
3.890278286404079
 20
3.165277481079102
 30
0.0
 10
3.891667260064019
 20
3.172221925523546
 30
0.0
 10
3.888889312744141
 20
3.174999660915798
 30
0.0
 10
3.888889312744141
 20
3.174999660915798
 30
0.0
 10
3.605555640326606
 20
3.577777862548828
 30
0.0
 10
3.605555640326606
 20
3.577777862548828
 30
0.0
  0
HATCH
  5
4F
330
45
100
AcDbEntity
  8
Calque 1
 62
   242
420
 12853543
100
AcDbHatch
 10
0.0
 20
0.0
 30
0.0
210
0.0
220
0.0
230
1.0
  2
SOLID
 70
     1
 71
     0
 91
        1
 92
        1
 93
        1
 72
     4
 94
        3
 73
     0
 74
     1
 95
      113
 96
      109
 40
0.0
 40
0.0
 40
0.0
 40
0.0
 40
1.0
 40
1.0
 40
1.0
 40
2.0
 40
2.0
 40
2.0
 40
3.0
 40
3.0
 40
3.0
 40
4.0
 40
4.0
 40
4.0
 40
5.0
 40
5.0
 40
5.0
 40
6.0
 40
6.0
 40
6.0
 40
7.0
 40
7.0
 40
7.0
 40
8.0
 40
8.0
 40
8.0
 40
9.0
 40
9.0
 40
9.0
 40
10.0
 40
10.0
 40
10.0
 40
11.0
 40
11.0
 40
11.0
 40
12.0
 40
12.0
 40
12.0
 40
13.0
 40
13.0
 40
13.0
 40
14.0
 40
14.0
 40
14.0
 40
15.0
 40
15.0
 40
15.0
 40
16.0
 40
16.0
 40
16.0
 40
17.0
 40
17.0
 40
17.0
 40
18.0
 40
18.0
 40
18.0
 40
19.0
 40
19.0
 40
19.0
 40
20.0
 40
20.0
 40
20.0
 40
21.0
 40
21.0
 40
21.0
 40
22.0
 40
22.0
 40
22.0
 40
23.0
 40
23.0
 40
23.0
 40
24.0
 40
24.0
 40
24.0
 40
25.0
 40
25.0
 40
25.0
 40
26.0
 40
26.0
 40
26.0
 40
27.0
 40
27.0
 40
27.0
 40
28.0
 40
28.0
 40
28.0
 40
29.0
 40
29.0
 40
29.0
 40
30.0
 40
30.0
 40
30.0
 40
31.0
 40
31.0
 40
31.0
 40
32.0
 40
32.0
 40
32.0
 40
33.0
 40
33.0
 40
33.0
 40
34.0
 40
34.0
 40
34.0
 40
35.0
 40
35.0
 40
35.0
 40
36.0
 40
36.0
 40
36.0
 40
36.0
 10
3.605555640326606
 20
3.577777862548828
 10
3.645833333333333
 20
3.636111153496636
 10
3.686111026340061
 20
3.694444444444444
 10
3.7250001695421
 20
3.752777947319878
 10
3.779166751437717
 20
3.833333545260959
 10
3.830555809868706
 20
3.909722434149848
 10
3.879166920979817
 20
3.981944613986545
 10
3.883333418104383
 20
3.988889058430989
 10
3.880555894639757
 20
3.998611238267686
 10
3.873611450195312
 20
4.009722391764322
 10
3.865278032090929
 20
4.020833545260959
 10
3.854167090521918
 20
4.031944698757595
 10
3.840278201633029
 20
4.044444613986545
 10
3.825000339084201
 20
4.056944529215494
 10
3.809722476535373
 20
4.068055682712131
 10
3.790278116861979
 20
4.079166836208767
 10
3.772222730848524
 20
4.090277989705403
 10
3.754166920979817
 20
4.100000169542101
 10
3.736111534966363
 20
4.108333587646484
 10
3.718056148952908
 20
4.116667005750868
 10
3.704167260064019
 20
4.120833502875434
 10
3.69027837117513
 20
4.123611450195312
 10
3.67777845594618
 20
4.126389185587565
 10
3.669445037841797
 20
4.125000423855251
 10
3.665278540717231
 20
4.12083371480306
 10
3.665278540717231
 20
4.12083371480306
 10
3.445833418104383
 20
3.805555555555555
 10
3.445833418104383
 20
3.805555555555555
 10
3.445833418104383
 20
3.805555555555555
 10
3.2250001695421
 20
4.120833290947808
 10
3.2250001695421
 20
4.120833290947808
 10
3.220833460489909
 20
4.125
 10
3.212500254313151
 20
4.126388761732313
 10
3.200000127156575
 20
4.12361102634006
 10
3.187500211927626
 20
4.120833290947808
 10
3.172222349378798
 20
4.115277608235677
 10
3.154166751437717
 20
4.108333163791232
 10
3.136111153496636
 20
4.099999745686849
 10
3.119444529215495
 20
4.090277565850152
 10
3.1000001695421
 20
4.079166412353516
 10
3.08194457160102
 20
4.068055258856879
 10
3.065277947319878
 20
4.05555534362793
 10
3.05000008477105
 20
4.044444190131293
 10
3.034722222222222
 20
4.031944274902344
 10
3.023611280653212
 20
4.020833121405707
 10
3.016666836208767
 20
4.009721967909071
 10
3.008333418104383
 20
3.998610814412435
 10
3.00694465637207
 20
3.988888634575738
 10
3.011111365424262
 20
3.981944190131293
 10
3.059722476535373
 20
3.909722010294596
 10
3.111111323038737
 20
3.833333121405707
 10
3.165278116861979
 20
3.752777523464626
 10
3.204167048136393
 20
3.695832994249132
 10
3.24444474114312
 20
3.63611094156901
 10
3.284722646077474
 20
3.577777438693576
 10
3.284722646077474
 20
3.577777438693576
 10
3.002778159247504
 20
3.174999660915798
 10
3.002778159247504
 20
3.174999660915798
 10
3.000000423855252
 20
3.170832951863606
 10
3.002778159247504
 20
3.163888507419162
 10
3.009722603691948
 20
3.154166327582465
 10
3.018056021796332
 20
3.143055174085829
 10
3.027778201633029
 20
3.131944020589192
 10
3.041667090521918
 20
3.118055131700304
 10
3.055555979410807
 20
3.104166242811415
 10
3.069444868299696
 20
3.090277353922526
 10
3.086111492580838
 20
3.074999491373698
 10
3.102778116861979
 20
3.05972162882487
 10
3.11944474114312
 20
3.04722171359592
 10
3.134722603691948
 20
3.037499533759223
 10
3.15138922797309
 20
3.026388380262587
 10
3.165278116861979
 20
3.019443935818142
 10
3.177778244018555
 20
3.01527722676595
 10
3.190278159247504
 20
3.011110517713758
 10
3.198611577351888
 20
3.012499491373698
 10
3.202778286404079
 20
3.018054962158203
 10
3.261111577351888
 20
3.094443851047092
 10
3.320833841959635
 20
3.174999448988173
 10
3.380556106567383
 20
3.258332782321506
 10
3.402778413560655
 20
3.288888295491536
 10
3.423611746893989
 20
3.319443808661567
 10
3.445833841959635
 20
3.348610560099284
 10
3.466667175292969
 20
3.318055046929253
 10
3.488889482286241
 20
3.288888295491536
 10
3.511111577351888
 20
3.258332782321506
 10
3.570833841959635
 20
3.174999448988173
 10
3.629167344835069
 20
3.095832824707031
 10
3.688889397515191
 20
3.018054962158203
 10
3.693055894639757
 20
3.011110517713758
 10
3.701389312744141
 20
3.011110517713758
 10
3.71388922797309
 20
3.01527722676595
 10
3.72638914320204
 20
3.019443935818142
 10
3.740278032090929
 20
3.026388380262587
 10
3.756944868299696
 20
3.037499533759223
 10
3.773611704508463
 20
3.048610687255859
 10
3.78888914320204
 20
3.061110602484809
 10
3.805555979410807
 20
3.074999491373698
 10
3.822222815619575
 20
3.090277353922526
 10
3.837500254313151
 20
3.104166242811415
 10
3.850000593397352
 20
3.118055131700304
 10
3.863889482286241
 20
3.131944020589192
 10
3.873611874050564
 20
3.144443935818142
 10
3.881944868299696
 20
3.154166327582465
 10
3.890278286404079
 20
3.165277481079102
 10
3.891667260064019
 20
3.172221925523546
 10
3.888889312744141
 20
3.174999660915798
 10
3.888889312744141
 20
3.174999660915798
 10
3.605555640326606
 20
3.577777862548828
 10
3.605555640326606
 20
3.577777862548828
 97
        0
 97
        0
 75
     2
 76
     1
 98
        0
  0
SPLINE
  5
50
330
45
100
AcDbEntity
  8
Calque 1
370
     0
100
AcDbSpline
210
0.0
220
0.0
230
1.0
 70
    11
 71
     3
 72
    59
 73
    55
 74
     0
 42
0.0000000001
 43
0.0000000001
 12
1.0
 22
0.0
 32
0.0
 13
1.0
 23
0.0
 33
0.0
 40
0.0
 40
0.0
 40
0.0
 40
0.0
 40
1.0
 40
1.0
 40
1.0
 40
2.0
 40
2.0
 40
2.0
 40
3.0
 40
3.0
 40
3.0
 40
4.0
 40
4.0
 40
4.0
 40
5.0
 40
5.0
 40
5.0
 40
6.0
 40
6.0
 40
6.0
 40
7.0
 40
7.0
 40
7.0
 40
8.0
 40
8.0
 40
8.0
 40
9.0
 40
9.0
 40
9.0
 40
10.0
 40
10.0
 40
10.0
 40
11.0
 40
11.0
 40
11.0
 40
12.0
 40
12.0
 40
12.0
 40
13.0
 40
13.0
 40
13.0
 40
14.0
 40
14.0
 40
14.0
 40
15.0
 40
15.0
 40
15.0
 40
16.0
 40
16.0
 40
16.0
 40
17.0
 40
17.0
 40
17.0
 40
18.0
 40
18.0
 40
18.0
 40
18.0
 10
4.838888804117838
 20
3.818055470784505
 30
0.0
 10
4.815277523464626
 20
3.890277650621202
 30
0.0
 10
4.783333248562283
 20
3.94999991522895
 30
0.0
 10
4.743055555555555
 20
3.995833290947808
 30
0.0
 10
4.702777862548828
 20
4.041666666666666
 30
0.0
 10
4.654166751437717
 20
4.07499991522895
 30
0.0
 10
4.598611195882161
 20
4.097222222222222
 30
0.0
 10
4.541666666666666
 20
4.118055555555555
 30
0.0
 10
4.480555640326606
 20
4.129166709052192
 30
0.0
 10
4.415277693006727
 20
4.129166709052192
 30
0.0
 10
4.349999745686849
 20
4.129166709052192
 30
0.0
 10
4.283333248562283
 20
4.120833290947808
 30
0.0
 10
4.218055301242404
 20
4.104166666666666
 30
0.0
 10
4.152777353922525
 20
4.087500042385525
 30
0.0
 10
4.094444274902344
 20
4.056944529215494
 30
0.0
 10
4.044444190131293
 20
4.01249991522895
 30
0.0
 10
3.993055131700304
 20
3.96805551317003
 30
0.0
 10
3.952777438693576
 20
3.906944274902344
 30
0.0
 10
3.922222137451172
 20
3.830555386013454
 30
0.0
 10
3.891666412353516
 20
3.754166497124566
 30
0.0
 10
3.877777523464626
 20
3.655555301242404
 30
0.0
 10
3.880555470784505
 20
3.537499745686849
 30
0.0
 10
3.883333418104383
 20
3.427777608235677
 30
0.0
 10
3.901388804117838
 20
3.337499830457899
 30
0.0
 10
3.934722052680121
 20
3.269444147745768
 30
0.0
 10
3.968055301242404
 20
3.201388676961263
 30
0.0
 10
4.009721967909071
 20
3.147221883138021
 30
0.0
 10
4.059722052680121
 20
3.108332951863606
 30
0.0
 10
4.109722137451172
 20
3.069444020589192
 30
0.0
 10
4.165277693006727
 20
3.044443978203667
 30
0.0
 10
4.224999745686849
 20
3.030555089314778
 30
0.0
 10
4.28472179836697
 20
3.01666620042589
 30
0.0
 10
4.343055301242404
 20
3.011110729641385
 30
0.0
 10
4.397221883138021
 20
3.013888465033637
 30
0.0
 10
4.433333079020182
 20
3.015277438693576
 30
0.0
 10
4.469444274902344
 20
3.018055174085829
 30
0.0
 10
4.506944020589192
 20
3.023610644870334
 30
0.0
 10
4.544444190131293
 20
3.029166115654839
 30
0.0
 10
4.580554962158203
 20
3.040277269151475
 30
0.0
 10
4.616666158040364
 20
3.055555131700304
 30
0.0
 10
4.651388380262587
 20
3.070832994249132
 30
0.0
 10
4.684721628824869
 20
3.091666327582465
 30
0.0
 10
4.716666327582465
 20
3.116666158040364
 30
0.0
 10
4.747222052680121
 20
3.14166620042589
 30
0.0
 10
4.774999830457899
 20
3.174999448988173
 30
0.0
 10
4.798610687255859
 20
3.215277353922526
 30
0.0
 10
4.822221967909071
 20
3.255555046929253
 30
0.0
 10
4.840277353922525
 20
3.302777396308051
 30
0.0
 10
4.854166242811415
 20
3.358332951863606
 30
0.0
 10
4.868055131700303
 20
3.413888507419162
 30
0.0
 10
4.873610602484809
 20
3.479166242811415
 30
0.0
 10
4.873610602484809
 20
3.555555131700304
 30
0.0
 10
4.87361102634006
 20
3.658333248562283
 30
0.0
 10
4.86250008477105
 20
3.745833290947808
 30
0.0
 10
4.838888804117838
 20
3.818055470784505
 30
0.0
  0
SPLINE
  5
51
330
45
100
AcDbEntity
  8
Calque 1
370
     0
100
AcDbSpline
210
0.0
220
0.0
230
1.0
 70
    11
 71
     3
 72
    53
 73
    49
 74
     0
 42
0.0000000001
 43
0.0000000001
 12
1.0
 22
0.0
 32
0.0
 13
1.0
 23
0.0
 33
0.0
 40
0.0
 40
0.0
 40
0.0
 40
0.0
 40
1.0
 40
1.0
 40
1.0
 40
2.0
 40
2.0
 40
2.0
 40
3.0
 40
3.0
 40
3.0
 40
4.0
 40
4.0
 40
4.0
 40
5.0
 40
5.0
 40
5.0
 40
6.0
 40
6.0
 40
6.0
 40
7.0
 40
7.0
 40
7.0
 40
8.0
 40
8.0
 40
8.0
 40
9.0
 40
9.0
 40
9.0
 40
10.0
 40
10.0
 40
10.0
 40
11.0
 40
11.0
 40
11.0
 40
12.0
 40
12.0
 40
12.0
 40
13.0
 40
13.0
 40
13.0
 40
14.0
 40
14.0
 40
14.0
 40
15.0
 40
15.0
 40
15.0
 40
16.0
 40
16.0
 40
16.0
 40
16.0
 10
4.580555386013454
 20
3.398611068725586
 30
0.0
 10
4.565277523464626
 20
3.361111111111111
 30
0.0
 10
4.547222137451172
 20
3.331944359673394
 30
0.0
 10
4.526388804117838
 20
3.309722264607747
 30
0.0
 10
4.504166497124566
 20
3.287499957614475
 30
0.0
 10
4.480555640326606
 20
3.272222306993272
 30
0.0
 10
4.455555386013454
 20
3.262500127156575
 30
0.0
 10
4.430555555555555
 20
3.252777947319878
 30
0.0
 10
4.405555301242404
 20
3.248611238267686
 30
0.0
 10
4.383332994249132
 20
3.248611238267686
 30
0.0
 10
4.354166242811415
 20
3.248611238267686
 30
0.0
 10
4.326388465033637
 20
3.255555682712131
 30
0.0
 10
4.299999660915798
 20
3.268055597941081
 30
0.0
 10
4.27361085679796
 20
3.281944486829969
 30
0.0
 10
4.249999576144748
 20
3.30000008477105
 30
0.0
 10
4.229166242811415
 20
3.325000127156575
 30
0.0
 10
4.208332909478082
 20
3.348611195882161
 30
0.0
 10
4.190277523464626
 20
3.377777947319878
 30
0.0
 10
4.177777184380425
 20
3.411111195882161
 30
0.0
 10
4.163888295491536
 20
3.444444444444444
 30
0.0
 10
4.156943851047092
 20
3.480555640326606
 30
0.0
 10
4.155554877387153
 20
3.51944457160102
 30
0.0
 10
4.152776930067274
 20
3.570833418104383
 30
0.0
 10
4.156943851047092
 20
3.619444529215495
 30
0.0
 10
4.166665818956163
 20
3.663888931274414
 30
0.0
 10
4.177776760525173
 20
3.709722306993272
 30
0.0
 10
4.193054623074001
 20
3.748611238267686
 30
0.0
 10
4.213887956407335
 20
3.781944486829969
 30
0.0
 10
4.234721289740668
 20
3.815277735392252
 30
0.0
 10
4.261110093858507
 20
3.840277777777778
 30
0.0
 10
4.291665818956163
 20
3.858333375718858
 30
0.0
 10
4.32222154405382
 20
3.876388973659939
 30
0.0
 10
4.356943766276041
 20
3.884722179836697
 30
0.0
 10
4.395832485622829
 20
3.884722179836697
 30
0.0
 10
4.426388210720486
 20
3.883333206176758
 30
0.0
 10
4.454165988498263
 20
3.876388761732313
 30
0.0
 10
4.479165818956163
 20
3.863888846503364
 30
0.0
 10
4.504165649414062
 20
3.851388931274414
 30
0.0
 10
4.526387956407334
 20
3.830555597941081
 30
0.0
 10
4.545832316080729
 20
3.802777820163303
 30
0.0
 10
4.565276675754123
 20
3.775000042385525
 30
0.0
 10
4.579165564643012
 20
3.740277820163303
 30
0.0
 10
4.588887956407334
 20
3.697222179836697
 30
0.0
 10
4.598610348171658
 20
3.654166539510091
 30
0.0
 10
4.604165818956163
 20
3.601388931274414
 30
0.0
 10
4.604165818956163
 20
3.538888931274414
 30
0.0
 10
4.601388719346788
 20
3.483333375718858
 30
0.0
 10
4.594444274902344
 20
3.436111026340061
 30
0.0
 10
4.580555386013454
 20
3.398611068725586
 30
0.0
  0
HATCH
  5
52
330
45
100
AcDbEntity
  8
Calque 1
 62
     7
420
 16777215
100
AcDbHatch
 10
0.0
 20
0.0
 30
0.0
210
0.0
220
0.0
230
1.0
  2
SOLID
 70
     1
 71
     0
 91
        2
 92
        1
 93
        1
 72
     4
 94
        3
 73
     0
 74
     1
 95
       59
 96
       55
 40
0.0
 40
0.0
 40
0.0
 40
0.0
 40
1.0
 40
1.0
 40
1.0
 40
2.0
 40
2.0
 40
2.0
 40
3.0
 40
3.0
 40
3.0
 40
4.0
 40
4.0
 40
4.0
 40
5.0
 40
5.0
 40
5.0
 40
6.0
 40
6.0
 40
6.0
 40
7.0
 40
7.0
 40
7.0
 40
8.0
 40
8.0
 40
8.0
 40
9.0
 40
9.0
 40
9.0
 40
10.0
 40
10.0
 40
10.0
 40
11.0
 40
11.0
 40
11.0
 40
12.0
 40
12.0
 40
12.0
 40
13.0
 40
13.0
 40
13.0
 40
14.0
 40
14.0
 40
14.0
 40
15.0
 40
15.0
 40
15.0
 40
16.0
 40
16.0
 40
16.0
 40
17.0
 40
17.0
 40
17.0
 40
18.0
 40
18.0
 40
18.0
 40
18.0
 10
4.838888804117838
 20
3.818055470784505
 10
4.815277523464626
 20
3.890277650621202
 10
4.783333248562283
 20
3.94999991522895
 10
4.743055555555555
 20
3.995833290947808
 10
4.702777862548828
 20
4.041666666666666
 10
4.654166751437717
 20
4.07499991522895
 10
4.598611195882161
 20
4.097222222222222
 10
4.541666666666666
 20
4.118055555555555
 10
4.480555640326606
 20
4.129166709052192
 10
4.415277693006727
 20
4.129166709052192
 10
4.349999745686849
 20
4.129166709052192
 10
4.283333248562283
 20
4.120833290947808
 10
4.218055301242404
 20
4.104166666666666
 10
4.152777353922525
 20
4.087500042385525
 10
4.094444274902344
 20
4.056944529215494
 10
4.044444190131293
 20
4.01249991522895
 10
3.993055131700304
 20
3.96805551317003
 10
3.952777438693576
 20
3.906944274902344
 10
3.922222137451172
 20
3.830555386013454
 10
3.891666412353516
 20
3.754166497124566
 10
3.877777523464626
 20
3.655555301242404
 10
3.880555470784505
 20
3.537499745686849
 10
3.883333418104383
 20
3.427777608235677
 10
3.901388804117838
 20
3.337499830457899
 10
3.934722052680121
 20
3.269444147745768
 10
3.968055301242404
 20
3.201388676961263
 10
4.009721967909071
 20
3.147221883138021
 10
4.059722052680121
 20
3.108332951863606
 10
4.109722137451172
 20
3.069444020589192
 10
4.165277693006727
 20
3.044443978203667
 10
4.224999745686849
 20
3.030555089314778
 10
4.28472179836697
 20
3.01666620042589
 10
4.343055301242404
 20
3.011110729641385
 10
4.397221883138021
 20
3.013888465033637
 10
4.433333079020182
 20
3.015277438693576
 10
4.469444274902344
 20
3.018055174085829
 10
4.506944020589192
 20
3.023610644870334
 10
4.544444190131293
 20
3.029166115654839
 10
4.580554962158203
 20
3.040277269151475
 10
4.616666158040364
 20
3.055555131700304
 10
4.651388380262587
 20
3.070832994249132
 10
4.684721628824869
 20
3.091666327582465
 10
4.716666327582465
 20
3.116666158040364
 10
4.747222052680121
 20
3.14166620042589
 10
4.774999830457899
 20
3.174999448988173
 10
4.798610687255859
 20
3.215277353922526
 10
4.822221967909071
 20
3.255555046929253
 10
4.840277353922525
 20
3.302777396308051
 10
4.854166242811415
 20
3.358332951863606
 10
4.868055131700303
 20
3.413888507419162
 10
4.873610602484809
 20
3.479166242811415
 10
4.873610602484809
 20
3.555555131700304
 10
4.87361102634006
 20
3.658333248562283
 10
4.86250008477105
 20
3.745833290947808
 10
4.838888804117838
 20
3.818055470784505
 97
        0
 97
        0
 92
        1
 93
        1
 72
     4
 94
        3
 73
     0
 74
     1
 95
       53
 96
       49
 40
0.0
 40
0.0
 40
0.0
 40
0.0
 40
1.0
 40
1.0
 40
1.0
 40
2.0
 40
2.0
 40
2.0
 40
3.0
 40
3.0
 40
3.0
 40
4.0
 40
4.0
 40
4.0
 40
5.0
 40
5.0
 40
5.0
 40
6.0
 40
6.0
 40
6.0
 40
7.0
 40
7.0
 40
7.0
 40
8.0
 40
8.0
 40
8.0
 40
9.0
 40
9.0
 40
9.0
 40
10.0
 40
10.0
 40
10.0
 40
11.0
 40
11.0
 40
11.0
 40
12.0
 40
12.0
 40
12.0
 40
13.0
 40
13.0
 40
13.0
 40
14.0
 40
14.0
 40
14.0
 40
15.0
 40
15.0
 40
15.0
 40
16.0
 40
16.0
 40
16.0
 40
16.0
 10
4.580555386013454
 20
3.398611068725586
 10
4.565277523464626
 20
3.361111111111111
 10
4.547222137451172
 20
3.331944359673394
 10
4.526388804117838
 20
3.309722264607747
 10
4.504166497124566
 20
3.287499957614475
 10
4.480555640326606
 20
3.272222306993272
 10
4.455555386013454
 20
3.262500127156575
 10
4.430555555555555
 20
3.252777947319878
 10
4.405555301242404
 20
3.248611238267686
 10
4.383332994249132
 20
3.248611238267686
 10
4.354166242811415
 20
3.248611238267686
 10
4.326388465033637
 20
3.255555682712131
 10
4.299999660915798
 20
3.268055597941081
 10
4.27361085679796
 20
3.281944486829969
 10
4.249999576144748
 20
3.30000008477105
 10
4.229166242811415
 20
3.325000127156575
 10
4.208332909478082
 20
3.348611195882161
 10
4.190277523464626
 20
3.377777947319878
 10
4.177777184380425
 20
3.411111195882161
 10
4.163888295491536
 20
3.444444444444444
 10
4.156943851047092
 20
3.480555640326606
 10
4.155554877387153
 20
3.51944457160102
 10
4.152776930067274
 20
3.570833418104383
 10
4.156943851047092
 20
3.619444529215495
 10
4.166665818956163
 20
3.663888931274414
 10
4.177776760525173
 20
3.709722306993272
 10
4.193054623074001
 20
3.748611238267686
 10
4.213887956407335
 20
3.781944486829969
 10
4.234721289740668
 20
3.815277735392252
 10
4.261110093858507
 20
3.840277777777778
 10
4.291665818956163
 20
3.858333375718858
 10
4.32222154405382
 20
3.876388973659939
 10
4.356943766276041
 20
3.884722179836697
 10
4.395832485622829
 20
3.884722179836697
 10
4.426388210720486
 20
3.883333206176758
 10
4.454165988498263
 20
3.876388761732313
 10
4.479165818956163
 20
3.863888846503364
 10
4.504165649414062
 20
3.851388931274414
 10
4.526387956407334
 20
3.830555597941081
 10
4.545832316080729
 20
3.802777820163303
 10
4.565276675754123
 20
3.775000042385525
 10
4.579165564643012
 20
3.740277820163303
 10
4.588887956407334
 20
3.697222179836697
 10
4.598610348171658
 20
3.654166539510091
 10
4.604165818956163
 20
3.601388931274414
 10
4.604165818956163
 20
3.538888931274414
 10
4.601388719346788
 20
3.483333375718858
 10
4.594444274902344
 20
3.436111026340061
 10
4.580555386013454
 20
3.398611068725586
 97
        0
 97
        0
 75
     2
 76
     1
 98
        0
  0
ENDBLK
  5
48
330
45
100
AcDbEntity
  8
0
100
AcDbBlockEnd
  0
BLOCK
  5
55
330
53
100
AcDbEntity
  8
0
100
AcDbBlockBegin
  2
block 4
 70
     0
 10
0.0
 20
0.0
 30
0.0
  3
block 4
  1

  0
SPLINE
  5
57
330
53
100
AcDbEntity
  8
Calque 1
370
     0
100
AcDbSpline
210
0.0
220
0.0
230
1.0
 70
    11
 71
     3
 72
   179
 73
   175
 74
     0
 42
0.0000000001
 43
0.0000000001
 12
1.0
 22
0.0
 32
0.0
 13
1.0
 23
0.0
 33
0.0
 40
0.0
 40
0.0
 40
0.0
 40
0.0
 40
1.0
 40
1.0
 40
1.0
 40
2.0
 40
2.0
 40
2.0
 40
3.0
 40
3.0
 40
3.0
 40
4.0
 40
4.0
 40
4.0
 40
5.0
 40
5.0
 40
5.0
 40
6.0
 40
6.0
 40
6.0
 40
7.0
 40
7.0
 40
7.0
 40
8.0
 40
8.0
 40
8.0
 40
9.0
 40
9.0
 40
9.0
 40
10.0
 40
10.0
 40
10.0
 40
11.0
 40
11.0
 40
11.0
 40
12.0
 40
12.0
 40
12.0
 40
13.0
 40
13.0
 40
13.0
 40
14.0
 40
14.0
 40
14.0
 40
15.0
 40
15.0
 40
15.0
 40
16.0
 40
16.0
 40
16.0
 40
17.0
 40
17.0
 40
17.0
 40
18.0
 40
18.0
 40
18.0
 40
19.0
 40
19.0
 40
19.0
 40
20.0
 40
20.0
 40
20.0
 40
21.0
 40
21.0
 40
21.0
 40
22.0
 40
22.0
 40
22.0
 40
23.0
 40
23.0
 40
23.0
 40
24.0
 40
24.0
 40
24.0
 40
25.0
 40
25.0
 40
25.0
 40
26.0
 40
26.0
 40
26.0
 40
27.0
 40
27.0
 40
27.0
 40
28.0
 40
28.0
 40
28.0
 40
29.0
 40
29.0
 40
29.0
 40
30.0
 40
30.0
 40
30.0
 40
31.0
 40
31.0
 40
31.0
 40
32.0
 40
32.0
 40
32.0
 40
33.0
 40
33.0
 40
33.0
 40
34.0
 40
34.0
 40
34.0
 40
35.0
 40
35.0
 40
35.0
 40
36.0
 40
36.0
 40
36.0
 40
37.0
 40
37.0
 40
37.0
 40
38.0
 40
38.0
 40
38.0
 40
39.0
 40
39.0
 40
39.0
 40
40.0
 40
40.0
 40
40.0
 40
41.0
 40
41.0
 40
41.0
 40
42.0
 40
42.0
 40
42.0
 40
43.0
 40
43.0
 40
43.0
 40
44.0
 40
44.0
 40
44.0
 40
45.0
 40
45.0
 40
45.0
 40
46.0
 40
46.0
 40
46.0
 40
47.0
 40
47.0
 40
47.0
 40
48.0
 40
48.0
 40
48.0
 40
49.0
 40
49.0
 40
49.0
 40
50.0
 40
50.0
 40
50.0
 40
51.0
 40
51.0
 40
51.0
 40
52.0
 40
52.0
 40
52.0
 40
53.0
 40
53.0
 40
53.0
 40
54.0
 40
54.0
 40
54.0
 40
55.0
 40
55.0
 40
55.0
 40
56.0
 40
56.0
 40
56.0
 40
57.0
 40
57.0
 40
57.0
 40
58.0
 40
58.0
 40
58.0
 40
58.0
 10
3.245833290947808
 20
2.891666624281141
 30
0.0
 10
3.237499872843424
 20
2.894444359673394
 30
0.0
 10
3.226388931274414
 20
2.895833333333333
 30
0.0
 10
3.215277777777778
 20
2.895833333333333
 30
0.0
 10
3.204166624281141
 20
2.895833333333333
 30
0.0
 10
3.194444444444444
 20
2.895833333333333
 30
0.0
 10
3.184722264607747
 20
2.894444359673394
 30
0.0
 10
3.17500008477105
 20
2.893055386013455
 30
0.0
 10
3.170833375718858
 20
2.888888888888889
 30
0.0
 10
3.169444402058919
 20
2.883333206176758
 30
0.0
 10
3.16805542839898
 20
2.766666624281141
 30
0.0
 10
3.161110983954535
 20
2.66805542839898
 30
0.0
 10
3.148611068725586
 20
2.587499830457899
 30
0.0
 10
3.13749991522895
 20
2.506944232516819
 30
0.0
 10
3.122222264607747
 20
2.441666497124566
 30
0.0
 10
3.10555542839898
 20
2.390277438693576
 30
0.0
 10
3.088888804117838
 20
2.338888380262587
 30
0.0
 10
3.069444232516819
 20
2.298610687255859
 30
0.0
 10
3.049999872843424
 20
2.272221883138021
 30
0.0
 10
3.03055551317003
 20
2.244444105360243
 30
0.0
 10
3.009722179836697
 20
2.224999745686849
 30
0.0
 10
2.990277608235677
 20
2.212499830457899
 30
0.0
 10
2.970833248562283
 20
2.19999991522895
 30
0.0
 10
2.952777650621202
 20
2.194444444444444
 30
0.0
 10
2.937499788072374
 20
2.193055470784505
 30
0.0
 10
2.920833163791233
 20
2.191666497124566
 30
0.0
 10
2.908333036634657
 20
2.191666497124566
 30
0.0
 10
2.899999830457899
 20
2.193055470784505
 30
0.0
 10
2.86805534362793
 20
2.197221967909071
 30
0.0
 10
2.841666539510091
 20
2.213888804117838
 30
0.0
 10
2.822221967909071
 20
2.244444529215495
 30
0.0
 10
2.802777608235677
 20
2.275000254313151
 30
0.0
 10
2.786110772026909
 20
2.313888973659939
 30
0.0
 10
2.774999830457899
 20
2.359722137451172
 30
0.0
 10
2.763888676961263
 20
2.405555301242404
 30
0.0
 10
2.755555470784505
 20
2.455555386013455
 30
0.0
 10
2.751388761732313
 20
2.508333206176758
 30
0.0
 10
2.747222052680121
 20
2.562499788072374
 30
0.0
 10
2.744444317287869
 20
2.613888846503364
 30
0.0
 10
2.744444317287869
 20
2.663888719346788
 30
0.0
 10
2.744444317287869
 20
2.709722095065647
 30
0.0
 10
2.745833290947808
 20
2.752777523464627
 30
0.0
 10
2.749999788072374
 20
2.791666454739041
 30
0.0
 10
2.752777523464627
 20
2.830555386013455
 30
0.0
 10
2.755555258856879
 20
2.858333163791233
 30
0.0
 10
2.758333206176758
 20
2.877777523464627
 30
0.0
 10
2.756944232516819
 20
2.881944232516819
 30
0.0
 10
2.752777735392252
 20
2.88611094156901
 30
0.0
 10
2.74305534362793
 20
2.887499703301323
 30
0.0
 10
2.734721925523546
 20
2.890277438693576
 30
0.0
 10
2.724999745686849
 20
2.890277438693576
 30
0.0
 10
2.713888592190213
 20
2.890277438693576
 30
0.0
 10
2.702777438693576
 20
2.890277438693576
 30
0.0
 10
2.693055258856879
 20
2.888888465033637
 30
0.0
 10
2.683333079020182
 20
2.887499703301323
 30
0.0
 10
2.673610899183485
 20
2.886110729641385
 30
0.0
 10
2.669444190131293
 20
2.883332994249132
 30
0.0
 10
2.668055216471354
 20
2.87916628519694
 30
0.0
 10
2.668055216471354
 20
2.87916628519694
 30
0.0
 10
2.668055216471354
 20
2.883332994249132
 30
0.0
 10
2.668055216471354
 20
2.883332994249132
 30
0.0
 10
2.665277481079102
 20
2.843055301242404
 30
0.0
 10
2.662499745686849
 20
2.805555131700304
 30
0.0
 10
2.662499745686849
 20
2.769444147745768
 30
0.0
 10
2.661110772026909
 20
2.733332951863606
 30
0.0
 10
2.661110772026909
 20
2.699999703301323
 30
0.0
 10
2.661110772026909
 20
2.668055216471354
 30
0.0
 10
2.661110772026909
 20
2.584721883138021
 30
0.0
 10
2.665277481079102
 20
2.513888465033637
 30
0.0
 10
2.672221925523546
 20
2.455555174085829
 30
0.0
 10
2.68055534362793
 20
2.395832909478081
 30
0.0
 10
2.690277523464627
 20
2.347221798366971
 30
0.0
 10
2.702777438693576
 20
2.306944105360243
 30
0.0
 10
2.715277353922526
 20
2.266666412353516
 30
0.0
 10
2.730555216471354
 20
2.23472171359592
 30
0.0
 10
2.747221840752495
 20
2.209721883138021
 30
0.0
 10
2.763888465033637
 20
2.184722052680121
 30
0.0
 10
2.780555089314778
 20
2.166666242811415
 30
0.0
 10
2.797221925523546
 20
2.152777353922526
 30
0.0
 10
2.813888549804688
 20
2.138888465033637
 30
0.0
 10
2.830555174085829
 20
2.130555046929254
 30
0.0
 10
2.845833036634657
 20
2.124999576144748
 30
0.0
 10
2.861110899183485
 20
2.119444105360243
 30
0.0
 10
2.874999788072374
 20
2.116666158040364
 30
0.0
 10
2.887499703301323
 20
2.115277184380425
 30
0.0
 10
2.947221967909071
 20
2.106943766276042
 30
0.0
 10
2.997221840752495
 20
2.115277184380425
 30
0.0
 10
3.040277481079102
 20
2.140277014838325
 30
0.0
 10
3.081944147745768
 20
2.165276845296224
 30
0.0
 10
3.11666636996799
 20
2.198610517713758
 30
0.0
 10
3.143055174085829
 20
2.243054707845052
 30
0.0
 10
3.14166620042589
 20
2.233332316080729
 30
0.0
 10
3.138888465033637
 20
2.224999321831597
 30
0.0
 10
3.137499703301323
 20
2.216665903727213
 30
0.0
 10
3.136110729641384
 20
2.209721459282769
 30
0.0
 10
3.134721967909071
 20
2.201388041178385
 30
0.0
 10
3.131944232516819
 20
2.191666073269314
 30
0.0
 10
3.120833079020182
 20
2.141665988498264
 30
0.0
 10
3.108333163791233
 20
2.099999321831597
 30
0.0
 10
3.093055301242404
 20
2.069444020589192
 30
0.0
 10
3.077777438693576
 20
2.038888295491536
 30
0.0
 10
3.061110814412435
 20
2.013888465033637
 30
0.0
 10
3.043055216471354
 20
1.99722162882487
 30
0.0
 10
3.024999618530273
 20
1.980554792616102
 30
0.0
 10
3.005555258856879
 20
1.968054877387153
 30
0.0
 10
2.984721925523546
 20
1.962499406602648
 30
0.0
 10
2.965277565850152
 20
1.956943935818142
 30
0.0
 10
2.944444232516819
 20
1.952777014838325
 30
0.0
 10
2.924999660915799
 20
1.951388465033637
 30
0.0
 10
2.899999618530273
 20
1.951388465033637
 30
0.0
 10
2.874999576144748
 20
1.954166412353516
 30
0.0
 10
2.849999745686849
 20
1.96111085679796
 30
0.0
 10
2.824999703301323
 20
1.968055301242404
 30
0.0
 10
2.808333079020182
 20
1.979166242811415
 30
0.0
 10
2.797221925523546
 20
1.994444105360243
 30
0.0
 10
2.790277481079102
 20
1.998610602484809
 30
0.0
 10
2.781944062974718
 20
1.999999576144748
 30
0.0
 10
2.772221883138021
 20
1.995833079020182
 30
0.0
 10
2.762499703301323
 20
1.993055131700304
 30
0.0
 10
2.752777523464627
 20
1.987499660915798
 30
0.0
 10
2.745833079020182
 20
1.981944190131293
 30
0.0
 10
2.737499660915799
 20
1.976388719346788
 30
0.0
 10
2.730555216471354
 20
1.969444274902344
 30
0.0
 10
2.726388719346788
 20
1.962499830457899
 30
0.0
 10
2.720833248562283
 20
1.955555386013455
 30
0.0
 10
2.720833248562283
 20
1.94999991522895
 30
0.0
 10
2.723610983954535
 20
1.947221967909071
 30
0.0
 10
2.723610983954535
 20
1.947221967909071
 30
0.0
 10
2.722222222222222
 20
1.947221967909071
 30
0.0
 10
2.722222222222222
 20
1.947221967909071
 30
0.0
 10
2.733333375718858
 20
1.930555131700304
 30
0.0
 10
2.748611026340061
 20
1.916666242811415
 30
0.0
 10
2.766666624281141
 20
1.906944274902344
 30
0.0
 10
2.784722222222222
 20
1.897221883138021
 30
0.0
 10
2.802777820163303
 20
1.890277438693576
 30
0.0
 10
2.822222179836697
 20
1.884721967909071
 30
0.0
 10
2.841666539510091
 20
1.879166497124566
 30
0.0
 10
2.859722137451172
 20
1.876388549804688
 30
0.0
 10
2.879166709052192
 20
1.873611026340061
 30
0.0
 10
2.897222306993272
 20
1.872222052680121
 30
0.0
 10
2.913888931274414
 20
1.870833079020182
 30
0.0
 10
2.927777820163303
 20
1.870833079020182
 30
0.0
 10
2.969444486829969
 20
1.872222052680121
 30
0.0
 10
3.006944444444444
 20
1.880555470784505
 30
0.0
 10
3.040277904934353
 20
1.895832909478081
 30
0.0
 10
3.073611153496636
 20
1.912499745686849
 30
0.0
 10
3.101388931274414
 20
1.933333079020182
 30
0.0
 10
3.126388973659939
 20
1.96111085679796
 30
0.0
 10
3.150000042385525
 20
1.988888634575738
 30
0.0
 10
3.169444613986545
 20
2.020832909478082
 30
0.0
 10
3.184722264607747
 20
2.056944105360243
 30
0.0
 10
3.200000127156575
 20
2.094444274902344
 30
0.0
 10
3.211111068725586
 20
2.134721967909071
 30
0.0
 10
3.219444486829969
 20
2.179166158040364
 30
0.0
 10
3.224999957614475
 20
2.218054877387153
 30
0.0
 10
3.230555640326606
 20
2.259721544053819
 30
0.0
 10
3.234722349378798
 20
2.305555131700304
 30
0.0
 10
3.238889058430989
 20
2.349999745686849
 30
0.0
 10
3.243055767483181
 20
2.397221883138021
 30
0.0
 10
3.244444529215495
 20
2.444444020589192
 30
0.0
 10
3.247222264607747
 20
2.491666158040364
 30
0.0
 10
3.248611238267686
 20
2.538888507419162
 30
0.0
 10
3.25
 20
2.587499618530273
 30
0.0
 10
3.251388973659939
 20
2.634721755981445
 30
0.0
 10
3.252777735392252
 20
2.680555131700304
 30
0.0
 10
3.254166709052192
 20
2.724999533759223
 30
0.0
 10
3.255555682712131
 20
2.75416628519694
 30
0.0
 10
3.255555682712131
 20
2.781944062974718
 30
0.0
 10
3.256944444444444
 20
2.808332867092556
 30
0.0
 10
3.258333418104383
 20
2.834721671210395
 30
0.0
 10
3.258333418104383
 20
2.85972171359592
 30
0.0
 10
3.259722179836697
 20
2.883332782321506
 30
0.0
 10
3.259722179836697
 20
2.884722179836697
 30
0.0
 10
3.255555470784505
 20
2.888888888888889
 30
0.0
 10
3.245833290947808
 20
2.891666624281141
 30
0.0
  0
HATCH
  5
58
330
53
100
AcDbEntity
  8
Calque 1
 62
     7
420
 16777215
100
AcDbHatch
 10
0.0
 20
0.0
 30
0.0
210
0.0
220
0.0
230
1.0
  2
SOLID
 70
     1
 71
     0
 91
        1
 92
        1
 93
        1
 72
     4
 94
        3
 73
     0
 74
     1
 95
      179
 96
      175
 40
0.0
 40
0.0
 40
0.0
 40
0.0
 40
1.0
 40
1.0
 40
1.0
 40
2.0
 40
2.0
 40
2.0
 40
3.0
 40
3.0
 40
3.0
 40
4.0
 40
4.0
 40
4.0
 40
5.0
 40
5.0
 40
5.0
 40
6.0
 40
6.0
 40
6.0
 40
7.0
 40
7.0
 40
7.0
 40
8.0
 40
8.0
 40
8.0
 40
9.0
 40
9.0
 40
9.0
 40
10.0
 40
10.0
 40
10.0
 40
11.0
 40
11.0
 40
11.0
 40
12.0
 40
12.0
 40
12.0
 40
13.0
 40
13.0
 40
13.0
 40
14.0
 40
14.0
 40
14.0
 40
15.0
 40
15.0
 40
15.0
 40
16.0
 40
16.0
 40
16.0
 40
17.0
 40
17.0
 40
17.0
 40
18.0
 40
18.0
 40
18.0
 40
19.0
 40
19.0
 40
19.0
 40
20.0
 40
20.0
 40
20.0
 40
21.0
 40
21.0
 40
21.0
 40
22.0
 40
22.0
 40
22.0
 40
23.0
 40
23.0
 40
23.0
 40
24.0
 40
24.0
 40
24.0
 40
25.0
 40
25.0
 40
25.0
 40
26.0
 40
26.0
 40
26.0
 40
27.0
 40
27.0
 40
27.0
 40
28.0
 40
28.0
 40
28.0
 40
29.0
 40
29.0
 40
29.0
 40
30.0
 40
30.0
 40
30.0
 40
31.0
 40
31.0
 40
31.0
 40
32.0
 40
32.0
 40
32.0
 40
33.0
 40
33.0
 40
33.0
 40
34.0
 40
34.0
 40
34.0
 40
35.0
 40
35.0
 40
35.0
 40
36.0
 40
36.0
 40
36.0
 40
37.0
 40
37.0
 40
37.0
 40
38.0
 40
38.0
 40
38.0
 40
39.0
 40
39.0
 40
39.0
 40
40.0
 40
40.0
 40
40.0
 40
41.0
 40
41.0
 40
41.0
 40
42.0
 40
42.0
 40
42.0
 40
43.0
 40
43.0
 40
43.0
 40
44.0
 40
44.0
 40
44.0
 40
45.0
 40
45.0
 40
45.0
 40
46.0
 40
46.0
 40
46.0
 40
47.0
 40
47.0
 40
47.0
 40
48.0
 40
48.0
 40
48.0
 40
49.0
 40
49.0
 40
49.0
 40
50.0
 40
50.0
 40
50.0
 40
51.0
 40
51.0
 40
51.0
 40
52.0
 40
52.0
 40
52.0
 40
53.0
 40
53.0
 40
53.0
 40
54.0
 40
54.0
 40
54.0
 40
55.0
 40
55.0
 40
55.0
 40
56.0
 40
56.0
 40
56.0
 40
57.0
 40
57.0
 40
57.0
 40
58.0
 40
58.0
 40
58.0
 40
58.0
 10
3.245833290947808
 20
2.891666624281141
 10
3.237499872843424
 20
2.894444359673394
 10
3.226388931274414
 20
2.895833333333333
 10
3.215277777777778
 20
2.895833333333333
 10
3.204166624281141
 20
2.895833333333333
 10
3.194444444444444
 20
2.895833333333333
 10
3.184722264607747
 20
2.894444359673394
 10
3.17500008477105
 20
2.893055386013455
 10
3.170833375718858
 20
2.888888888888889
 10
3.169444402058919
 20
2.883333206176758
 10
3.16805542839898
 20
2.766666624281141
 10
3.161110983954535
 20
2.66805542839898
 10
3.148611068725586
 20
2.587499830457899
 10
3.13749991522895
 20
2.506944232516819
 10
3.122222264607747
 20
2.441666497124566
 10
3.10555542839898
 20
2.390277438693576
 10
3.088888804117838
 20
2.338888380262587
 10
3.069444232516819
 20
2.298610687255859
 10
3.049999872843424
 20
2.272221883138021
 10
3.03055551317003
 20
2.244444105360243
 10
3.009722179836697
 20
2.224999745686849
 10
2.990277608235677
 20
2.212499830457899
 10
2.970833248562283
 20
2.19999991522895
 10
2.952777650621202
 20
2.194444444444444
 10
2.937499788072374
 20
2.193055470784505
 10
2.920833163791233
 20
2.191666497124566
 10
2.908333036634657
 20
2.191666497124566
 10
2.899999830457899
 20
2.193055470784505
 10
2.86805534362793
 20
2.197221967909071
 10
2.841666539510091
 20
2.213888804117838
 10
2.822221967909071
 20
2.244444529215495
 10
2.802777608235677
 20
2.275000254313151
 10
2.786110772026909
 20
2.313888973659939
 10
2.774999830457899
 20
2.359722137451172
 10
2.763888676961263
 20
2.405555301242404
 10
2.755555470784505
 20
2.455555386013455
 10
2.751388761732313
 20
2.508333206176758
 10
2.747222052680121
 20
2.562499788072374
 10
2.744444317287869
 20
2.613888846503364
 10
2.744444317287869
 20
2.663888719346788
 10
2.744444317287869
 20
2.709722095065647
 10
2.745833290947808
 20
2.752777523464627
 10
2.749999788072374
 20
2.791666454739041
 10
2.752777523464627
 20
2.830555386013455
 10
2.755555258856879
 20
2.858333163791233
 10
2.758333206176758
 20
2.877777523464627
 10
2.756944232516819
 20
2.881944232516819
 10
2.752777735392252
 20
2.88611094156901
 10
2.74305534362793
 20
2.887499703301323
 10
2.734721925523546
 20
2.890277438693576
 10
2.724999745686849
 20
2.890277438693576
 10
2.713888592190213
 20
2.890277438693576
 10
2.702777438693576
 20
2.890277438693576
 10
2.693055258856879
 20
2.888888465033637
 10
2.683333079020182
 20
2.887499703301323
 10
2.673610899183485
 20
2.886110729641385
 10
2.669444190131293
 20
2.883332994249132
 10
2.668055216471354
 20
2.87916628519694
 10
2.668055216471354
 20
2.87916628519694
 10
2.668055216471354
 20
2.883332994249132
 10
2.668055216471354
 20
2.883332994249132
 10
2.665277481079102
 20
2.843055301242404
 10
2.662499745686849
 20
2.805555131700304
 10
2.662499745686849
 20
2.769444147745768
 10
2.661110772026909
 20
2.733332951863606
 10
2.661110772026909
 20
2.699999703301323
 10
2.661110772026909
 20
2.668055216471354
 10
2.661110772026909
 20
2.584721883138021
 10
2.665277481079102
 20
2.513888465033637
 10
2.672221925523546
 20
2.455555174085829
 10
2.68055534362793
 20
2.395832909478081
 10
2.690277523464627
 20
2.347221798366971
 10
2.702777438693576
 20
2.306944105360243
 10
2.715277353922526
 20
2.266666412353516
 10
2.730555216471354
 20
2.23472171359592
 10
2.747221840752495
 20
2.209721883138021
 10
2.763888465033637
 20
2.184722052680121
 10
2.780555089314778
 20
2.166666242811415
 10
2.797221925523546
 20
2.152777353922526
 10
2.813888549804688
 20
2.138888465033637
 10
2.830555174085829
 20
2.130555046929254
 10
2.845833036634657
 20
2.124999576144748
 10
2.861110899183485
 20
2.119444105360243
 10
2.874999788072374
 20
2.116666158040364
 10
2.887499703301323
 20
2.115277184380425
 10
2.947221967909071
 20
2.106943766276042
 10
2.997221840752495
 20
2.115277184380425
 10
3.040277481079102
 20
2.140277014838325
 10
3.081944147745768
 20
2.165276845296224
 10
3.11666636996799
 20
2.198610517713758
 10
3.143055174085829
 20
2.243054707845052
 10
3.14166620042589
 20
2.233332316080729
 10
3.138888465033637
 20
2.224999321831597
 10
3.137499703301323
 20
2.216665903727213
 10
3.136110729641384
 20
2.209721459282769
 10
3.134721967909071
 20
2.201388041178385
 10
3.131944232516819
 20
2.191666073269314
 10
3.120833079020182
 20
2.141665988498264
 10
3.108333163791233
 20
2.099999321831597
 10
3.093055301242404
 20
2.069444020589192
 10
3.077777438693576
 20
2.038888295491536
 10
3.061110814412435
 20
2.013888465033637
 10
3.043055216471354
 20
1.99722162882487
 10
3.024999618530273
 20
1.980554792616102
 10
3.005555258856879
 20
1.968054877387153
 10
2.984721925523546
 20
1.962499406602648
 10
2.965277565850152
 20
1.956943935818142
 10
2.944444232516819
 20
1.952777014838325
 10
2.924999660915799
 20
1.951388465033637
 10
2.899999618530273
 20
1.951388465033637
 10
2.874999576144748
 20
1.954166412353516
 10
2.849999745686849
 20
1.96111085679796
 10
2.824999703301323
 20
1.968055301242404
 10
2.808333079020182
 20
1.979166242811415
 10
2.797221925523546
 20
1.994444105360243
 10
2.790277481079102
 20
1.998610602484809
 10
2.781944062974718
 20
1.999999576144748
 10
2.772221883138021
 20
1.995833079020182
 10
2.762499703301323
 20
1.993055131700304
 10
2.752777523464627
 20
1.987499660915798
 10
2.745833079020182
 20
1.981944190131293
 10
2.737499660915799
 20
1.976388719346788
 10
2.730555216471354
 20
1.969444274902344
 10
2.726388719346788
 20
1.962499830457899
 10
2.720833248562283
 20
1.955555386013455
 10
2.720833248562283
 20
1.94999991522895
 10
2.723610983954535
 20
1.947221967909071
 10
2.723610983954535
 20
1.947221967909071
 10
2.722222222222222
 20
1.947221967909071
 10
2.722222222222222
 20
1.947221967909071
 10
2.733333375718858
 20
1.930555131700304
 10
2.748611026340061
 20
1.916666242811415
 10
2.766666624281141
 20
1.906944274902344
 10
2.784722222222222
 20
1.897221883138021
 10
2.802777820163303
 20
1.890277438693576
 10
2.822222179836697
 20
1.884721967909071
 10
2.841666539510091
 20
1.879166497124566
 10
2.859722137451172
 20
1.876388549804688
 10
2.879166709052192
 20
1.873611026340061
 10
2.897222306993272
 20
1.872222052680121
 10
2.913888931274414
 20
1.870833079020182
 10
2.927777820163303
 20
1.870833079020182
 10
2.969444486829969
 20
1.872222052680121
 10
3.006944444444444
 20
1.880555470784505
 10
3.040277904934353
 20
1.895832909478081
 10
3.073611153496636
 20
1.912499745686849
 10
3.101388931274414
 20
1.933333079020182
 10
3.126388973659939
 20
1.96111085679796
 10
3.150000042385525
 20
1.988888634575738
 10
3.169444613986545
 20
2.020832909478082
 10
3.184722264607747
 20
2.056944105360243
 10
3.200000127156575
 20
2.094444274902344
 10
3.211111068725586
 20
2.134721967909071
 10
3.219444486829969
 20
2.179166158040364
 10
3.224999957614475
 20
2.218054877387153
 10
3.230555640326606
 20
2.259721544053819
 10
3.234722349378798
 20
2.305555131700304
 10
3.238889058430989
 20
2.349999745686849
 10
3.243055767483181
 20
2.397221883138021
 10
3.244444529215495
 20
2.444444020589192
 10
3.247222264607747
 20
2.491666158040364
 10
3.248611238267686
 20
2.538888507419162
 10
3.25
 20
2.587499618530273
 10
3.251388973659939
 20
2.634721755981445
 10
3.252777735392252
 20
2.680555131700304
 10
3.254166709052192
 20
2.724999533759223
 10
3.255555682712131
 20
2.75416628519694
 10
3.255555682712131
 20
2.781944062974718
 10
3.256944444444444
 20
2.808332867092556
 10
3.258333418104383
 20
2.834721671210395
 10
3.258333418104383
 20
2.85972171359592
 10
3.259722179836697
 20
2.883332782321506
 10
3.259722179836697
 20
2.884722179836697
 10
3.255555470784505
 20
2.888888888888889
 10
3.245833290947808
 20
2.891666624281141
 97
        0
 97
        0
 75
     2
 76
     1
 98
        0
  0
SPLINE
  5
59
330
53
100
AcDbEntity
  8
Calque 1
370
     0
100
AcDbSpline
210
0.0
220
0.0
230
1.0
 70
    11
 71
     3
 72
    62
 73
    58
 74
     0
 42
0.0000000001
 43
0.0000000001
 12
1.0
 22
0.0
 32
0.0
 13
1.0
 23
0.0
 33
0.0
 40
0.0
 40
0.0
 40
0.0
 40
0.0
 40
1.0
 40
1.0
 40
1.0
 40
2.0
 40
2.0
 40
2.0
 40
3.0
 40
3.0
 40
3.0
 40
4.0
 40
4.0
 40
4.0
 40
5.0
 40
5.0
 40
5.0
 40
6.0
 40
6.0
 40
6.0
 40
7.0
 40
7.0
 40
7.0
 40
8.0
 40
8.0
 40
8.0
 40
9.0
 40
9.0
 40
9.0
 40
10.0
 40
10.0
 40
10.0
 40
11.0
 40
11.0
 40
11.0
 40
12.0
 40
12.0
 40
12.0
 40
13.0
 40
13.0
 40
13.0
 40
14.0
 40
14.0
 40
14.0
 40
15.0
 40
15.0
 40
15.0
 40
16.0
 40
16.0
 40
16.0
 40
17.0
 40
17.0
 40
17.0
 40
18.0
 40
18.0
 40
18.0
 40
19.0
 40
19.0
 40
19.0
 40
19.0
 10
3.484722137451172
 20
2.855555640326606
 30
0.0
 10
3.48055542839898
 20
2.873611238267686
 30
0.0
 10
3.477777693006727
 20
2.887500127156575
 30
0.0
 10
3.474999957614475
 20
2.897222306993272
 30
0.0
 10
3.472222222222222
 20
2.901389016045464
 30
0.0
 10
3.465277777777778
 20
2.902777777777778
 30
0.0
 10
3.456944359673394
 20
2.904166751437717
 30
0.0
 10
3.447222179836697
 20
2.905555725097656
 30
0.0
 10
3.4375
 20
2.905555725097656
 30
0.0
 10
3.427777608235677
 20
2.904166751437717
 30
0.0
 10
3.41805542839898
 20
2.902777777777778
 30
0.0
 10
3.408333248562283
 20
2.898611280653212
 30
0.0
 10
3.399999830457899
 20
2.893055597941081
 30
0.0
 10
3.391666412353516
 20
2.887500127156575
 30
0.0
 10
3.388888676961263
 20
2.880555682712131
 30
0.0
 10
3.390277650621202
 20
2.870833290947808
 30
0.0
 10
3.390277650621202
 20
2.870833290947808
 30
0.0
 10
3.388888676961263
 20
2.872222264607747
 30
0.0
 10
3.388888676961263
 20
2.872222264607747
 30
0.0
 10
3.393055386013454
 20
2.866666793823242
 30
0.0
 10
3.395833121405707
 20
2.855555640326606
 30
0.0
 10
3.399999830457899
 20
2.841666751437717
 30
0.0
 10
3.402777565850152
 20
2.827777862548828
 30
0.0
 10
3.405555301242404
 20
2.818055682712131
 30
0.0
 10
3.405555301242404
 20
2.8125
 30
0.0
 10
3.405555301242404
 20
2.808333290947808
 30
0.0
 10
3.404166327582465
 20
2.804166581895616
 30
0.0
 10
3.402777565850152
 20
2.798611111111111
 30
0.0
 10
3.401388592190212
 20
2.793055640326606
 30
0.0
 10
3.39861085679796
 20
2.787499957614475
 30
0.0
 10
3.393055386013454
 20
2.781944486829969
 30
0.0
 10
3.393055386013454
 20
2.781944486829969
 30
0.0
 10
3.394444359673394
 20
2.781944486829969
 30
0.0
 10
3.394444359673394
 20
2.781944486829969
 30
0.0
 10
3.390277650621202
 20
2.776389016045464
 30
0.0
 10
3.391666624281141
 20
2.770833333333333
 30
0.0
 10
3.397222095065647
 20
2.763888888888889
 30
0.0
 10
3.402777565850152
 20
2.756944444444444
 30
0.0
 10
3.411110983954535
 20
2.751388973659939
 30
0.0
 10
3.420833163791233
 20
2.745833290947808
 30
0.0
 10
3.43055534362793
 20
2.740277820163303
 30
0.0
 10
3.440277523464626
 20
2.737499872843424
 30
0.0
 10
3.44999991522895
 20
2.736111111111111
 30
0.0
 10
3.459722095065647
 20
2.734722137451172
 30
0.0
 10
3.466666539510091
 20
2.73750008477105
 30
0.0
 10
3.470833248562283
 20
2.743055555555555
 30
0.0
 10
3.470833248562283
 20
2.743055555555555
 30
0.0
 10
3.470833248562283
 20
2.744444529215495
 30
0.0
 10
3.470833248562283
 20
2.744444529215495
 30
0.0
 10
3.476388719346788
 20
2.754166709052192
 30
0.0
 10
3.481944402058919
 20
2.765277862548828
 30
0.0
 10
3.486111111111111
 20
2.776389016045464
 30
0.0
 10
3.490277820163303
 20
2.788888931274414
 30
0.0
 10
3.491666581895616
 20
2.801389058430989
 30
0.0
 10
3.491666581895616
 20
2.813888973659939
 30
0.0
 10
3.490277820163303
 20
2.823611153496636
 30
0.0
 10
3.488888846503364
 20
2.837500042385525
 30
0.0
 10
3.484722137451172
 20
2.855555640326606
 30
0.0
  0
HATCH
  5
5A
330
53
100
AcDbEntity
  8
Calque 1
 62
     7
420
 16777215
100
AcDbHatch
 10
0.0
 20
0.0
 30
0.0
210
0.0
220
0.0
230
1.0
  2
SOLID
 70
     1
 71
     0
 91
        1
 92
        1
 93
        1
 72
     4
 94
        3
 73
     0
 74
     1
 95
       62
 96
       58
 40
0.0
 40
0.0
 40
0.0
 40
0.0
 40
1.0
 40
1.0
 40
1.0
 40
2.0
 40
2.0
 40
2.0
 40
3.0
 40
3.0
 40
3.0
 40
4.0
 40
4.0
 40
4.0
 40
5.0
 40
5.0
 40
5.0
 40
6.0
 40
6.0
 40
6.0
 40
7.0
 40
7.0
 40
7.0
 40
8.0
 40
8.0
 40
8.0
 40
9.0
 40
9.0
 40
9.0
 40
10.0
 40
10.0
 40
10.0
 40
11.0
 40
11.0
 40
11.0
 40
12.0
 40
12.0
 40
12.0
 40
13.0
 40
13.0
 40
13.0
 40
14.0
 40
14.0
 40
14.0
 40
15.0
 40
15.0
 40
15.0
 40
16.0
 40
16.0
 40
16.0
 40
17.0
 40
17.0
 40
17.0
 40
18.0
 40
18.0
 40
18.0
 40
19.0
 40
19.0
 40
19.0
 40
19.0
 10
3.484722137451172
 20
2.855555640326606
 10
3.48055542839898
 20
2.873611238267686
 10
3.477777693006727
 20
2.887500127156575
 10
3.474999957614475
 20
2.897222306993272
 10
3.472222222222222
 20
2.901389016045464
 10
3.465277777777778
 20
2.902777777777778
 10
3.456944359673394
 20
2.904166751437717
 10
3.447222179836697
 20
2.905555725097656
 10
3.4375
 20
2.905555725097656
 10
3.427777608235677
 20
2.904166751437717
 10
3.41805542839898
 20
2.902777777777778
 10
3.408333248562283
 20
2.898611280653212
 10
3.399999830457899
 20
2.893055597941081
 10
3.391666412353516
 20
2.887500127156575
 10
3.388888676961263
 20
2.880555682712131
 10
3.390277650621202
 20
2.870833290947808
 10
3.390277650621202
 20
2.870833290947808
 10
3.388888676961263
 20
2.872222264607747
 10
3.388888676961263
 20
2.872222264607747
 10
3.393055386013454
 20
2.866666793823242
 10
3.395833121405707
 20
2.855555640326606
 10
3.399999830457899
 20
2.841666751437717
 10
3.402777565850152
 20
2.827777862548828
 10
3.405555301242404
 20
2.818055682712131
 10
3.405555301242404
 20
2.8125
 10
3.405555301242404
 20
2.808333290947808
 10
3.404166327582465
 20
2.804166581895616
 10
3.402777565850152
 20
2.798611111111111
 10
3.401388592190212
 20
2.793055640326606
 10
3.39861085679796
 20
2.787499957614475
 10
3.393055386013454
 20
2.781944486829969
 10
3.393055386013454
 20
2.781944486829969
 10
3.394444359673394
 20
2.781944486829969
 10
3.394444359673394
 20
2.781944486829969
 10
3.390277650621202
 20
2.776389016045464
 10
3.391666624281141
 20
2.770833333333333
 10
3.397222095065647
 20
2.763888888888889
 10
3.402777565850152
 20
2.756944444444444
 10
3.411110983954535
 20
2.751388973659939
 10
3.420833163791233
 20
2.745833290947808
 10
3.43055534362793
 20
2.740277820163303
 10
3.440277523464626
 20
2.737499872843424
 10
3.44999991522895
 20
2.736111111111111
 10
3.459722095065647
 20
2.734722137451172
 10
3.466666539510091
 20
2.73750008477105
 10
3.470833248562283
 20
2.743055555555555
 10
3.470833248562283
 20
2.743055555555555
 10
3.470833248562283
 20
2.744444529215495
 10
3.470833248562283
 20
2.744444529215495
 10
3.476388719346788
 20
2.754166709052192
 10
3.481944402058919
 20
2.765277862548828
 10
3.486111111111111
 20
2.776389016045464
 10
3.490277820163303
 20
2.788888931274414
 10
3.491666581895616
 20
2.801389058430989
 10
3.491666581895616
 20
2.813888973659939
 10
3.490277820163303
 20
2.823611153496636
 10
3.488888846503364
 20
2.837500042385525
 10
3.484722137451172
 20
2.855555640326606
 97
        0
 97
        0
 75
     2
 76
     1
 98
        0
  0
SPLINE
  5
5B
330
53
100
AcDbEntity
  8
Calque 1
370
     0
100
AcDbSpline
210
0.0
220
0.0
230
1.0
 70
    11
 71
     3
 72
    83
 73
    79
 74
     0
 42
0.0000000001
 43
0.0000000001
 12
1.0
 22
0.0
 32
0.0
 13
1.0
 23
0.0
 33
0.0
 40
0.0
 40
0.0
 40
0.0
 40
0.0
 40
1.0
 40
1.0
 40
1.0
 40
2.0
 40
2.0
 40
2.0
 40
3.0
 40
3.0
 40
3.0
 40
4.0
 40
4.0
 40
4.0
 40
5.0
 40
5.0
 40
5.0
 40
6.0
 40
6.0
 40
6.0
 40
7.0
 40
7.0
 40
7.0
 40
8.0
 40
8.0
 40
8.0
 40
9.0
 40
9.0
 40
9.0
 40
10.0
 40
10.0
 40
10.0
 40
11.0
 40
11.0
 40
11.0
 40
12.0
 40
12.0
 40
12.0
 40
13.0
 40
13.0
 40
13.0
 40
14.0
 40
14.0
 40
14.0
 40
15.0
 40
15.0
 40
15.0
 40
16.0
 40
16.0
 40
16.0
 40
17.0
 40
17.0
 40
17.0
 40
18.0
 40
18.0
 40
18.0
 40
19.0
 40
19.0
 40
19.0
 40
20.0
 40
20.0
 40
20.0
 40
21.0
 40
21.0
 40
21.0
 40
22.0
 40
22.0
 40
22.0
 40
23.0
 40
23.0
 40
23.0
 40
24.0
 40
24.0
 40
24.0
 40
25.0
 40
25.0
 40
25.0
 40
26.0
 40
26.0
 40
26.0
 40
26.0
 10
4.116666581895617
 20
2.884722179836697
 30
0.0
 10
4.116666581895617
 20
2.888888888888889
 30
0.0
 10
4.11250008477105
 20
2.893055597941081
 30
0.0
 10
4.105555640326606
 20
2.895833333333333
 30
0.0
 10
4.097222222222222
 20
2.898611068725586
 30
0.0
 10
4.088888804117838
 20
2.900000042385525
 30
0.0
 10
4.079166836208767
 20
2.900000042385525
 30
0.0
 10
4.069444444444445
 20
2.900000042385525
 30
0.0
 10
4.059722476535373
 20
2.900000042385525
 30
0.0
 10
4.05000008477105
 20
2.898611068725586
 30
0.0
 10
4.040277693006727
 20
2.897222095065647
 30
0.0
 10
4.034722222222222
 20
2.894444359673394
 30
0.0
 10
4.031944698757595
 20
2.890277650621202
 30
0.0
 10
3.984722561306423
 20
2.916666454739041
 30
0.0
 10
3.936111450195312
 20
2.927777608235677
 30
0.0
 10
3.884722391764323
 20
2.923610899183485
 30
0.0
 10
3.831944783528646
 20
2.919444190131293
 30
0.0
 10
3.786111195882161
 20
2.908333036634657
 30
0.0
 10
3.745833502875434
 20
2.887499703301323
 30
0.0
 10
3.706944783528646
 20
2.86666636996799
 30
0.0
 10
3.672222561306423
 20
2.840277565850152
 30
0.0
 10
3.643055809868706
 20
2.808333079020182
 30
0.0
 10
3.613889058430989
 20
2.776388592190213
 30
0.0
 10
3.58888922797309
 20
2.740277608235677
 30
0.0
 10
3.569444868299696
 20
2.699999703301323
 30
0.0
 10
3.550000508626302
 20
2.659722010294596
 30
0.0
 10
3.534722646077474
 20
2.61805534362793
 30
0.0
 10
3.522222730848524
 20
2.576388676961263
 30
0.0
 10
3.511111577351888
 20
2.534722010294596
 30
0.0
 10
3.50277837117513
 20
2.49166636996799
 30
0.0
 10
3.497222688462999
 20
2.449999703301323
 30
0.0
 10
3.491667217678494
 20
2.408332824707031
 30
0.0
 10
3.490278244018555
 20
2.369444105360243
 30
0.0
 10
3.490278244018555
 20
2.333332909478081
 30
0.0
 10
3.490278244018555
 20
2.306944105360243
 30
0.0
 10
3.491667217678494
 20
2.277777353922526
 30
0.0
 10
3.494444953070746
 20
2.245833079020182
 30
0.0
 10
3.497222688462999
 20
2.212499830457899
 30
0.0
 10
3.50277837117513
 20
2.179166581895616
 30
0.0
 10
3.511111577351888
 20
2.145832909478082
 30
0.0
 10
3.519444995456272
 20
2.111110687255859
 30
0.0
 10
3.529167175292969
 20
2.077777438693576
 30
0.0
 10
3.543056064181858
 20
2.045832739935981
 30
0.0
 10
3.556944953070746
 20
2.012499491373698
 30
0.0
 10
3.573611789279514
 20
1.983332739935981
 30
0.0
 10
3.594445122612847
 20
1.958332909478081
 30
0.0
 10
3.61527845594618
 20
1.933333079020182
 30
0.0
 10
3.640278286404079
 20
1.912499745686849
 30
0.0
 10
3.669445037841797
 20
1.897221883138021
 30
0.0
 10
3.698611789279514
 20
1.881944020589193
 30
0.0
 10
3.733334011501736
 20
1.873610602484809
 30
0.0
 10
3.772222730848524
 20
1.873610602484809
 30
0.0
 10
3.831944783528646
 20
1.873610602484809
 30
0.0
 10
3.883333841959635
 20
1.888888465033637
 30
0.0
 10
3.926389482286241
 20
1.920832739935981
 30
0.0
 10
3.969445122612847
 20
1.951388465033637
 30
0.0
 10
4.006944868299696
 20
1.993055131700304
 30
0.0
 10
4.038889567057291
 20
2.043054792616102
 30
0.0
 10
4.038889567057291
 20
2.043054792616102
 30
0.0
 10
4.037500593397352
 20
1.911110348171658
 30
0.0
 10
4.037500593397352
 20
1.911110348171658
 30
0.0
 10
4.037500593397352
 20
1.904165903727213
 30
0.0
 10
4.041667090521918
 20
1.899999406602648
 30
0.0
 10
4.051389482286242
 20
1.897221459282769
 30
0.0
 10
4.061111874050564
 20
1.894443511962891
 30
0.0
 10
4.070833841959635
 20
1.894443511962891
 30
0.0
 10
4.083333757188585
 20
1.89583248562283
 30
0.0
 10
4.094444698757595
 20
1.897221459282769
 30
0.0
 10
4.105556064181857
 20
1.899998982747396
 30
0.0
 10
4.115278032090929
 20
1.902776930067274
 30
0.0
 10
4.125000423855251
 20
1.905554877387153
 30
0.0
 10
4.129166920979817
 20
1.908332400851779
 30
0.0
 10
4.129166920979817
 20
1.911110348171658
 30
0.0
 10
4.127777947319879
 20
2.073610517713758
 30
0.0
 10
4.126388973659939
 20
2.236110263400608
 30
0.0
 10
4.125000423855251
 20
2.398610432942708
 30
0.0
 10
4.120833502875434
 20
2.558333290947808
 30
0.0
 10
4.119444529215494
 20
2.720833248562283
 30
0.0
 10
4.116666581895617
 20
2.884722179836697
 30
0.0
  0
SPLINE
  5
5C
330
53
100
AcDbEntity
  8
Calque 1
370
     0
100
AcDbSpline
210
0.0
220
0.0
230
1.0
 70
    11
 71
     3
 72
    77
 73
    73
 74
     0
 42
0.0000000001
 43
0.0000000001
 12
1.0
 22
0.0
 32
0.0
 13
1.0
 23
0.0
 33
0.0
 40
0.0
 40
0.0
 40
0.0
 40
0.0
 40
1.0
 40
1.0
 40
1.0
 40
2.0
 40
2.0
 40
2.0
 40
3.0
 40
3.0
 40
3.0
 40
4.0
 40
4.0
 40
4.0
 40
5.0
 40
5.0
 40
5.0
 40
6.0
 40
6.0
 40
6.0
 40
7.0
 40
7.0
 40
7.0
 40
8.0
 40
8.0
 40
8.0
 40
9.0
 40
9.0
 40
9.0
 40
10.0
 40
10.0
 40
10.0
 40
11.0
 40
11.0
 40
11.0
 40
12.0
 40
12.0
 40
12.0
 40
13.0
 40
13.0
 40
13.0
 40
14.0
 40
14.0
 40
14.0
 40
15.0
 40
15.0
 40
15.0
 40
16.0
 40
16.0
 40
16.0
 40
17.0
 40
17.0
 40
17.0
 40
18.0
 40
18.0
 40
18.0
 40
19.0
 40
19.0
 40
19.0
 40
20.0
 40
20.0
 40
20.0
 40
21.0
 40
21.0
 40
21.0
 40
22.0
 40
22.0
 40
22.0
 40
23.0
 40
23.0
 40
23.0
 40
24.0
 40
24.0
 40
24.0
 40
24.0
 10
4.031944274902344
 20
2.38611094156901
 30
0.0
 10
4.030555301242404
 20
2.351388719346788
 30
0.0
 10
4.029166327582465
 20
2.319444444444444
 30
0.0
 10
4.026388804117838
 20
2.288888719346788
 30
0.0
 10
4.02361085679796
 20
2.258332994249132
 30
0.0
 10
4.019444359673394
 20
2.230555216471354
 30
0.0
 10
4.015277862548828
 20
2.205555386013455
 30
0.0
 10
4.011111365424262
 20
2.180555555555555
 30
0.0
 10
4.005555470784505
 20
2.159722222222222
 30
0.0
 10
4.0
 20
2.143055386013455
 30
0.0
 10
3.98750008477105
 20
2.119444105360243
 30
0.0
 10
3.973611195882161
 20
2.095833248562283
 30
0.0
 10
3.958333333333333
 20
2.072221967909071
 30
0.0
 10
3.943055470784505
 20
2.048610687255859
 30
0.0
 10
3.927777608235677
 20
2.027777353922526
 30
0.0
 10
3.908333248562283
 20
2.009721967909071
 30
0.0
 10
3.890277862548828
 20
1.991666581895616
 30
0.0
 10
3.869444529215495
 20
1.976388719346788
 30
0.0
 10
3.845833248562283
 20
1.965277353922526
 30
0.0
 10
3.822221967909071
 20
1.954166412353516
 30
0.0
 10
3.795833163791233
 20
1.948610517713758
 30
0.0
 10
3.766666412353516
 20
1.948610517713758
 30
0.0
 10
3.741666581895616
 20
1.948610517713758
 30
0.0
 10
3.719444274902344
 20
1.955554962158203
 30
0.0
 10
3.701388465033637
 20
1.968054877387153
 30
0.0
 10
3.683333079020182
 20
1.981943766276042
 30
0.0
 10
3.666666242811415
 20
1.998610602484809
 30
0.0
 10
3.652777353922526
 20
2.019443935818142
 30
0.0
 10
3.638888465033637
 20
2.040277269151475
 30
0.0
 10
3.626388549804688
 20
2.065277099609375
 30
0.0
 10
3.618055131700304
 20
2.091666327582465
 30
0.0
 10
3.608332739935981
 20
2.119444105360243
 30
0.0
 10
3.601388295491536
 20
2.145832909478082
 30
0.0
 10
3.595832824707031
 20
2.174999660915799
 30
0.0
 10
3.590277353922526
 20
2.202777438693576
 30
0.0
 10
3.586110432942708
 20
2.230555216471354
 30
0.0
 10
3.583332909478081
 20
2.256944020589192
 30
0.0
 10
3.580554962158203
 20
2.283332824707031
 30
0.0
 10
3.579166412353516
 20
2.306944105360243
 30
0.0
 10
3.579166412353516
 20
2.327777438693576
 30
0.0
 10
3.579166412353516
 20
2.358333163791233
 30
0.0
 10
3.581944359673394
 20
2.391666412353516
 30
0.0
 10
3.58611085679796
 20
2.427777608235677
 30
0.0
 10
3.590277353922526
 20
2.465277565850152
 30
0.0
 10
3.59722179836697
 20
2.502777523464627
 30
0.0
 10
3.608333163791233
 20
2.541666454739041
 30
0.0
 10
3.618055555555555
 20
2.580555386013455
 30
0.0
 10
3.631944444444444
 20
2.61805534362793
 30
0.0
 10
3.647221883138021
 20
2.654166539510091
 30
0.0
 10
3.663888719346788
 20
2.690277735392252
 30
0.0
 10
3.683333079020182
 20
2.722222010294596
 30
0.0
 10
3.706943935818142
 20
2.749999788072374
 30
0.0
 10
3.730555216471354
 20
2.777777565850152
 30
0.0
 10
3.758332994249132
 20
2.799999872843424
 30
0.0
 10
3.791666242811415
 20
2.816666497124566
 30
0.0
 10
3.823610517713758
 20
2.833333121405707
 30
0.0
 10
3.861110687255859
 20
2.841666539510091
 30
0.0
 10
3.901388380262587
 20
2.841666539510091
 30
0.0
 10
3.929166158040364
 20
2.840277565850152
 30
0.0
 10
3.952777438693576
 20
2.834722095065647
 30
0.0
 10
3.97222179836697
 20
2.82499991522895
 30
0.0
 10
3.991666158040364
 20
2.813888761732313
 30
0.0
 10
4.011110517713758
 20
2.799999872843424
 30
0.0
 10
4.027777353922525
 20
2.781944274902344
 30
0.0
 10
4.029166327582465
 20
2.737499872843424
 30
0.0
 10
4.031943851047092
 20
2.690277523464627
 30
0.0
 10
4.033332824707031
 20
2.641666412353516
 30
0.0
 10
4.03472179836697
 20
2.591666327582465
 30
0.0
 10
4.03611077202691
 20
2.541666454739041
 30
0.0
 10
4.03611077202691
 20
2.487499660915799
 30
0.0
 10
4.033333248562283
 20
2.455555597941081
 30
0.0
 10
4.033333248562283
 20
2.420833163791233
 30
0.0
 10
4.031944274902344
 20
2.38611094156901
 30
0.0
  0
HATCH
  5
5D
330
53
100
AcDbEntity
  8
Calque 1
 62
     7
420
 16777215
100
AcDbHatch
 10
0.0
 20
0.0
 30
0.0
210
0.0
220
0.0
230
1.0
  2
SOLID
 70
     1
 71
     0
 91
        2
 92
        1
 93
        1
 72
     4
 94
        3
 73
     0
 74
     1
 95
       83
 96
       79
 40
0.0
 40
0.0
 40
0.0
 40
0.0
 40
1.0
 40
1.0
 40
1.0
 40
2.0
 40
2.0
 40
2.0
 40
3.0
 40
3.0
 40
3.0
 40
4.0
 40
4.0
 40
4.0
 40
5.0
 40
5.0
 40
5.0
 40
6.0
 40
6.0
 40
6.0
 40
7.0
 40
7.0
 40
7.0
 40
8.0
 40
8.0
 40
8.0
 40
9.0
 40
9.0
 40
9.0
 40
10.0
 40
10.0
 40
10.0
 40
11.0
 40
11.0
 40
11.0
 40
12.0
 40
12.0
 40
12.0
 40
13.0
 40
13.0
 40
13.0
 40
14.0
 40
14.0
 40
14.0
 40
15.0
 40
15.0
 40
15.0
 40
16.0
 40
16.0
 40
16.0
 40
17.0
 40
17.0
 40
17.0
 40
18.0
 40
18.0
 40
18.0
 40
19.0
 40
19.0
 40
19.0
 40
20.0
 40
20.0
 40
20.0
 40
21.0
 40
21.0
 40
21.0
 40
22.0
 40
22.0
 40
22.0
 40
23.0
 40
23.0
 40
23.0
 40
24.0
 40
24.0
 40
24.0
 40
25.0
 40
25.0
 40
25.0
 40
26.0
 40
26.0
 40
26.0
 40
26.0
 10
4.116666581895617
 20
2.884722179836697
 10
4.116666581895617
 20
2.888888888888889
 10
4.11250008477105
 20
2.893055597941081
 10
4.105555640326606
 20
2.895833333333333
 10
4.097222222222222
 20
2.898611068725586
 10
4.088888804117838
 20
2.900000042385525
 10
4.079166836208767
 20
2.900000042385525
 10
4.069444444444445
 20
2.900000042385525
 10
4.059722476535373
 20
2.900000042385525
 10
4.05000008477105
 20
2.898611068725586
 10
4.040277693006727
 20
2.897222095065647
 10
4.034722222222222
 20
2.894444359673394
 10
4.031944698757595
 20
2.890277650621202
 10
3.984722561306423
 20
2.916666454739041
 10
3.936111450195312
 20
2.927777608235677
 10
3.884722391764323
 20
2.923610899183485
 10
3.831944783528646
 20
2.919444190131293
 10
3.786111195882161
 20
2.908333036634657
 10
3.745833502875434
 20
2.887499703301323
 10
3.706944783528646
 20
2.86666636996799
 10
3.672222561306423
 20
2.840277565850152
 10
3.643055809868706
 20
2.808333079020182
 10
3.613889058430989
 20
2.776388592190213
 10
3.58888922797309
 20
2.740277608235677
 10
3.569444868299696
 20
2.699999703301323
 10
3.550000508626302
 20
2.659722010294596
 10
3.534722646077474
 20
2.61805534362793
 10
3.522222730848524
 20
2.576388676961263
 10
3.511111577351888
 20
2.534722010294596
 10
3.50277837117513
 20
2.49166636996799
 10
3.497222688462999
 20
2.449999703301323
 10
3.491667217678494
 20
2.408332824707031
 10
3.490278244018555
 20
2.369444105360243
 10
3.490278244018555
 20
2.333332909478081
 10
3.490278244018555
 20
2.306944105360243
 10
3.491667217678494
 20
2.277777353922526
 10
3.494444953070746
 20
2.245833079020182
 10
3.497222688462999
 20
2.212499830457899
 10
3.50277837117513
 20
2.179166581895616
 10
3.511111577351888
 20
2.145832909478082
 10
3.519444995456272
 20
2.111110687255859
 10
3.529167175292969
 20
2.077777438693576
 10
3.543056064181858
 20
2.045832739935981
 10
3.556944953070746
 20
2.012499491373698
 10
3.573611789279514
 20
1.983332739935981
 10
3.594445122612847
 20
1.958332909478081
 10
3.61527845594618
 20
1.933333079020182
 10
3.640278286404079
 20
1.912499745686849
 10
3.669445037841797
 20
1.897221883138021
 10
3.698611789279514
 20
1.881944020589193
 10
3.733334011501736
 20
1.873610602484809
 10
3.772222730848524
 20
1.873610602484809
 10
3.831944783528646
 20
1.873610602484809
 10
3.883333841959635
 20
1.888888465033637
 10
3.926389482286241
 20
1.920832739935981
 10
3.969445122612847
 20
1.951388465033637
 10
4.006944868299696
 20
1.993055131700304
 10
4.038889567057291
 20
2.043054792616102
 10
4.038889567057291
 20
2.043054792616102
 10
4.037500593397352
 20
1.911110348171658
 10
4.037500593397352
 20
1.911110348171658
 10
4.037500593397352
 20
1.904165903727213
 10
4.041667090521918
 20
1.899999406602648
 10
4.051389482286242
 20
1.897221459282769
 10
4.061111874050564
 20
1.894443511962891
 10
4.070833841959635
 20
1.894443511962891
 10
4.083333757188585
 20
1.89583248562283
 10
4.094444698757595
 20
1.897221459282769
 10
4.105556064181857
 20
1.899998982747396
 10
4.115278032090929
 20
1.902776930067274
 10
4.125000423855251
 20
1.905554877387153
 10
4.129166920979817
 20
1.908332400851779
 10
4.129166920979817
 20
1.911110348171658
 10
4.127777947319879
 20
2.073610517713758
 10
4.126388973659939
 20
2.236110263400608
 10
4.125000423855251
 20
2.398610432942708
 10
4.120833502875434
 20
2.558333290947808
 10
4.119444529215494
 20
2.720833248562283
 10
4.116666581895617
 20
2.884722179836697
 97
        0
 97
        0
 92
        1
 93
        1
 72
     4
 94
        3
 73
     0
 74
     1
 95
       77
 96
       73
 40
0.0
 40
0.0
 40
0.0
 40
0.0
 40
1.0
 40
1.0
 40
1.0
 40
2.0
 40
2.0
 40
2.0
 40
3.0
 40
3.0
 40
3.0
 40
4.0
 40
4.0
 40
4.0
 40
5.0
 40
5.0
 40
5.0
 40
6.0
 40
6.0
 40
6.0
 40
7.0
 40
7.0
 40
7.0
 40
8.0
 40
8.0
 40
8.0
 40
9.0
 40
9.0
 40
9.0
 40
10.0
 40
10.0
 40
10.0
 40
11.0
 40
11.0
 40
11.0
 40
12.0
 40
12.0
 40
12.0
 40
13.0
 40
13.0
 40
13.0
 40
14.0
 40
14.0
 40
14.0
 40
15.0
 40
15.0
 40
15.0
 40
16.0
 40
16.0
 40
16.0
 40
17.0
 40
17.0
 40
17.0
 40
18.0
 40
18.0
 40
18.0
 40
19.0
 40
19.0
 40
19.0
 40
20.0
 40
20.0
 40
20.0
 40
21.0
 40
21.0
 40
21.0
 40
22.0
 40
22.0
 40
22.0
 40
23.0
 40
23.0
 40
23.0
 40
24.0
 40
24.0
 40
24.0
 40
24.0
 10
4.031944274902344
 20
2.38611094156901
 10
4.030555301242404
 20
2.351388719346788
 10
4.029166327582465
 20
2.319444444444444
 10
4.026388804117838
 20
2.288888719346788
 10
4.02361085679796
 20
2.258332994249132
 10
4.019444359673394
 20
2.230555216471354
 10
4.015277862548828
 20
2.205555386013455
 10
4.011111365424262
 20
2.180555555555555
 10
4.005555470784505
 20
2.159722222222222
 10
4.0
 20
2.143055386013455
 10
3.98750008477105
 20
2.119444105360243
 10
3.973611195882161
 20
2.095833248562283
 10
3.958333333333333
 20
2.072221967909071
 10
3.943055470784505
 20
2.048610687255859
 10
3.927777608235677
 20
2.027777353922526
 10
3.908333248562283
 20
2.009721967909071
 10
3.890277862548828
 20
1.991666581895616
 10
3.869444529215495
 20
1.976388719346788
 10
3.845833248562283
 20
1.965277353922526
 10
3.822221967909071
 20
1.954166412353516
 10
3.795833163791233
 20
1.948610517713758
 10
3.766666412353516
 20
1.948610517713758
 10
3.741666581895616
 20
1.948610517713758
 10
3.719444274902344
 20
1.955554962158203
 10
3.701388465033637
 20
1.968054877387153
 10
3.683333079020182
 20
1.981943766276042
 10
3.666666242811415
 20
1.998610602484809
 10
3.652777353922526
 20
2.019443935818142
 10
3.638888465033637
 20
2.040277269151475
 10
3.626388549804688
 20
2.065277099609375
 10
3.618055131700304
 20
2.091666327582465
 10
3.608332739935981
 20
2.119444105360243
 10
3.601388295491536
 20
2.145832909478082
 10
3.595832824707031
 20
2.174999660915799
 10
3.590277353922526
 20
2.202777438693576
 10
3.586110432942708
 20
2.230555216471354
 10
3.583332909478081
 20
2.256944020589192
 10
3.580554962158203
 20
2.283332824707031
 10
3.579166412353516
 20
2.306944105360243
 10
3.579166412353516
 20
2.327777438693576
 10
3.579166412353516
 20
2.358333163791233
 10
3.581944359673394
 20
2.391666412353516
 10
3.58611085679796
 20
2.427777608235677
 10
3.590277353922526
 20
2.465277565850152
 10
3.59722179836697
 20
2.502777523464627
 10
3.608333163791233
 20
2.541666454739041
 10
3.618055555555555
 20
2.580555386013455
 10
3.631944444444444
 20
2.61805534362793
 10
3.647221883138021
 20
2.654166539510091
 10
3.663888719346788
 20
2.690277735392252
 10
3.683333079020182
 20
2.722222010294596
 10
3.706943935818142
 20
2.749999788072374
 10
3.730555216471354
 20
2.777777565850152
 10
3.758332994249132
 20
2.799999872843424
 10
3.791666242811415
 20
2.816666497124566
 10
3.823610517713758
 20
2.833333121405707
 10
3.861110687255859
 20
2.841666539510091
 10
3.901388380262587
 20
2.841666539510091
 10
3.929166158040364
 20
2.840277565850152
 10
3.952777438693576
 20
2.834722095065647
 10
3.97222179836697
 20
2.82499991522895
 10
3.991666158040364
 20
2.813888761732313
 10
4.011110517713758
 20
2.799999872843424
 10
4.027777353922525
 20
2.781944274902344
 10
4.029166327582465
 20
2.737499872843424
 10
4.031943851047092
 20
2.690277523464627
 10
4.033332824707031
 20
2.641666412353516
 10
4.03472179836697
 20
2.591666327582465
 10
4.03611077202691
 20
2.541666454739041
 10
4.03611077202691
 20
2.487499660915799
 10
4.033333248562283
 20
2.455555597941081
 10
4.033333248562283
 20
2.420833163791233
 10
4.031944274902344
 20
2.38611094156901
 97
        0
 97
        0
 75
     2
 76
     1
 98
        0
  0
SPLINE
  5
5E
330
53
100
AcDbEntity
  8
Calque 1
370
     0
100
AcDbSpline
210
0.0
220
0.0
230
1.0
 70
    11
 71
     3
 72
    71
 73
    67
 74
     0
 42
0.0000000001
 43
0.0000000001
 12
1.0
 22
0.0
 32
0.0
 13
1.0
 23
0.0
 33
0.0
 40
0.0
 40
0.0
 40
0.0
 40
0.0
 40
1.0
 40
1.0
 40
1.0
 40
2.0
 40
2.0
 40
2.0
 40
3.0
 40
3.0
 40
3.0
 40
4.0
 40
4.0
 40
4.0
 40
5.0
 40
5.0
 40
5.0
 40
6.0
 40
6.0
 40
6.0
 40
7.0
 40
7.0
 40
7.0
 40
8.0
 40
8.0
 40
8.0
 40
9.0
 40
9.0
 40
9.0
 40
10.0
 40
10.0
 40
10.0
 40
11.0
 40
11.0
 40
11.0
 40
12.0
 40
12.0
 40
12.0
 40
13.0
 40
13.0
 40
13.0
 40
14.0
 40
14.0
 40
14.0
 40
15.0
 40
15.0
 40
15.0
 40
16.0
 40
16.0
 40
16.0
 40
17.0
 40
17.0
 40
17.0
 40
18.0
 40
18.0
 40
18.0
 40
19.0
 40
19.0
 40
19.0
 40
20.0
 40
20.0
 40
20.0
 40
21.0
 40
21.0
 40
21.0
 40
22.0
 40
22.0
 40
22.0
 40
22.0
 10
4.491666581895616
 20
1.951388888888889
 30
0.0
 10
4.456944359673394
 20
1.951388888888889
 30
0.0
 10
4.423611111111111
 20
1.951388888888889
 30
0.0
 10
4.390277862548828
 20
1.952777862548828
 30
0.0
 10
4.356944613986545
 20
1.954166836208767
 30
0.0
 10
4.322222391764322
 20
1.954166836208767
 30
0.0
 10
4.28888914320204
 20
1.954166836208767
 30
0.0
 10
4.287500169542101
 20
2.113889058430989
 30
0.0
 10
4.286111195882161
 20
2.269444783528646
 30
0.0
 10
4.284722646077474
 20
2.420833587646484
 30
0.0
 10
4.283333672417535
 20
2.572222391764323
 30
0.0
 10
4.281944698757595
 20
2.727778116861979
 30
0.0
 10
4.280556148952908
 20
2.887500339084201
 30
0.0
 10
4.280556148952908
 20
2.890278074476454
 30
0.0
 10
4.276389651828342
 20
2.893055809868706
 30
0.0
 10
4.266667260064019
 20
2.894444783528646
 30
0.0
 10
4.258333841959635
 20
2.895833757188585
 30
0.0
 10
4.247222900390625
 20
2.897222518920898
 30
0.0
 10
4.236111534966363
 20
2.897222518920898
 30
0.0
 10
4.225000593397352
 20
2.897222518920898
 30
0.0
 10
4.215278201633029
 20
2.897222518920898
 30
0.0
 10
4.205555809868707
 20
2.895833545260959
 30
0.0
 10
4.197222391764322
 20
2.89444457160102
 30
0.0
 10
4.193055894639757
 20
2.891666836208767
 30
0.0
 10
4.193055894639757
 20
2.888889100816515
 30
0.0
 10
4.193055894639757
 20
2.888889100816515
 30
0.0
 10
4.198611365424262
 20
1.911111195882161
 30
0.0
 10
4.198611365424262
 20
1.911111195882161
 30
0.0
 10
4.198611365424262
 20
1.901388804117838
 30
0.0
 10
4.200000339084201
 20
1.894444359673394
 30
0.0
 10
4.202777862548828
 20
1.888888888888889
 30
0.0
 10
4.205555809868707
 20
1.883333418104383
 30
0.0
 10
4.209722306993273
 20
1.880555470784505
 30
0.0
 10
4.213888804117838
 20
1.877777947319878
 30
0.0
 10
4.219444274902344
 20
1.876388973659939
 30
0.0
 10
4.223611195882161
 20
1.875
 30
0.0
 10
4.230555640326606
 20
1.875
 30
0.0
 10
4.236111111111111
 20
1.875
 30
0.0
 10
4.241666581895617
 20
1.875
 30
0.0
 10
4.24861102634006
 20
1.875
 30
0.0
 10
4.24861102634006
 20
1.875
 30
0.0
 10
4.252777523464626
 20
1.875
 30
0.0
 10
4.252777523464626
 20
1.875
 30
0.0
 10
4.268055386013454
 20
1.875
 30
0.0
 10
4.28472179836697
 20
1.875
 30
0.0
 10
4.305555131700304
 20
1.875
 30
0.0
 10
4.326388465033637
 20
1.875
 30
0.0
 10
4.34722179836697
 20
1.875
 30
0.0
 10
4.368055131700304
 20
1.875
 30
0.0
 10
4.388888465033637
 20
1.875
 30
0.0
 10
4.41111077202691
 20
1.875
 30
0.0
 10
4.431944105360243
 20
1.875
 30
0.0
 10
4.452777438693576
 20
1.875
 30
0.0
 10
4.470832824707031
 20
1.875
 30
0.0
 10
4.48472171359592
 20
1.875
 30
0.0
 10
4.486110687255859
 20
1.876388973659939
 30
0.0
 10
4.488888210720486
 20
1.881944444444444
 30
0.0
 10
4.490277184380425
 20
1.890277862548828
 30
0.0
 10
4.491666158040364
 20
1.898611280653212
 30
0.0
 10
4.493055131700303
 20
1.906944698757595
 30
0.0
 10
4.494443681504991
 20
1.916666666666667
 30
0.0
 10
4.494443681504991
 20
1.92638905843099
 30
0.0
 10
4.494443681504991
 20
1.934722052680121
 30
0.0
 10
4.494443681504991
 20
1.943055470784505
 30
0.0
 10
4.497222052680121
 20
1.947222391764323
 30
0.0
 10
4.494444529215494
 20
1.951388888888889
 30
0.0
 10
4.491666581895616
 20
1.951388888888889
 30
0.0
  0
HATCH
  5
5F
330
53
100
AcDbEntity
  8
Calque 1
 62
     7
420
 16777215
100
AcDbHatch
 10
0.0
 20
0.0
 30
0.0
210
0.0
220
0.0
230
1.0
  2
SOLID
 70
     1
 71
     0
 91
        1
 92
        1
 93
        1
 72
     4
 94
        3
 73
     0
 74
     1
 95
       71
 96
       67
 40
0.0
 40
0.0
 40
0.0
 40
0.0
 40
1.0
 40
1.0
 40
1.0
 40
2.0
 40
2.0
 40
2.0
 40
3.0
 40
3.0
 40
3.0
 40
4.0
 40
4.0
 40
4.0
 40
5.0
 40
5.0
 40
5.0
 40
6.0
 40
6.0
 40
6.0
 40
7.0
 40
7.0
 40
7.0
 40
8.0
 40
8.0
 40
8.0
 40
9.0
 40
9.0
 40
9.0
 40
10.0
 40
10.0
 40
10.0
 40
11.0
 40
11.0
 40
11.0
 40
12.0
 40
12.0
 40
12.0
 40
13.0
 40
13.0
 40
13.0
 40
14.0
 40
14.0
 40
14.0
 40
15.0
 40
15.0
 40
15.0
 40
16.0
 40
16.0
 40
16.0
 40
17.0
 40
17.0
 40
17.0
 40
18.0
 40
18.0
 40
18.0
 40
19.0
 40
19.0
 40
19.0
 40
20.0
 40
20.0
 40
20.0
 40
21.0
 40
21.0
 40
21.0
 40
22.0
 40
22.0
 40
22.0
 40
22.0
 10
4.491666581895616
 20
1.951388888888889
 10
4.456944359673394
 20
1.951388888888889
 10
4.423611111111111
 20
1.951388888888889
 10
4.390277862548828
 20
1.952777862548828
 10
4.356944613986545
 20
1.954166836208767
 10
4.322222391764322
 20
1.954166836208767
 10
4.28888914320204
 20
1.954166836208767
 10
4.287500169542101
 20
2.113889058430989
 10
4.286111195882161
 20
2.269444783528646
 10
4.284722646077474
 20
2.420833587646484
 10
4.283333672417535
 20
2.572222391764323
 10
4.281944698757595
 20
2.727778116861979
 10
4.280556148952908
 20
2.887500339084201
 10
4.280556148952908
 20
2.890278074476454
 10
4.276389651828342
 20
2.893055809868706
 10
4.266667260064019
 20
2.894444783528646
 10
4.258333841959635
 20
2.895833757188585
 10
4.247222900390625
 20
2.897222518920898
 10
4.236111534966363
 20
2.897222518920898
 10
4.225000593397352
 20
2.897222518920898
 10
4.215278201633029
 20
2.897222518920898
 10
4.205555809868707
 20
2.895833545260959
 10
4.197222391764322
 20
2.89444457160102
 10
4.193055894639757
 20
2.891666836208767
 10
4.193055894639757
 20
2.888889100816515
 10
4.193055894639757
 20
2.888889100816515
 10
4.198611365424262
 20
1.911111195882161
 10
4.198611365424262
 20
1.911111195882161
 10
4.198611365424262
 20
1.901388804117838
 10
4.200000339084201
 20
1.894444359673394
 10
4.202777862548828
 20
1.888888888888889
 10
4.205555809868707
 20
1.883333418104383
 10
4.209722306993273
 20
1.880555470784505
 10
4.213888804117838
 20
1.877777947319878
 10
4.219444274902344
 20
1.876388973659939
 10
4.223611195882161
 20
1.875
 10
4.230555640326606
 20
1.875
 10
4.236111111111111
 20
1.875
 10
4.241666581895617
 20
1.875
 10
4.24861102634006
 20
1.875
 10
4.24861102634006
 20
1.875
 10
4.252777523464626
 20
1.875
 10
4.252777523464626
 20
1.875
 10
4.268055386013454
 20
1.875
 10
4.28472179836697
 20
1.875
 10
4.305555131700304
 20
1.875
 10
4.326388465033637
 20
1.875
 10
4.34722179836697
 20
1.875
 10
4.368055131700304
 20
1.875
 10
4.388888465033637
 20
1.875
 10
4.41111077202691
 20
1.875
 10
4.431944105360243
 20
1.875
 10
4.452777438693576
 20
1.875
 10
4.470832824707031
 20
1.875
 10
4.48472171359592
 20
1.875
 10
4.486110687255859
 20
1.876388973659939
 10
4.488888210720486
 20
1.881944444444444
 10
4.490277184380425
 20
1.890277862548828
 10
4.491666158040364
 20
1.898611280653212
 10
4.493055131700303
 20
1.906944698757595
 10
4.494443681504991
 20
1.916666666666667
 10
4.494443681504991
 20
1.92638905843099
 10
4.494443681504991
 20
1.934722052680121
 10
4.494443681504991
 20
1.943055470784505
 10
4.497222052680121
 20
1.947222391764323
 10
4.494444529215494
 20
1.951388888888889
 10
4.491666581895616
 20
1.951388888888889
 97
        0
 97
        0
 75
     2
 76
     1
 98
        0
  0
SPLINE
  5
60
330
53
100
AcDbEntity
  8
Calque 1
370
     0
100
AcDbSpline
210
0.0
220
0.0
230
1.0
 70
    11
 71
     3
 72
    71
 73
    67
 74
     0
 42
0.0000000001
 43
0.0000000001
 12
1.0
 22
0.0
 32
0.0
 13
1.0
 23
0.0
 33
0.0
 40
0.0
 40
0.0
 40
0.0
 40
0.0
 40
1.0
 40
1.0
 40
1.0
 40
2.0
 40
2.0
 40
2.0
 40
3.0
 40
3.0
 40
3.0
 40
4.0
 40
4.0
 40
4.0
 40
5.0
 40
5.0
 40
5.0
 40
6.0
 40
6.0
 40
6.0
 40
7.0
 40
7.0
 40
7.0
 40
8.0
 40
8.0
 40
8.0
 40
9.0
 40
9.0
 40
9.0
 40
10.0
 40
10.0
 40
10.0
 40
11.0
 40
11.0
 40
11.0
 40
12.0
 40
12.0
 40
12.0
 40
13.0
 40
13.0
 40
13.0
 40
14.0
 40
14.0
 40
14.0
 40
15.0
 40
15.0
 40
15.0
 40
16.0
 40
16.0
 40
16.0
 40
17.0
 40
17.0
 40
17.0
 40
18.0
 40
18.0
 40
18.0
 40
19.0
 40
19.0
 40
19.0
 40
20.0
 40
20.0
 40
20.0
 40
21.0
 40
21.0
 40
21.0
 40
22.0
 40
22.0
 40
22.0
 40
22.0
 10
4.875
 20
1.938888973659939
 30
0.0
 10
4.875
 20
1.947222391764323
 30
0.0
 10
4.872222052680121
 20
1.951388888888889
 30
0.0
 10
4.869444529215494
 20
1.951388888888889
 30
0.0
 10
4.834722306993272
 20
1.951388888888889
 30
0.0
 10
4.801389058430989
 20
1.951388888888889
 30
0.0
 10
4.768055809868707
 20
1.952777862548828
 30
0.0
 10
4.734722561306423
 20
1.954166836208767
 30
0.0
 10
4.700000339084201
 20
1.954166836208767
 30
0.0
 10
4.666667090521918
 20
1.954166836208767
 30
0.0
 10
4.665278116861979
 20
2.113889058430989
 30
0.0
 10
4.66388914320204
 20
2.269444783528646
 30
0.0
 10
4.662500593397352
 20
2.420833587646484
 30
0.0
 10
4.661111619737413
 20
2.572222391764323
 30
0.0
 10
4.659722646077474
 20
2.727778116861979
 30
0.0
 10
4.658334096272786
 20
2.887500339084201
 30
0.0
 10
4.658334096272786
 20
2.890278074476454
 30
0.0
 10
4.65416759914822
 20
2.893055809868706
 30
0.0
 10
4.645834181043837
 20
2.894444783528646
 30
0.0
 10
4.637500762939453
 20
2.895833757188585
 30
0.0
 10
4.626389821370442
 20
2.897222518920898
 30
0.0
 10
4.61527845594618
 20
2.897222518920898
 30
0.0
 10
4.60416751437717
 20
2.897222518920898
 30
0.0
 10
4.594445122612847
 20
2.897222518920898
 30
0.0
 10
4.584722730848524
 20
2.895833545260959
 30
0.0
 10
4.576389312744141
 20
2.89444457160102
 30
0.0
 10
4.572222815619575
 20
2.891666836208767
 30
0.0
 10
4.572222815619575
 20
2.888889100816515
 30
0.0
 10
4.572222815619575
 20
2.888889100816515
 30
0.0
 10
4.577778286404079
 20
1.911111195882161
 30
0.0
 10
4.577778286404079
 20
1.911111195882161
 30
0.0
 10
4.577778286404079
 20
1.901388804117838
 30
0.0
 10
4.579167260064019
 20
1.894444359673394
 30
0.0
 10
4.581944783528646
 20
1.888888888888889
 30
0.0
 10
4.584722730848524
 20
1.883333418104383
 30
0.0
 10
4.58888922797309
 20
1.880555470784505
 30
0.0
 10
4.593055725097656
 20
1.877777947319878
 30
0.0
 10
4.597222222222222
 20
1.876388973659939
 30
0.0
 10
4.602778116861979
 20
1.875
 30
0.0
 10
4.609722561306423
 20
1.875
 30
0.0
 10
4.615278032090928
 20
1.875
 30
0.0
 10
4.620833502875434
 20
1.875
 30
0.0
 10
4.627777947319879
 20
1.875
 30
0.0
 10
4.627777947319879
 20
1.875
 30
0.0
 10
4.631944444444444
 20
1.875
 30
0.0
 10
4.631944444444444
 20
1.875
 30
0.0
 10
4.647222306993272
 20
1.875
 30
0.0
 10
4.663888719346788
 20
1.875
 30
0.0
 10
4.684722052680121
 20
1.875
 30
0.0
 10
4.705555386013454
 20
1.875
 30
0.0
 10
4.726388719346788
 20
1.875
 30
0.0
 10
4.747222052680121
 20
1.875
 30
0.0
 10
4.768055386013454
 20
1.875
 30
0.0
 10
4.790277693006727
 20
1.875
 30
0.0
 10
4.81111102634006
 20
1.875
 30
0.0
 10
4.831944359673394
 20
1.875
 30
0.0
 10
4.849999745686849
 20
1.875
 30
0.0
 10
4.863888634575738
 20
1.875
 30
0.0
 10
4.865277608235677
 20
1.876388973659939
 30
0.0
 10
4.868055131700303
 20
1.881944444444444
 30
0.0
 10
4.869444105360243
 20
1.890277862548828
 30
0.0
 10
4.870833079020182
 20
1.898611280653212
 30
0.0
 10
4.872222052680121
 20
1.906944698757595
 30
0.0
 10
4.873610602484809
 20
1.916666666666667
 30
0.0
 10
4.875
 20
1.922222137451172
 30
0.0
 10
4.875
 20
1.931944529215495
 30
0.0
 10
4.875
 20
1.938888973659939
 30
0.0
  0
HATCH
  5
61
330
53
100
AcDbEntity
  8
Calque 1
 62
     7
420
 16777215
100
AcDbHatch
 10
0.0
 20
0.0
 30
0.0
210
0.0
220
0.0
230
1.0
  2
SOLID
 70
     1
 71
     0
 91
        1
 92
        1
 93
        1
 72
     4
 94
        3
 73
     0
 74
     1
 95
       71
 96
       67
 40
0.0
 40
0.0
 40
0.0
 40
0.0
 40
1.0
 40
1.0
 40
1.0
 40
2.0
 40
2.0
 40
2.0
 40
3.0
 40
3.0
 40
3.0
 40
4.0
 40
4.0
 40
4.0
 40
5.0
 40
5.0
 40
5.0
 40
6.0
 40
6.0
 40
6.0
 40
7.0
 40
7.0
 40
7.0
 40
8.0
 40
8.0
 40
8.0
 40
9.0
 40
9.0
 40
9.0
 40
10.0
 40
10.0
 40
10.0
 40
11.0
 40
11.0
 40
11.0
 40
12.0
 40
12.0
 40
12.0
 40
13.0
 40
13.0
 40
13.0
 40
14.0
 40
14.0
 40
14.0
 40
15.0
 40
15.0
 40
15.0
 40
16.0
 40
16.0
 40
16.0
 40
17.0
 40
17.0
 40
17.0
 40
18.0
 40
18.0
 40
18.0
 40
19.0
 40
19.0
 40
19.0
 40
20.0
 40
20.0
 40
20.0
 40
21.0
 40
21.0
 40
21.0
 40
22.0
 40
22.0
 40
22.0
 40
22.0
 10
4.875
 20
1.938888973659939
 10
4.875
 20
1.947222391764323
 10
4.872222052680121
 20
1.951388888888889
 10
4.869444529215494
 20
1.951388888888889
 10
4.834722306993272
 20
1.951388888888889
 10
4.801389058430989
 20
1.951388888888889
 10
4.768055809868707
 20
1.952777862548828
 10
4.734722561306423
 20
1.954166836208767
 10
4.700000339084201
 20
1.954166836208767
 10
4.666667090521918
 20
1.954166836208767
 10
4.665278116861979
 20
2.113889058430989
 10
4.66388914320204
 20
2.269444783528646
 10
4.662500593397352
 20
2.420833587646484
 10
4.661111619737413
 20
2.572222391764323
 10
4.659722646077474
 20
2.727778116861979
 10
4.658334096272786
 20
2.887500339084201
 10
4.658334096272786
 20
2.890278074476454
 10
4.65416759914822
 20
2.893055809868706
 10
4.645834181043837
 20
2.894444783528646
 10
4.637500762939453
 20
2.895833757188585
 10
4.626389821370442
 20
2.897222518920898
 10
4.61527845594618
 20
2.897222518920898
 10
4.60416751437717
 20
2.897222518920898
 10
4.594445122612847
 20
2.897222518920898
 10
4.584722730848524
 20
2.895833545260959
 10
4.576389312744141
 20
2.89444457160102
 10
4.572222815619575
 20
2.891666836208767
 10
4.572222815619575
 20
2.888889100816515
 10
4.572222815619575
 20
2.888889100816515
 10
4.577778286404079
 20
1.911111195882161
 10
4.577778286404079
 20
1.911111195882161
 10
4.577778286404079
 20
1.901388804117838
 10
4.579167260064019
 20
1.894444359673394
 10
4.581944783528646
 20
1.888888888888889
 10
4.584722730848524
 20
1.883333418104383
 10
4.58888922797309
 20
1.880555470784505
 10
4.593055725097656
 20
1.877777947319878
 10
4.597222222222222
 20
1.876388973659939
 10
4.602778116861979
 20
1.875
 10
4.609722561306423
 20
1.875
 10
4.615278032090928
 20
1.875
 10
4.620833502875434
 20
1.875
 10
4.627777947319879
 20
1.875
 10
4.627777947319879
 20
1.875
 10
4.631944444444444
 20
1.875
 10
4.631944444444444
 20
1.875
 10
4.647222306993272
 20
1.875
 10
4.663888719346788
 20
1.875
 10
4.684722052680121
 20
1.875
 10
4.705555386013454
 20
1.875
 10
4.726388719346788
 20
1.875
 10
4.747222052680121
 20
1.875
 10
4.768055386013454
 20
1.875
 10
4.790277693006727
 20
1.875
 10
4.81111102634006
 20
1.875
 10
4.831944359673394
 20
1.875
 10
4.849999745686849
 20
1.875
 10
4.863888634575738
 20
1.875
 10
4.865277608235677
 20
1.876388973659939
 10
4.868055131700303
 20
1.881944444444444
 10
4.869444105360243
 20
1.890277862548828
 10
4.870833079020182
 20
1.898611280653212
 10
4.872222052680121
 20
1.906944698757595
 10
4.873610602484809
 20
1.916666666666667
 10
4.875
 20
1.922222137451172
 10
4.875
 20
1.931944529215495
 10
4.875
 20
1.938888973659939
 97
        0
 97
        0
 75
     2
 76
     1
 98
        0
  0
ENDBLK
  5
56
330
53
100
AcDbEntity
  8
0
100
AcDbBlockEnd
  0
BLOCK
  5
64
330
62
100
AcDbEntity
  8
0
100
AcDbBlockBegin
  2
block 5
 70
     0
 10
0.0
 20
0.0
 30
0.0
  3
block 5
  1

  0
SPLINE
  5
66
330
62
100
AcDbEntity
  8
Calque 1
370
     0
100
AcDbSpline
210
0.0
220
0.0
230
1.0
 70
    11
 71
     3
 72
   224
 73
   220
 74
     0
 42
0.0000000001
 43
0.0000000001
 12
1.0
 22
0.0
 32
0.0
 13
1.0
 23
0.0
 33
0.0
 40
0.0
 40
0.0
 40
0.0
 40
0.0
 40
1.0
 40
1.0
 40
1.0
 40
2.0
 40
2.0
 40
2.0
 40
3.0
 40
3.0
 40
3.0
 40
4.0
 40
4.0
 40
4.0
 40
5.0
 40
5.0
 40
5.0
 40
6.0
 40
6.0
 40
6.0
 40
7.0
 40
7.0
 40
7.0
 40
8.0
 40
8.0
 40
8.0
 40
9.0
 40
9.0
 40
9.0
 40
10.0
 40
10.0
 40
10.0
 40
11.0
 40
11.0
 40
11.0
 40
12.0
 40
12.0
 40
12.0
 40
13.0
 40
13.0
 40
13.0
 40
14.0
 40
14.0
 40
14.0
 40
15.0
 40
15.0
 40
15.0
 40
16.0
 40
16.0
 40
16.0
 40
17.0
 40
17.0
 40
17.0
 40
18.0
 40
18.0
 40
18.0
 40
19.0
 40
19.0
 40
19.0
 40
20.0
 40
20.0
 40
20.0
 40
21.0
 40
21.0
 40
21.0
 40
22.0
 40
22.0
 40
22.0
 40
23.0
 40
23.0
 40
23.0
 40
24.0
 40
24.0
 40
24.0
 40
25.0
 40
25.0
 40
25.0
 40
26.0
 40
26.0
 40
26.0
 40
27.0
 40
27.0
 40
27.0
 40
28.0
 40
28.0
 40
28.0
 40
29.0
 40
29.0
 40
29.0
 40
30.0
 40
30.0
 40
30.0
 40
31.0
 40
31.0
 40
31.0
 40
32.0
 40
32.0
 40
32.0
 40
33.0
 40
33.0
 40
33.0
 40
34.0
 40
34.0
 40
34.0
 40
35.0
 40
35.0
 40
35.0
 40
36.0
 40
36.0
 40
36.0
 40
37.0
 40
37.0
 40
37.0
 40
38.0
 40
38.0
 40
38.0
 40
39.0
 40
39.0
 40
39.0
 40
40.0
 40
40.0
 40
40.0
 40
41.0
 40
41.0
 40
41.0
 40
42.0
 40
42.0
 40
42.0
 40
43.0
 40
43.0
 40
43.0
 40
44.0
 40
44.0
 40
44.0
 40
45.0
 40
45.0
 40
45.0
 40
46.0
 40
46.0
 40
46.0
 40
47.0
 40
47.0
 40
47.0
 40
48.0
 40
48.0
 40
48.0
 40
49.0
 40
49.0
 40
49.0
 40
50.0
 40
50.0
 40
50.0
 40
51.0
 40
51.0
 40
51.0
 40
52.0
 40
52.0
 40
52.0
 40
53.0
 40
53.0
 40
53.0
 40
54.0
 40
54.0
 40
54.0
 40
55.0
 40
55.0
 40
55.0
 40
56.0
 40
56.0
 40
56.0
 40
57.0
 40
57.0
 40
57.0
 40
58.0
 40
58.0
 40
58.0
 40
59.0
 40
59.0
 40
59.0
 40
60.0
 40
60.0
 40
60.0
 40
61.0
 40
61.0
 40
61.0
 40
62.0
 40
62.0
 40
62.0
 40
63.0
 40
63.0
 40
63.0
 40
64.0
 40
64.0
 40
64.0
 40
65.0
 40
65.0
 40
65.0
 40
66.0
 40
66.0
 40
66.0
 40
67.0
 40
67.0
 40
67.0
 40
68.0
 40
68.0
 40
68.0
 40
69.0
 40
69.0
 40
69.0
 40
70.0
 40
70.0
 40
70.0
 40
71.0
 40
71.0
 40
71.0
 40
72.0
 40
72.0
 40
72.0
 40
73.0
 40
73.0
 40
73.0
 40
73.0
 10
2.476388931274414
 20
2.388888888888889
 30
0.0
 10
2.472222222222222
 20
2.379166497124566
 30
0.0
 10
2.462500042385525
 20
2.372222052680121
 30
0.0
 10
2.452777862548828
 20
2.377777947319878
 30
0.0
 10
2.458333333333333
 20
2.336111280653212
 30
0.0
 10
2.419444613986545
 20
2.383333418104383
 30
0.0
 10
2.406944486829969
 20
2.381944444444444
 30
0.0
 10
2.395833333333333
 20
2.380555470784505
 30
0.0
 10
2.368055555555555
 20
2.377777947319878
 30
0.0
 10
2.354166666666667
 20
2.375
 30
0.0
 10
2.36250008477105
 20
2.356944613986545
 30
0.0
 10
2.369444529215495
 20
2.338888804117838
 30
0.0
 10
2.375
 20
2.320833418104383
 30
0.0
 10
2.344444486829969
 20
2.333333333333333
 30
0.0
 10
2.311111026340061
 20
2.427778032090929
 30
0.0
 10
2.275000042385525
 20
2.359722137451172
 30
0.0
 10
2.20694457160102
 20
2.368055555555555
 30
0.0
 10
2.25
 20
2.345833248562283
 30
0.0
 10
2.272222306993272
 20
2.309722052680121
 30
0.0
 10
2.222222222222222
 20
2.299999660915799
 30
0.0
 10
2.226388931274414
 20
2.395833333333333
 30
0.0
 10
2.150000042385525
 20
2.349999745686849
 30
0.0
 10
2.120833290947808
 20
2.331944359673394
 30
0.0
 10
2.150000042385525
 20
2.308333079020182
 30
0.0
 10
2.168055640326606
 20
2.295833163791233
 30
0.0
 10
2.1875
 20
2.281944274902344
 30
0.0
 10
2.197222391764323
 20
2.238888634575738
 30
0.0
 10
2.165277904934353
 20
2.266666412353516
 30
0.0
 10
2.122222264607747
 20
2.302777608235677
 30
0.0
 10
2.133333418104383
 20
2.347221798366971
 30
0.0
 10
2.065277947319879
 20
2.348610772026909
 30
0.0
 10
2.034722434149848
 20
2.349999745686849
 30
0.0
 10
2.062500211927626
 20
2.255555046929253
 30
0.0
 10
2.055555767483181
 20
2.238888634575738
 30
0.0
 10
2.002777947319879
 20
2.265277438693576
 30
0.0
 10
2.07083363003201
 20
2.343055301242404
 30
0.0
 10
1.991666793823242
 20
2.359722137451172
 30
0.0
 10
1.938888973659939
 20
2.370833079020182
 30
0.0
 10
1.995833502875434
 20
2.298611111111111
 30
0.0
 10
1.961111280653212
 20
2.27361085679796
 30
0.0
 10
1.954166836208767
 20
2.305555131700304
 30
0.0
 10
1.965277989705404
 20
2.345833248562283
 30
0.0
 10
1.950000127156575
 20
2.376388549804688
 30
0.0
 10
1.929166793823242
 20
2.418055216471354
 30
0.0
 10
1.915277904934353
 20
2.330555386013455
 30
0.0
 10
1.915277904934353
 20
2.330555386013455
 30
0.0
 10
1.905555725097656
 20
2.351388719346788
 30
0.0
 10
1.905555725097656
 20
2.372222052680121
 30
0.0
 10
1.891666836208767
 20
2.394444359673394
 30
0.0
 10
1.876388973659939
 20
2.420833163791233
 30
0.0
 10
1.844444698757595
 20
2.379166497124566
 30
0.0
 10
1.834722306993273
 20
2.415277693006727
 30
0.0
 10
1.797222349378798
 20
2.405555301242404
 30
0.0
 10
1.80138905843099
 20
2.38611094156901
 30
0.0
 10
1.776389016045464
 20
2.369444529215495
 30
0.0
 10
1.766666836208767
 20
2.405555725097656
 30
0.0
 10
1.725000169542101
 20
2.363889058430989
 30
0.0
 10
1.722222328186035
 20
2.337500254313151
 30
0.0
 10
1.720833460489909
 20
2.319444868299696
 30
0.0
 10
1.723611195882161
 20
2.279166751437717
 30
0.0
 10
1.70694457160102
 20
2.265277862548828
 30
0.0
 10
1.702777862548828
 20
2.280555725097656
 30
0.0
 10
1.718055725097656
 20
2.337500254313151
 30
0.0
 10
1.697222391764323
 20
2.343055725097656
 30
0.0
 10
1.666666878594292
 20
2.348611195882161
 30
0.0
 10
1.668055746290419
 20
2.290278116861979
 30
0.0
 10
1.659722434149848
 20
2.275000254313151
 30
0.0
 10
1.652777989705404
 20
2.298611534966363
 30
0.0
 10
1.675000190734863
 20
2.345833672417534
 30
0.0
 10
1.626389079623752
 20
2.333333757188585
 30
0.0
 10
1.602778010898166
 20
2.326389312744141
 30
0.0
 10
1.590277989705404
 20
2.319444868299696
 30
0.0
 10
1.563889079623752
 20
2.326389312744141
 30
0.0
 10
1.50694465637207
 20
2.337500254313151
 30
0.0
 10
1.508333524068197
 20
2.256944868299696
 30
0.0
 10
1.484722455342611
 20
2.22638914320204
 30
0.0
 10
1.483333587646484
 20
2.254166920979817
 30
0.0
 10
1.52916685740153
 20
2.329166836208767
 30
0.0
 10
1.493055767483181
 20
2.348611195882161
 30
0.0
 10
1.452777968512641
 20
2.365278032090929
 30
0.0
 10
1.469444698757595
 20
2.281944698757596
 30
0.0
 10
1.419444613986545
 20
2.2875001695421
 30
0.0
 10
1.440277947319878
 20
2.302778032090929
 30
0.0
 10
1.461111280653212
 20
2.334722306993272
 30
0.0
 10
1.443055682712131
 20
2.358333587646484
 30
0.0
 10
1.420833481682671
 20
2.387500339084201
 30
0.0
 10
1.401389016045464
 20
2.348611195882161
 30
0.0
 10
1.386111259460449
 20
2.336111280653212
 30
0.0
 10
1.384722391764323
 20
2.347222222222222
 30
0.0
 10
1.384722391764323
 20
2.359722561306424
 30
0.0
 10
1.383333524068197
 20
2.370833502875434
 30
0.0
 10
1.370833502875434
 20
2.366667005750868
 30
0.0
 10
1.336111280653212
 20
2.316666920979817
 30
0.0
 10
1.329166836208767
 20
2.323611365424262
 30
0.0
 10
1.308333502875434
 20
2.341666751437717
 30
0.0
 10
1.352777904934353
 20
2.375000423855252
 30
0.0
 10
1.316666815016005
 20
2.379166920979817
 30
0.0
 10
1.268055703904894
 20
2.386111365424262
 30
0.0
 10
1.268055703904894
 20
2.366667005750868
 30
0.0
 10
1.241666793823242
 20
2.343055725097656
 30
0.0
 10
1.23888905843099
 20
2.352778116861979
 30
0.0
 10
1.234722349378798
 20
2.363889058430989
 30
0.0
 10
1.230555640326606
 20
2.375
 30
0.0
 10
1.216666751437717
 20
2.368055555555555
 30
0.0
 10
1.20694457160102
 20
2.369444529215495
 30
0.0
 10
1.201388994852702
 20
2.352777693006727
 30
0.0
 10
1.191666815016005
 20
2.379166497124566
 30
0.0
 10
1.140277862548828
 20
2.38749991522895
 30
0.0
 10
1.123611238267687
 20
2.373611026340061
 30
0.0
 10
1.148611280653212
 20
2.331944359673394
 30
0.0
 10
1.151389016045464
 20
2.306944529215495
 30
0.0
 10
1.202777862548828
 20
2.318055470784505
 30
0.0
 10
1.205555597941081
 20
2.297222137451172
 30
0.0
 10
1.245833396911621
 20
2.26111094156901
 30
0.0
 10
1.261111153496636
 20
2.247222052680121
 30
0.0
 10
1.301388952467177
 20
2.21111085679796
 30
0.0
 10
1.315277841356066
 20
2.25
 30
0.0
 10
1.341666751437717
 20
2.272221883138021
 30
0.0
 10
1.351388931274414
 20
2.229166242811415
 30
0.0
 10
1.305555661519368
 20
2.216666327582465
 30
0.0
 10
1.365277820163303
 20
2.186110602484809
 30
0.0
 10
1.391666730244954
 20
2.17222171359592
 30
0.0
 10
1.393055597941081
 20
2.193055046929254
 30
0.0
 10
1.40694448682997
 20
2.163888295491536
 30
0.0
 10
1.412500063578288
 20
2.154165903727213
 30
0.0
 10
1.419444508022732
 20
2.151388380262587
 30
0.0
 10
1.429166687859429
 20
2.161110348171658
 30
0.0
 10
1.440277841356066
 20
2.106943766276042
 30
0.0
 10
1.468055619133843
 20
2.187499152289496
 30
0.0
 10
1.487499978807237
 20
2.199999067518446
 30
0.0
 10
1.494444423251682
 20
2.159721374511719
 30
0.0
 10
1.450000021192763
 20
2.127776675754123
 30
0.0
 10
1.497222158643934
 20
2.099998897976346
 30
0.0
 10
1.538888825310601
 20
2.074999067518446
 30
0.0
 10
1.543055534362793
 20
2.081943511962891
 30
0.0
 10
1.581944359673394
 20
2.10555436876085
 30
0.0
 10
1.573611047532823
 20
2.097220950656467
 30
0.0
 10
1.573611047532823
 20
2.087498982747396
 30
0.0
 10
1.580555491977268
 20
2.079165564643012
 30
0.0
 10
1.588888804117838
 20
2.087498982747396
 30
0.0
 10
1.597222116258409
 20
2.09444342719184
 30
0.0
 10
1.606944402058919
 20
2.099998897976346
 30
0.0
 10
1.59305551317003
 20
2.061110178629557
 30
0.0
 10
1.591666645473904
 20
2.045832316080729
 30
0.0
 10
1.63749991522895
 20
2.033332400851779
 30
0.0
 10
1.697222179836697
 20
2.018054538302951
 30
0.0
 10
1.673611005147298
 20
2.076388041178385
 30
0.0
 10
1.702777650621202
 20
2.095832400851779
 30
0.0
 10
1.713888804117838
 20
2.068054623074002
 30
0.0
 10
1.683333184983995
 20
2.048610263400608
 30
0.0
 10
1.687499894036187
 20
2.022221459282769
 30
0.0
 10
1.715277671813965
 20
2.044443766276042
 30
0.0
 10
1.734722137451172
 20
1.980554792616102
 30
0.0
 10
1.772222095065647
 20
2.015277014838325
 30
0.0
 10
1.795833163791233
 20
2.037499321831597
 30
0.0
 10
1.787499957614475
 20
2.080554962158203
 30
0.0
 10
1.809722052680121
 20
2.098610348171658
 30
0.0
 10
1.809722052680121
 20
2.095832400851779
 30
0.0
 10
1.80555534362793
 20
2.048610263400608
 30
0.0
 10
1.816666497124566
 20
2.055554707845052
 30
0.0
 10
1.829166412353516
 20
2.061110178629557
 30
0.0
 10
1.861110899183485
 20
2.093054877387153
 30
0.0
 10
1.85555542839898
 20
2.105554792616102
 30
0.0
 10
1.869444317287869
 20
2.093054877387153
 30
0.0
 10
1.88749991522895
 20
2.031943851047092
 30
0.0
 10
1.913888719346788
 20
2.036110348171658
 30
0.0
 10
1.913888719346788
 20
2.063888125949436
 30
0.0
 10
1.909722010294596
 20
2.091665903727213
 30
0.0
 10
1.906944274902344
 20
2.119443681504991
 30
0.0
 10
1.915277693006727
 20
2.081943511962891
 30
0.0
 10
1.919444190131293
 20
2.002777099609375
 30
0.0
 10
1.973610983954535
 20
2.030554877387153
 30
0.0
 10
1.963888804117838
 20
2.048610263400608
 30
0.0
 10
1.94861094156901
 20
2.069443596733941
 30
0.0
 10
1.956944359673394
 20
2.091665903727213
 30
0.0
 10
1.986111111111111
 20
2.072221544053819
 30
0.0
 10
1.96805551317003
 20
2.016665988498264
 30
0.0
 10
2.016666624281141
 20
2.036110348171658
 30
0.0
 10
2.006944444444444
 20
2.047221289740668
 30
0.0
 10
2.008333206176758
 20
2.055554707845052
 30
0.0
 10
2.019444359673394
 20
2.062499152289496
 30
0.0
 10
2.037499957614475
 20
2.026387956407335
 30
0.0
 10
2.076388888888889
 20
2.05833265516493
 30
0.0
 10
2.097222222222222
 20
2.069443596733941
 30
0.0
 10
2.086111068725586
 20
2.088887956407335
 30
0.0
 10
2.076388888888889
 20
2.108332316080729
 30
0.0
 10
2.068055470784505
 20
2.127777099609375
 30
0.0
 10
2.097222222222222
 20
2.134721544053819
 30
0.0
 10
2.088888804117838
 20
2.074999491373698
 30
0.0
 10
2.127777735392252
 20
2.086110432942708
 30
0.0
 10
2.16805542839898
 20
2.097221374511719
 30
0.0
 10
2.154166539510091
 20
2.126388125949436
 30
0.0
 10
2.170833375718858
 20
2.134721544053819
 30
0.0
 10
2.180555555555555
 20
2.126388125949436
 30
0.0
 10
2.220833460489909
 20
2.111110263400608
 30
0.0
 10
2.212500042385525
 20
2.14583248562283
 30
0.0
 10
2.20694457160102
 20
2.165276845296224
 30
0.0
 10
2.170833375718858
 20
2.168054792616102
 30
0.0
 10
2.180555555555555
 20
2.197221544053819
 30
0.0
 10
2.193055470784505
 20
2.174999237060547
 30
0.0
 10
2.229166666666667
 20
2.144443935818142
 30
0.0
 10
2.256944444444444
 20
2.158332824707031
 30
0.0
 10
2.288888931274414
 20
2.176388210720486
 30
0.0
 10
2.297222137451172
 20
2.198610517713758
 30
0.0
 10
2.320833418104383
 20
2.219443851047092
 30
0.0
 10
2.336111280653212
 20
2.187499576144748
 30
0.0
 10
2.358333375718858
 20
2.220832824707031
 30
0.0
 10
2.341666751437717
 20
2.243055131700304
 30
0.0
 10
2.352777904934353
 20
2.248610602484809
 30
0.0
 10
2.375
 20
2.224999745686849
 30
0.0
 10
2.380555682712131
 20
2.240277184380425
 30
0.0
 10
2.383333418104383
 20
2.248610602484809
 30
0.0
 10
2.375000211927626
 20
2.266665988498264
 30
0.0
 10
2.380555682712131
 20
2.272221459282769
 30
0.0
 10
2.398611280653212
 20
2.256943596733941
 30
0.0
 10
2.511111153496636
 20
2.331943511962891
 30
0.0
 10
2.525000042385525
 20
2.361110263400608
 30
0.0
 10
2.551388846503364
 20
2.404166751437717
 30
0.0
 10
2.520833333333333
 20
2.391666836208767
 30
0.0
 10
2.476388931274414
 20
2.388888888888889
 30
0.0
  0
HATCH
  5
67
330
62
100
AcDbEntity
  8
Calque 1
 62
   242
420
 12853543
100
AcDbHatch
 10
0.0
 20
0.0
 30
0.0
210
0.0
220
0.0
230
1.0
  2
SOLID
 70
     1
 71
     0
 91
        1
 92
        1
 93
        1
 72
     4
 94
        3
 73
     0
 74
     1
 95
      224
 96
      220
 40
0.0
 40
0.0
 40
0.0
 40
0.0
 40
1.0
 40
1.0
 40
1.0
 40
2.0
 40
2.0
 40
2.0
 40
3.0
 40
3.0
 40
3.0
 40
4.0
 40
4.0
 40
4.0
 40
5.0
 40
5.0
 40
5.0
 40
6.0
 40
6.0
 40
6.0
 40
7.0
 40
7.0
 40
7.0
 40
8.0
 40
8.0
 40
8.0
 40
9.0
 40
9.0
 40
9.0
 40
10.0
 40
10.0
 40
10.0
 40
11.0
 40
11.0
 40
11.0
 40
12.0
 40
12.0
 40
12.0
 40
13.0
 40
13.0
 40
13.0
 40
14.0
 40
14.0
 40
14.0
 40
15.0
 40
15.0
 40
15.0
 40
16.0
 40
16.0
 40
16.0
 40
17.0
 40
17.0
 40
17.0
 40
18.0
 40
18.0
 40
18.0
 40
19.0
 40
19.0
 40
19.0
 40
20.0
 40
20.0
 40
20.0
 40
21.0
 40
21.0
 40
21.0
 40
22.0
 40
22.0
 40
22.0
 40
23.0
 40
23.0
 40
23.0
 40
24.0
 40
24.0
 40
24.0
 40
25.0
 40
25.0
 40
25.0
 40
26.0
 40
26.0
 40
26.0
 40
27.0
 40
27.0
 40
27.0
 40
28.0
 40
28.0
 40
28.0
 40
29.0
 40
29.0
 40
29.0
 40
30.0
 40
30.0
 40
30.0
 40
31.0
 40
31.0
 40
31.0
 40
32.0
 40
32.0
 40
32.0
 40
33.0
 40
33.0
 40
33.0
 40
34.0
 40
34.0
 40
34.0
 40
35.0
 40
35.0
 40
35.0
 40
36.0
 40
36.0
 40
36.0
 40
37.0
 40
37.0
 40
37.0
 40
38.0
 40
38.0
 40
38.0
 40
39.0
 40
39.0
 40
39.0
 40
40.0
 40
40.0
 40
40.0
 40
41.0
 40
41.0
 40
41.0
 40
42.0
 40
42.0
 40
42.0
 40
43.0
 40
43.0
 40
43.0
 40
44.0
 40
44.0
 40
44.0
 40
45.0
 40
45.0
 40
45.0
 40
46.0
 40
46.0
 40
46.0
 40
47.0
 40
47.0
 40
47.0
 40
48.0
 40
48.0
 40
48.0
 40
49.0
 40
49.0
 40
49.0
 40
50.0
 40
50.0
 40
50.0
 40
51.0
 40
51.0
 40
51.0
 40
52.0
 40
52.0
 40
52.0
 40
53.0
 40
53.0
 40
53.0
 40
54.0
 40
54.0
 40
54.0
 40
55.0
 40
55.0
 40
55.0
 40
56.0
 40
56.0
 40
56.0
 40
57.0
 40
57.0
 40
57.0
 40
58.0
 40
58.0
 40
58.0
 40
59.0
 40
59.0
 40
59.0
 40
60.0
 40
60.0
 40
60.0
 40
61.0
 40
61.0
 40
61.0
 40
62.0
 40
62.0
 40
62.0
 40
63.0
 40
63.0
 40
63.0
 40
64.0
 40
64.0
 40
64.0
 40
65.0
 40
65.0
 40
65.0
 40
66.0
 40
66.0
 40
66.0
 40
67.0
 40
67.0
 40
67.0
 40
68.0
 40
68.0
 40
68.0
 40
69.0
 40
69.0
 40
69.0
 40
70.0
 40
70.0
 40
70.0
 40
71.0
 40
71.0
 40
71.0
 40
72.0
 40
72.0
 40
72.0
 40
73.0
 40
73.0
 40
73.0
 40
73.0
 10
2.476388931274414
 20
2.388888888888889
 10
2.472222222222222
 20
2.379166497124566
 10
2.462500042385525
 20
2.372222052680121
 10
2.452777862548828
 20
2.377777947319878
 10
2.458333333333333
 20
2.336111280653212
 10
2.419444613986545
 20
2.383333418104383
 10
2.406944486829969
 20
2.381944444444444
 10
2.395833333333333
 20
2.380555470784505
 10
2.368055555555555
 20
2.377777947319878
 10
2.354166666666667
 20
2.375
 10
2.36250008477105
 20
2.356944613986545
 10
2.369444529215495
 20
2.338888804117838
 10
2.375
 20
2.320833418104383
 10
2.344444486829969
 20
2.333333333333333
 10
2.311111026340061
 20
2.427778032090929
 10
2.275000042385525
 20
2.359722137451172
 10
2.20694457160102
 20
2.368055555555555
 10
2.25
 20
2.345833248562283
 10
2.272222306993272
 20
2.309722052680121
 10
2.222222222222222
 20
2.299999660915799
 10
2.226388931274414
 20
2.395833333333333
 10
2.150000042385525
 20
2.349999745686849
 10
2.120833290947808
 20
2.331944359673394
 10
2.150000042385525
 20
2.308333079020182
 10
2.168055640326606
 20
2.295833163791233
 10
2.1875
 20
2.281944274902344
 10
2.197222391764323
 20
2.238888634575738
 10
2.165277904934353
 20
2.266666412353516
 10
2.122222264607747
 20
2.302777608235677
 10
2.133333418104383
 20
2.347221798366971
 10
2.065277947319879
 20
2.348610772026909
 10
2.034722434149848
 20
2.349999745686849
 10
2.062500211927626
 20
2.255555046929253
 10
2.055555767483181
 20
2.238888634575738
 10
2.002777947319879
 20
2.265277438693576
 10
2.07083363003201
 20
2.343055301242404
 10
1.991666793823242
 20
2.359722137451172
 10
1.938888973659939
 20
2.370833079020182
 10
1.995833502875434
 20
2.298611111111111
 10
1.961111280653212
 20
2.27361085679796
 10
1.954166836208767
 20
2.305555131700304
 10
1.965277989705404
 20
2.345833248562283
 10
1.950000127156575
 20
2.376388549804688
 10
1.929166793823242
 20
2.418055216471354
 10
1.915277904934353
 20
2.330555386013455
 10
1.915277904934353
 20
2.330555386013455
 10
1.905555725097656
 20
2.351388719346788
 10
1.905555725097656
 20
2.372222052680121
 10
1.891666836208767
 20
2.394444359673394
 10
1.876388973659939
 20
2.420833163791233
 10
1.844444698757595
 20
2.379166497124566
 10
1.834722306993273
 20
2.415277693006727
 10
1.797222349378798
 20
2.405555301242404
 10
1.80138905843099
 20
2.38611094156901
 10
1.776389016045464
 20
2.369444529215495
 10
1.766666836208767
 20
2.405555725097656
 10
1.725000169542101
 20
2.363889058430989
 10
1.722222328186035
 20
2.337500254313151
 10
1.720833460489909
 20
2.319444868299696
 10
1.723611195882161
 20
2.279166751437717
 10
1.70694457160102
 20
2.265277862548828
 10
1.702777862548828
 20
2.280555725097656
 10
1.718055725097656
 20
2.337500254313151
 10
1.697222391764323
 20
2.343055725097656
 10
1.666666878594292
 20
2.348611195882161
 10
1.668055746290419
 20
2.290278116861979
 10
1.659722434149848
 20
2.275000254313151
 10
1.652777989705404
 20
2.298611534966363
 10
1.675000190734863
 20
2.345833672417534
 10
1.626389079623752
 20
2.333333757188585
 10
1.602778010898166
 20
2.326389312744141
 10
1.590277989705404
 20
2.319444868299696
 10
1.563889079623752
 20
2.326389312744141
 10
1.50694465637207
 20
2.337500254313151
 10
1.508333524068197
 20
2.256944868299696
 10
1.484722455342611
 20
2.22638914320204
 10
1.483333587646484
 20
2.254166920979817
 10
1.52916685740153
 20
2.329166836208767
 10
1.493055767483181
 20
2.348611195882161
 10
1.452777968512641
 20
2.365278032090929
 10
1.469444698757595
 20
2.281944698757596
 10
1.419444613986545
 20
2.2875001695421
 10
1.440277947319878
 20
2.302778032090929
 10
1.461111280653212
 20
2.334722306993272
 10
1.443055682712131
 20
2.358333587646484
 10
1.420833481682671
 20
2.387500339084201
 10
1.401389016045464
 20
2.348611195882161
 10
1.386111259460449
 20
2.336111280653212
 10
1.384722391764323
 20
2.347222222222222
 10
1.384722391764323
 20
2.359722561306424
 10
1.383333524068197
 20
2.370833502875434
 10
1.370833502875434
 20
2.366667005750868
 10
1.336111280653212
 20
2.316666920979817
 10
1.329166836208767
 20
2.323611365424262
 10
1.308333502875434
 20
2.341666751437717
 10
1.352777904934353
 20
2.375000423855252
 10
1.316666815016005
 20
2.379166920979817
 10
1.268055703904894
 20
2.386111365424262
 10
1.268055703904894
 20
2.366667005750868
 10
1.241666793823242
 20
2.343055725097656
 10
1.23888905843099
 20
2.352778116861979
 10
1.234722349378798
 20
2.363889058430989
 10
1.230555640326606
 20
2.375
 10
1.216666751437717
 20
2.368055555555555
 10
1.20694457160102
 20
2.369444529215495
 10
1.201388994852702
 20
2.352777693006727
 10
1.191666815016005
 20
2.379166497124566
 10
1.140277862548828
 20
2.38749991522895
 10
1.123611238267687
 20
2.373611026340061
 10
1.148611280653212
 20
2.331944359673394
 10
1.151389016045464
 20
2.306944529215495
 10
1.202777862548828
 20
2.318055470784505
 10
1.205555597941081
 20
2.297222137451172
 10
1.245833396911621
 20
2.26111094156901
 10
1.261111153496636
 20
2.247222052680121
 10
1.301388952467177
 20
2.21111085679796
 10
1.315277841356066
 20
2.25
 10
1.341666751437717
 20
2.272221883138021
 10
1.351388931274414
 20
2.229166242811415
 10
1.305555661519368
 20
2.216666327582465
 10
1.365277820163303
 20
2.186110602484809
 10
1.391666730244954
 20
2.17222171359592
 10
1.393055597941081
 20
2.193055046929254
 10
1.40694448682997
 20
2.163888295491536
 10
1.412500063578288
 20
2.154165903727213
 10
1.419444508022732
 20
2.151388380262587
 10
1.429166687859429
 20
2.161110348171658
 10
1.440277841356066
 20
2.106943766276042
 10
1.468055619133843
 20
2.187499152289496
 10
1.487499978807237
 20
2.199999067518446
 10
1.494444423251682
 20
2.159721374511719
 10
1.450000021192763
 20
2.127776675754123
 10
1.497222158643934
 20
2.099998897976346
 10
1.538888825310601
 20
2.074999067518446
 10
1.543055534362793
 20
2.081943511962891
 10
1.581944359673394
 20
2.10555436876085
 10
1.573611047532823
 20
2.097220950656467
 10
1.573611047532823
 20
2.087498982747396
 10
1.580555491977268
 20
2.079165564643012
 10
1.588888804117838
 20
2.087498982747396
 10
1.597222116258409
 20
2.09444342719184
 10
1.606944402058919
 20
2.099998897976346
 10
1.59305551317003
 20
2.061110178629557
 10
1.591666645473904
 20
2.045832316080729
 10
1.63749991522895
 20
2.033332400851779
 10
1.697222179836697
 20
2.018054538302951
 10
1.673611005147298
 20
2.076388041178385
 10
1.702777650621202
 20
2.095832400851779
 10
1.713888804117838
 20
2.068054623074002
 10
1.683333184983995
 20
2.048610263400608
 10
1.687499894036187
 20
2.022221459282769
 10
1.715277671813965
 20
2.044443766276042
 10
1.734722137451172
 20
1.980554792616102
 10
1.772222095065647
 20
2.015277014838325
 10
1.795833163791233
 20
2.037499321831597
 10
1.787499957614475
 20
2.080554962158203
 10
1.809722052680121
 20
2.098610348171658
 10
1.809722052680121
 20
2.095832400851779
 10
1.80555534362793
 20
2.048610263400608
 10
1.816666497124566
 20
2.055554707845052
 10
1.829166412353516
 20
2.061110178629557
 10
1.861110899183485
 20
2.093054877387153
 10
1.85555542839898
 20
2.105554792616102
 10
1.869444317287869
 20
2.093054877387153
 10
1.88749991522895
 20
2.031943851047092
 10
1.913888719346788
 20
2.036110348171658
 10
1.913888719346788
 20
2.063888125949436
 10
1.909722010294596
 20
2.091665903727213
 10
1.906944274902344
 20
2.119443681504991
 10
1.915277693006727
 20
2.081943511962891
 10
1.919444190131293
 20
2.002777099609375
 10
1.973610983954535
 20
2.030554877387153
 10
1.963888804117838
 20
2.048610263400608
 10
1.94861094156901
 20
2.069443596733941
 10
1.956944359673394
 20
2.091665903727213
 10
1.986111111111111
 20
2.072221544053819
 10
1.96805551317003
 20
2.016665988498264
 10
2.016666624281141
 20
2.036110348171658
 10
2.006944444444444
 20
2.047221289740668
 10
2.008333206176758
 20
2.055554707845052
 10
2.019444359673394
 20
2.062499152289496
 10
2.037499957614475
 20
2.026387956407335
 10
2.076388888888889
 20
2.05833265516493
 10
2.097222222222222
 20
2.069443596733941
 10
2.086111068725586
 20
2.088887956407335
 10
2.076388888888889
 20
2.108332316080729
 10
2.068055470784505
 20
2.127777099609375
 10
2.097222222222222
 20
2.134721544053819
 10
2.088888804117838
 20
2.074999491373698
 10
2.127777735392252
 20
2.086110432942708
 10
2.16805542839898
 20
2.097221374511719
 10
2.154166539510091
 20
2.126388125949436
 10
2.170833375718858
 20
2.134721544053819
 10
2.180555555555555
 20
2.126388125949436
 10
2.220833460489909
 20
2.111110263400608
 10
2.212500042385525
 20
2.14583248562283
 10
2.20694457160102
 20
2.165276845296224
 10
2.170833375718858
 20
2.168054792616102
 10
2.180555555555555
 20
2.197221544053819
 10
2.193055470784505
 20
2.174999237060547
 10
2.229166666666667
 20
2.144443935818142
 10
2.256944444444444
 20
2.158332824707031
 10
2.288888931274414
 20
2.176388210720486
 10
2.297222137451172
 20
2.198610517713758
 10
2.320833418104383
 20
2.219443851047092
 10
2.336111280653212
 20
2.187499576144748
 10
2.358333375718858
 20
2.220832824707031
 10
2.341666751437717
 20
2.243055131700304
 10
2.352777904934353
 20
2.248610602484809
 10
2.375
 20
2.224999745686849
 10
2.380555682712131
 20
2.240277184380425
 10
2.383333418104383
 20
2.248610602484809
 10
2.375000211927626
 20
2.266665988498264
 10
2.380555682712131
 20
2.272221459282769
 10
2.398611280653212
 20
2.256943596733941
 10
2.511111153496636
 20
2.331943511962891
 10
2.525000042385525
 20
2.361110263400608
 10
2.551388846503364
 20
2.404166751437717
 10
2.520833333333333
 20
2.391666836208767
 10
2.476388931274414
 20
2.388888888888889
 97
        0
 97
        0
 75
     2
 76
     1
 98
        0
  0
SPLINE
  5
68
330
62
100
AcDbEntity
  8
Calque 1
370
     0
100
AcDbSpline
210
0.0
220
0.0
230
1.0
 70
    11
 71
     3
 72
   227
 73
   223
 74
     0
 42
0.0000000001
 43
0.0000000001
 12
1.0
 22
0.0
 32
0.0
 13
1.0
 23
0.0
 33
0.0
 40
0.0
 40
0.0
 40
0.0
 40
0.0
 40
1.0
 40
1.0
 40
1.0
 40
2.0
 40
2.0
 40
2.0
 40
3.0
 40
3.0
 40
3.0
 40
4.0
 40
4.0
 40
4.0
 40
5.0
 40
5.0
 40
5.0
 40
6.0
 40
6.0
 40
6.0
 40
7.0
 40
7.0
 40
7.0
 40
8.0
 40
8.0
 40
8.0
 40
9.0
 40
9.0
 40
9.0
 40
10.0
 40
10.0
 40
10.0
 40
11.0
 40
11.0
 40
11.0
 40
12.0
 40
12.0
 40
12.0
 40
13.0
 40
13.0
 40
13.0
 40
14.0
 40
14.0
 40
14.0
 40
15.0
 40
15.0
 40
15.0
 40
16.0
 40
16.0
 40
16.0
 40
17.0
 40
17.0
 40
17.0
 40
18.0
 40
18.0
 40
18.0
 40
19.0
 40
19.0
 40
19.0
 40
20.0
 40
20.0
 40
20.0
 40
21.0
 40
21.0
 40
21.0
 40
22.0
 40
22.0
 40
22.0
 40
23.0
 40
23.0
 40
23.0
 40
24.0
 40
24.0
 40
24.0
 40
25.0
 40
25.0
 40
25.0
 40
26.0
 40
26.0
 40
26.0
 40
27.0
 40
27.0
 40
27.0
 40
28.0
 40
28.0
 40
28.0
 40
29.0
 40
29.0
 40
29.0
 40
30.0
 40
30.0
 40
30.0
 40
31.0
 40
31.0
 40
31.0
 40
32.0
 40
32.0
 40
32.0
 40
33.0
 40
33.0
 40
33.0
 40
34.0
 40
34.0
 40
34.0
 40
35.0
 40
35.0
 40
35.0
 40
36.0
 40
36.0
 40
36.0
 40
37.0
 40
37.0
 40
37.0
 40
38.0
 40
38.0
 40
38.0
 40
39.0
 40
39.0
 40
39.0
 40
40.0
 40
40.0
 40
40.0
 40
41.0
 40
41.0
 40
41.0
 40
42.0
 40
42.0
 40
42.0
 40
43.0
 40
43.0
 40
43.0
 40
44.0
 40
44.0
 40
44.0
 40
45.0
 40
45.0
 40
45.0
 40
46.0
 40
46.0
 40
46.0
 40
47.0
 40
47.0
 40
47.0
 40
48.0
 40
48.0
 40
48.0
 40
49.0
 40
49.0
 40
49.0
 40
50.0
 40
50.0
 40
50.0
 40
51.0
 40
51.0
 40
51.0
 40
52.0
 40
52.0
 40
52.0
 40
53.0
 40
53.0
 40
53.0
 40
54.0
 40
54.0
 40
54.0
 40
55.0
 40
55.0
 40
55.0
 40
56.0
 40
56.0
 40
56.0
 40
57.0
 40
57.0
 40
57.0
 40
58.0
 40
58.0
 40
58.0
 40
59.0
 40
59.0
 40
59.0
 40
60.0
 40
60.0
 40
60.0
 40
61.0
 40
61.0
 40
61.0
 40
62.0
 40
62.0
 40
62.0
 40
63.0
 40
63.0
 40
63.0
 40
64.0
 40
64.0
 40
64.0
 40
65.0
 40
65.0
 40
65.0
 40
66.0
 40
66.0
 40
66.0
 40
67.0
 40
67.0
 40
67.0
 40
68.0
 40
68.0
 40
68.0
 40
69.0
 40
69.0
 40
69.0
 40
70.0
 40
70.0
 40
70.0
 40
71.0
 40
71.0
 40
71.0
 40
72.0
 40
72.0
 40
72.0
 40
73.0
 40
73.0
 40
73.0
 40
74.0
 40
74.0
 40
74.0
 40
74.0
 10
2.497222264607747
 20
2.497222264607747
 30
0.0
 10
2.479166666666667
 20
2.506944444444444
 30
0.0
 10
2.431944529215495
 20
2.51944457160102
 30
0.0
 10
2.430555555555555
 20
2.538888931274414
 30
0.0
 10
2.431944529215495
 20
2.5625
 30
0.0
 10
2.397222306993272
 20
2.548611111111111
 30
0.0
 10
2.398611068725586
 20
2.555555555555555
 30
0.0
 10
2.395833333333333
 20
2.595833248562283
 30
0.0
 10
2.390277650621202
 20
2.5625
 30
0.0
 10
2.359722137451172
 20
2.573611153496636
 30
0.0
 10
2.376388761732313
 20
2.588889016045464
 30
0.0
 10
2.369444317287869
 20
2.611111111111111
 30
0.0
 10
2.349999957614475
 20
2.622222264607747
 30
0.0
 10
2.344444486829969
 20
2.611111111111111
 30
0.0
 10
2.340277777777778
 20
2.601388931274414
 30
0.0
 10
2.334722095065647
 20
2.590277777777778
 30
0.0
 10
2.315277735392252
 20
2.602777693006727
 30
0.0
 10
2.320833206176758
 20
2.626388973659939
 30
0.0
 10
2.297222137451172
 20
2.641666624281141
 30
0.0
 10
2.252777735392252
 20
2.66805542839898
 30
0.0
 10
2.26111094156901
 20
2.658333248562283
 30
0.0
 10
2.223610983954535
 20
2.638888888888889
 30
0.0
 10
2.240277608235677
 20
2.673611111111111
 30
0.0
 10
2.21805551317003
 20
2.706944359673394
 30
0.0
 10
2.184722052680121
 20
2.677777820163303
 30
0.0
 10
2.165277693006727
 20
2.686111238267686
 30
0.0
 10
2.177777608235677
 20
2.733333375718858
 30
0.0
 10
2.124999788072374
 20
2.726388931274414
 30
0.0
 10
2.104166454739041
 20
2.723611195882161
 30
0.0
 10
2.131944232516819
 20
2.666666666666667
 30
0.0
 10
2.079166412353516
 20
2.676388846503364
 30
0.0
 10
2.088888592190213
 20
2.698611153496636
 30
0.0
 10
2.09861077202691
 20
2.719444486829969
 30
0.0
 10
2.108333163791233
 20
2.741666581895616
 30
0.0
 10
2.080555386013455
 20
2.754166497124566
 30
0.0
 10
2.041666454739041
 20
2.752777735392252
 30
0.0
 10
2.026388804117838
 20
2.722222222222222
 30
0.0
 10
2.013888888888889
 20
2.730555640326606
 30
0.0
 10
2.016666624281141
 20
2.736111111111111
 30
0.0
 10
2.022222095065647
 20
2.748611026340061
 30
0.0
 10
1.981944402058919
 20
2.763888888888889
 30
0.0
 10
1.994444317287869
 20
2.734722137451172
 30
0.0
 10
1.981944402058919
 20
2.709722095065647
 30
0.0
 10
1.969444486829969
 20
2.722222010294596
 30
0.0
 10
1.973610983954535
 20
2.740277608235677
 30
0.0
 10
1.98055542839898
 20
2.754166497124566
 30
0.0
 10
1.915277693006727
 20
2.783333248562283
 30
0.0
 10
1.924999872843424
 20
2.674999872843424
 30
0.0
 10
1.90555551317003
 20
2.643055386013455
 30
0.0
 10
1.90555551317003
 20
2.666666454739041
 30
0.0
 10
1.906944486829969
 20
2.693055470784505
 30
0.0
 10
1.906944486829969
 20
2.716666539510091
 30
0.0
 10
1.884722179836697
 20
2.720833248562283
 30
0.0
 10
1.856944402058919
 20
2.665277693006727
 30
0.0
 10
1.851388931274414
 20
2.651388804117838
 30
0.0
 10
1.849999957614475
 20
2.662499957614475
 30
0.0
 10
1.822222179836697
 20
2.704166624281141
 30
0.0
 10
1.806944529215495
 20
2.697222179836697
 30
0.0
 10
1.798611111111111
 20
2.694444444444444
 30
0.0
 10
1.802777820163303
 20
2.650000042385525
 30
0.0
 10
1.802777820163303
 20
2.643055597941081
 30
0.0
 10
1.784722222222222
 20
2.662499957614475
 30
0.0
 10
1.797222349378798
 20
2.693055682712131
 30
0.0
 10
1.781944486829969
 20
2.715277777777778
 30
0.0
 10
1.765277862548828
 20
2.738888846503364
 30
0.0
 10
1.720833354526096
 20
2.745833290947808
 30
0.0
 10
1.695833418104383
 20
2.758333418104383
 30
0.0
 10
1.691666709052192
 20
2.733333375718858
 30
0.0
 10
1.712500042385525
 20
2.697222391764323
 30
0.0
 10
1.713889016045464
 20
2.670833375718858
 30
0.0
 10
1.690277947319878
 20
2.694444444444444
 30
0.0
 10
1.708333439297146
 20
2.731944402058919
 30
0.0
 10
1.67500008477105
 20
2.748611238267686
 30
0.0
 10
1.656944486829969
 20
2.75694465637207
 30
0.0
 10
1.633333418104383
 20
2.758333418104383
 30
0.0
 10
1.615277820163303
 20
2.755555682712131
 30
0.0
 10
1.594444486829969
 20
2.752777947319878
 30
0.0
 10
1.620833396911621
 20
2.718055725097656
 30
0.0
 10
1.619444529215495
 20
2.704166836208767
 30
0.0
 10
1.609722349378798
 20
2.712500254313151
 30
0.0
 10
1.602777904934353
 20
2.722222434149848
 30
0.0
 10
1.595833460489909
 20
2.731944613986545
 30
0.0
 10
1.597222328186035
 20
2.719444698757596
 30
0.0
 10
1.598611195882161
 20
2.70694457160102
 30
0.0
 10
1.597222328186035
 20
2.69444465637207
 30
0.0
 10
1.583333439297146
 20
2.736111323038737
 30
0.0
 10
1.537500063578288
 20
2.719444698757596
 30
0.0
 10
1.51944457160102
 20
2.69444465637207
 30
0.0
 10
1.490277926127116
 20
2.654166963365343
 30
0.0
 10
1.512500127156575
 20
2.641666836208767
 30
0.0
 10
1.501388973659939
 20
2.60138914320204
 30
0.0
 10
1.473611195882161
 20
2.611111323038737
 30
0.0
 10
1.483333375718858
 20
2.641666836208767
 30
0.0
 10
1.466666751437717
 20
2.65138922797309
 30
0.0
 10
1.441666709052192
 20
2.665278116861979
 30
0.0
 10
1.433333396911621
 20
2.63333363003201
 30
0.0
 10
1.41666677263048
 20
2.622222476535373
 30
0.0
 10
1.400000148349338
 20
2.609722561306424
 30
0.0
 10
1.379166815016005
 20
2.612500296698676
 30
0.0
 10
1.36250008477105
 20
2.597222434149848
 30
0.0
 10
1.325000127156575
 20
2.566666920979817
 30
0.0
 10
1.366666793823242
 20
2.559722476535373
 30
0.0
 10
1.361111217074924
 20
2.525000254313151
 30
0.0
 10
1.336111174689399
 20
2.547222561306424
 30
0.0
 10
1.319444550408257
 20
2.584722518920898
 30
0.0
 10
1.283333460489909
 20
2.552778032090929
 30
0.0
 10
1.261111259460449
 20
2.533333672417534
 30
0.0
 10
1.231944613986545
 20
2.501389185587565
 30
0.0
 10
1.219444592793782
 20
2.4750001695421
 30
0.0
 10
1.173611217074924
 20
2.497222476535373
 30
0.0
 10
1.162500169542101
 20
2.451389100816515
 30
0.0
 10
1.14444457160102
 20
2.419444613986545
 30
0.0
 10
1.159722328186035
 20
2.405555725097656
 30
0.0
 10
1.211111280653212
 20
2.415278116861979
 30
0.0
 10
1.222222328186035
 20
2.440277947319878
 30
0.0
 10
1.227777904934353
 20
2.423611111111111
 30
0.0
 10
1.23750008477105
 20
2.42500008477105
 30
0.0
 10
1.252777841356066
 20
2.419444613986545
 30
0.0
 10
1.256944550408257
 20
2.429167005750868
 30
0.0
 10
1.258333418104384
 20
2.440277947319878
 30
0.0
 10
1.262500021192763
 20
2.451389100816515
 30
0.0
 10
1.29027779897054
 20
2.427778032090929
 30
0.0
 10
1.29027779897054
 20
2.408333672417534
 30
0.0
 10
1.338888910081651
 20
2.416666666666667
 30
0.0
 10
1.375
 20
2.422222137451172
 30
0.0
 10
1.329166730244954
 20
2.454166624281141
 30
0.0
 10
1.350000063578288
 20
2.470833248562283
 30
0.0
 10
1.356944508022732
 20
2.477777693006727
 30
0.0
 10
1.393055597941081
 20
2.427777608235677
 30
0.0
 10
1.40694448682997
 20
2.423611111111111
 30
0.0
 10
1.408333354526096
 20
2.434722052680121
 30
0.0
 10
1.408333354526096
 20
2.447222179836697
 30
0.0
 10
1.409722222222222
 20
2.458333333333333
 30
0.0
 10
1.426388846503364
 20
2.444444444444444
 30
0.0
 10
1.4375
 20
2.415277693006727
 30
0.0
 10
1.466666645473904
 20
2.42500008477105
 30
0.0
 10
1.5
 20
2.434722476535373
 30
0.0
 10
1.462499936421712
 20
2.480555640326606
 30
0.0
 10
1.445833312140571
 20
2.486111111111111
 30
0.0
 10
1.488888846503364
 20
2.501388973659939
 30
0.0
 10
1.483333269755045
 20
2.434722052680121
 30
0.0
 10
1.497222158643934
 20
2.415277693006727
 30
0.0
 10
1.533333248562283
 20
2.36250008477105
 30
0.0
 10
1.522222201029459
 20
2.484722137451172
 30
0.0
 10
1.522222201029459
 20
2.488888846503364
 30
0.0
 10
1.551388846503364
 20
2.459722095065647
 30
0.0
 10
1.549999978807237
 20
2.408333248562283
 30
0.0
 10
1.595833354526096
 20
2.448611153496636
 30
0.0
 10
1.615277820163303
 20
2.465277777777778
 30
0.0
 10
1.630555576748318
 20
2.441666497124566
 30
0.0
 10
1.650000042385525
 20
2.466666751437717
 30
0.0
 10
1.670833375718858
 20
2.491666793823242
 30
0.0
 10
1.654166751437717
 20
2.508333418104383
 30
0.0
 10
1.662500063578288
 20
2.534722222222222
 30
0.0
 10
1.663888931274414
 20
2.531944486829969
 30
0.0
 10
1.691666709052192
 20
2.436111026340061
 30
0.0
 10
1.708333439297146
 20
2.472222222222222
 30
0.0
 10
1.720833460489909
 20
2.5
 30
0.0
 10
1.693055682712131
 20
2.534722222222222
 30
0.0
 10
1.708333439297146
 20
2.563888973659939
 30
0.0
 10
1.725000063578288
 20
2.543055640326606
 30
0.0
 10
1.72916677263048
 20
2.516666836208767
 30
0.0
 10
1.740277926127116
 20
2.493055555555555
 30
0.0
 10
1.74722237057156
 20
2.473611195882161
 30
0.0
 10
1.787500169542101
 20
2.445833418104383
 30
0.0
 10
1.795833587646484
 20
2.476388931274414
 30
0.0
 10
1.822222391764323
 20
2.461111068725586
 30
0.0
 10
1.816666920979818
 20
2.440277947319878
 30
0.0
 10
1.855555852254232
 20
2.430555555555555
 30
0.0
 10
1.872222476535373
 20
2.473611195882161
 30
0.0
 10
1.845833672417535
 20
2.527777777777778
 30
0.0
 10
1.863889270358615
 20
2.568055470784505
 30
0.0
 10
1.884722603691949
 20
2.549999872843424
 30
0.0
 10
1.875000423855252
 20
2.502777735392252
 30
0.0
 10
1.872222688462999
 20
2.481944402058919
 30
0.0
 10
1.87083371480306
 20
2.470833248562283
 30
0.0
 10
1.87083371480306
 20
2.458333333333333
 30
0.0
 10
1.87083371480306
 20
2.445833206176758
 30
0.0
 10
1.894444783528646
 20
2.444444444444444
 30
0.0
 10
1.904166963365343
 20
2.436111026340061
 30
0.0
 10
1.913889355129666
 20
2.461111068725586
 30
0.0
 10
1.922222773234049
 20
2.48055542839898
 30
0.0
 10
1.916667090521918
 20
2.483333375718858
 30
0.0
 10
1.936111662122938
 20
2.473610983954535
 30
0.0
 10
1.9722228580051
 20
2.456944359673394
 30
0.0
 10
1.977778328789605
 20
2.502777735392252
 30
0.0
 10
1.98333379957411
 20
2.524999830457899
 30
0.0
 10
2.009722603691949
 20
2.51249991522895
 30
0.0
 10
1.968055937025282
 20
2.458333121405707
 30
0.0
 10
2.018056021796332
 20
2.474999745686849
 30
0.0
 10
2.038889355129666
 20
2.481944190131293
 30
0.0
 10
2.065278159247504
 20
2.529166327582465
 30
0.0
 10
2.065278159247504
 20
2.531944274902344
 30
0.0
 10
2.113889270358615
 20
2.508333206176758
 30
0.0
 10
2.044444825914171
 20
2.459722095065647
 30
0.0
 10
2.079167048136393
 20
2.443055470784505
 30
0.0
 10
2.130555894639757
 20
2.418055640326606
 30
0.0
 10
2.158333672417535
 20
2.487499872843424
 30
0.0
 10
2.184722688462999
 20
2.508333206176758
 30
0.0
 10
2.181944953070746
 20
2.481944402058919
 30
0.0
 10
2.152778201633029
 20
2.461111068725586
 30
0.0
 10
2.18333371480306
 20
2.440277523464627
 30
0.0
 10
2.215278201633029
 20
2.423610687255859
 30
0.0
 10
2.237500296698676
 20
2.44861094156901
 30
0.0
 10
2.262500339084201
 20
2.440277523464627
 30
0.0
 10
2.290278116861979
 20
2.433333079020182
 30
0.0
 10
2.302778032090929
 20
2.406944274902344
 30
0.0
 10
2.334722518920898
 20
2.426388634575738
 30
0.0
 10
2.362500296698676
 20
2.443055470784505
 30
0.0
 10
2.37083371480306
 20
2.474999745686849
 30
0.0
 10
2.394444783528646
 20
2.49305534362793
 30
0.0
 10
2.395833757188585
 20
2.459722095065647
 30
0.0
 10
2.373611450195312
 20
2.444444444444444
 30
0.0
 10
2.409722646077474
 20
2.423611111111111
 30
0.0
 10
2.430555979410807
 20
2.416666666666667
 30
0.0
 10
2.451389312744141
 20
2.411111195882161
 30
0.0
 10
2.473611619737413
 20
2.416666666666667
 30
0.0
 10
2.487500508626302
 20
2.419444613986545
 30
0.0
 10
2.556944953070746
 20
2.411111195882161
 30
0.0
 10
2.554167217678494
 20
2.4375
 30
0.0
 10
2.55000008477105
 20
2.46805551317003
 30
0.0
 10
2.523611068725586
 20
2.481944402058919
 30
0.0
 10
2.497222264607747
 20
2.497222264607747
 30
0.0
  0
HATCH
  5
69
330
62
100
AcDbEntity
  8
Calque 1
 62
   242
420
 12853543
100
AcDbHatch
 10
0.0
 20
0.0
 30
0.0
210
0.0
220
0.0
230
1.0
  2
SOLID
 70
     1
 71
     0
 91
        1
 92
        1
 93
        1
 72
     4
 94
        3
 73
     0
 74
     1
 95
      227
 96
      223
 40
0.0
 40
0.0
 40
0.0
 40
0.0
 40
1.0
 40
1.0
 40
1.0
 40
2.0
 40
2.0
 40
2.0
 40
3.0
 40
3.0
 40
3.0
 40
4.0
 40
4.0
 40
4.0
 40
5.0
 40
5.0
 40
5.0
 40
6.0
 40
6.0
 40
6.0
 40
7.0
 40
7.0
 40
7.0
 40
8.0
 40
8.0
 40
8.0
 40
9.0
 40
9.0
 40
9.0
 40
10.0
 40
10.0
 40
10.0
 40
11.0
 40
11.0
 40
11.0
 40
12.0
 40
12.0
 40
12.0
 40
13.0
 40
13.0
 40
13.0
 40
14.0
 40
14.0
 40
14.0
 40
15.0
 40
15.0
 40
15.0
 40
16.0
 40
16.0
 40
16.0
 40
17.0
 40
17.0
 40
17.0
 40
18.0
 40
18.0
 40
18.0
 40
19.0
 40
19.0
 40
19.0
 40
20.0
 40
20.0
 40
20.0
 40
21.0
 40
21.0
 40
21.0
 40
22.0
 40
22.0
 40
22.0
 40
23.0
 40
23.0
 40
23.0
 40
24.0
 40
24.0
 40
24.0
 40
25.0
 40
25.0
 40
25.0
 40
26.0
 40
26.0
 40
26.0
 40
27.0
 40
27.0
 40
27.0
 40
28.0
 40
28.0
 40
28.0
 40
29.0
 40
29.0
 40
29.0
 40
30.0
 40
30.0
 40
30.0
 40
31.0
 40
31.0
 40
31.0
 40
32.0
 40
32.0
 40
32.0
 40
33.0
 40
33.0
 40
33.0
 40
34.0
 40
34.0
 40
34.0
 40
35.0
 40
35.0
 40
35.0
 40
36.0
 40
36.0
 40
36.0
 40
37.0
 40
37.0
 40
37.0
 40
38.0
 40
38.0
 40
38.0
 40
39.0
 40
39.0
 40
39.0
 40
40.0
 40
40.0
 40
40.0
 40
41.0
 40
41.0
 40
41.0
 40
42.0
 40
42.0
 40
42.0
 40
43.0
 40
43.0
 40
43.0
 40
44.0
 40
44.0
 40
44.0
 40
45.0
 40
45.0
 40
45.0
 40
46.0
 40
46.0
 40
46.0
 40
47.0
 40
47.0
 40
47.0
 40
48.0
 40
48.0
 40
48.0
 40
49.0
 40
49.0
 40
49.0
 40
50.0
 40
50.0
 40
50.0
 40
51.0
 40
51.0
 40
51.0
 40
52.0
 40
52.0
 40
52.0
 40
53.0
 40
53.0
 40
53.0
 40
54.0
 40
54.0
 40
54.0
 40
55.0
 40
55.0
 40
55.0
 40
56.0
 40
56.0
 40
56.0
 40
57.0
 40
57.0
 40
57.0
 40
58.0
 40
58.0
 40
58.0
 40
59.0
 40
59.0
 40
59.0
 40
60.0
 40
60.0
 40
60.0
 40
61.0
 40
61.0
 40
61.0
 40
62.0
 40
62.0
 40
62.0
 40
63.0
 40
63.0
 40
63.0
 40
64.0
 40
64.0
 40
64.0
 40
65.0
 40
65.0
 40
65.0
 40
66.0
 40
66.0
 40
66.0
 40
67.0
 40
67.0
 40
67.0
 40
68.0
 40
68.0
 40
68.0
 40
69.0
 40
69.0
 40
69.0
 40
70.0
 40
70.0
 40
70.0
 40
71.0
 40
71.0
 40
71.0
 40
72.0
 40
72.0
 40
72.0
 40
73.0
 40
73.0
 40
73.0
 40
74.0
 40
74.0
 40
74.0
 40
74.0
 10
2.497222264607747
 20
2.497222264607747
 10
2.479166666666667
 20
2.506944444444444
 10
2.431944529215495
 20
2.51944457160102
 10
2.430555555555555
 20
2.538888931274414
 10
2.431944529215495
 20
2.5625
 10
2.397222306993272
 20
2.548611111111111
 10
2.398611068725586
 20
2.555555555555555
 10
2.395833333333333
 20
2.595833248562283
 10
2.390277650621202
 20
2.5625
 10
2.359722137451172
 20
2.573611153496636
 10
2.376388761732313
 20
2.588889016045464
 10
2.369444317287869
 20
2.611111111111111
 10
2.349999957614475
 20
2.622222264607747
 10
2.344444486829969
 20
2.611111111111111
 10
2.340277777777778
 20
2.601388931274414
 10
2.334722095065647
 20
2.590277777777778
 10
2.315277735392252
 20
2.602777693006727
 10
2.320833206176758
 20
2.626388973659939
 10
2.297222137451172
 20
2.641666624281141
 10
2.252777735392252
 20
2.66805542839898
 10
2.26111094156901
 20
2.658333248562283
 10
2.223610983954535
 20
2.638888888888889
 10
2.240277608235677
 20
2.673611111111111
 10
2.21805551317003
 20
2.706944359673394
 10
2.184722052680121
 20
2.677777820163303
 10
2.165277693006727
 20
2.686111238267686
 10
2.177777608235677
 20
2.733333375718858
 10
2.124999788072374
 20
2.726388931274414
 10
2.104166454739041
 20
2.723611195882161
 10
2.131944232516819
 20
2.666666666666667
 10
2.079166412353516
 20
2.676388846503364
 10
2.088888592190213
 20
2.698611153496636
 10
2.09861077202691
 20
2.719444486829969
 10
2.108333163791233
 20
2.741666581895616
 10
2.080555386013455
 20
2.754166497124566
 10
2.041666454739041
 20
2.752777735392252
 10
2.026388804117838
 20
2.722222222222222
 10
2.013888888888889
 20
2.730555640326606
 10
2.016666624281141
 20
2.736111111111111
 10
2.022222095065647
 20
2.748611026340061
 10
1.981944402058919
 20
2.763888888888889
 10
1.994444317287869
 20
2.734722137451172
 10
1.981944402058919
 20
2.709722095065647
 10
1.969444486829969
 20
2.722222010294596
 10
1.973610983954535
 20
2.740277608235677
 10
1.98055542839898
 20
2.754166497124566
 10
1.915277693006727
 20
2.783333248562283
 10
1.924999872843424
 20
2.674999872843424
 10
1.90555551317003
 20
2.643055386013455
 10
1.90555551317003
 20
2.666666454739041
 10
1.906944486829969
 20
2.693055470784505
 10
1.906944486829969
 20
2.716666539510091
 10
1.884722179836697
 20
2.720833248562283
 10
1.856944402058919
 20
2.665277693006727
 10
1.851388931274414
 20
2.651388804117838
 10
1.849999957614475
 20
2.662499957614475
 10
1.822222179836697
 20
2.704166624281141
 10
1.806944529215495
 20
2.697222179836697
 10
1.798611111111111
 20
2.694444444444444
 10
1.802777820163303
 20
2.650000042385525
 10
1.802777820163303
 20
2.643055597941081
 10
1.784722222222222
 20
2.662499957614475
 10
1.797222349378798
 20
2.693055682712131
 10
1.781944486829969
 20
2.715277777777778
 10
1.765277862548828
 20
2.738888846503364
 10
1.720833354526096
 20
2.745833290947808
 10
1.695833418104383
 20
2.758333418104383
 10
1.691666709052192
 20
2.733333375718858
 10
1.712500042385525
 20
2.697222391764323
 10
1.713889016045464
 20
2.670833375718858
 10
1.690277947319878
 20
2.694444444444444
 10
1.708333439297146
 20
2.731944402058919
 10
1.67500008477105
 20
2.748611238267686
 10
1.656944486829969
 20
2.75694465637207
 10
1.633333418104383
 20
2.758333418104383
 10
1.615277820163303
 20
2.755555682712131
 10
1.594444486829969
 20
2.752777947319878
 10
1.620833396911621
 20
2.718055725097656
 10
1.619444529215495
 20
2.704166836208767
 10
1.609722349378798
 20
2.712500254313151
 10
1.602777904934353
 20
2.722222434149848
 10
1.595833460489909
 20
2.731944613986545
 10
1.597222328186035
 20
2.719444698757596
 10
1.598611195882161
 20
2.70694457160102
 10
1.597222328186035
 20
2.69444465637207
 10
1.583333439297146
 20
2.736111323038737
 10
1.537500063578288
 20
2.719444698757596
 10
1.51944457160102
 20
2.69444465637207
 10
1.490277926127116
 20
2.654166963365343
 10
1.512500127156575
 20
2.641666836208767
 10
1.501388973659939
 20
2.60138914320204
 10
1.473611195882161
 20
2.611111323038737
 10
1.483333375718858
 20
2.641666836208767
 10
1.466666751437717
 20
2.65138922797309
 10
1.441666709052192
 20
2.665278116861979
 10
1.433333396911621
 20
2.63333363003201
 10
1.41666677263048
 20
2.622222476535373
 10
1.400000148349338
 20
2.609722561306424
 10
1.379166815016005
 20
2.612500296698676
 10
1.36250008477105
 20
2.597222434149848
 10
1.325000127156575
 20
2.566666920979817
 10
1.366666793823242
 20
2.559722476535373
 10
1.361111217074924
 20
2.525000254313151
 10
1.336111174689399
 20
2.547222561306424
 10
1.319444550408257
 20
2.584722518920898
 10
1.283333460489909
 20
2.552778032090929
 10
1.261111259460449
 20
2.533333672417534
 10
1.231944613986545
 20
2.501389185587565
 10
1.219444592793782
 20
2.4750001695421
 10
1.173611217074924
 20
2.497222476535373
 10
1.162500169542101
 20
2.451389100816515
 10
1.14444457160102
 20
2.419444613986545
 10
1.159722328186035
 20
2.405555725097656
 10
1.211111280653212
 20
2.415278116861979
 10
1.222222328186035
 20
2.440277947319878
 10
1.227777904934353
 20
2.423611111111111
 10
1.23750008477105
 20
2.42500008477105
 10
1.252777841356066
 20
2.419444613986545
 10
1.256944550408257
 20
2.429167005750868
 10
1.258333418104384
 20
2.440277947319878
 10
1.262500021192763
 20
2.451389100816515
 10
1.29027779897054
 20
2.427778032090929
 10
1.29027779897054
 20
2.408333672417534
 10
1.338888910081651
 20
2.416666666666667
 10
1.375
 20
2.422222137451172
 10
1.329166730244954
 20
2.454166624281141
 10
1.350000063578288
 20
2.470833248562283
 10
1.356944508022732
 20
2.477777693006727
 10
1.393055597941081
 20
2.427777608235677
 10
1.40694448682997
 20
2.423611111111111
 10
1.408333354526096
 20
2.434722052680121
 10
1.408333354526096
 20
2.447222179836697
 10
1.409722222222222
 20
2.458333333333333
 10
1.426388846503364
 20
2.444444444444444
 10
1.4375
 20
2.415277693006727
 10
1.466666645473904
 20
2.42500008477105
 10
1.5
 20
2.434722476535373
 10
1.462499936421712
 20
2.480555640326606
 10
1.445833312140571
 20
2.486111111111111
 10
1.488888846503364
 20
2.501388973659939
 10
1.483333269755045
 20
2.434722052680121
 10
1.497222158643934
 20
2.415277693006727
 10
1.533333248562283
 20
2.36250008477105
 10
1.522222201029459
 20
2.484722137451172
 10
1.522222201029459
 20
2.488888846503364
 10
1.551388846503364
 20
2.459722095065647
 10
1.549999978807237
 20
2.408333248562283
 10
1.595833354526096
 20
2.448611153496636
 10
1.615277820163303
 20
2.465277777777778
 10
1.630555576748318
 20
2.441666497124566
 10
1.650000042385525
 20
2.466666751437717
 10
1.670833375718858
 20
2.491666793823242
 10
1.654166751437717
 20
2.508333418104383
 10
1.662500063578288
 20
2.534722222222222
 10
1.663888931274414
 20
2.531944486829969
 10
1.691666709052192
 20
2.436111026340061
 10
1.708333439297146
 20
2.472222222222222
 10
1.720833460489909
 20
2.5
 10
1.693055682712131
 20
2.534722222222222
 10
1.708333439297146
 20
2.563888973659939
 10
1.725000063578288
 20
2.543055640326606
 10
1.72916677263048
 20
2.516666836208767
 10
1.740277926127116
 20
2.493055555555555
 10
1.74722237057156
 20
2.473611195882161
 10
1.787500169542101
 20
2.445833418104383
 10
1.795833587646484
 20
2.476388931274414
 10
1.822222391764323
 20
2.461111068725586
 10
1.816666920979818
 20
2.440277947319878
 10
1.855555852254232
 20
2.430555555555555
 10
1.872222476535373
 20
2.473611195882161
 10
1.845833672417535
 20
2.527777777777778
 10
1.863889270358615
 20
2.568055470784505
 10
1.884722603691949
 20
2.549999872843424
 10
1.875000423855252
 20
2.502777735392252
 10
1.872222688462999
 20
2.481944402058919
 10
1.87083371480306
 20
2.470833248562283
 10
1.87083371480306
 20
2.458333333333333
 10
1.87083371480306
 20
2.445833206176758
 10
1.894444783528646
 20
2.444444444444444
 10
1.904166963365343
 20
2.436111026340061
 10
1.913889355129666
 20
2.461111068725586
 10
1.922222773234049
 20
2.48055542839898
 10
1.916667090521918
 20
2.483333375718858
 10
1.936111662122938
 20
2.473610983954535
 10
1.9722228580051
 20
2.456944359673394
 10
1.977778328789605
 20
2.502777735392252
 10
1.98333379957411
 20
2.524999830457899
 10
2.009722603691949
 20
2.51249991522895
 10
1.968055937025282
 20
2.458333121405707
 10
2.018056021796332
 20
2.474999745686849
 10
2.038889355129666
 20
2.481944190131293
 10
2.065278159247504
 20
2.529166327582465
 10
2.065278159247504
 20
2.531944274902344
 10
2.113889270358615
 20
2.508333206176758
 10
2.044444825914171
 20
2.459722095065647
 10
2.079167048136393
 20
2.443055470784505
 10
2.130555894639757
 20
2.418055640326606
 10
2.158333672417535
 20
2.487499872843424
 10
2.184722688462999
 20
2.508333206176758
 10
2.181944953070746
 20
2.481944402058919
 10
2.152778201633029
 20
2.461111068725586
 10
2.18333371480306
 20
2.440277523464627
 10
2.215278201633029
 20
2.423610687255859
 10
2.237500296698676
 20
2.44861094156901
 10
2.262500339084201
 20
2.440277523464627
 10
2.290278116861979
 20
2.433333079020182
 10
2.302778032090929
 20
2.406944274902344
 10
2.334722518920898
 20
2.426388634575738
 10
2.362500296698676
 20
2.443055470784505
 10
2.37083371480306
 20
2.474999745686849
 10
2.394444783528646
 20
2.49305534362793
 10
2.395833757188585
 20
2.459722095065647
 10
2.373611450195312
 20
2.444444444444444
 10
2.409722646077474
 20
2.423611111111111
 10
2.430555979410807
 20
2.416666666666667
 10
2.451389312744141
 20
2.411111195882161
 10
2.473611619737413
 20
2.416666666666667
 10
2.487500508626302
 20
2.419444613986545
 10
2.556944953070746
 20
2.411111195882161
 10
2.554167217678494
 20
2.4375
 10
2.55000008477105
 20
2.46805551317003
 10
2.523611068725586
 20
2.481944402058919
 10
2.497222264607747
 20
2.497222264607747
 97
        0
 97
        0
 75
     2
 76
     1
 98
        0
  0
ENDBLK
  5
65
330
62
100
AcDbEntity
  8
0
100
AcDbBlockEnd
  0
ENDSEC
  0
SECTION
  2
ENTITIES
  0
INSERT
  5
42
330
1F
100
AcDbEntity
  8
Calque 1
100
AcDbBlockReference
  2
block 2
 10
0.0
 20
0.0
 30
0.0
  0
ENDSEC
  0
SECTION
  2
OBJECTS
  0
DICTIONARY
  5
C
330
0
100
AcDbDictionary
281
     1
  3
ACAD_GROUP
350
D
  3
ACAD_LAYOUT
350
1A
  3
ACAD_MATERIAL
350
3B
  3
ACAD_MLEADERSTYLE
350
6B
  3
ACAD_MLINESTYLE
350
17
  3
ACAD_PLOTSETTINGS
350
19
  3
ACAD_PLOTSTYLENAME
350
E
  3
ACAD_TABLESTYLE
350
6A
  3
ACAD_VISUALSTYLE
350
2A
  0
SUN
  5
3F
330
29
100
AcDbSun
 90
        1
290
     0
 63
     7
421
 16777215
 40
1.0
291
     1
 91
  2455826
 92
 54000000
292
     0
 70
     2
 71
   256
280
     1
  0
DICTIONARY
  5
D
102
{ACAD_REACTORS
330
C
102
}
330
C
100
AcDbDictionary
281
     1
  0
DICTIONARY
  5
1A
102
{ACAD_REACTORS
330
C
102
}
330
C
100
AcDbDictionary
281
     1
  3
Layout1
350
1E
  3
Layout2
350
26
  3
Model
350
22
  0
DICTIONARY
  5
3B
102
{ACAD_REACTORS
330
C
102
}
330
C
100
AcDbDictionary
281
     1
  3
ByBlock
350
3D
  3
ByLayer
350
3C
  3
Global
350
3E
  0
DICTIONARY
  5
6B
102
{ACAD_REACTORS
330
C
102
}
330
C
100
AcDbDictionary
281
     1
  0
DICTIONARY
  5
17
102
{ACAD_REACTORS
330
C
102
}
330
C
100
AcDbDictionary
281
     1
  3
Standard
350
18
  0
DICTIONARY
  5
19
102
{ACAD_REACTORS
330
C
102
}
330
C
100
AcDbDictionary
281
     1
  0
ACDBDICTIONARYWDFLT
  5
E
102
{ACAD_REACTORS
330
C
102
}
330
C
100
AcDbDictionary
281
     1
  3
Normal
350
F
100
AcDbDictionaryWithDefault
340
F
  0
DICTIONARY
  5
6A
102
{ACAD_REACTORS
330
C
102
}
330
C
100
AcDbDictionary
281
     1
  0
DICTIONARY
  5
2A
102
{ACAD_REACTORS
330
C
102
}
330
C
100
AcDbDictionary
281
     1
  3
2dWireframe
350
2F
  3
3D Hidden
350
31
  3
3dWireframe
350
30
  3
Basic
350
32
  3
Brighten
350
36
  3
ColorChange
350
3A
  3
Conceptual
350
34
  3
Dim
350
35
  3
Facepattern
350
39
  3
Flat
350
2B
  3
FlatWithEdges
350
2C
  3
Gouraud
350
2D
  3
GouraudWithEdges
350
2E
  3
Linepattern
350
38
  3
Realistic
350
33
  3
Thicken
350
37
  0
LAYOUT
  5
1E
102
{ACAD_REACTORS
330
1A
102
}
330
1A
100
AcDbPlotSettings
  1

  2
none_device
  4

  6

 40
0.0
 41
0.0
 42
0.0
 43
0.0
 44
0.0
 45
0.0
 46
0.0
 47
0.0
 48
0.0
 49
0.0
140
0.0
141
0.0
142
1.0
143
1.0
 70
   688
 72
     0
 73
     0
 74
     5
  7

 75
    16
 76
     0
 77
     2
 78
   300
147
1.0
148
0.0
149
0.0
100
AcDbLayout
  1
Layout1
 70
     1
 71
     1
 10
0.0
 20
0.0
 11
12.0
 21
9.0
 12
0.0
 22
0.0
 32
0.0
 14
1.000000000000000E+20
 24
1.000000000000000E+20
 34
1.000000000000000E+20
 15
-1.000000000000000E+20
 25
-1.000000000000000E+20
 35
-1.000000000000000E+20
146
0.0
 13
0.0
 23
0.0
 33
0.0
 16
1.0
 26
0.0
 36
0.0
 17
0.0
 27
1.0
 37
0.0
 76
     0
330
1B
  0
LAYOUT
  5
26
102
{ACAD_REACTORS
330
1A
102
}
330
1A
100
AcDbPlotSettings
  1

  2
none_device
  4

  6

 40
0.0
 41
0.0
 42
0.0
 43
0.0
 44
0.0
 45
0.0
 46
0.0
 47
0.0
 48
0.0
 49
0.0
140
0.0
141
0.0
142
1.0
143
1.0
 70
   688
 72
     0
 73
     0
 74
     5
  7

 75
    16
 76
     0
 77
     2
 78
   300
147
1.0
148
0.0
149
0.0
100
AcDbLayout
  1
Layout2
 70
     1
 71
     2
 10
0.0
 20
0.0
 11
0.0
 21
0.0
 12
0.0
 22
0.0
 32
0.0
 14
0.0
 24
0.0
 34
0.0
 15
0.0
 25
0.0
 35
0.0
146
0.0
 13
0.0
 23
0.0
 33
0.0
 16
1.0
 26
0.0
 36
0.0
 17
0.0
 27
1.0
 37
0.0
 76
     0
330
23
  0
LAYOUT
  5
22
102
{ACAD_REACTORS
330
1A
102
}
330
1A
100
AcDbPlotSettings
  1

  2
none_device
  4

  6

 40
0.0
 41
0.0
 42
0.0
 43
0.0
 44
0.0
 45
0.0
 46
0.0
 47
0.0
 48
0.0
 49
0.0
140
0.0
141
0.0
142
1.0
143
1.0
 70
  1712
 72
     0
 73
     0
 74
     0
  7

 75
     0
 76
     0
 77
     2
 78
   300
147
1.0
148
0.0
149
0.0
100
AcDbLayout
  1
Model
 70
     1
 71
     0
 10
0.0
 20
0.0
 11
12.0
 21
9.0
 12
0.0
 22
0.0
 32
0.0
 14
1.000000000000000E+20
 24
1.000000000000000E+20
 34
1.000000000000000E+20
 15
-1.000000000000000E+20
 25
-1.000000000000000E+20
 35
-1.000000000000000E+20
146
0.0
 13
0.0
 23
0.0
 33
0.0
 16
1.0
 26
0.0
 36
0.0
 17
0.0
 27
1.0
 37
0.0
 76
     0
330
1F
331
29
  0
MATERIAL
  5
3D
102
{ACAD_REACTORS
330
3B
102
}
330
3B
100
AcDbMaterial
  1
ByBlock
 72
     1
 94
      127
  0
MATERIAL
  5
3C
102
{ACAD_REACTORS
330
3B
102
}
330
3B
100
AcDbMaterial
  1
ByLayer
 72
     1
 94
      127
  0
MATERIAL
  5
3E
102
{ACAD_REACTORS
330
3B
102
}
330
3B
100
AcDbMaterial
  1
Global
 72
     1
 94
      127
  0
MLINESTYLE
  5
18
102
{ACAD_REACTORS
330
17
102
}
330
17
100
AcDbMlineStyle
  2
Standard
 70
     0
  3

 62
   256
 51
90.0
 52
90.0
 71
     2
 49
0.5
 62
   256
  6
BYLAYER
 49
-0.5
 62
   256
  6
BYLAYER
  0
ACDBPLACEHOLDER
  5
F
102
{ACAD_REACTORS
330
E
102
}
330
E
  0
VISUALSTYLE
  5
2F
102
{ACAD_REACTORS
330
2A
102
}
330
2A
100
AcDbVisualStyle
  2
2dWireframe
 70
     4
177
     2
291
     0
 71
     0
176
     1
 72
     2
176
     1
 73
     0
176
     1
 90
        0
176
     1
 40
-0.6
176
     1
 41
-30.0
176
     1
 62
     5
 63
     7
421
 16777215
176
     1
 74
     1
176
     1
 91
        4
176
     1
 64
     7
176
     1
 65
   257
176
     1
 75
     1
176
     1
175
     1
176
     1
 42
1.0
176
     1
 92
        0
176
     1
 66
   257
176
     1
 43
1.0
176
     1
 76
     1
176
     1
 77
     6
176
     1
 78
     2
176
     1
 67
     7
176
     1
 79
     5
176
     1
170
     0
176
     1
171
     0
176
     1
290
     0
176
     1
 93
        1
176
     1
 44
0.0
176
     1
173
     0
176
     1
  0
VISUALSTYLE
  5
31
102
{ACAD_REACTORS
330
2A
102
}
330
2A
100
AcDbVisualStyle
  2
3D Hidden
 70
     6
177
     2
291
     0
 71
     1
176
     1
 72
     2
176
     1
 73
     2
176
     1
 90
        0
176
     1
 40
-0.6
176
     1
 41
-30.0
176
     1
 62
     5
 63
     7
421
 16777215
176
     1
 74
     2
176
     1
 91
        2
176
     1
 64
     7
176
     1
 65
   257
176
     1
 75
     2
176
     1
175
     1
176
     1
 42
40.0
176
     1
 92
        0
176
     1
 66
   257
176
     1
 43
1.0
176
     1
 76
     1
176
     1
 77
     6
176
     1
 78
     2
176
     1
 67
     7
176
     1
 79
     3
176
     1
170
     0
176
     1
171
     0
176
     1
290
     0
176
     1
 93
        1
176
     1
 44
0.0
176
     1
173
     0
176
     1
  0
VISUALSTYLE
  5
30
102
{ACAD_REACTORS
330
2A
102
}
330
2A
100
AcDbVisualStyle
  2
3dWireframe
 70
     5
177
     2
291
     0
 71
     0
176
     1
 72
     2
176
     1
 73
     0
176
     1
 90
        0
176
     1
 40
-0.6
176
     1
 41
-30.0
176
     1
 62
     5
 63
     7
421
 16777215
176
     1
 74
     1
176
     1
 91
        4
176
     1
 64
     7
176
     1
 65
   257
176
     1
 75
     1
176
     1
175
     1
176
     1
 42
1.0
176
     1
 92
        0
176
     1
 66
   257
176
     1
 43
1.0
176
     1
 76
     1
176
     1
 77
     6
176
     1
 78
     2
176
     1
 67
     7
176
     1
 79
     5
176
     1
170
     0
176
     1
171
     0
176
     1
290
     0
176
     1
 93
        1
176
     1
 44
0.0
176
     1
173
     0
176
     1
  0
VISUALSTYLE
  5
32
102
{ACAD_REACTORS
330
2A
102
}
330
2A
100
AcDbVisualStyle
  2
Basic
 70
     7
177
     2
291
     1
 71
     1
176
     1
 72
     0
176
     1
 73
     1
176
     1
 90
        0
176
     1
 40
-0.6
176
     1
 41
-30.0
176
     1
 62
     5
 63
     7
421
 16777215
176
     1
 74
     0
176
     1
 91
        4
176
     1
 64
     7
176
     1
 65
   257
176
     1
 75
     1
176
     1
175
     1
176
     1
 42
1.0
176
     1
 92
        8
176
     1
 66
     7
176
     1
 43
1.0
176
     1
 76
     1
176
     1
 77
     6
176
     1
 78
     2
176
     1
 67
     7
176
     1
 79
     5
176
     1
170
     0
176
     1
171
     0
176
     1
290
     0
176
     1
 93
        1
176
     1
 44
0.0
176
     1
173
     0
176
     1
  0
VISUALSTYLE
  5
36
102
{ACAD_REACTORS
330
2A
102
}
330
2A
100
AcDbVisualStyle
  2
Brighten
 70
    12
177
     2
291
     1
 71
     2
176
     1
 72
     2
176
     1
 73
     0
176
     1
 90
        0
176
     1
 40
-0.6
176
     1
 41
-30.0
176
     1
 62
     5
 63
     7
421
 16777215
176
     1
 74
     1
176
     1
 91
        4
176
     1
 64
     7
176
     1
 65
   257
176
     1
 75
     1
176
     1
175
     1
176
     1
 42
1.0
176
     1
 92
        8
176
     1
 66
     7
176
     1
 43
1.0
176
     1
 76
     1
176
     1
 77
     6
176
     1
 78
     2
176
     1
 67
     7
176
     1
 79
     5
176
     1
170
     0
176
     1
171
     0
176
     1
290
     0
176
     1
 93
        1
176
     1
 44
50.0
176
     1
173
     0
176
     1
  0
VISUALSTYLE
  5
3A
102
{ACAD_REACTORS
330
2A
102
}
330
2A
100
AcDbVisualStyle
  2
ColorChange
 70
    16
177
     2
291
     1
 71
     2
176
     1
 72
     2
176
     1
 73
     3
176
     1
 90
        0
176
     1
 40
-0.6
176
     1
 41
-30.0
176
     1
 62
     5
 63
     8
421
  8421504
176
     1
 74
     1
176
     1
 91
        4
176
     1
 64
     7
176
     1
 65
   257
176
     1
 75
     1
176
     1
175
     1
176
     1
 42
1.0
176
     1
 92
        8
176
     1
 66
     8
424
  8421504
176
     1
 43
1.0
176
     1
 76
     1
176
     1
 77
     6
176
     1
 78
     2
176
     1
 67
     7
176
     1
 79
     5
176
     1
170
     0
176
     1
171
     0
176
     1
290
     0
176
     1
 93
        1
176
     1
 44
0.0
176
     1
173
     0
176
     1
  0
VISUALSTYLE
  5
34
102
{ACAD_REACTORS
330
2A
102
}
330
2A
100
AcDbVisualStyle
  2
Conceptual
 70
     9
177
     2
291
     0
 71
     3
176
     1
 72
     2
176
     1
 73
     0
176
     1
 90
        0
176
     1
 40
-0.6
176
     1
 41
-30.0
176
     1
 62
     5
 63
     7
421
 16777215
176
     1
 74
     2
176
     1
 91
        2
176
     1
 64
     7
176
     1
 65
   257
176
     1
 75
     1
176
     1
175
     1
176
     1
 42
40.0
176
     1
 92
        8
176
     1
 66
     7
176
     1
 43
1.0
176
     1
 76
     1
176
     1
 77
     6
176
     1
 78
     2
176
     1
 67
     7
176
     1
 79
     3
176
     1
170
     0
176
     1
171
     0
176
     1
290
     0
176
     1
 93
        1
176
     1
 44
0.0
176
     1
173
     0
176
     1
  0
VISUALSTYLE
  5
35
102
{ACAD_REACTORS
330
2A
102
}
330
2A
100
AcDbVisualStyle
  2
Dim
 70
    11
177
     2
291
     1
 71
     2
176
     1
 72
     2
176
     1
 73
     0
176
     1
 90
        0
176
     1
 40
-0.6
176
     1
 41
-30.0
176
     1
 62
     5
 63
     7
421
 16777215
176
     1
 74
     1
176
     1
 91
        4
176
     1
 64
     7
176
     1
 65
   257
176
     1
 75
     1
176
     1
175
     1
176
     1
 42
1.0
176
     1
 92
        8
176
     1
 66
     7
176
     1
 43
1.0
176
     1
 76
     1
176
     1
 77
     6
176
     1
 78
     2
176
     1
 67
     7
176
     1
 79
     5
176
     1
170
     0
176
     1
171
     0
176
     1
290
     0
176
     1
 93
        1
176
     1
 44
-50.0
176
     1
173
     0
176
     1
  0
VISUALSTYLE
  5
39
102
{ACAD_REACTORS
330
2A
102
}
330
2A
100
AcDbVisualStyle
  2
Facepattern
 70
    15
177
     2
291
     1
 71
     2
176
     1
 72
     2
176
     1
 73
     0
176
     1
 90
        0
176
     1
 40
-0.6
176
     1
 41
-30.0
176
     1
 62
     5
 63
     7
421
 16777215
176
     1
 74
     1
176
     1
 91
        4
176
     1
 64
     7
176
     1
 65
   257
176
     1
 75
     1
176
     1
175
     1
176
     1
 42
1.0
176
     1
 92
        8
176
     1
 66
     7
176
     1
 43
1.0
176
     1
 76
     1
176
     1
 77
     6
176
     1
 78
     2
176
     1
 67
     7
176
     1
 79
     5
176
     1
170
     0
176
     1
171
     0
176
     1
290
     0
176
     1
 93
        1
176
     1
 44
0.0
176
     1
173
     0
176
     1
  0
VISUALSTYLE
  5
2B
102
{ACAD_REACTORS
330
2A
102
}
330
2A
100
AcDbVisualStyle
  2
Flat
 70
     0
177
     2
291
     1
 71
     2
176
     1
 72
     1
176
     1
 73
     1
176
     1
 90
        2
176
     1
 40
-0.6
176
     1
 41
30.0
176
     1
 62
     5
 63
     7
421
 16777215
176
     1
 74
     0
176
     1
 91
        4
176
     1
 64
     7
176
     1
 65
   257
176
     1
 75
     1
176
     1
175
     1
176
     1
 42
1.0
176
     1
 92
        8
176
     1
 66
     7
176
     1
 43
1.0
176
     1
 76
     1
176
     1
 77
     6
176
     1
 78
     2
176
     1
 67
     7
176
     1
 79
     5
176
     1
170
     0
176
     1
171
     0
176
     1
290
     0
176
     1
 93
       13
176
     1
 44
0.0
176
     1
173
     0
176
     1
  0
VISUALSTYLE
  5
2C
102
{ACAD_REACTORS
330
2A
102
}
330
2A
100
AcDbVisualStyle
  2
FlatWithEdges
 70
     1
177
     2
291
     1
 71
     2
176
     1
 72
     1
176
     1
 73
     1
176
     1
 90
        2
176
     1
 40
-0.6
176
     1
 41
30.0
176
     1
 62
     5
 63
     7
421
 16777215
176
     1
 74
     1
176
     1
 91
        4
176
     1
 64
     7
176
     1
 65
   257
176
     1
 75
     1
176
     1
175
     1
176
     1
 42
1.0
176
     1
 92
        0
176
     1
 66
   257
176
     1
 43
1.0
176
     1
 76
     1
176
     1
 77
     6
176
     1
 78
     2
176
     1
 67
     7
176
     1
 79
     5
176
     1
170
     0
176
     1
171
     0
176
     1
290
     0
176
     1
 93
       13
176
     1
 44
0.0
176
     1
173
     0
176
     1
  0
VISUALSTYLE
  5
2D
102
{ACAD_REACTORS
330
2A
102
}
330
2A
100
AcDbVisualStyle
  2
Gouraud
 70
     2
177
     2
291
     1
 71
     2
176
     1
 72
     2
176
     1
 73
     1
176
     1
 90
        2
176
     1
 40
-0.6
176
     1
 41
30.0
176
     1
 62
     5
 63
     7
421
 16777215
176
     1
 74
     0
176
     1
 91
        4
176
     1
 64
     7
176
     1
 65
   257
176
     1
 75
     1
176
     1
175
     1
176
     1
 42
1.0
176
     1
 92
        0
176
     1
 66
     7
176
     1
 43
1.0
176
     1
 76
     1
176
     1
 77
     6
176
     1
 78
     2
176
     1
 67
     7
176
     1
 79
     5
176
     1
170
     0
176
     1
171
     0
176
     1
290
     0
176
     1
 93
       13
176
     1
 44
0.0
176
     1
173
     0
176
     1
  0
VISUALSTYLE
  5
2E
102
{ACAD_REACTORS
330
2A
102
}
330
2A
100
AcDbVisualStyle
  2
GouraudWithEdges
 70
     3
177
     2
291
     1
 71
     2
176
     1
 72
     2
176
     1
 73
     1
176
     1
 90
        2
176
     1
 40
-0.6
176
     1
 41
30.0
176
     1
 62
     5
 63
     7
421
 16777215
176
     1
 74
     1
176
     1
 91
        4
176
     1
 64
     7
176
     1
 65
   257
176
     1
 75
     1
176
     1
175
     1
176
     1
 42
1.0
176
     1
 92
        0
176
     1
 66
   257
176
     1
 43
1.0
176
     1
 76
     1
176
     1
 77
     6
176
     1
 78
     2
176
     1
 67
     7
176
     1
 79
     5
176
     1
170
     0
176
     1
171
     0
176
     1
290
     0
176
     1
 93
       13
176
     1
 44
0.0
176
     1
173
     0
176
     1
  0
VISUALSTYLE
  5
38
102
{ACAD_REACTORS
330
2A
102
}
330
2A
100
AcDbVisualStyle
  2
Linepattern
 70
    14
177
     2
291
     1
 71
     2
176
     1
 72
     2
176
     1
 73
     0
176
     1
 90
        0
176
     1
 40
-0.6
176
     1
 41
-30.0
176
     1
 62
     5
 63
     7
421
 16777215
176
     1
 74
     1
176
     1
 91
        4
176
     1
 64
     7
176
     1
 65
   257
176
     1
 75
     7
176
     1
175
     7
176
     1
 42
1.0
176
     1
 92
        8
176
     1
 66
     7
176
     1
 43
1.0
176
     1
 76
     1
176
     1
 77
     6
176
     1
 78
     2
176
     1
 67
     7
176
     1
 79
     5
176
     1
170
     0
176
     1
171
     0
176
     1
290
     0
176
     1
 93
        1
176
     1
 44
0.0
176
     1
173
     0
176
     1
  0
VISUALSTYLE
  5
33
102
{ACAD_REACTORS
330
2A
102
}
330
2A
100
AcDbVisualStyle
  2
Realistic
 70
     8
177
     2
291
     0
 71
     2
176
     1
 72
     2
176
     1
 73
     0
176
     1
 90
        0
176
     1
 40
-0.6
176
     1
 41
-30.0
176
     1
 62
     5
 63
     7
421
 16777215
176
     1
 74
     1
176
     1
 91
        0
176
     1
 64
     7
176
     1
 65
   257
176
     1
 75
     1
176
     1
175
     1
176
     1
 42
1.0
176
     1
 92
        8
176
     1
 66
     8
424
  7895160
176
     1
 43
1.0
176
     1
 76
     1
176
     1
 77
     6
176
     1
 78
     2
176
     1
 67
     7
176
     1
 79
     5
176
     1
170
     0
176
     1
171
     0
176
     1
290
     0
176
     1
 93
       13
176
     1
 44
0.0
176
     1
173
     0
176
     1
  0
VISUALSTYLE
  5
37
102
{ACAD_REACTORS
330
2A
102
}
330
2A
100
AcDbVisualStyle
  2
Thicken
 70
    13
177
     2
291
     1
 71
     2
176
     1
 72
     2
176
     1
 73
     0
176
     1
 90
        0
176
     1
 40
-0.6
176
     1
 41
-30.0
176
     1
 62
     5
 63
     7
421
 16777215
176
     1
 74
     1
176
     1
 91
        4
176
     1
 64
     7
176
     1
 65
   257
176
     1
 75
     1
176
     1
175
     1
176
     1
 42
1.0
176
     1
 92
       12
176
     1
 66
     7
176
     1
 43
1.0
176
     1
 76
     1
176
     1
 77
     6
176
     1
 78
     2
176
     1
 67
     7
176
     1
 79
     5
176
     1
170
     0
176
     1
171
     0
176
     1
290
     0
176
     1
 93
        1
176
     1
 44
0.0
176
     1
173
     0
176
     1
  0
ENDSEC
  0
EOF
